<svg xmlns="http://www.w3.org/2000/svg" viewBox="0 0 1740.5 1153"><title>checkerboard</title><g id="Layer_2" data-name="Layer 2"><g id="Layer_10" data-name="Layer 10"><rect x="0.5" y="0.5" width="72" height="72" fill="none" stroke="#231f20" stroke-miterlimit="10"/><rect x="73" y="0.5" width="72" height="72" fill="none" stroke="#231f20" stroke-miterlimit="10"/><rect x="145.5" y="0.5" width="72" height="72" fill="none" stroke="#231f20" stroke-miterlimit="10"/><rect x="218" y="0.5" width="72" height="72" fill="none" stroke="#231f20" stroke-miterlimit="10"/><rect x="290.5" y="0.5" width="72" height="72" fill="none" stroke="#231f20" stroke-miterlimit="10"/><rect x="363" y="0.5" width="72" height="72" fill="none" stroke="#231f20" stroke-miterlimit="10"/><rect x="435.5" y="0.5" width="72" height="72" fill="none" stroke="#231f20" stroke-miterlimit="10"/><rect x="508" y="0.5" width="72" height="72" fill="none" stroke="#231f20" stroke-miterlimit="10"/><rect x="0.5" y="72.5" width="72" height="72" fill="none" stroke="#231f20" stroke-miterlimit="10"/><rect x="73" y="72.5" width="72" height="72" fill="none" stroke="#231f20" stroke-miterlimit="10"/><rect x="145.5" y="72.5" width="72" height="72" fill="none" stroke="#231f20" stroke-miterlimit="10"/><rect x="218" y="72.5" width="72" height="72" fill="none" stroke="#231f20" stroke-miterlimit="10"/><rect x="290.5" y="72.5" width="72" height="72" fill="none" stroke="#231f20" stroke-miterlimit="10"/><rect x="363" y="72.5" width="72" height="72" fill="none" stroke="#231f20" stroke-miterlimit="10"/><rect x="435.5" y="72.5" width="72" height="72" fill="none" stroke="#231f20" stroke-miterlimit="10"/><rect x="508" y="72.5" width="72" height="72" fill="none" stroke="#231f20" stroke-miterlimit="10"/><rect x="0.5" y="144.5" width="72" height="72" fill="none" stroke="#231f20" stroke-miterlimit="10"/><rect x="73" y="144.5" width="72" height="72" fill="none" stroke="#231f20" stroke-miterlimit="10"/><rect x="145.5" y="144.5" width="72" height="72" fill="none" stroke="#231f20" stroke-miterlimit="10"/><rect x="218" y="144.5" width="72" height="72" fill="none" stroke="#231f20" stroke-miterlimit="10"/><rect x="290.5" y="144.5" width="72" height="72" fill="none" stroke="#231f20" stroke-miterlimit="10"/><rect x="363" y="144.5" width="72" height="72" fill="none" stroke="#231f20" stroke-miterlimit="10"/><rect x="435.5" y="144.5" width="72" height="72" fill="none" stroke="#231f20" stroke-miterlimit="10"/><rect x="508" y="144.5" width="72" height="72" fill="none" stroke="#231f20" stroke-miterlimit="10"/><rect x="0.5" y="216.5" width="72" height="72" fill="none" stroke="#231f20" stroke-miterlimit="10"/><rect x="73" y="216.5" width="72" height="72" fill="none" stroke="#231f20" stroke-miterlimit="10"/><rect x="145.5" y="216.5" width="72" height="72" fill="none" stroke="#231f20" stroke-miterlimit="10"/><rect x="218" y="216.5" width="72" height="72" fill="none" stroke="#231f20" stroke-miterlimit="10"/><rect x="290.5" y="216.5" width="72" height="72" fill="none" stroke="#231f20" stroke-miterlimit="10"/><rect x="363" y="216.5" width="72" height="72" fill="none" stroke="#231f20" stroke-miterlimit="10"/><rect x="435.5" y="216.5" width="72" height="72" fill="none" stroke="#231f20" stroke-miterlimit="10"/><rect x="508" y="216.5" width="72" height="72" fill="none" stroke="#231f20" stroke-miterlimit="10"/><rect x="0.5" y="288.5" width="72" height="72" fill="none" stroke="#231f20" stroke-miterlimit="10"/><rect x="73" y="288.5" width="72" height="72" fill="none" stroke="#231f20" stroke-miterlimit="10"/><rect x="145.5" y="288.5" width="72" height="72" fill="none" stroke="#231f20" stroke-miterlimit="10"/><rect x="218" y="288.5" width="72" height="72" fill="none" stroke="#231f20" stroke-miterlimit="10"/><rect x="290.5" y="288.5" width="72" height="72" fill="none" stroke="#231f20" stroke-miterlimit="10"/><rect x="363" y="288.5" width="72" height="72" fill="none" stroke="#231f20" stroke-miterlimit="10"/><rect x="435.5" y="288.5" width="72" height="72" fill="none" stroke="#231f20" stroke-miterlimit="10"/><rect x="508" y="288.5" width="72" height="72" fill="none" stroke="#231f20" stroke-miterlimit="10"/><rect x="0.5" y="360.5" width="72" height="72" fill="none" stroke="#231f20" stroke-miterlimit="10"/><rect x="73" y="360.5" width="72" height="72" fill="none" stroke="#231f20" stroke-miterlimit="10"/><rect x="145.5" y="360.5" width="72" height="72" fill="none" stroke="#231f20" stroke-miterlimit="10"/><rect x="218" y="360.5" width="72" height="72" fill="none" stroke="#231f20" stroke-miterlimit="10"/><rect x="290.5" y="360.5" width="72" height="72" fill="none" stroke="#231f20" stroke-miterlimit="10"/><rect x="363" y="360.5" width="72" height="72" fill="none" stroke="#231f20" stroke-miterlimit="10"/><rect x="435.5" y="360.5" width="72" height="72" fill="none" stroke="#231f20" stroke-miterlimit="10"/><rect x="508" y="360.5" width="72" height="72" fill="none" stroke="#231f20" stroke-miterlimit="10"/><rect x="0.5" y="432.5" width="72" height="72" fill="none" stroke="#231f20" stroke-miterlimit="10"/><rect x="73" y="432.5" width="72" height="72" fill="none" stroke="#231f20" stroke-miterlimit="10"/><rect x="145.5" y="432.5" width="72" height="72" fill="none" stroke="#231f20" stroke-miterlimit="10"/><rect x="218" y="432.5" width="72" height="72" fill="none" stroke="#231f20" stroke-miterlimit="10"/><rect x="290.5" y="432.5" width="72" height="72" fill="none" stroke="#231f20" stroke-miterlimit="10"/><rect x="363" y="432.5" width="72" height="72" fill="none" stroke="#231f20" stroke-miterlimit="10"/><rect x="435.5" y="432.5" width="72" height="72" fill="none" stroke="#231f20" stroke-miterlimit="10"/><rect x="508" y="432.5" width="72" height="72" fill="none" stroke="#231f20" stroke-miterlimit="10"/><rect x="0.5" y="504.5" width="72" height="72" fill="none" stroke="#231f20" stroke-miterlimit="10"/><rect x="73" y="504.5" width="72" height="72" fill="none" stroke="#231f20" stroke-miterlimit="10"/><rect x="145.5" y="504.5" width="72" height="72" fill="none" stroke="#231f20" stroke-miterlimit="10"/><rect x="218" y="504.5" width="72" height="72" fill="none" stroke="#231f20" stroke-miterlimit="10"/><rect x="290.5" y="504.5" width="72" height="72" fill="none" stroke="#231f20" stroke-miterlimit="10"/><rect x="363" y="504.5" width="72" height="72" fill="none" stroke="#231f20" stroke-miterlimit="10"/><rect x="435.5" y="504.5" width="72" height="72" fill="none" stroke="#231f20" stroke-miterlimit="10"/><rect x="508" y="504.5" width="72" height="72" fill="none" stroke="#231f20" stroke-miterlimit="10"/><rect x="580.5" y="0.5" width="72" height="72" fill="none" stroke="#231f20" stroke-miterlimit="10"/><rect x="653" y="0.5" width="72" height="72" fill="none" stroke="#231f20" stroke-miterlimit="10"/><rect x="725.5" y="0.5" width="72" height="72" fill="none" stroke="#231f20" stroke-miterlimit="10"/><rect x="798" y="0.5" width="72" height="72" fill="none" stroke="#231f20" stroke-miterlimit="10"/><rect x="870.5" y="0.5" width="72" height="72" fill="none" stroke="#231f20" stroke-miterlimit="10"/><rect x="943" y="0.5" width="72" height="72" fill="none" stroke="#231f20" stroke-miterlimit="10"/><rect x="1015.5" y="0.5" width="72" height="72" fill="none" stroke="#231f20" stroke-miterlimit="10"/><rect x="1088" y="0.5" width="72" height="72" fill="none" stroke="#231f20" stroke-miterlimit="10"/><rect x="580.5" y="72.5" width="72" height="72" fill="none" stroke="#231f20" stroke-miterlimit="10"/><rect x="653" y="72.5" width="72" height="72" fill="none" stroke="#231f20" stroke-miterlimit="10"/><rect x="725.5" y="72.5" width="72" height="72" fill="none" stroke="#231f20" stroke-miterlimit="10"/><rect x="798" y="72.5" width="72" height="72" fill="none" stroke="#231f20" stroke-miterlimit="10"/><rect x="870.5" y="72.5" width="72" height="72" fill="none" stroke="#231f20" stroke-miterlimit="10"/><rect x="943" y="72.5" width="72" height="72" fill="none" stroke="#231f20" stroke-miterlimit="10"/><rect x="1015.5" y="72.5" width="72" height="72" fill="none" stroke="#231f20" stroke-miterlimit="10"/><rect x="1088" y="72.5" width="72" height="72" fill="none" stroke="#231f20" stroke-miterlimit="10"/><rect x="580.5" y="144.5" width="72" height="72" fill="none" stroke="#231f20" stroke-miterlimit="10"/><rect x="653" y="144.5" width="72" height="72" fill="none" stroke="#231f20" stroke-miterlimit="10"/><rect x="725.5" y="144.5" width="72" height="72" fill="none" stroke="#231f20" stroke-miterlimit="10"/><rect x="798" y="144.5" width="72" height="72" fill="none" stroke="#231f20" stroke-miterlimit="10"/><rect x="870.5" y="144.5" width="72" height="72" fill="none" stroke="#231f20" stroke-miterlimit="10"/><rect x="943" y="144.5" width="72" height="72" fill="none" stroke="#231f20" stroke-miterlimit="10"/><rect x="1015.5" y="144.5" width="72" height="72" fill="none" stroke="#231f20" stroke-miterlimit="10"/><rect x="1088" y="144.5" width="72" height="72" fill="none" stroke="#231f20" stroke-miterlimit="10"/><rect x="580.5" y="216.5" width="72" height="72" fill="none" stroke="#231f20" stroke-miterlimit="10"/><rect x="653" y="216.5" width="72" height="72" fill="none" stroke="#231f20" stroke-miterlimit="10"/><rect x="725.5" y="216.5" width="72" height="72" fill="none" stroke="#231f20" stroke-miterlimit="10"/><rect x="798" y="216.5" width="72" height="72" fill="none" stroke="#231f20" stroke-miterlimit="10"/><rect x="870.5" y="216.5" width="72" height="72" fill="none" stroke="#231f20" stroke-miterlimit="10"/><rect x="943" y="216.5" width="72" height="72" fill="none" stroke="#231f20" stroke-miterlimit="10"/><rect x="1015.5" y="216.5" width="72" height="72" fill="none" stroke="#231f20" stroke-miterlimit="10"/><rect x="1088" y="216.5" width="72" height="72" fill="none" stroke="#231f20" stroke-miterlimit="10"/><rect x="580.5" y="288.5" width="72" height="72" fill="none" stroke="#231f20" stroke-miterlimit="10"/><rect x="653" y="288.5" width="72" height="72" fill="none" stroke="#231f20" stroke-miterlimit="10"/><rect x="725.5" y="288.5" width="72" height="72" fill="none" stroke="#231f20" stroke-miterlimit="10"/><rect x="798" y="288.5" width="72" height="72" fill="none" stroke="#231f20" stroke-miterlimit="10"/><rect x="870.5" y="288.5" width="72" height="72" fill="none" stroke="#231f20" stroke-miterlimit="10"/><rect x="943" y="288.5" width="72" height="72" fill="none" stroke="#231f20" stroke-miterlimit="10"/><rect x="1015.5" y="288.5" width="72" height="72" fill="none" stroke="#231f20" stroke-miterlimit="10"/><rect x="1088" y="288.5" width="72" height="72" fill="none" stroke="#231f20" stroke-miterlimit="10"/><rect x="580.5" y="360.5" width="72" height="72" fill="none" stroke="#231f20" stroke-miterlimit="10"/><rect x="653" y="360.5" width="72" height="72" fill="none" stroke="#231f20" stroke-miterlimit="10"/><rect x="725.5" y="360.5" width="72" height="72" fill="none" stroke="#231f20" stroke-miterlimit="10"/><rect x="798" y="360.5" width="72" height="72" fill="none" stroke="#231f20" stroke-miterlimit="10"/><rect x="870.5" y="360.5" width="72" height="72" fill="none" stroke="#231f20" stroke-miterlimit="10"/><rect x="943" y="360.5" width="72" height="72" fill="none" stroke="#231f20" stroke-miterlimit="10"/><rect x="1015.5" y="360.5" width="72" height="72" fill="none" stroke="#231f20" stroke-miterlimit="10"/><rect x="1088" y="360.5" width="72" height="72" fill="none" stroke="#231f20" stroke-miterlimit="10"/><rect x="580.5" y="432.5" width="72" height="72" fill="none" stroke="#231f20" stroke-miterlimit="10"/><rect x="653" y="432.5" width="72" height="72" fill="none" stroke="#231f20" stroke-miterlimit="10"/><rect x="725.5" y="432.5" width="72" height="72" fill="none" stroke="#231f20" stroke-miterlimit="10"/><rect x="798" y="432.5" width="72" height="72" fill="none" stroke="#231f20" stroke-miterlimit="10"/><rect x="870.5" y="432.5" width="72" height="72" fill="none" stroke="#231f20" stroke-miterlimit="10"/><rect x="943" y="432.5" width="72" height="72" fill="none" stroke="#231f20" stroke-miterlimit="10"/><rect x="1015.5" y="432.5" width="72" height="72" fill="none" stroke="#231f20" stroke-miterlimit="10"/><rect x="1088" y="432.5" width="72" height="72" fill="none" stroke="#231f20" stroke-miterlimit="10"/><rect x="580.5" y="504.5" width="72" height="72" fill="none" stroke="#231f20" stroke-miterlimit="10"/><rect x="653" y="504.5" width="72" height="72" fill="none" stroke="#231f20" stroke-miterlimit="10"/><rect x="725.5" y="504.5" width="72" height="72" fill="none" stroke="#231f20" stroke-miterlimit="10"/><rect x="798" y="504.5" width="72" height="72" fill="none" stroke="#231f20" stroke-miterlimit="10"/><rect x="870.5" y="504.5" width="72" height="72" fill="none" stroke="#231f20" stroke-miterlimit="10"/><rect x="943" y="504.5" width="72" height="72" fill="none" stroke="#231f20" stroke-miterlimit="10"/><rect x="1015.5" y="504.5" width="72" height="72" fill="none" stroke="#231f20" stroke-miterlimit="10"/><rect x="1088" y="504.5" width="72" height="72" fill="none" stroke="#231f20" stroke-miterlimit="10"/><rect x="1160.5" y="0.5" width="72" height="72" fill="none" stroke="#231f20" stroke-miterlimit="10"/><rect x="1233" y="0.5" width="72" height="72" fill="none" stroke="#231f20" stroke-miterlimit="10"/><rect x="1305.5" y="0.5" width="72" height="72" fill="none" stroke="#231f20" stroke-miterlimit="10"/><rect x="1378" y="0.5" width="72" height="72" fill="none" stroke="#231f20" stroke-miterlimit="10"/><rect x="1450.5" y="0.5" width="72" height="72" fill="none" stroke="#231f20" stroke-miterlimit="10"/><rect x="1523" y="0.5" width="72" height="72" fill="none" stroke="#231f20" stroke-miterlimit="10"/><rect x="1595.5" y="0.5" width="72" height="72" fill="none" stroke="#231f20" stroke-miterlimit="10"/><rect x="1668" y="0.5" width="72" height="72" fill="none" stroke="#231f20" stroke-miterlimit="10"/><rect x="1160.5" y="72.5" width="72" height="72" fill="none" stroke="#231f20" stroke-miterlimit="10"/><rect x="1233" y="72.5" width="72" height="72" fill="none" stroke="#231f20" stroke-miterlimit="10"/><rect x="1305.5" y="72.5" width="72" height="72" fill="none" stroke="#231f20" stroke-miterlimit="10"/><rect x="1378" y="72.5" width="72" height="72" fill="none" stroke="#231f20" stroke-miterlimit="10"/><rect x="1450.5" y="72.5" width="72" height="72" fill="none" stroke="#231f20" stroke-miterlimit="10"/><rect x="1523" y="72.5" width="72" height="72" fill="none" stroke="#231f20" stroke-miterlimit="10"/><rect x="1595.5" y="72.5" width="72" height="72" fill="none" stroke="#231f20" stroke-miterlimit="10"/><rect x="1668" y="72.5" width="72" height="72" fill="none" stroke="#231f20" stroke-miterlimit="10"/><rect x="1160.5" y="144.5" width="72" height="72" fill="none" stroke="#231f20" stroke-miterlimit="10"/><rect x="1233" y="144.5" width="72" height="72" fill="none" stroke="#231f20" stroke-miterlimit="10"/><rect x="1305.5" y="144.5" width="72" height="72" fill="none" stroke="#231f20" stroke-miterlimit="10"/><rect x="1378" y="144.5" width="72" height="72" fill="none" stroke="#231f20" stroke-miterlimit="10"/><rect x="1450.5" y="144.5" width="72" height="72" fill="none" stroke="#231f20" stroke-miterlimit="10"/><rect x="1523" y="144.5" width="72" height="72" fill="none" stroke="#231f20" stroke-miterlimit="10"/><rect x="1595.5" y="144.5" width="72" height="72" fill="none" stroke="#231f20" stroke-miterlimit="10"/><rect x="1668" y="144.5" width="72" height="72" fill="none" stroke="#231f20" stroke-miterlimit="10"/><rect x="1160.5" y="216.5" width="72" height="72" fill="none" stroke="#231f20" stroke-miterlimit="10"/><rect x="1233" y="216.5" width="72" height="72" fill="none" stroke="#231f20" stroke-miterlimit="10"/><rect x="1305.5" y="216.5" width="72" height="72" fill="none" stroke="#231f20" stroke-miterlimit="10"/><rect x="1378" y="216.5" width="72" height="72" fill="none" stroke="#231f20" stroke-miterlimit="10"/><rect x="1450.5" y="216.5" width="72" height="72" fill="none" stroke="#231f20" stroke-miterlimit="10"/><rect x="1523" y="216.5" width="72" height="72" fill="none" stroke="#231f20" stroke-miterlimit="10"/><rect x="1595.5" y="216.5" width="72" height="72" fill="none" stroke="#231f20" stroke-miterlimit="10"/><rect x="1668" y="216.5" width="72" height="72" fill="none" stroke="#231f20" stroke-miterlimit="10"/><rect x="1160.5" y="288.5" width="72" height="72" fill="none" stroke="#231f20" stroke-miterlimit="10"/><rect x="1233" y="288.5" width="72" height="72" fill="none" stroke="#231f20" stroke-miterlimit="10"/><rect x="1305.5" y="288.5" width="72" height="72" fill="none" stroke="#231f20" stroke-miterlimit="10"/><rect x="1378" y="288.5" width="72" height="72" fill="none" stroke="#231f20" stroke-miterlimit="10"/><rect x="1450.5" y="288.5" width="72" height="72" fill="none" stroke="#231f20" stroke-miterlimit="10"/><rect x="1523" y="288.5" width="72" height="72" fill="none" stroke="#231f20" stroke-miterlimit="10"/><rect x="1595.5" y="288.5" width="72" height="72" fill="none" stroke="#231f20" stroke-miterlimit="10"/><rect x="1668" y="288.5" width="72" height="72" fill="none" stroke="#231f20" stroke-miterlimit="10"/><rect x="1160.5" y="360.5" width="72" height="72" fill="none" stroke="#231f20" stroke-miterlimit="10"/><rect x="1233" y="360.5" width="72" height="72" fill="none" stroke="#231f20" stroke-miterlimit="10"/><rect x="1305.5" y="360.5" width="72" height="72" fill="none" stroke="#231f20" stroke-miterlimit="10"/><rect x="1378" y="360.5" width="72" height="72" fill="none" stroke="#231f20" stroke-miterlimit="10"/><rect x="1450.5" y="360.5" width="72" height="72" fill="none" stroke="#231f20" stroke-miterlimit="10"/><rect x="1523" y="360.5" width="72" height="72" fill="none" stroke="#231f20" stroke-miterlimit="10"/><rect x="1595.5" y="360.5" width="72" height="72" fill="none" stroke="#231f20" stroke-miterlimit="10"/><rect x="1668" y="360.5" width="72" height="72" fill="none" stroke="#231f20" stroke-miterlimit="10"/><rect x="1160.5" y="432.5" width="72" height="72" fill="none" stroke="#231f20" stroke-miterlimit="10"/><rect x="1233" y="432.5" width="72" height="72" fill="none" stroke="#231f20" stroke-miterlimit="10"/><rect x="1305.5" y="432.5" width="72" height="72" fill="none" stroke="#231f20" stroke-miterlimit="10"/><rect x="1378" y="432.5" width="72" height="72" fill="none" stroke="#231f20" stroke-miterlimit="10"/><rect x="1450.5" y="432.5" width="72" height="72" fill="none" stroke="#231f20" stroke-miterlimit="10"/><rect x="1523" y="432.5" width="72" height="72" fill="none" stroke="#231f20" stroke-miterlimit="10"/><rect x="1595.5" y="432.5" width="72" height="72" fill="none" stroke="#231f20" stroke-miterlimit="10"/><rect x="1668" y="432.5" width="72" height="72" fill="none" stroke="#231f20" stroke-miterlimit="10"/><rect x="1160.5" y="504.5" width="72" height="72" fill="none" stroke="#231f20" stroke-miterlimit="10"/><rect x="1233" y="504.5" width="72" height="72" fill="none" stroke="#231f20" stroke-miterlimit="10"/><rect x="1305.5" y="504.5" width="72" height="72" fill="none" stroke="#231f20" stroke-miterlimit="10"/><rect x="1378" y="504.5" width="72" height="72" fill="none" stroke="#231f20" stroke-miterlimit="10"/><rect x="1450.5" y="504.5" width="72" height="72" fill="none" stroke="#231f20" stroke-miterlimit="10"/><rect x="1523" y="504.5" width="72" height="72" fill="none" stroke="#231f20" stroke-miterlimit="10"/><rect x="1595.5" y="504.5" width="72" height="72" fill="none" stroke="#231f20" stroke-miterlimit="10"/><rect x="1668" y="504.5" width="72" height="72" fill="none" stroke="#231f20" stroke-miterlimit="10"/><rect x="0.5" y="576.5" width="72" height="72" fill="none" stroke="#231f20" stroke-miterlimit="10"/><rect x="73" y="576.5" width="72" height="72" fill="none" stroke="#231f20" stroke-miterlimit="10"/><rect x="145.5" y="576.5" width="72" height="72" fill="none" stroke="#231f20" stroke-miterlimit="10"/><rect x="218" y="576.5" width="72" height="72" fill="none" stroke="#231f20" stroke-miterlimit="10"/><rect x="290.5" y="576.5" width="72" height="72" fill="none" stroke="#231f20" stroke-miterlimit="10"/><rect x="363" y="576.5" width="72" height="72" fill="none" stroke="#231f20" stroke-miterlimit="10"/><rect x="435.5" y="576.5" width="72" height="72" fill="none" stroke="#231f20" stroke-miterlimit="10"/><rect x="508" y="576.5" width="72" height="72" fill="none" stroke="#231f20" stroke-miterlimit="10"/><rect x="0.5" y="648.5" width="72" height="72" fill="none" stroke="#231f20" stroke-miterlimit="10"/><rect x="73" y="648.5" width="72" height="72" fill="none" stroke="#231f20" stroke-miterlimit="10"/><rect x="145.5" y="648.5" width="72" height="72" fill="none" stroke="#231f20" stroke-miterlimit="10"/><rect x="218" y="648.5" width="72" height="72" fill="none" stroke="#231f20" stroke-miterlimit="10"/><rect x="290.5" y="648.5" width="72" height="72" fill="none" stroke="#231f20" stroke-miterlimit="10"/><rect x="363" y="648.5" width="72" height="72" fill="none" stroke="#231f20" stroke-miterlimit="10"/><rect x="435.5" y="648.5" width="72" height="72" fill="none" stroke="#231f20" stroke-miterlimit="10"/><rect x="508" y="648.5" width="72" height="72" fill="none" stroke="#231f20" stroke-miterlimit="10"/><rect x="0.5" y="720.5" width="72" height="72" fill="none" stroke="#231f20" stroke-miterlimit="10"/><rect x="73" y="720.5" width="72" height="72" fill="none" stroke="#231f20" stroke-miterlimit="10"/><rect x="145.5" y="720.5" width="72" height="72" fill="none" stroke="#231f20" stroke-miterlimit="10"/><rect x="218" y="720.5" width="72" height="72" fill="none" stroke="#231f20" stroke-miterlimit="10"/><rect x="290.5" y="720.5" width="72" height="72" fill="none" stroke="#231f20" stroke-miterlimit="10"/><rect x="363" y="720.5" width="72" height="72" fill="none" stroke="#231f20" stroke-miterlimit="10"/><rect x="435.5" y="720.5" width="72" height="72" fill="none" stroke="#231f20" stroke-miterlimit="10"/><rect x="508" y="720.5" width="72" height="72" fill="none" stroke="#231f20" stroke-miterlimit="10"/><rect x="0.5" y="792.5" width="72" height="72" fill="none" stroke="#231f20" stroke-miterlimit="10"/><rect x="73" y="792.5" width="72" height="72" fill="none" stroke="#231f20" stroke-miterlimit="10"/><rect x="145.5" y="792.5" width="72" height="72" fill="none" stroke="#231f20" stroke-miterlimit="10"/><rect x="218" y="792.5" width="72" height="72" fill="none" stroke="#231f20" stroke-miterlimit="10"/><rect x="290.5" y="792.5" width="72" height="72" fill="none" stroke="#231f20" stroke-miterlimit="10"/><rect x="363" y="792.5" width="72" height="72" fill="none" stroke="#231f20" stroke-miterlimit="10"/><rect x="435.5" y="792.5" width="72" height="72" fill="none" stroke="#231f20" stroke-miterlimit="10"/><rect x="508" y="792.5" width="72" height="72" fill="none" stroke="#231f20" stroke-miterlimit="10"/><rect x="0.5" y="864.5" width="72" height="72" fill="none" stroke="#231f20" stroke-miterlimit="10"/><rect x="73" y="864.5" width="72" height="72" fill="none" stroke="#231f20" stroke-miterlimit="10"/><rect x="145.5" y="864.5" width="72" height="72" fill="none" stroke="#231f20" stroke-miterlimit="10"/><rect x="218" y="864.5" width="72" height="72" fill="none" stroke="#231f20" stroke-miterlimit="10"/><rect x="290.5" y="864.5" width="72" height="72" fill="none" stroke="#231f20" stroke-miterlimit="10"/><rect x="363" y="864.5" width="72" height="72" fill="none" stroke="#231f20" stroke-miterlimit="10"/><rect x="435.5" y="864.5" width="72" height="72" fill="none" stroke="#231f20" stroke-miterlimit="10"/><rect x="508" y="864.5" width="72" height="72" fill="none" stroke="#231f20" stroke-miterlimit="10"/><rect x="0.5" y="936.5" width="72" height="72" fill="none" stroke="#231f20" stroke-miterlimit="10"/><rect x="73" y="936.5" width="72" height="72" fill="none" stroke="#231f20" stroke-miterlimit="10"/><rect x="145.5" y="936.5" width="72" height="72" fill="none" stroke="#231f20" stroke-miterlimit="10"/><rect x="218" y="936.5" width="72" height="72" fill="none" stroke="#231f20" stroke-miterlimit="10"/><rect x="290.5" y="936.5" width="72" height="72" fill="none" stroke="#231f20" stroke-miterlimit="10"/><rect x="363" y="936.5" width="72" height="72" fill="none" stroke="#231f20" stroke-miterlimit="10"/><rect x="435.5" y="936.5" width="72" height="72" fill="none" stroke="#231f20" stroke-miterlimit="10"/><rect x="508" y="936.5" width="72" height="72" fill="none" stroke="#231f20" stroke-miterlimit="10"/><rect x="0.5" y="1008.5" width="72" height="72" fill="none" stroke="#231f20" stroke-miterlimit="10"/><rect x="73" y="1008.5" width="72" height="72" fill="none" stroke="#231f20" stroke-miterlimit="10"/><rect x="145.5" y="1008.5" width="72" height="72" fill="none" stroke="#231f20" stroke-miterlimit="10"/><rect x="218" y="1008.5" width="72" height="72" fill="none" stroke="#231f20" stroke-miterlimit="10"/><rect x="290.5" y="1008.5" width="72" height="72" fill="none" stroke="#231f20" stroke-miterlimit="10"/><rect x="363" y="1008.5" width="72" height="72" fill="none" stroke="#231f20" stroke-miterlimit="10"/><rect x="435.5" y="1008.5" width="72" height="72" fill="none" stroke="#231f20" stroke-miterlimit="10"/><rect x="508" y="1008.5" width="72" height="72" fill="none" stroke="#231f20" stroke-miterlimit="10"/><rect x="0.5" y="1080.5" width="72" height="72" fill="none" stroke="#231f20" stroke-miterlimit="10"/><rect x="73" y="1080.5" width="72" height="72" fill="none" stroke="#231f20" stroke-miterlimit="10"/><rect x="145.5" y="1080.5" width="72" height="72" fill="none" stroke="#231f20" stroke-miterlimit="10"/><rect x="218" y="1080.5" width="72" height="72" fill="none" stroke="#231f20" stroke-miterlimit="10"/><rect x="290.5" y="1080.5" width="72" height="72" fill="none" stroke="#231f20" stroke-miterlimit="10"/><rect x="363" y="1080.5" width="72" height="72" fill="none" stroke="#231f20" stroke-miterlimit="10"/><rect x="435.5" y="1080.5" width="72" height="72" fill="none" stroke="#231f20" stroke-miterlimit="10"/><rect x="508" y="1080.5" width="72" height="72" fill="none" stroke="#231f20" stroke-miterlimit="10"/><rect x="580.5" y="576.5" width="72" height="72" fill="none" stroke="#231f20" stroke-miterlimit="10"/><rect x="653" y="576.5" width="72" height="72" fill="none" stroke="#231f20" stroke-miterlimit="10"/><rect x="725.5" y="576.5" width="72" height="72" fill="none" stroke="#231f20" stroke-miterlimit="10"/><rect x="798" y="576.5" width="72" height="72" fill="none" stroke="#231f20" stroke-miterlimit="10"/><rect x="870.5" y="576.5" width="72" height="72" fill="none" stroke="#231f20" stroke-miterlimit="10"/><rect x="943" y="576.5" width="72" height="72" fill="none" stroke="#231f20" stroke-miterlimit="10"/><rect x="1015.5" y="576.5" width="72" height="72" fill="none" stroke="#231f20" stroke-miterlimit="10"/><rect x="1088" y="576.5" width="72" height="72" fill="none" stroke="#231f20" stroke-miterlimit="10"/><rect x="580.5" y="648.5" width="72" height="72" fill="none" stroke="#231f20" stroke-miterlimit="10"/><rect x="653" y="648.5" width="72" height="72" fill="none" stroke="#231f20" stroke-miterlimit="10"/><rect x="725.5" y="648.5" width="72" height="72" fill="none" stroke="#231f20" stroke-miterlimit="10"/><rect x="798" y="648.5" width="72" height="72" fill="none" stroke="#231f20" stroke-miterlimit="10"/><rect x="870.5" y="648.5" width="72" height="72" fill="none" stroke="#231f20" stroke-miterlimit="10"/><rect x="943" y="648.5" width="72" height="72" fill="none" stroke="#231f20" stroke-miterlimit="10"/><rect x="1015.5" y="648.5" width="72" height="72" fill="none" stroke="#231f20" stroke-miterlimit="10"/><rect x="1088" y="648.5" width="72" height="72" fill="none" stroke="#231f20" stroke-miterlimit="10"/><rect x="580.5" y="720.5" width="72" height="72" fill="none" stroke="#231f20" stroke-miterlimit="10"/><rect x="653" y="720.5" width="72" height="72" fill="none" stroke="#231f20" stroke-miterlimit="10"/><rect x="725.5" y="720.5" width="72" height="72" fill="none" stroke="#231f20" stroke-miterlimit="10"/><rect x="798" y="720.5" width="72" height="72" fill="none" stroke="#231f20" stroke-miterlimit="10"/><rect x="870.5" y="720.5" width="72" height="72" fill="none" stroke="#231f20" stroke-miterlimit="10"/><rect x="943" y="720.5" width="72" height="72" fill="none" stroke="#231f20" stroke-miterlimit="10"/><rect x="1015.5" y="720.5" width="72" height="72" fill="none" stroke="#231f20" stroke-miterlimit="10"/><rect x="1088" y="720.5" width="72" height="72" fill="none" stroke="#231f20" stroke-miterlimit="10"/><rect x="580.5" y="792.5" width="72" height="72" fill="none" stroke="#231f20" stroke-miterlimit="10"/><rect x="653" y="792.5" width="72" height="72" fill="none" stroke="#231f20" stroke-miterlimit="10"/><rect x="725.5" y="792.5" width="72" height="72" fill="none" stroke="#231f20" stroke-miterlimit="10"/><rect x="798" y="792.5" width="72" height="72" fill="none" stroke="#231f20" stroke-miterlimit="10"/><rect x="870.5" y="792.5" width="72" height="72" fill="none" stroke="#231f20" stroke-miterlimit="10"/><rect x="943" y="792.5" width="72" height="72" fill="none" stroke="#231f20" stroke-miterlimit="10"/><rect x="1015.5" y="792.5" width="72" height="72" fill="none" stroke="#231f20" stroke-miterlimit="10"/><rect x="1088" y="792.5" width="72" height="72" fill="none" stroke="#231f20" stroke-miterlimit="10"/><rect x="580.5" y="864.5" width="72" height="72" fill="none" stroke="#231f20" stroke-miterlimit="10"/><rect x="653" y="864.5" width="72" height="72" fill="none" stroke="#231f20" stroke-miterlimit="10"/><rect x="725.5" y="864.5" width="72" height="72" fill="none" stroke="#231f20" stroke-miterlimit="10"/><rect x="798" y="864.5" width="72" height="72" fill="none" stroke="#231f20" stroke-miterlimit="10"/><rect x="870.5" y="864.5" width="72" height="72" fill="none" stroke="#231f20" stroke-miterlimit="10"/><rect x="943" y="864.5" width="72" height="72" fill="none" stroke="#231f20" stroke-miterlimit="10"/><rect x="1015.5" y="864.5" width="72" height="72" fill="none" stroke="#231f20" stroke-miterlimit="10"/><rect x="1088" y="864.5" width="72" height="72" fill="none" stroke="#231f20" stroke-miterlimit="10"/><rect x="580.5" y="936.5" width="72" height="72" fill="none" stroke="#231f20" stroke-miterlimit="10"/><rect x="653" y="936.5" width="72" height="72" fill="none" stroke="#231f20" stroke-miterlimit="10"/><rect x="725.5" y="936.5" width="72" height="72" fill="none" stroke="#231f20" stroke-miterlimit="10"/><rect x="798" y="936.5" width="72" height="72" fill="none" stroke="#231f20" stroke-miterlimit="10"/><rect x="870.5" y="936.5" width="72" height="72" fill="none" stroke="#231f20" stroke-miterlimit="10"/><rect x="943" y="936.5" width="72" height="72" fill="none" stroke="#231f20" stroke-miterlimit="10"/><rect x="1015.5" y="936.5" width="72" height="72" fill="none" stroke="#231f20" stroke-miterlimit="10"/><rect x="1088" y="936.5" width="72" height="72" fill="none" stroke="#231f20" stroke-miterlimit="10"/><rect x="580.5" y="1008.5" width="72" height="72" fill="none" stroke="#231f20" stroke-miterlimit="10"/><rect x="653" y="1008.5" width="72" height="72" fill="none" stroke="#231f20" stroke-miterlimit="10"/><rect x="725.5" y="1008.5" width="72" height="72" fill="none" stroke="#231f20" stroke-miterlimit="10"/><rect x="798" y="1008.5" width="72" height="72" fill="none" stroke="#231f20" stroke-miterlimit="10"/><rect x="870.5" y="1008.5" width="72" height="72" fill="none" stroke="#231f20" stroke-miterlimit="10"/><rect x="943" y="1008.5" width="72" height="72" fill="none" stroke="#231f20" stroke-miterlimit="10"/><rect x="1015.5" y="1008.5" width="72" height="72" fill="none" stroke="#231f20" stroke-miterlimit="10"/><rect x="1088" y="1008.5" width="72" height="72" fill="none" stroke="#231f20" stroke-miterlimit="10"/><rect x="580.5" y="1080.5" width="72" height="72" fill="none" stroke="#231f20" stroke-miterlimit="10"/><rect x="653" y="1080.5" width="72" height="72" fill="none" stroke="#231f20" stroke-miterlimit="10"/><rect x="725.5" y="1080.5" width="72" height="72" fill="none" stroke="#231f20" stroke-miterlimit="10"/><rect x="798" y="1080.5" width="72" height="72" fill="none" stroke="#231f20" stroke-miterlimit="10"/><rect x="870.5" y="1080.5" width="72" height="72" fill="none" stroke="#231f20" stroke-miterlimit="10"/><rect x="943" y="1080.5" width="72" height="72" fill="none" stroke="#231f20" stroke-miterlimit="10"/><rect x="1015.5" y="1080.5" width="72" height="72" fill="none" stroke="#231f20" stroke-miterlimit="10"/><rect x="1088" y="1080.5" width="72" height="72" fill="none" stroke="#231f20" stroke-miterlimit="10"/><rect x="1160.5" y="576.5" width="72" height="72" fill="none" stroke="#231f20" stroke-miterlimit="10"/><rect x="1233" y="576.5" width="72" height="72" fill="none" stroke="#231f20" stroke-miterlimit="10"/><rect x="1305.5" y="576.5" width="72" height="72" fill="none" stroke="#231f20" stroke-miterlimit="10"/><rect x="1378" y="576.5" width="72" height="72" fill="none" stroke="#231f20" stroke-miterlimit="10"/><rect x="1450.5" y="576.5" width="72" height="72" fill="none" stroke="#231f20" stroke-miterlimit="10"/><rect x="1523" y="576.5" width="72" height="72" fill="none" stroke="#231f20" stroke-miterlimit="10"/><rect x="1595.5" y="576.5" width="72" height="72" fill="none" stroke="#231f20" stroke-miterlimit="10"/><rect x="1668" y="576.5" width="72" height="72" fill="none" stroke="#231f20" stroke-miterlimit="10"/><rect x="1160.5" y="648.5" width="72" height="72" fill="none" stroke="#231f20" stroke-miterlimit="10"/><rect x="1233" y="648.5" width="72" height="72" fill="none" stroke="#231f20" stroke-miterlimit="10"/><rect x="1305.5" y="648.5" width="72" height="72" fill="none" stroke="#231f20" stroke-miterlimit="10"/><rect x="1378" y="648.5" width="72" height="72" fill="none" stroke="#231f20" stroke-miterlimit="10"/><rect x="1450.5" y="648.5" width="72" height="72" fill="none" stroke="#231f20" stroke-miterlimit="10"/><rect x="1523" y="648.5" width="72" height="72" fill="none" stroke="#231f20" stroke-miterlimit="10"/><rect x="1595.5" y="648.5" width="72" height="72" fill="none" stroke="#231f20" stroke-miterlimit="10"/><rect x="1668" y="648.5" width="72" height="72" fill="none" stroke="#231f20" stroke-miterlimit="10"/><rect x="1160.5" y="720.5" width="72" height="72" fill="none" stroke="#231f20" stroke-miterlimit="10"/><rect x="1233" y="720.5" width="72" height="72" fill="none" stroke="#231f20" stroke-miterlimit="10"/><rect x="1305.5" y="720.5" width="72" height="72" fill="none" stroke="#231f20" stroke-miterlimit="10"/><rect x="1378" y="720.5" width="72" height="72" fill="none" stroke="#231f20" stroke-miterlimit="10"/><rect x="1450.5" y="720.5" width="72" height="72" fill="none" stroke="#231f20" stroke-miterlimit="10"/><rect x="1523" y="720.5" width="72" height="72" fill="none" stroke="#231f20" stroke-miterlimit="10"/><rect x="1595.5" y="720.5" width="72" height="72" fill="none" stroke="#231f20" stroke-miterlimit="10"/><rect x="1668" y="720.5" width="72" height="72" fill="none" stroke="#231f20" stroke-miterlimit="10"/><rect x="1160.5" y="792.5" width="72" height="72" fill="none" stroke="#231f20" stroke-miterlimit="10"/><rect x="1233" y="792.5" width="72" height="72" fill="none" stroke="#231f20" stroke-miterlimit="10"/><rect x="1305.5" y="792.5" width="72" height="72" fill="none" stroke="#231f20" stroke-miterlimit="10"/><rect x="1378" y="792.5" width="72" height="72" fill="none" stroke="#231f20" stroke-miterlimit="10"/><rect x="1450.5" y="792.5" width="72" height="72" fill="none" stroke="#231f20" stroke-miterlimit="10"/><rect x="1523" y="792.5" width="72" height="72" fill="none" stroke="#231f20" stroke-miterlimit="10"/><rect x="1595.5" y="792.5" width="72" height="72" fill="none" stroke="#231f20" stroke-miterlimit="10"/><rect x="1668" y="792.5" width="72" height="72" fill="none" stroke="#231f20" stroke-miterlimit="10"/><rect x="1160.5" y="864.5" width="72" height="72" fill="none" stroke="#231f20" stroke-miterlimit="10"/><rect x="1233" y="864.5" width="72" height="72" fill="none" stroke="#231f20" stroke-miterlimit="10"/><rect x="1305.5" y="864.5" width="72" height="72" fill="none" stroke="#231f20" stroke-miterlimit="10"/><rect x="1378" y="864.5" width="72" height="72" fill="none" stroke="#231f20" stroke-miterlimit="10"/><rect x="1450.5" y="864.5" width="72" height="72" fill="none" stroke="#231f20" stroke-miterlimit="10"/><rect x="1523" y="864.5" width="72" height="72" fill="none" stroke="#231f20" stroke-miterlimit="10"/><rect x="1595.5" y="864.5" width="72" height="72" fill="none" stroke="#231f20" stroke-miterlimit="10"/><rect x="1668" y="864.5" width="72" height="72" fill="none" stroke="#231f20" stroke-miterlimit="10"/><rect x="1160.5" y="936.5" width="72" height="72" fill="none" stroke="#231f20" stroke-miterlimit="10"/><rect x="1233" y="936.5" width="72" height="72" fill="none" stroke="#231f20" stroke-miterlimit="10"/><rect x="1305.5" y="936.5" width="72" height="72" fill="none" stroke="#231f20" stroke-miterlimit="10"/><rect x="1378" y="936.5" width="72" height="72" fill="none" stroke="#231f20" stroke-miterlimit="10"/><rect x="1450.5" y="936.5" width="72" height="72" fill="none" stroke="#231f20" stroke-miterlimit="10"/><rect x="1523" y="936.5" width="72" height="72" fill="none" stroke="#231f20" stroke-miterlimit="10"/><rect x="1595.5" y="936.5" width="72" height="72" fill="none" stroke="#231f20" stroke-miterlimit="10"/><rect x="1668" y="936.5" width="72" height="72" fill="none" stroke="#231f20" stroke-miterlimit="10"/><rect x="1160.5" y="1008.5" width="72" height="72" fill="none" stroke="#231f20" stroke-miterlimit="10"/><rect x="1233" y="1008.5" width="72" height="72" fill="none" stroke="#231f20" stroke-miterlimit="10"/><rect x="1305.5" y="1008.5" width="72" height="72" fill="none" stroke="#231f20" stroke-miterlimit="10"/><rect x="1378" y="1008.5" width="72" height="72" fill="none" stroke="#231f20" stroke-miterlimit="10"/><rect x="1450.5" y="1008.5" width="72" height="72" fill="none" stroke="#231f20" stroke-miterlimit="10"/><rect x="1523" y="1008.5" width="72" height="72" fill="none" stroke="#231f20" stroke-miterlimit="10"/><rect x="1595.5" y="1008.5" width="72" height="72" fill="none" stroke="#231f20" stroke-miterlimit="10"/><rect x="1668" y="1008.5" width="72" height="72" fill="none" stroke="#231f20" stroke-miterlimit="10"/><rect x="1160.5" y="1080.5" width="72" height="72" fill="none" stroke="#231f20" stroke-miterlimit="10"/><rect x="1233" y="1080.5" width="72" height="72" fill="none" stroke="#231f20" stroke-miterlimit="10"/><rect x="1305.5" y="1080.5" width="72" height="72" fill="none" stroke="#231f20" stroke-miterlimit="10"/><rect x="1378" y="1080.5" width="72" height="72" fill="none" stroke="#231f20" stroke-miterlimit="10"/><rect x="1450.5" y="1080.5" width="72" height="72" fill="none" stroke="#231f20" stroke-miterlimit="10"/><rect x="1523" y="1080.5" width="72" height="72" fill="none" stroke="#231f20" stroke-miterlimit="10"/><rect x="1595.5" y="1080.5" width="72" height="72" fill="none" stroke="#231f20" stroke-miterlimit="10"/><rect x="1668" y="1080.5" width="72" height="72" fill="none" stroke="#231f20" stroke-miterlimit="10"/></g></g></svg>