<svg xmlns="http://www.w3.org/2000/svg" viewBox="0 0 1521.75 1129.93"><title>floor</title><g id="Layer_2" data-name="Layer 2"><g id="Layer_6" data-name="Layer 6"><g style="isolation:isolate"><polygon points="30.45 572.83 989.4 17.2 988.79 232.37 29.84 788 30.45 572.83" fill="#99a398"/><polygon points="0.66 555.63 959.61 0 989.4 17.2 30.45 572.83 0.66 555.63" fill="#e4f1de"/><polygon points="29.84 788 988.79 232.37 1506.85 531.48 547.9 1087.1 29.84 788" fill="#e4f1de"/><path d="M30.45,572.83,29.84,788,547.9,1087.1l14.9,8.6-.1,34.23L14.85,813.63A30.64,30.64,0,0,1,4.33,802.54,30.44,30.44,0,0,1,0,787.91L.66,555.63Z" fill="#868f86"/><polygon points="547.9 1087.1 1506.85 531.48 1521.74 540.08 562.8 1095.7 547.9 1087.1" fill="#e4f1de"/><polygon points="562.8 1095.7 1521.74 540.08 1521.65 574.31 562.7 1129.93 562.8 1095.7" fill="#99a398"/></g></g></g></svg>