<svg xmlns="http://www.w3.org/2000/svg" viewBox="0 0 2565.53 1754.58">
            <line x1="2294.65" y1="45.14" x2="2564.53" y2="45.14" fill="none" stroke="#000" stroke-linecap="round" stroke-linejoin="bevel" stroke-width="2" />
            <polyline points="1.03 792.76 9.67 790.63 18.31 800.14 26.94 793.55 35.58 789.32 44.21 752.31 52.85 761.57 61.49 763.12 70.12 743.39 78.76 738.85 87.39 734.82 96.03 766.63 104.67 775.57 113.3 735.1 121.94 754.05 130.57 823.75 139.21 830.41 147.85 842.93 156.48 827.56 165.12 927.64 173.75 895.19 182.39 871.37 191.03 834.87 199.66 859.04 208.3 886.82 216.93 852.09 225.57 863.73 234.21 912.71 242.84 907.21 251.48 941.28 260.11 969.16 268.75 960.76 277.39 1013.72 286.02 1024.68 294.66 940.01 303.29 907.08 311.93 882.13 320.57 839.16 329.2 819.89 337.84 821.34 346.47 829.8 355.11 812.82 363.75 819.53 372.38 815.66 381.02 775.24 389.65 762.7 398.29 722.8 406.93 728.16 415.56 735.51 424.2 775.77 432.83 780.95 441.47 764.92 450.11 740.68 458.74 708.2 467.38 695.7 476.01 662.87 484.65 670.66 493.29 691.47 501.92 686.17 510.56 666.83 519.19 656.99 527.83 637.03 536.47 636.27 545.1 651.04 553.74 679.28 562.37 663.89 571.01 690.52 579.65 678.4 588.28 648.98 596.92 628.7 605.55 651.57 614.19 619.63 622.83 626.67 631.46 637.88 640.1 685.1 648.73 723.7 657.37 754.66 666.01 880.33 674.64 827.03 683.28 823.85 691.91 745.96 700.55 773.95 709.19 825.69 717.82 762.9 726.46 886.28 735.09 876.21 743.73 817.08 752.37 766.75 761 800.05 769.64 765.63 778.27 767.76 786.91 876.91 795.55 831.91 804.18 845.18 812.82 818.15 821.45 765.41 830.09 762.7 838.73 791.76 847.36 746.41 856 691.4 864.63 687.5 873.27 687.9 881.91 686.52 890.54 655.52 899.18 643.08 907.81 646.22 916.45 659.79 925.09 648.65 933.72 647.17 942.36 647.08 950.99 668.27 959.63 668.69 968.27 704.93 976.9 678.63 985.54 689.07 994.17 711.85 1002.81 690.33 1011.45 742.86 1020.08 818.62 1028.72 785.49 1037.35 725.93 1045.99 744.96 1054.63 810.78 1063.26 772.87 1071.9 745.91 1080.53 699.65 1089.17 705.58 1097.81 663.07 1106.44 671.7 1115.08 659.81 1123.71 676.72 1132.35 647.18 1140.99 662.63 1149.62 650.35 1158.26 642.04 1166.89 624.4 1175.53 600.12 1184.17 603.76 1192.8 589.54 1201.44 602.79 1210.07 560.55 1218.71 544.2 1227.35 549.45 1235.98 546.34 1244.62 534.25 1253.25 522.88 1261.89 531.62 1270.53 524.67 1279.16 521.5 1287.8 517.77 1296.43 483.47 1305.07 481.21 1313.71 483.88 1322.34 500.75 1330.98 507.83 1339.61 498.11 1348.25 464.5 1356.89 454.6 1365.52 435.73 1374.16 453.94 1382.79 492.96 1391.43 522.71 1400.07 494.56 1408.7 487.83 1417.34 446.84 1425.97 461.16 1434.61 466.12 1443.25 453 1451.88 414.23 1460.52 413.9 1469.15 381.3 1477.79 379.75 1486.43 381.74 1495.06 361.26 1503.7 338.45 1512.33 334.43 1520.97 335.34 1529.61 311.55 1538.24 311.39 1546.88 338.35 1555.51 324.69 1564.15 285.72 1572.79 318.83 1581.42 302.38 1590.06 315.47 1598.69 292.63 1607.33 261.47 1615.97 274.93 1624.6 242.14 1633.24 249.31 1641.87 240.47 1650.51 200.86 1659.15 182.42 1667.78 195.13 1676.42 193.75 1685.05 188.29 1693.69 231.57 1702.33 306.19 1710.96 259.25 1719.6 263.34 1728.23 248.57 1736.87 332.26 1745.51 298.58 1754.14 228.52 1762.78 175.13 1771.41 159.16 1780.05 185.17 1788.69 150.08 1797.32 141.93 1805.96 110.7 1814.59 118.63 1823.23 109.68 1831.87 123.88 1840.5 101.06 1849.14 119.65 1857.77 170.72 1866.41 331.72 1875.05 472.32 1883.68 489.33 1892.32 687.43 1900.95 722.75 1909.59 526.98 1918.23 652 1926.86 469.57 1935.5 622.4 1944.13 696.62 1952.77 1021.64 1961.41 826.37 1970.04 1029.1 1978.68 1404.39 1987.31 1072.79 1995.95 1540.42 2004.59 1334.51 2013.22 1523.19 2021.86 1506.94 2030.49 1657.31 2039.13 1754.49 2047.77 1452.33 2056.4 1411.7 2065.04 1189.31 2073.67 1316.83 2082.31 1194.23 2090.95 1254.77 2099.58 1418.98 2108.22 1337.8 2116.85 1392.86 2125.49 1140.93 2134.13 1147.08 2142.76 1016.72 2151.4 959.37" fill="none" stroke="#000" stroke-linecap="round" stroke-linejoin="bevel" stroke-width="2" />
            <line x1="2291.11" y1="43.81" x2="2560.57" y2="43.81" fill="none" stroke="#000" stroke-linecap="round" stroke-linejoin="bevel" stroke-width="2" />
            <polyline points="1.03 446.43 9.65 446.89 18.27 431.06 26.9 438.02 35.52 417.11 44.14 425.65 52.76 445.08 61.39 433.39 70.01 431.79 78.63 426.25 87.25 449.68 95.88 467.29 104.5 438.92 113.12 448.47 121.75 516.61 130.37 516.29 138.99 536.29 147.61 519.88 156.24 608.74 164.86 578.93 173.48 562.25 182.1 531.35 190.73 545.56 199.35 557.66 207.97 529.25 216.59 543.74 225.22 584.92 233.84 571.22 242.46 605.46 251.09 637.33 259.71 631.07 268.33 682.15 276.95 681.46 285.58 607.71 294.2 577.86 302.82 551.79 311.44 513.91 320.07 502.56 328.69 504.61 337.31 510.9 345.93 496.22 354.56 498.69 363.18 495.4 371.8 444.59 380.43 439.05 389.05 403.18 397.67 408.09 406.29 406.88 414.92 432.68 423.54 434.32 432.16 435.79 440.78 425.23 449.41 408.33 458.03 398.36 466.65 372.55 475.27 378.87 483.9 395.56 492.52 398.82 501.14 387.78 509.76 354.98 518.39 319.87 527.01 315.95 535.63 319.35 544.26 336.02 552.88 335.56 561.5 345.46 570.12 342.91 578.75 317.39 587.37 328.79 595.99 347.36 604.61 339.96 613.24 335.8 621.86 339.16 630.48 387.19 639.11 427.62 647.73 441.78 656.35 552.22 664.97 507.34 673.6 510.57 682.22 457.15 690.84 470.22 699.46 526.5 708.09 471.3 716.71 586.52 725.33 572.13 733.95 528 742.58 492.04 751.2 517 759.82 482.41 768.45 475.29 777.07 565 785.69 526.15 794.31 543.56 802.94 506.39 811.56 459.46 820.18 453.54 828.8 494.6 837.43 460.42 846.05 406.78 854.67 396.8 863.29 391.33 871.92 380.69 880.54 347.94 889.16 341.4 897.78 336.06 906.41 356.6 915.03 351.71 923.65 346.48 932.28 354.01 940.9 377 949.52 374.85 958.14 395.32 966.77 371.87 975.39 383.33 984.01 393.53 992.63 379.63 1001.26 429.12 1009.88 500.27 1018.5 482.66 1027.13 429.01 1035.75 442.79 1044.37 487.98 1052.99 461.79 1061.62 440.1 1070.24 394.05 1078.86 398.25 1087.48 364.09 1096.11 367.37 1104.73 363.93 1113.35 400.73 1121.97 392.47 1130.6 398.15 1139.22 391.56 1147.84 395.65 1156.46 373.69 1165.09 354.6 1173.71 357.36 1182.33 340.78 1190.96 361 1199.58 317.65 1208.2 301.14 1216.82 296.75 1225.45 296.75 1234.07 270.53 1242.69 269.61 1251.31 268.13 1259.94 268.13 1268.56 254.87 1277.18 255.1 1285.81 223.02 1294.43 218.51 1303.05 233.22 1311.67 249.47 1320.3 257.36 1328.92 241.63 1337.54 214.15 1346.16 206.21 1354.79 200.12 1363.41 216.32 1372.03 254.96 1380.65 295.29 1389.28 274.13 1397.9 270.1 1406.52 221.55 1415.14 236.73 1423.77 240.75 1432.39 236.49 1441.01 204.71 1449.64 204.23 1458.26 189.77 1466.88 185.26 1475.5 189.28 1484.13 169.46 1492.75 158.22 1501.37 144.34 1509.99 149.54 1518.62 134.28 1527.24 130.84 1535.86 157.21 1544.48 146.23 1553.11 98.67 1561.73 132.34 1570.35 122.48 1578.98 139.71 1587.6 116.48 1596.22 85.99 1604.84 105.15 1613.47 93.16 1622.09 88.47 1630.71 75.44 1639.33 36.95 1647.96 29.68 1656.58 51.58 1665.2 52.97 1673.83 56.74 1682.45 81.27 1691.07 146.6 1699.69 119.69 1708.32 118.02 1716.94 100.03 1725.56 186.88 1734.18 166.18 1742.81 107.48 1751.43 37.93 1760.05 25.12 1768.67 65.03 1777.3 39.95 1785.92 40.02 1794.54 0.42 1803.16 18.86 1811.79 22.49 1820.41 46.37 1829.03 29.7 1837.66 48.12 1846.28 80.88 1854.9 229.36 1863.52 355.94 1872.15 373.76 1880.77 545.18 1889.39 596.6 1898.01 410.36 1906.64 523.48 1915.26 354.57 1923.88 494.13 1932.51 531.05 1941.13 820.9 1949.75 652.9 1958.37 863.76 1967 1202.38 1975.62 916.67 1984.24 1348.06 1992.86 1197.09 2001.49 1389.74 2010.11 1362.64 2018.73 1494.08 2027.35 1577.86 2035.98 1273.73 2044.6 1202.38 2053.22 1007.84 2061.84 1139.6 2070.47 1040.18 2079.09 1099.24 2087.71 1239.39 2096.34 1171.75 2104.96 1223.7 2113.58 989.45 2122.2 993.2 2130.83 880.98 2139.45 839.84 2148.07 887.14" fill="none" stroke="#000" stroke-linecap="round" stroke-linejoin="bevel" stroke-width="2" />
            <line x1="2294.65" y1="45.14" x2="2564.53" y2="45.14" fill="none" stroke="#000" stroke-linecap="round" stroke-linejoin="bevel" stroke-width="2" />
            <polyline points="1 1016.56 9.57 1018.8 18.14 1017.74 26.7 1008.45 35.27 951.48 43.84 961.63 52.41 952.63 60.97 937.67 69.54 929.33 78.11 965.2 86.67 989.89 95.24 996.84 103.81 928.17 112.38 950.14 120.94 1036.25 129.51 1047.28 138.08 1064.95 146.65 1061.52 155.21 1207.21 163.78 1160 172.35 1112.68 180.92 1071.72 189.48 1115.85 198.05 1177.33 206.62 1132.35 215.19 1151.17 223.75 1217.32 232.32 1212.61 240.89 1228.62 249.46 1261.03 258.02 1250.01 266.59 1311.85 275.16 1376.69 283.73 1271.92 292.29 1245.82 300.86 1224.19 309.43 1155.89 318 1112.13 326.56 1112.46 335.13 1128.57 343.7 1104.6 352.27 1126.44 360.83 1100.34 369.4 1041.58 377.97 1023.53 386.54 988.98 395.1 999.57 403.67 1013.61 412.24 1078.91 420.81 1065.28 429.37 1034.09 437.94 1013.32 446.51 967.49 455.07 957.81 463.64 924.81 472.21 929.36 480.78 963.59 489.35 940.19 497.91 907.37 506.48 910.88 515.05 884.91 523.62 877.33 532.18 896.43 540.75 916.72 549.32 904.83 557.88 937.62 566.45 906.5 575.02 881 583.59 843.16 592.15 887.94 600.72 838.46 609.29 858.36 617.86 869.01 626.42 922.01 634.99 956.71 643.56 1014.49 652.13 1164.56 660.69 1106.68 669.26 1090.73 677.83 995.55 686.4 1038.74 694.96 1090.41 703.53 1007.86 712.1 1138.7 720.67 1142.65 729.23 1072.83 737.8 1015.17 746.37 1044.45 754.94 1005.78 763.5 1021.34 772.07 1150.67 780.64 1095.63 789.21 1110.09 797.77 1093.94 806.34 1031.05 814.91 1036.72 823.48 1084.61 832.04 1029.17 840.61 953.63 849.18 961.06 857.75 969.49 866.31 971.26 874.88 925.1 883.45 911.72 892.02 921.31 900.58 933.82 909.15 916.28 917.72 920.94 926.29 917.98 934.85 953.18 943.42 955.99 951.99 1020.13 960.56 974.92 969.12 1000.14 977.69 1049.27 986.26 1017.04 994.83 1065.98 1003.39 1132.6 1011.96 1085.64 1020.53 1026.15 1029.1 1040.28 1037.66 1111.8 1046.23 1068.64 1054.8 1043.26 1063.37 985.9 1071.93 990.43 1080.5 936.42 1089.07 949.66 1097.63 932.03 1106.2 968.36 1114.77 928.72 1123.34 960.39 1131.9 952.03 1140.47 916.4 1149.04 885.46 1157.61 840.74 1166.17 867.26 1174.74 852.62 1183.31 858.89 1191.88 808.13 1200.44 782.87 1209.01 782.07 1217.58 795.05 1226.15 782.16 1234.71 760.14 1243.28 766.09 1251.85 754.32 1260.42 756.48 1268.98 758.14 1277.55 724.77 1286.12 719.86 1294.69 708.67 1303.25 732.39 1311.82 743.46 1320.39 736.08 1328.96 675.3 1337.52 666.97 1346.09 636.07 1354.66 657.5 1363.23 710.12 1371.79 735.67 1380.36 710.83 1388.93 708.65 1397.5 662.33 1406.06 681.06 1414.63 684.11 1423.2 663.66 1431.77 629.51 1440.33 620.04 1448.9 577.21 1457.47 572.28 1466.04 569.92 1474.6 537.81 1483.17 517.44 1491.74 506.27 1500.31 502.37 1508.87 464.85 1517.44 473.37 1526.01 506.09 1534.58 491.73 1543.14 427.18 1551.71 465.73 1560.28 438.36 1568.85 439.92 1577.41 407.18 1585.98 367.14 1594.55 380.4 1603.12 329.08 1611.68 341.28 1620.25 337.31 1628.82 284.18 1637.38 267.01 1645.95 276.79 1654.52 269.8 1663.09 259.7 1671.65 306.97 1680.22 401.75 1688.79 331.38 1697.36 328.42 1705.92 315.59 1714.49 395.47 1723.06 329.37 1731.63 224.35 1740.19 202.38 1748.76 168.12 1757.33 195.99 1765.9 137.76 1774.46 132.07 1783.03 85.1 1791.6 92.65 1800.17 82.28 1808.73 81.44 1817.3 35.87 1825.87 71.6 1834.44 165.72 1843 357.5 1851.57 495.5 1860.14 487.31 1868.71 710.93 1877.27 710.45 1885.84 502.75 1894.41 647.45 1902.98 467.17 1911.54 618.03 1920.11 706 1928.68 1043.31 1937.25 830.88 1945.81 1042.57 1954.38 1447.52 1962.95 1084.22 1971.52 1607.94 1980.08 1375.74 1988.65 1561.92 1997.22 1475.16 2005.79 1621.47 2014.35 1631.64 2022.92 1330.9 2031.49 1349.01 2040.06 1125.97 2048.62 1285.28 2057.19 1138.59 2065.76 1178.56 2074.32 1361.82 2082.89 1293.41 2091.46 1355.07 2100.03 1063.52 2108.59 1077.54 2117.16 967.63 2125.73 933.79 2134.3 912.83 2142.86 738.32 2151.43 804.47" fill="none" stroke="#000" stroke-linecap="round" stroke-linejoin="bevel" stroke-width="2" />

</svg>
