<svg xmlns="http://www.w3.org/2000/svg" viewBox="0 0 5939.78 6730.28">
    <title>marketlines</title>
    <g id="Layer_2" data-name="Layer 2">
        <g id="Layer_5_copy" data-name="Layer 5 copy">
            <polyline points="1 3279.07 18.14 3272.49 35.27 3268.27 52.41 3231.33 69.55 3240.57 86.68 3242.12 103.82 3222.43 120.95 3217.9 138.09 3213.88 155.22 3245.63 172.36 3254.55 189.5 3214.15 206.63 3233.07 223.77 3302.63 240.91 3309.28 258.04 3321.78 275.18 3306.44 292.31 3406.32 309.45 3373.94 326.59 3350.17 343.72 3313.74 360.86 3337.86 378 3365.58 395.13 3330.92 412.27 3342.54 429.4 3391.43 446.54 3385.94 463.68 3419.94 480.81 3447.77 497.95 3439.38 515.08 3492.25 532.22 3503.18 549.36 3418.68 566.49 3385.81 583.63 3360.9 600.76 3318.02 617.9 3298.78 635.04 3300.23 652.17 3308.68 669.31 3291.73 686.45 3298.42 703.58 3294.56 720.72 3254.22 737.85 3241.7 754.99 3201.88 772.13 3207.23 789.26 3214.57 806.4 3254.75 823.53 3259.92 840.67 3243.92 857.81 3219.72 874.94 3187.3 892.08 3174.83 909.22 3142.06 926.35 3149.84 943.49 3170.61 960.62 3165.32 977.76 3146.01 994.9 3136.19 1012.03 3116.28 1029.17 3115.51 1046.31 3130.25 1063.44 3158.44 1080.58 3143.08 1097.71 3169.66 1114.85 3157.56 1131.98 3128.2 1149.12 3107.96 1166.26 3130.78 1183.39 3098.91 1200.53 3105.93 1217.67 3117.12 1234.8 3164.24 1251.94 3202.77 1269.08 3233.67 1286.21 3359.1 1303.35 3305.91 1320.48 3302.73 1337.62 3225 1354.76 3252.92 1371.89 3304.57 1389.03 3241.91 1406.16 3365.05 1423.3 3354.99 1440.44 3295.98 1457.57 3245.74 1474.71 3278.98 1491.84 3244.62 1508.98 3246.75 1526.12 3355.7 1543.25 3310.78 1560.39 3324.02 1577.53 3297.04 1594.66 3244.41 1611.8 3241.7 1628.93 3270.71 1646.07 3225.44 1663.21 3170.54 1680.34 3166.64 1697.48 3167.05 1714.61 3165.67 1731.75 3134.72 1748.89 3122.31 1766.02 3125.44 1783.16 3138.99 1800.3 3127.87 1817.43 3126.39 1834.57 3126.3 1851.7 3147.45 1868.84 3147.87 1885.98 3184.04 1903.11 3157.79 1920.25 3168.21 1937.38 3190.95 1954.52 3169.47 1971.66 3221.89 1988.79 3297.52 2005.93 3264.45 2023.07 3205 2040.2 3223.99 2057.34 3289.69 2074.47 3251.85 2091.61 3224.94 2108.75 3178.77 2125.88 3184.69 2143.02 3142.26 2160.15 3150.87 2177.29 3139 2194.43 3155.88 2211.56 3126.4 2228.7 3141.82 2245.84 3129.56 2262.97 3121.28 2280.11 3103.66 2297.24 3079.43 2314.38 3083.06 2331.52 3068.87 2348.65 3082.1 2365.79 3039.93 2382.92 3023.62 2400.06 3028.86 2417.2 3025.76 2434.33 3013.69 2451.47 3002.34 2468.61 3011.06 2485.74 3004.12 2502.88 3000.96 2520.01 2997.24 2537.15 2963.01 2554.28 2960.75 2571.42 2963.41 2588.56 2980.24 2605.69 2987.31 2622.83 2977.62 2639.97 2944.07 2657.1 2934.19 2674.24 2915.35 2691.38 2933.53 2708.51 2972.47 2725.65 3002.17 2742.78 2974.07 2759.92 2967.36 2777.05 2926.45 2794.19 2940.74 2811.33 2945.68 2828.46 2932.59 2845.6 2893.89 2862.74 2893.56 2879.87 2861.02 2897.01 2859.49 2914.14 2861.47 2931.28 2841.03 2948.42 2818.26 2965.55 2814.25 2982.69 2815.15 2999.82 2791.41 3016.96 2791.25 3034.1 2818.15 3051.23 2804.52 3068.37 2765.63 3085.51 2798.67 3102.64 2782.25 3119.78 2795.33 3136.91 2772.53 3154.05 2741.43 3171.19 2754.86 3188.32 2722.13 3205.46 2729.29 3222.59 2720.47 3239.73 2680.93 3256.87 2662.53 3274 2675.21 3291.14 2673.84 3308.28 2668.39 3325.41 2711.59 3342.55 2786.06 3359.68 2739.21 3376.82 2743.29 3393.96 2728.55 3411.09 2812.08 3428.23 2778.46 3445.36 2708.54 3462.5 2655.24 3479.64 2639.31 3496.77 2665.27 3513.91 2630.25 3531.05 2622.12 3548.18 2590.94 3565.32 2598.86 3582.45 2589.92 3599.59 2604.1 3616.73 2581.32 3633.86 2599.88 3651 2650.85 3668.14 2811.55 3685.27 2951.87 3702.41 2968.85 3719.54 3166.57 3736.68 3201.82 3753.82 3006.43 3770.95 3131.22 3788.09 2949.13 3805.22 3101.67 3822.36 3175.75 3839.5 3500.15 3856.63 3305.24 3873.77 3507.59 3890.91 3882.16 3908.04 3551.2 3925.18 4017.94 3942.31 3812.42 3959.45 4000.74 3976.59 3984.52 3993.72 4134.6 4010.86 4231.6 4027.99 3930.02 4045.13 3889.46 4062.27 3667.49 4079.4 3794.78 4096.54 3672.41 4113.67 3732.83 4130.81 3896.73 4147.95 3815.71 4165.08 3870.66 4182.22 3619.21 4199.35 3625.35 4216.49 3495.23 4233.63 3438 4250.76 3478.5 4267.9 3357.21 4285.04 3447.28 4302.17 3424.02 4319.31 3361.34 4602.84 2525.51 5144.77 2525.51" fill="none" stroke="#000" stroke-linecap="round" stroke-miterlimit="10" stroke-width="2" />
            <polyline points="795.01 447.42 812.15 431.61 829.28 438.57 846.42 417.69 863.55 426.21 880.69 445.61 897.83 433.94 914.96 432.35 932.1 426.81 949.24 450.2 966.37 467.77 983.51 439.46 1000.64 449 1017.78 517 1034.92 516.69 1052.05 536.64 1069.19 520.26 1086.33 608.96 1103.46 579.21 1120.6 562.56 1137.73 531.72 1154.87 545.89 1172.01 557.98 1189.14 529.62 1206.28 544.08 1223.41 585.18 1240.55 571.51 1257.69 605.68 1274.82 637.49 1291.96 631.24 1309.09 682.23 1326.23 681.54 1343.37 607.93 1360.5 578.13 1377.64 552.12 1394.78 514.3 1411.91 502.98 1429.05 505.02 1446.18 511.3 1463.32 496.65 1480.46 499.12 1497.59 495.83 1514.73 445.12 1531.86 439.59 1549 403.79 1566.14 408.69 1583.27 407.48 1600.41 433.24 1617.55 434.87 1634.68 436.34 1651.82 425.8 1668.95 408.93 1686.09 398.97 1703.23 373.22 1720.36 379.52 1737.5 396.19 1754.63 399.43 1771.77 388.42 1788.91 355.68 1806.04 320.64 1823.18 316.73 1840.32 320.12 1857.45 336.75 1874.59 336.3 1891.72 346.18 1908.86 343.64 1926 318.17 1943.13 329.54 1960.27 348.08 1977.4 340.69 1994.54 336.54 2011.68 339.89 2028.81 387.83 2045.95 428.18 2063.09 442.32 2080.22 552.55 2097.36 507.75 2114.49 510.97 2131.63 457.66 2148.76 470.7 2165.9 526.87 2183.04 471.78 2200.17 586.78 2217.31 572.41 2234.45 528.37 2251.58 492.48 2268.72 517.39 2285.86 482.87 2302.99 475.76 2320.13 565.3 2337.26 526.53 2354.4 543.9 2371.53 506.8 2388.67 459.96 2405.81 454.05 2422.94 495.04 2440.08 460.92 2457.22 407.38 2474.35 397.42 2491.49 391.96 2508.63 381.35 2525.76 348.65 2542.9 342.13 2560.03 336.8 2577.17 357.3 2594.3 352.41 2611.44 347.2 2628.58 354.71 2645.71 377.65 2662.85 375.51 2679.99 395.94 2697.12 372.54 2714.26 383.98 2731.39 394.16 2748.53 380.28 2765.67 429.67 2782.8 500.7 2799.94 483.12 2817.07 429.57 2834.21 443.32 2851.35 488.43 2868.48 462.29 2885.62 440.63 2902.76 394.68 2919.89 398.87 2937.03 364.77 2954.16 368.04 2971.3 364.61 2988.44 401.34 3005.57 393.1 3022.71 398.77 3039.84 392.19 3056.98 396.27 3074.12 374.35 3091.25 355.3 3108.39 358.06 3125.53 341.51 3142.66 361.69 3159.8 318.42 3176.93 301.95 3194.07 297.56 3211.21 297.56 3228.34 271.39 3245.48 270.47 3262.61 268.99 3279.75 268.99 3296.89 255.76 3314.02 255.99 3331.16 223.97 3348.3 219.47 3365.43 234.15 3382.57 250.37 3399.7 258.25 3416.84 242.54 3433.98 215.12 3451.11 207.19 3468.25 201.11 3485.39 217.29 3502.52 255.85 3519.66 296.1 3536.79 274.98 3553.93 270.96 3571.07 222.5 3588.2 237.66 3605.34 241.67 3622.47 237.41 3639.61 205.69 3656.75 205.22 3673.88 190.78 3691.02 186.29 3708.16 190.29 3725.29 170.51 3742.43 159.29 3759.56 145.44 3776.7 150.63 3793.84 135.4 3810.97 131.97 3828.11 158.29 3845.24 147.33 3862.38 99.86 3879.52 133.46 3896.65 123.62 3913.79 140.82 3930.92 117.63 3948.06 87.2 3965.2 106.33 3982.33 94.36 3999.47 89.68 4016.61 76.67 4033.74 38.26 4050.88 31.01 4068.01 52.86 4085.15 54.25 4102.29 58.01 4119.42 82.49 4136.56 147.7 4153.69 120.84 4170.83 119.17 4187.97 101.21 4205.1 187.9 4222.24 167.24 4239.38 108.65 4256.51 39.24 4273.65 26.45 4290.78 66.29 4307.92 41.25 4325.06 41.32 4342.19 1.8 4359.33 20.2 4376.46 23.82 4393.6 47.66 4410.74 31.02 4427.87 49.41 4445.01 82.11 4462.15 230.3 4479.28 356.64 4496.42 374.42 4513.55 545.52 4530.69 596.84 4547.83 410.95 4564.96 523.86 4582.1 355.27 4599.23 494.56 4616.37 531.41 4633.51 820.71 4650.64 653.03 4667.78 863.5 4684.91 1201.47 4702.05 916.3 4719.19 1346.87 4736.32 1196.18 4753.46 1388.47 4770.6 1361.42 4787.73 1492.61 4804.87 1576.23 4822 1272.68 4839.14 1201.47 4856.28 1007.3 4873.41 1138.8 4890.55 1039.58 4907.69 1098.52 4924.82 1238.4 4941.96 1170.9 4959.09 1222.74 4976.23 988.94 4993.36 992.69 5010.5 880.68 5027.64 839.62 5044.77 886.83 5061.91 806.52 5079.05 870.52 5096.18 865.72 5113.32 808.43 5396.85 45.1 5938.78 45.1" fill="none" stroke="#000" stroke-linecap="round" stroke-miterlimit="10" stroke-width="2" />
            <polyline points="122.01 6116.91 139.15 6115.84 156.28 6106.57 173.42 6049.71 190.56 6059.84 207.69 6050.86 224.83 6035.93 241.96 6027.6 259.1 6063.41 276.24 6088.06 293.37 6094.99 310.51 6026.45 327.64 6048.38 344.78 6134.32 361.92 6145.33 379.05 6162.96 396.19 6159.54 413.32 6304.95 430.46 6257.83 447.6 6210.61 464.73 6169.72 481.87 6213.77 499 6275.13 516.14 6230.23 533.28 6249.02 550.41 6315.05 567.55 6310.35 584.69 6326.33 601.82 6358.67 618.96 6347.68 636.09 6409.4 653.23 6474.11 670.37 6369.55 687.5 6343.49 704.64 6321.91 721.77 6253.73 738.91 6210.06 756.05 6210.38 773.18 6226.46 790.32 6202.54 807.46 6224.34 824.59 6198.29 841.73 6139.64 858.86 6121.63 876 6087.14 893.14 6097.71 910.27 6111.73 927.41 6176.9 944.54 6163.3 961.68 6132.17 978.82 6111.44 995.95 6065.69 1013.09 6056.03 1030.23 6023.09 1047.36 6027.64 1064.5 6061.8 1081.63 6038.44 1098.77 6005.69 1115.91 6009.19 1133.04 5983.27 1150.18 5975.7 1167.32 5994.77 1184.45 6015.02 1201.59 6003.15 1218.72 6035.88 1235.86 6004.82 1253 5979.36 1270.13 5941.6 1287.27 5986.29 1304.4 5936.91 1321.54 5956.77 1338.68 5967.4 1355.81 6020.3 1372.95 6054.93 1390.09 6112.6 1407.22 6262.39 1424.36 6204.62 1441.49 6188.69 1458.63 6093.7 1475.77 6136.81 1492.9 6188.38 1510.04 6105.98 1527.17 6236.58 1544.31 6240.52 1561.45 6170.83 1578.58 6113.28 1595.72 6142.51 1612.86 6103.91 1629.99 6119.44 1647.13 6248.52 1664.26 6193.59 1681.4 6208.02 1698.54 6191.9 1715.67 6129.13 1732.81 6134.8 1749.94 6182.59 1767.08 6127.25 1784.22 6051.86 1801.35 6059.27 1818.49 6067.69 1835.63 6069.46 1852.76 6023.39 1869.9 6010.03 1887.03 6019.6 1904.17 6032.08 1921.31 6014.58 1938.44 6019.23 1955.58 6016.28 1972.71 6051.41 1989.85 6054.21 2006.99 6118.23 2024.12 6073.11 2041.26 6098.28 2058.39 6147.32 2075.53 6115.15 2092.67 6163.99 2109.8 6230.49 2126.94 6183.61 2144.07 6124.24 2161.21 6138.35 2178.35 6209.73 2195.48 6166.65 2212.62 6141.31 2229.76 6084.07 2246.89 6088.59 2264.03 6034.68 2281.16 6047.9 2298.3 6030.3 2315.44 6066.56 2332.57 6026.99 2349.71 6058.61 2366.84 6050.26 2383.98 6014.7 2401.12 5983.82 2418.25 5939.18 2435.39 5965.65 2452.53 5951.04 2469.66 5957.3 2486.8 5906.64 2503.93 5881.42 2521.07 5880.63 2538.21 5893.58 2555.34 5880.71 2572.48 5858.74 2589.61 5864.68 2606.75 5852.93 2623.89 5855.08 2641.02 5856.74 2658.16 5823.44 2675.3 5818.53 2692.43 5807.37 2709.57 5831.04 2726.7 5842.09 2743.84 5834.73 2760.98 5774.06 2778.11 5765.74 2795.25 5734.9 2812.39 5756.29 2829.52 5808.81 2846.66 5834.32 2863.79 5809.52 2880.93 5807.35 2898.07 5761.11 2915.2 5779.8 2932.34 5782.85 2949.47 5762.45 2966.61 5728.36 2983.75 5718.9 3000.88 5676.15 3018.02 5671.23 3035.16 5668.88 3052.29 5636.83 3069.43 5616.5 3086.56 5605.35 3103.7 5601.46 3120.84 5564.01 3137.97 5572.51 3155.11 5605.17 3172.24 5590.84 3189.38 5526.41 3206.52 5564.89 3223.65 5537.57 3240.79 5539.13 3257.92 5506.45 3275.06 5466.48 3292.2 5479.72 3309.33 5428.5 3326.47 5440.68 3343.61 5436.71 3360.74 5383.68 3377.88 5366.55 3395.01 5376.31 3412.15 5369.33 3429.29 5359.25 3446.42 5406.43 3463.56 5501.03 3480.69 5430.79 3497.83 5427.84 3514.97 5415.04 3532.1 5494.76 3549.24 5428.79 3566.38 5323.97 3583.51 5302.04 3600.65 5267.85 3617.78 5295.67 3634.92 5237.55 3652.06 5231.86 3669.19 5184.99 3686.33 5192.52 3703.46 5182.17 3720.6 5181.33 3737.74 5135.84 3754.87 5171.51 3772.01 5265.45 3789.14 5456.87 3806.28 5594.6 3823.42 5586.43 3840.55 5809.62 3857.69 5809.14 3874.83 5601.84 3891.96 5746.26 3909.1 5566.33 3926.23 5716.9 3943.37 5804.7 3960.51 6141.37 3977.64 5929.34 3994.78 6140.63 4011.91 6544.81 4029.05 6182.2 4046.19 6704.92 4063.32 6473.17 4080.46 6658.99 4097.6 6572.4 4114.73 6718.42 4131.87 6728.58 4149 6428.41 4166.14 6446.49 4183.28 6223.87 4200.41 6382.88 4217.55 6236.47 4234.69 6276.36 4251.82 6459.27 4268.96 6390.99 4286.09 6452.53 4303.23 6161.54 4320.36 6175.53 4337.5 6065.83 4354.64 6032.06 4371.77 6011.14 4388.91 5836.96 4406.05 5902.98 4423.18 5828 4440.32 5804.29 4723.85 5145.1 5265.78 5145.1" fill="none" stroke="#000" stroke-linecap="round" stroke-miterlimit="10" stroke-width="2" />
        </g>
    </g>
</svg>
