<svg xmlns="http://www.w3.org/2000/svg" viewBox="0 0 1562.14 1468.89">
    <title>mk1</title>
    <g id="Layer_2" data-name="Layer 2">
        <g id="Layer_4" data-name="Layer 4">
            <g id="Market-one">
                <polygon points="193.69 540.54 197.84 486.87 188.61 492.23 193.69 540.54" fill="#b5b5b5" />
                <polygon points="18.6 139.84 19.79 131.64 0 143.14 6.31 146.99 18.6 139.84" fill="#bebebe" />
                <polygon points="11.99 149.45 17.77 145.61 18.6 139.84 6.31 146.99 11.99 149.45" fill="#afafaf" />
                <polygon points="103.14 237.84 109.53 354.39 114.63 325.5 120.82 290.44 126.99 260.53 140.32 252.78 138.38 217.36 103.14 237.84" fill="#afafaf" />
                <polygon points="176.43 444.31 181.66 441.27 181.5 439.77 176.43 444.31" fill="#6e6e6e" />
                <polygon points="135.02 315.56 116.02 326.59 109.84 361.57 138.94 344.66 135.02 315.56" fill="#959595" />
                <polygon points="170.49 413.54 176.19 441.87 181.42 437.19 211.14 419.92 205.73 393.06 170.49 413.54" fill="silver" />
                <polygon points="181.42 437.19 188.61 492.23 197.84 486.87 199.45 465.93 205.63 448 211.74 433.92 213.58 418.51 211.14 419.92 181.42 437.19" fill="#b8b8b8" />
                <polygon points="200.86 466.98 194.55 548.77 229.79 528.3 236.1 446.5 200.86 466.98" fill="#a0a0a0" />
                <polygon points="132.96 300.31 130.88 286.51 122.21 291.55 116.02 326.59 135.02 315.56 132.96 300.31" fill="#959595" />
                <polygon points="134.36 300.83 139.72 349.26 145.09 320.5 172.3 304.69 169.6 280.36 134.36 300.83" fill="#b6b6b6" />
                <polygon points="151.13 339.73 146.05 323.88 140.3 354.77 152.1 347.91 151.13 339.73" fill="#949494" />
                <polygon points="158.32 396.38 163.49 396.1 198.73 375.62 193.56 375.9 158.32 396.38" fill="#838383" />
                <polygon points="163.49 396.1 170.49 413.54 205.73 393.06 198.73 375.62 163.49 396.1" fill="#d1d1d1" />
                <polygon points="19.14 146.89 12.86 151.28 48.1 130.8 53.42 127.08 53.4 126.98 19.14 146.89" fill="#6d6d6d" />
                <polygon points="206.97 449.31 200.86 466.98 236.1 446.5 242.21 428.83 206.97 449.31" fill="#868686" />
                <polygon points="152.46 339.94 158.32 396.38 193.56 375.9 187.7 319.46 152.46 339.94" fill="#b5b5b5" />
                <polygon points="145.09 320.5 152.46 339.94 187.7 319.46 180.33 300.02 172.3 304.69 145.09 320.5" fill="#d0d0d0" />
                <polygon points="213.13 435.03 206.97 449.31 242.21 428.83 248.37 414.55 213.13 435.03" fill="gray" />
                <polygon points="53.4 126.98 49.46 105.47 31.21 116.08 25.11 105.6 19.14 146.89 53.4 126.98" fill="#989898" />
                <polygon points="91.84 219.95 97.67 237.2 132.91 216.72 127.08 199.47 91.84 219.95" fill="#cdcdcd" />
                <polygon points="30.73 114.02 36.23 110.56 42.29 101.94 63.56 89.58 59.18 82.42 23.94 102.9 30.73 114.02" fill="#d9d9d9" />
                <polygon points="97.67 237.2 103.14 237.84 138.38 217.36 132.91 216.72 97.67 237.2" fill="#919191" />
                <polygon points="85.91 207.7 91.84 219.95 127.08 199.47 121.15 187.22 85.91 207.7" fill="#d5d5d5" />
                <polygon points="66.54 163.1 67.86 152.04 61.63 155.66 66.54 163.1" fill="#d9d9d9" />
                <polygon points="49.41 105.18 37.41 112.15 31.21 116.08 49.46 105.47 49.41 105.18" fill="#6d6d6d" />
                <polygon points="127.65 265.21 122.21 291.55 130.88 286.51 127.65 265.21" fill="#929292" />
                <polygon points="126.99 260.53 134.36 300.83 169.6 280.36 162.23 240.05 140.32 252.78 126.99 260.53" fill="#bebebe" />
                <polygon points="61.63 155.66 67.86 152.04 71.28 123.27 55.68 132.33 61.63 155.66" fill="#c5c5c5" />
                <polygon points="48.6 100.77 43.47 103.53 37.41 112.15 49.41 105.18 48.6 100.77" fill="#747474" />
                <polygon points="48.51 98.55 55.68 132.33 71.28 123.27 72.61 112 88.94 102.51 83.75 78.07 48.51 98.55" fill="#c1c1c1" />
                <polygon points="42.29 101.94 48.51 98.55 83.75 78.07 77.53 81.46 63.56 89.58 42.29 101.94" fill="#6e6e6e" />
                <polygon points="249.79 376.53 246.57 367.07 219.36 382.88 213.13 435.03 248.37 414.55 253.15 374.58 249.79 376.53" fill="#9b9b9b" />
                <polygon points="78.65 133.71 73.67 116.01 67.79 165.48 80.62 158.02 78.65 133.71" fill="#9b9b9b" />
                <polygon points="80.01 134.01 85.91 207.7 121.15 187.22 115.25 113.53 80.01 134.01" fill="#b2b2b2" />
                <polygon points="72.61 112 80.01 134.01 115.25 113.53 107.86 91.52 88.94 102.51 72.61 112" fill="#ccc" />
                <polygon points="246.28 366.23 237.62 371.26 230.48 354.51 225.42 351.36 219.36 382.88 246.57 367.07 246.28 366.23" fill="#939393" />
                <polygon points="230.95 353.17 257.32 337.84 258.46 329.68 224.15 349.63 230.95 353.17" fill="#b7b7b7" />
                <polygon points="236.84 368.52 242.42 353.91 256.19 345.91 257.32 337.84 230.95 353.17 236.84 368.52" fill="#d0d0d0" />
                <polygon points="243.12 356.92 237.62 371.26 246.28 366.23 243.12 356.92" fill="#838383" />
                <polygon points="242.42 353.91 249.06 373.45 254.56 357.53 256.19 345.91 242.42 353.91" fill="#cdcdcd" />
                <polygon points="255.96 358.64 249.79 376.53 253.15 374.58 285.03 356.05 289.83 342.15 289.45 339.18 255.96 358.64" fill="#868686" />
                <polygon points="289.45 339.18 285.16 304.85 283.9 301.73 262.15 314.37 255.96 358.64 289.45 339.18" fill="#999" />
                <polygon points="286.45 304.89 292.23 359.61 297.22 353.39 303.35 331.58 309.48 318.14 314.92 288.35 286.45 304.89" fill="#b5b5b5" />
                <polygon points="281.38 295.5 268.27 303.12 262.15 314.37 283.9 301.73 281.38 295.5" fill="#7a7a7a" />
                <polygon points="298.56 354.72 292.37 362.49 327.61 342.01 333.8 334.24 298.56 354.72" fill="#717171" />
                <polygon points="279.22 290.15 274.09 279.86 268.27 303.12 281.38 295.5 279.22 290.15" fill="#8e8e8e" />
                <polygon points="304.71 332.84 298.56 354.72 333.8 334.24 339.95 312.36 304.71 332.84" fill="#8b8b8b" />
                <polygon points="280.36 289.82 286.45 304.89 314.92 288.35 315.65 284.36 320.27 280.91 315.6 269.34 280.36 289.82" fill="#d1d1d1" />
                <rect x="273.95" y="266.05" width="40.76" height="14.51" transform="matrix(0.86, -0.5, 0.5, 0.86, -97.47, 184.89)" fill="#d8d8d8" />
                <polygon points="310.85 319.32 304.71 332.84 339.95 312.36 346.09 298.84 310.85 319.32" fill="#7e7e7e" />
                <polygon points="341.33 296.44 336.31 274.45 317 285.67 310.85 319.32 346.09 298.84 347.15 293.05 341.33 296.44" fill="#949494" />
                <polygon points="336.31 274.45 336.11 273.59 323.13 281.13 317 285.67 336.31 274.45" fill="#6d6d6d" />
                <polygon points="334.05 264.56 329.05 258.61 323.13 281.13 336.11 273.59 334.05 264.56" fill="#8c8c8c" />
                <polygon points="335 263.84 340.8 293.07 346.12 279.58 352.26 256.37 362.64 250.34 363.75 247.13 335 263.84" fill="silver" />
                <polygon points="335 263.84 363.75 247.13 364.48 245.03 369.2 242.29 363.15 236.06 327.91 256.54 335 263.84" fill="#d4d4d4" />
                <polygon points="377.17 263.56 347.48 280.81 341.33 296.44 347.15 293.05 376.57 275.96 379.17 269.34 377.17 263.56" fill="#828282" />
                <polygon points="456.73 404.22 462.09 521.96 467.27 485.58 473.39 475.97 479.67 402.05 492.46 394.62 491.97 383.74 456.73 404.22" fill="#aeaeae" />
                <polygon points="493.02 487.37 490.87 473.85 468.65 486.76 462.46 530.3 497.7 509.82 501.3 484.51 501.19 482.63 493.02 487.37" fill="#989898" />
                <polygon points="489.99 468.25 474.79 477.09 468.65 486.76 490.87 473.85 489.99 468.25" fill="#767676" />
                <polygon points="485.66 440.99 480.63 408.41 474.79 477.09 489.99 468.25 485.66 440.99" fill="#9f9f9f" />
                <polygon points="487.05 441.5 492.17 480.68 496.56 435.97 487.05 441.5" fill="#b8b8b8" />
                <polygon points="479.67 402.05 487.05 441.5 496.56 435.97 497.88 422.6 520.16 409.65 514.91 381.57 492.46 394.62 479.67 402.05" fill="#bebebe" />
                <polygon points="501.19 482.63 498.39 432.67 493.02 487.37 501.19 482.63" fill="#9d9d9d" />
                <polygon points="509.84 538.44 510.86 529.74 505.04 533.12 509.84 538.44" fill="#d6d6d6" />
                <polygon points="377.17 263.56 376.63 262.03 374.52 255.36 359.69 263.98 353.43 258.35 347.48 280.81 377.17 263.56" fill="#8c8c8c" />
                <polygon points="352.26 256.37 358.58 261.99 362.64 250.34 352.26 256.37" fill="#cfcfcf" />
                <polygon points="374.52 255.36 370.99 244.2 365.77 246.5 359.69 263.98 374.52 255.36" fill="#858585" />
                <polygon points="377.93 262.12 383.48 280.57 388.85 275.14 407.51 264.29 412.53 242.01 377.93 262.12" fill="#cacaca" />
                <polygon points="383.89 282.94 389.59 279.63 389.11 277.66 383.89 282.94" fill="#6e6e6e" />
                <polygon points="395.45 303.05 400.89 283.72 407.02 266.43 407.51 264.29 388.85 275.14 395.45 303.05" fill="#c4c4c4" />
                <polygon points="364.48 245.03 370.78 242.12 406.02 221.64 399.72 224.55 369.2 242.29 364.48 245.03" fill="#707070" />
                <polygon points="370.78 242.12 377.93 262.12 412.53 242.01 412.83 240.69 406.02 221.64 370.78 242.12" fill="#cecece" />
                <polygon points="497.88 422.6 505.04 533.12 510.86 529.74 515.96 486.08 522.17 442.57 535.25 434.97 533.12 402.12 520.16 409.65 497.88 422.6" fill="#b0b0b0" />
                <polygon points="541.36 473.16 517.37 487.1 511.13 540.5 544.5 521.11 541.36 473.16" fill="#9b9b9b" />
                <polygon points="420.55 280.27 419.56 274.91 402.25 284.96 396.1 306.8 431.34 286.32 435.49 271.58 420.55 280.27" fill="#8b8b8b" />
                <polygon points="450.77 353.53 456.73 404.22 491.97 383.74 486.01 333.05 450.77 353.53" fill="#b7b7b7" />
                <polygon points="541.36 473.16 540.8 464.53 529.58 471.05 523.1 447.02 517.37 487.1 541.36 473.16" fill="#989898" />
                <polygon points="522.17 442.57 528.8 467.14 534.36 441.88 558.9 427.62 557.41 422.09 535.25 434.97 522.17 442.57" fill="#c7c7c7" />
                <polygon points="540.8 464.53 540.4 458.48 535.34 444.9 529.58 471.05 540.8 464.53" fill="#909090" />
                <polygon points="541.72 458.61 547.18 560.35 552.38 525.69 566.33 517.59 570.76 483.59 579.14 478.72 576.96 438.13 541.72 458.61" fill="#afafaf" />
                <polygon points="583.07 528.71 559.75 542.27 553.47 528.82 547.58 568.12 582.82 547.64 584.71 535.02 584.19 535.32 583.07 528.71" fill="#979797" />
                <polygon points="559.09 539.84 564.55 531.21 566.33 517.59 552.38 525.69 559.09 539.84" fill="#d5d5d5" />
                <polygon points="417.27 262.47 408.4 267.62 402.25 284.96 419.56 274.91 417.27 262.47" fill="#858585" />
                <polygon points="583.07 528.71 582.1 522.99 565.94 532.38 559.75 542.27 583.07 528.71" fill="#767676" />
                <polygon points="444.78 321.77 450.77 353.53 486.01 333.05 480.02 301.29 444.78 321.77" fill="#bfbfbf" />
                <polygon points="413.81 243.66 408.4 267.62 417.27 262.47 413.81 243.66" fill="#909090" />
                <polygon points="419.83 275.15 425.35 242.35 450.14 227.94 448.42 218.65 413.18 239.13 419.83 275.15" fill="#bebebe" />
                <polygon points="534.36 441.88 541.72 458.61 576.96 438.13 569.6 421.4 558.9 427.62 534.36 441.88" fill="#d3d3d3" />
                <polygon points="431.52 262.82 426.33 245.91 420.55 280.27 435.49 271.58 435.78 271.41 431.52 262.82" fill="#969696" />
                <polygon points="438.68 274.62 444.78 321.77 480.02 301.29 473.92 254.15 438.68 274.62" fill="#b8b8b8" />
                <polygon points="432.69 262.56 438.68 274.62 473.92 254.15 467.93 242.08 432.69 262.56" fill="#d6d6d6" />
                <polygon points="425.35 242.35 432.69 262.56 467.93 242.08 460.58 221.87 450.14 227.94 425.35 242.35" fill="#cfcfcf" />
                <polygon points="582.1 522.99 576.88 492.36 572.01 485.82 565.94 532.38 582.1 522.99" fill="#9a9a9a" />
                <polygon points="577.92 491.79 583.46 529.8 589 492.59 589.83 484.87 577.92 491.79" fill="#bababa" />
                <polygon points="570.76 483.59 577.92 491.79 589.83 484.87 591.25 471.69 579.14 478.72 570.76 483.59" fill="#d7d7d7" />
                <polygon points="590.41 493.6 584.19 535.32 584.71 535.02 619.43 514.84 625.65 473.12 590.41 493.6" fill="#989898" />
                <polygon points="614.84 460.49 607.93 455.7 601.53 444.92 596.5 436.98 590.41 493.6 625.65 473.12 627.82 452.94 614.84 460.49" fill="#9c9c9c" />
                <polygon points="602.48 444.25 617.81 435.35 619.63 425.26 625.84 417.63 630.94 414.67 630.49 414.06 595.25 434.54 602.48 444.25" fill="#d9d9d9" />
                <polygon points="608.42 454.44 615.04 450.59 617.81 435.35 602.48 444.25 608.42 454.44" fill="#d8d8d8" />
                <polygon points="613.59 458.64 615.04 450.59 608.42 454.44 613.59 458.64" fill="#ccc" />
                <polygon points="711.15 642.36 716.5 612.29 720.78 581.33 705.79 590.04 711.15 642.36" fill="#b5b5b5" />
                <polygon points="731.43 605.48 717.91 613.34 711.71 648.14 734.84 634.7 731.43 605.48" fill="#959595" />
                <polygon points="639.18 444.18 631.93 429.92 627.95 422.47 621 426.51 614.84 460.49 627.82 452.94 650.08 440.01 650.1 439.88 648.92 438.52 639.18 444.18" fill="#949494" />
                <polygon points="669.1 478.42 674.95 529.82 680.29 500.97 707.44 485.19 704.34 457.94 669.1 478.42" fill="#b6b6b6" />
                <polygon points="681.18 504.83 675.51 535.42 686.89 528.8 686.32 525.39 681.18 504.83" fill="#949494" />
                <polygon points="687.69 525.71 693.13 565.43 698.45 545.78 726.27 529.61 722.93 505.23 687.69 525.71" fill="#b9b9b9" />
                <polygon points="698.98 550.09 693.66 569.75 701.09 565.44 698.98 550.09" fill="#8c8c8c" />
                <polygon points="698.45 545.78 705.79 590.04 720.78 581.33 722.72 567.32 739.08 557.8 733.68 525.3 726.27 529.61 698.45 545.78" fill="#bcbcbc" />
                <polygon points="626.53 419.82 621 426.51 627.95 422.47 626.53 419.82" fill="#717171" />
                <polygon points="633.03 429.5 638.45 441.77 644.03 431.94 671.37 416.05 668.27 409.02 633.03 429.5" fill="#d3d3d3" />
                <polygon points="625.84 417.63 633.03 429.5 668.27 409.02 661.08 397.15 630.94 414.67 625.84 417.63" fill="#d9d9d9" />
                <polygon points="728.78 582.74 723.83 570.45 717.91 613.34 731.43 605.48 728.78 582.74" fill="#999" />
                <polygon points="730.07 582.8 735.57 639.59 740.86 612.45 747 595.22 750.49 570.93 730.07 582.8" fill="#b4b4b4" />
                <polygon points="742.24 613.62 736.07 645.24 771.31 624.76 777.48 593.14 742.24 613.62" fill="#939393" />
                <polygon points="680.29 500.97 687.69 525.71 722.93 505.23 715.53 480.49 707.44 485.19 680.29 500.97" fill="#c9c9c9" />
                <polygon points="663.41 472.98 669.1 478.42 704.34 457.94 698.65 452.5 663.41 472.98" fill="#d2d2d2" />
                <polygon points="648.92 438.52 644.97 433.97 639.18 444.18 648.92 438.52" fill="#797979" />
                <polygon points="722.72 567.32 730.07 582.8 750.49 570.93 753.2 552.05 758.87 548.76 757.96 546.84 739.08 557.8 722.72 567.32" fill="#d5d5d5" />
                <polygon points="644.03 431.94 650.8 439.12 686.04 418.64 679.26 411.46 671.37 416.05 644.03 431.94" fill="#d5d5d5" />
                <polygon points="650.8 439.12 656.58 440.16 691.82 419.68 686.04 418.64 650.8 439.12" fill="#979797" />
                <polygon points="656.58 440.16 663.41 472.98 698.65 452.5 691.82 419.68 656.58 440.16" fill="#c1c1c1" />
                <polygon points="748.39 596.35 742.24 613.62 777.48 593.14 783.63 575.87 748.39 596.35" fill="#858585" />
                <polygon points="783.02 547.32 760.67 560.31 754.46 554.16 748.39 596.35 783.63 575.87 786.56 555.5 785.02 556.39 783.02 547.32" fill="#989898" />
                <polygon points="753.2 552.05 759.42 558.2 761.07 547.48 758.87 548.76 753.2 552.05" fill="#d3d3d3" />
                <polygon points="783.02 547.32 779.32 530.53 772.86 534.29 766.58 521.73 760.67 560.31 783.02 547.32" fill="#979797" />
                <polygon points="772.14 531.86 777.7 521.98 804.77 506.25 800.71 498.25 765.47 518.73 772.14 531.86" fill="#d6d6d6" />
                <polygon points="778.1 524.98 772.86 534.29 779.32 530.53 778.1 524.98" fill="#797979" />
                <polygon points="777.7 521.98 784.31 552.11 789.81 526.45 811.83 513.65 813.96 506.13 812.94 501.5 804.77 506.25 777.7 521.98" fill="#c2c2c2" />
                <polygon points="790.57 530.5 785.02 556.39 786.56 555.5 795.36 550.39 790.57 530.5" fill="#919191" />
                <polygon points="801.96 552.25 802.02 552.01 796.88 555 801.96 552.25" fill="#6e6e6e" />
                <polygon points="789.81 526.45 796.88 555 802.02 552.01 808.07 526.91 811.83 513.65 789.81 526.45" fill="#c5c5c5" />
                <polygon points="809.45 528.11 803.29 553.63 838.53 533.15 844.69 507.63 809.45 528.11" fill="#8e8e8e" />
                <polygon points="839.98 498.7 836.32 494.31 815.61 506.35 809.45 528.11 844.69 507.63 848.64 493.67 839.98 498.7" fill="#8b8b8b" />
                <polygon points="836 493.93 827.72 498.74 821.26 476.22 815.61 506.35 836.32 494.31 836 493.93" fill="#949494" />
                <polygon points="827.3 496.09 832.61 488.77 840.81 484.01 844.78 459.76 845.52 457.69 820.4 472.29 827.3 496.09" fill="#c9c9c9" />
                <polygon points="833.43 490.86 827.72 498.74 836 493.93 833.43 490.86" fill="#737373" />
                <polygon points="838.78 496.43 840.81 484.01 832.61 488.77 838.78 496.43" fill="#d8d8d8" />
                <polygon points="1426.39 1465.92 1426.73 1453.81 1421.69 1456.74 1426.39 1465.92" fill="#d7d7d7" />
                <polygon points="864.33 460.96 860.27 452.7 846.17 460.9 839.98 498.7 848.64 493.67 875.22 478.22 879.49 452.15 864.33 460.96" fill="#969696" />
                <polygon points="860.27 452.7 857.34 446.73 852.14 444.28 846.17 460.9 860.27 452.7" fill="#858585" />
                <polygon points="857.63 445.22 892.87 424.74 886.19 422.09 850.95 442.57 857.63 445.22" fill="#acacac" />
                <polygon points="857.63 445.22 863.75 458.69 869.22 452.42 875.32 438.05 893.99 427.2 892.87 424.74 857.63 445.22" fill="#d4d4d4" />
                <polygon points="882.61 447.89 882.01 447.15 870.51 453.84 864.33 460.96 879.49 452.15 891.79 445 890.11 443.54 882.61 447.89" fill="#707070" />
                <polygon points="882.01 447.15 876.31 440.18 870.51 453.84 882.01 447.15" fill="gray" />
                <polygon points="875.32 438.05 881.88 445.87 887.58 440.19 904.91 430.12 905.77 426.84 914.22 421.93 910.56 417.57 893.99 427.2 875.32 438.05" fill="#d7d7d7" />
                <polygon points="888.44 442.09 882.61 447.89 890.11 443.54 888.44 442.09" fill="#6e6e6e" />
                <polygon points="1380.5 960.58 1385.07 1257.38 1391.13 1000.74 1416.44 986.03 1415.74 940.1 1380.5 960.58" fill="#aaa" />
                <polygon points="1391.6 1041.93 1385.64 1294.23 1395.28 1288.63 1391.6 1041.93" fill="#a6a6a6" />
                <polygon points="1391.13 1000.74 1397.07 1401.12 1402.62 1245.38 1430.07 1229.43 1426.37 980.26 1416.44 986.03 1391.13 1000.74" fill="#aaa" />
                <polygon points="1409.68 1401.59 1403.35 1265.55 1397.42 1432.03 1418.66 1419.68 1417.58 1397 1409.68 1401.59" fill="#a4a4a4" />
                <polygon points="1402.62 1245.38 1409.27 1389.96 1414.55 1333.4 1430.37 1324.21 1433.07 1227.68 1430.07 1229.43 1402.62 1245.38" fill="#aeaeae" />
                <polygon points="1415.04 1344.18 1409.68 1401.59 1417.58 1397 1415.04 1344.18" fill="#9e9e9e" />
                <polygon points="887.58 440.19 894.38 445.56 902.06 441.09 904.91 430.12 887.58 440.19" fill="#cacaca" />
                <polygon points="899.78 449.88 902.06 441.09 894.38 445.56 899.78 449.88" fill="#cbcbcb" />
                <polygon points="1421.69 1456.74 1426.73 1453.81 1430.37 1324.21 1414.55 1333.4 1421.69 1456.74" fill="#afafaf" />
                <polygon points="918.82 424.43 913.1 427.76 907.06 428.33 900.98 451.73 922.71 439.1 918.82 424.43" fill="#8d8d8d" />
                <polygon points="905.77 426.84 912.07 426.04 918.08 420.52 942.84 406.13 941.01 406.36 914.22 421.93 905.77 426.84" fill="#7e7e7e" />
                <polygon points="930.82 455.59 936.28 452.42 938.43 436.5 925.3 444.14 930.82 455.59" fill="#d5d5d5" />
                <polygon points="936.15 453.41 936.28 452.42 930.82 455.59 936.15 453.41" fill="#717171" />
                <polygon points="918.82 424.43 918.41 422.88 913.1 427.76 918.82 424.43" fill="#6e6e6e" />
                <polygon points="918.08 420.52 925.3 444.14 938.43 436.5 942.33 407.64 948.51 404.05 948.92 402.6 942.84 406.13 918.08 420.52" fill="#cacaca" />
                <polygon points="973.3 472.4 978.74 457.52 985.88 453.38 988.51 438.84 967.96 450.78 973.3 472.4" fill="#c5c5c5" />
                <polygon points="960.62 404 959.44 399.9 949.81 405.5 943.7 408.94 937.52 454.72 965.08 438.71 960.62 404" fill="#999" />
                <polygon points="1004.44 451.13 1003.58 450.37 986.2 460.47 979.96 459.18 973.95 475.58 1009.19 455.1 1012.33 446.55 1004.44 451.13" fill="#848484" />
                <polygon points="942.33 407.64 948.5 404.08 948.51 404.05 942.33 407.64" fill="#6e6e6e" />
                <polygon points="984.88 458.9 985.88 453.38 978.74 457.52 984.88 458.9" fill="#9b9b9b" />
                <polygon points="1440.56 1245.53 1434.43 1230.6 1427.76 1468.89 1462.99 1448.41 1469.04 1232.73 1468.87 1229.08 1440.56 1245.53" fill="#a5a5a5" />
                <polygon points="1439.27 1241.38 1439.97 1222.4 1433.11 1226.38 1439.27 1241.38" fill="#d2d2d2" />
                <polygon points="961.97 404.26 967.96 450.78 988.51 438.84 990.99 425.11 1001.72 418.87 997.21 383.78 961.97 404.26" fill="#b8b8b8" />
                <polygon points="959.44 399.9 955.39 385.82 949.81 405.5 959.44 399.9" fill="#8b8b8b" />
                <polygon points="961.97 404.26 997.21 383.78 989.84 362.11 954.6 382.59 961.97 404.26" fill="#cdcdcd" />
                <polygon points="997.48 445.07 991.97 428.51 986.2 460.47 1003.58 450.37 997.48 445.07" fill="#949494" />
                <polygon points="998.24 444.08 1003.39 449.18 1008.57 438.08 998.24 444.08" fill="#d3d3d3" />
                <polygon points="990.99 425.11 998.24 444.08 1008.57 438.08 1009.24 436.63 1015.38 412.35 1021.51 407.98 1021.65 407.29 1001.72 418.87 990.99 425.11" fill="#d0d0d0" />
                <polygon points="1010.6 437.88 1004.44 451.13 1012.33 446.55 1039.68 430.65 1045.84 417.4 1010.6 437.88" fill="#7e7e7e" />
                <polygon points="1468.87 1229.08 1467.18 1192.3 1452.87 1200.61 1446.51 1084.55 1440.56 1245.53 1468.87 1229.08" fill="#a4a4a4" />
                <polygon points="1452.23 1185.61 1457.87 1083.63 1482.26 1069.46 1480.98 1045.86 1445.74 1066.34 1452.23 1185.61" fill="#afafaf" />
                <polygon points="1463.85 1119.88 1458.96 1090.37 1452.87 1200.61 1467.18 1192.3 1463.85 1119.88" fill="#a2a2a2" />
                <polygon points="1465.25 1120.41 1470.56 1263.73 1475.74 1220.31 1483.35 1215.89 1486.46 1108.08 1465.25 1120.41" fill="#adadad" />
                <polygon points="1476.47 1227.06 1470.92 1273.58 1482.01 1267.13 1476.47 1227.06" fill="#9b9b9b" />
                <polygon points="1475.74 1220.31 1481.95 1264.59 1483.35 1215.89 1475.74 1220.31" fill="#b9b9b9" />
                <polygon points="1016.71 413.71 1010.6 437.88 1045.84 417.4 1051.95 393.24 1016.71 413.71" fill="#8d8d8d" />
                <polygon points="1022.87 409.29 1016.71 413.71 1051.95 393.24 1058.11 388.81 1022.87 409.29" fill="#6d6d6d" />
                <polygon points="1041.2 379.01 1034.71 377.74 1028.98 378.22 1022.87 409.29 1058.11 388.81 1062.46 366.65 1041.2 379.01" fill="#939393" />
                <polygon points="1034.09 375.91 1041.52 371.6 1042.45 368.17 1027.65 376.77 1034.09 375.91" fill="#7e7e7e" />
                <polygon points="1039.94 377.41 1041.52 371.6 1034.09 375.91 1039.94 377.41" fill="#9e9e9e" />
                <polygon points="1457.87 1083.63 1465.25 1120.41 1486.46 1108.08 1487.67 1066.32 1482.26 1069.46 1457.87 1083.63" fill="silver" />
                <polygon points="1080.41 337.18 1047.34 356.39 1041.2 379.01 1062.46 366.65 1076.44 358.53 1081.26 340.79 1080.41 337.18" fill="#8c8c8c" />
                <polygon points="1078.81 330.33 1065.68 337.96 1062.8 337.97 1053.42 343.42 1047.34 356.39 1080.41 337.18 1078.81 330.33" fill="#7e7e7e" />
                <polygon points="1059.35 337.98 1053.42 343.42 1062.8 337.97 1059.35 337.98" fill="#6e6e6e" />
                <polygon points="1064.38 336.45 1065.36 332.15 1058.34 336.23 1064.38 336.45" fill="#8a8a8a" />
                <polygon points="1495.89 1055.85 1489.77 1043.57 1483.1 1275.03 1518.34 1254.55 1524.55 1039.2 1495.89 1055.85" fill="#a5a5a5" />
                <polygon points="1494.65 1052.49 1495.89 1035.67 1488.43 1040 1494.65 1052.49" fill="#d6d6d6" />
                <polygon points="1076.57 320.81 1071.55 312.15 1065.68 337.96 1078.81 330.33 1076.57 320.81" fill="#909090" />
                <polygon points="1083.48 349 1088.64 342.07 1092.46 311.89 1077.71 320.47 1083.48 349" fill="silver" />
                <polygon points="1090.03 343.25 1083.82 351.71 1119.06 331.23 1125.27 322.77 1090.03 343.25" fill="#737373" />
                <polygon points="1077.71 320.47 1092.46 311.89 1094.51 295.75 1070.46 309.72 1077.71 320.47" fill="#d9d9d9" />
                <polygon points="1363.03 675.64 1367.86 929.06 1373.49 783.69 1400.42 768.04 1398.27 655.16 1363.03 675.64" fill="#ababab" />
                <polygon points="1374.14 804.32 1368.34 954.23 1378.7 948.2 1374.14 804.32" fill="#a4a4a4" />
                <polygon points="1373.49 783.69 1380.5 960.58 1415.74 940.1 1408.73 763.21 1400.42 768.04 1373.49 783.69" fill="#adadad" />
                <polygon points="1102.21 329.2 1095.71 298.4 1090.03 343.25 1125.27 322.77 1126.22 315.24 1102.21 329.2" fill="#9a9a9a" />
                <polygon points="1101.67 325.48 1107 309.13 1115.69 304.08 1119.22 290.78 1122.07 277.29 1094.85 293.12 1101.67 325.48" fill="#c1c1c1" />
                <polygon points="1114.44 315.15 1108.17 310.98 1102.21 329.2 1126.22 315.24 1137.45 308.72 1140.25 300.15 1114.44 315.15" fill="#878787" />
                <polygon points="1107 309.13 1113.24 313.31 1115.69 304.08 1107 309.13" fill="#c3c3c3" />
                <polygon points="1502.21 969.83 1495.89 1055.85 1524.55 1039.2 1531.13 1035.37 1537.45 949.35 1502.21 969.83" fill="#a0a0a0" />
                <polygon points="1331.25 660.23 1331.46 654.95 1326.54 657.81 1331.25 660.23" fill="#b7b7b7" />
                <polygon points="1120.6 291.94 1114.44 315.15 1140.25 300.15 1149.68 294.67 1155.84 271.46 1120.6 291.94" fill="#8c8c8c" />
                <polygon points="1508.35 945.86 1502.21 969.83 1537.45 949.35 1543.59 925.38 1508.35 945.86" fill="#8d8d8d" />
                <polygon points="1132.83 277.09 1126.41 264.52 1120.6 291.94 1155.84 271.46 1157.71 262.63 1132.83 277.09" fill="#919191" />
                <polygon points="1514.5 932.08 1508.35 945.86 1543.59 925.38 1549.74 911.6 1514.5 932.08" fill="#7f7f7f" />
                <polygon points="1131.74 274.12 1134.62 256.29 1125.38 261.66 1131.74 274.12" fill="#d6d6d6" />
                <polygon points="1151.16 252.48 1144.67 252.6 1138.73 240.57 1132.83 277.09 1157.71 262.63 1168.07 256.61 1170.56 241.21 1151.16 252.48" fill="#969696" />
                <polygon points="1144.61 250.8 1150.38 247.44 1153.32 228.57 1137.62 237.69 1144.61 250.8" fill="#d7d7d7" />
                <polygon points="1149.82 251.03 1150.38 247.44 1144.61 250.8 1149.82 251.03" fill="#8b8b8b" />
                <polygon points="1319.8 471.61 1326.54 657.81 1331.46 654.95 1337.78 495.16 1349.33 488.45 1350.02 473.16 1355.72 469.85 1355.04 451.13 1319.8 471.61" fill="#adadad" />
                <polygon points="1356.6 610.73 1344.94 617.51 1338.57 511.92 1332.64 661.84 1359.38 646.3 1356.6 610.73" fill="#a4a4a4" />
                <polygon points="1344.2 601.72 1349.33 488.45 1337.78 495.16 1344.2 601.72" fill="#b0b0b0" />
                <polygon points="1355.75 599.77 1350.75 489.3 1344.94 617.51 1356.6 610.73 1355.75 599.77" fill="#a3a3a3" />
                <polygon points="1357.16 600.44 1363.03 675.64 1398.27 655.16 1392.4 579.96 1357.16 600.44" fill="#b2b2b2" />
                <polygon points="1180.72 208.74 1175.46 211.8 1169.28 214.04 1165.7 207.94 1157.34 212.8 1151.16 252.48 1170.56 241.21 1184.2 233.28 1180.72 208.74" fill="#979797" />
                <polygon points="1187.69 248.53 1192.98 321.37 1198.39 274.69 1224.85 259.31 1225.03 256.91 1222.93 228.05 1187.69 248.53" fill="#b1b1b1" />
                <polygon points="1211.06 274.01 1205.77 277.08 1199.74 276.17 1193.56 329.55 1215.58 316.75 1211.06 274.01" fill="#9b9b9b" />
                <polygon points="1198.39 274.69 1204.73 275.35 1210.7 268.55 1224.76 260.37 1224.85 259.31 1198.39 274.69" fill="#909090" />
                <polygon points="1162.93 203.21 1157.34 212.8 1165.7 207.94 1162.93 203.21" fill="#787878" />
                <polygon points="1168.92 212.07 1204.16 191.59 1197.38 180.45 1162.14 200.93 1168.92 212.07" fill="#d9d9d9" />
                <polygon points="1314.81 474.2 1319.8 471.61 1355.04 451.13 1350.05 453.72 1314.81 474.2" fill="#6f6f6f" />
                <polygon points="1168.92 212.07 1174.42 210.08 1180.49 205.4 1204.39 191.51 1204.16 191.59 1168.92 212.07" fill="#737373" />
                <polygon points="1210.78 271.38 1205.77 277.08 1211.06 274.01 1210.78 271.38" fill="#707070" />
                <polygon points="1526.9 850.63 1520.57 802.25 1514.5 932.08 1549.74 911.6 1553.31 835.28 1526.9 850.63" fill="#a3a3a3" />
                <polygon points="1210.7 268.55 1217.27 331.07 1222.71 287.1 1224.76 260.37 1210.7 268.55" fill="#b5b5b5" />
                <polygon points="1224.12 288.06 1217.88 338.48 1253.12 318 1259.36 267.59 1224.12 288.06" fill="#9a9a9a" />
                <polygon points="1526.9 850.63 1553.31 835.28 1562.14 830.15 1554.81 771.96 1519.57 792.44 1526.9 850.63" fill="#b7b7b7" />
                <polygon points="1180.59 207.83 1175.46 211.8 1180.72 208.74 1180.59 207.83" fill="#6d6d6d" />
                <polygon points="1180.49 205.4 1187.69 248.53 1222.93 228.05 1215.73 184.92 1204.39 191.51 1180.49 205.4" fill="#bcbcbc" />
                <polygon points="1350.02 473.16 1357.16 600.44 1392.4 579.96 1385.26 452.68 1355.72 469.85 1350.02 473.16" fill="#afafaf" />
                <polygon points="1309.14 360.02 1314.81 474.2 1350.05 453.72 1344.38 339.54 1309.14 360.02" fill="#aeaeae" />
                <polygon points="1230.43 206.08 1224.12 288.06 1259.36 267.59 1265.67 185.6 1230.43 206.08" fill="#a0a0a0" />
                <polygon points="1248.73 193.43 1246.6 185.84 1236.55 191.69 1230.43 206.08 1265.67 185.6 1266.8 182.93 1248.73 193.43" fill="gray" />
                <polygon points="1242.08 169.75 1236.55 191.69 1246.6 185.84 1242.08 169.75" fill="#8d8d8d" />
                <polygon points="1247.8 189.08 1251.92 159.93 1241.33 166.08 1247.8 189.08" fill="#c8c8c8" />
                <polygon points="1261.03 148.36 1254.9 149.81 1248.73 193.43 1266.8 182.93 1283.97 172.95 1289.81 131.64 1261.03 148.36" fill="#989898" />
                <polygon points="1260.11 144.6 1253.54 148.42 1259.69 146.96 1260.11 144.6" fill="#787878" />
                <polygon points="1303.51 200.14 1309.14 360.02 1344.38 339.54 1338.75 179.66 1303.51 200.14" fill="#adadad" />
                <polygon points="1295.5 115.3 1285.46 121.13 1280.46 119.27 1273.12 123.53 1266.99 114.88 1261.03 148.36 1289.81 131.64 1296.27 127.89 1296.69 125.53 1296.23 119.3 1295.5 115.3" fill="#959595" />
                <polygon points="1272.5 121.48 1278.14 116.92 1285.41 112.69 1287.8 99.71 1265.82 112.48 1272.5 121.48" fill="#d9d9d9" />
                <polygon points="1279.04 118.74 1273.12 123.53 1280.46 119.27 1279.04 118.74" fill="#6d6d6d" />
                <polygon points="1284.17 119.48 1285.41 112.69 1278.14 116.92 1284.17 119.48" fill="#afafaf" />
                <polygon points="1297.63 119.78 1303.51 200.14 1338.75 179.66 1332.87 99.3 1297.63 119.78" fill="#b1b1b1" />
                <polygon points="1291.02 90.89 1285.46 121.13 1295.5 115.3 1291.02 90.89" fill="#949494" />
                <polygon id="MARKETHIGH" points="1297.63 119.78 1332.87 99.3 1325.49 65.9 1290.25 86.38 1297.63 119.78" fill="lime" />
                <g id="infodude">
                    <path d="M1317.06,22.2c9.94-6,6.58-19.45-2.94-21.83a11.85,11.85,0,1,0,2.94,21.83c-1.5.84-3.56.68-5.83-.67,2.27,1.35,4.33,1.51,5.83.67" fill="#0c0" />
                    <path d="M1311.23,21.53a.81.81,0,0,0-.37.07,6.76,6.76,0,0,1-4.66-.08,8.61,8.61,0,0,1-4.14-3.41c-2-3.18-1.57-7.2,1.11-9.13,4.7-3.4,12.57.8,11.45,7.73a6.79,6.79,0,0,1-3.39,4.82c2.27,1.35,4.33,1.51,5.83.67l.65-.39c.25-.18.6-.41.84-.6l.63-.52c.28-.27.65-.63.91-.92l.55-.65c.28-.4.64-.93.89-1.34L1322,17a10.8,10.8,0,0,0,.68-1.79l.23-.9a12.68,12.68,0,0,0,.24-2.4l0-1c0-.42-.12-1-.19-1.4l-.22-.9c-.13-.41-.31-1-.47-1.35l-.37-.81c-.22-.39-.52-.9-.76-1.28l-.51-.69c-.32-.37-.76-.86-1.1-1.21l-.6-.53a12.42,12.42,0,0,0-1.51-1.08l-.64-.35-.76-.36-.6-.24-.66-.22-.56-.16-.59-.13L1313,.15l-.54-.07-.53,0h-1.06l-.53,0-.53.06-.55.08-.56.11-.59.15-.59.18-.65.24-.63.27-.76.39-.65.4c-.25.17-.6.41-.84.6l-.62.52c-.28.27-.65.63-.92.91l-.55.66c-.28.39-.64.92-.89,1.33l-.42.79a11.81,11.81,0,0,0-.68,1.79l-.22.9a12,12,0,0,0-.25,2.4l0,.95c0,.38.1.89.17,1.27l.2.91c.13.4.3.94.46,1.34l.36.82c.21.39.51.91.74,1.28l.5.71c.31.37.75.86,1.08,1.21l.6.54a12.52,12.52,0,0,0,1.62,1.17l.64.35.76.36.6.24.66.22.57.16.58.13.55.09.54.07.53,0,.53,0h.53l.53,0,.53-.05.55-.09.56-.11.59-.14.59-.18.65-.25.64-.27.75-.39c-1.5.84-3.56.68-5.83-.67" fill="#0c0" />
                    <path d="M1311.39,21.62c-5.08,2.79-12.32-3.78-10.61-9.63,1.82-6.24,10.24-5.73,13.24-.58,2.21,3.81.86,9.06-2.63,10.21,2.2,1.27,4.2,1.4,5.67.58l.65-.39c.25-.18.6-.41.84-.6l.63-.52c.28-.27.65-.63.91-.92l.55-.65c.28-.4.64-.93.89-1.34L1322,17a10.8,10.8,0,0,0,.68-1.79l.23-.9a12.68,12.68,0,0,0,.24-2.4l0-1c0-.42-.12-1-.19-1.4l-.22-.9c-.13-.41-.31-1-.47-1.35l-.37-.81c-.22-.39-.52-.9-.76-1.28l-.51-.69c-.32-.37-.76-.86-1.1-1.21l-.6-.53a12.42,12.42,0,0,0-1.51-1.08l-.64-.35-.76-.36-.6-.24-.66-.22-.56-.16-.59-.13L1313,.15l-.54-.07-.53,0h-1.06l-.53,0-.53.06-.55.08-.56.11-.59.15-.59.18-.65.24-.63.27-.76.39-.65.4c-.25.17-.6.41-.84.6l-.62.52c-.28.27-.65.63-.92.91l-.55.66c-.28.39-.64.92-.89,1.33l-.42.79a11.81,11.81,0,0,0-.68,1.79l-.22.9a12,12,0,0,0-.25,2.4l0,.95c0,.38.1.89.17,1.27l.2.91c.13.4.3.94.46,1.34l.36.82c.21.39.51.91.74,1.28l.5.71c.31.37.75.86,1.08,1.21l.6.54a12.52,12.52,0,0,0,1.62,1.17l.64.35.76.36.6.24.66.22.57.16.58.13.55.09.54.07.53,0,.53,0h.53l.53,0,.53-.05.55-.09.56-.11.59-.14.59-.18.65-.25.64-.27.75-.39c-1.47.82-3.47.69-5.67-.58" fill="#00c700" />
                    <path d="M1311.79,21.84c-.09,0-.19.07-.27.11a7,7,0,0,1-4.89.1,9.19,9.19,0,0,1-4.74-3.64c-1.93-2.79-2.35-7.19.68-9.86,4.61-4.06,13.37,0,12.91,7.67a6.14,6.14,0,0,1-3.69,5.62c2,1.06,3.89,1.13,5.27.36l.65-.39c.25-.18.6-.41.84-.6l.63-.52c.28-.27.65-.63.91-.92l.55-.65c.28-.4.64-.93.89-1.34L1322,17a10.8,10.8,0,0,0,.68-1.79l.23-.9a12.68,12.68,0,0,0,.24-2.4l0-1c0-.42-.12-1-.19-1.4l-.22-.9c-.13-.41-.31-1-.47-1.35l-.37-.81c-.22-.39-.52-.9-.76-1.28l-.51-.69c-.32-.37-.76-.86-1.1-1.21l-.6-.53a12.42,12.42,0,0,0-1.51-1.08l-.64-.35-.76-.36-.6-.24-.66-.22-.56-.16-.59-.13L1313,.15l-.54-.07-.53,0h-1.06l-.53,0-.53.06-.55.08-.56.11-.59.15-.59.18-.65.24-.63.27-.76.39-.65.4c-.25.17-.6.41-.84.6l-.62.52c-.28.27-.65.63-.92.91l-.55.66c-.28.39-.64.92-.89,1.33l-.42.79a11.81,11.81,0,0,0-.68,1.79l-.22.9a12,12,0,0,0-.25,2.4l0,.95c0,.38.1.89.17,1.27l.2.91c.13.4.3.94.46,1.34l.36.82c.21.39.51.91.74,1.28l.5.71c.31.37.75.86,1.08,1.21l.6.54a12.52,12.52,0,0,0,1.62,1.17l.64.35.76.36.6.24.66.22.57.16.58.13.55.09.54.07.53,0,.53,0h.53l.53,0,.53-.05.55-.09.56-.11.59-.14.59-.18.65-.25.64-.27.75-.39c-1.38.77-3.22.7-5.27-.36" fill="#00c200" />
                    <path d="M1312.17,22c-.59,0-1,.4-1.59.51a7.64,7.64,0,0,1-3.59-.2,9.73,9.73,0,0,1-5-3.57c-2.79-3.85-2-8.31.28-10.39,5.2-4.67,13.87.18,13.64,7.63a6.67,6.67,0,0,1-3.74,6,5.28,5.28,0,0,0,4.89.18l.65-.39c.25-.18.6-.41.84-.6l.63-.52c.28-.27.65-.63.91-.92l.55-.65c.28-.4.64-.93.89-1.34L1322,17a10.8,10.8,0,0,0,.68-1.79l.23-.9a12.68,12.68,0,0,0,.24-2.4l0-1c0-.42-.12-1-.19-1.4l-.22-.9c-.13-.41-.31-1-.47-1.35l-.37-.81c-.22-.39-.52-.9-.76-1.28l-.51-.69c-.32-.37-.76-.86-1.1-1.21l-.6-.53a12.42,12.42,0,0,0-1.51-1.08l-.64-.35-.76-.36-.6-.24-.66-.22-.56-.16-.59-.13L1313,.15l-.54-.07-.53,0h-1.06l-.53,0-.53.06-.55.08-.56.11-.59.15-.59.18-.65.24-.63.27-.76.39-.65.4c-.25.17-.6.41-.84.6l-.62.52c-.28.27-.65.63-.92.91l-.55.66c-.28.39-.64.92-.89,1.33l-.42.79a11.81,11.81,0,0,0-.68,1.79l-.22.9a12,12,0,0,0-.25,2.4l0,.95c0,.38.1.89.17,1.27l.2.91c.13.4.3.94.46,1.34l.36.82c.21.39.51.91.74,1.28l.5.71c.31.37.75.86,1.08,1.21l.6.54a12.52,12.52,0,0,0,1.62,1.17l.64.35.76.36.6.24.66.22.57.16.58.13.55.09.54.07.53,0,.53,0h.53l.53,0,.53-.05.55-.09.56-.11.59-.14.59-.18.65-.25.64-.27.75-.39a5.28,5.28,0,0,1-4.89-.18" fill="#00bd00" />
                    <path d="M1312.5,22.17s-.08,0-.12.06a7.61,7.61,0,0,1-5.11.33,9.89,9.89,0,0,1-5.14-3.46c-3.09-4.05-2.45-8.51-.23-10.83,4.9-5.12,14.34-.42,14.43,7.17.06,5.2-3.79,6.73-3.83,6.73a5.12,5.12,0,0,0,4.56,0l.65-.39c.25-.18.6-.41.84-.6l.63-.52c.28-.27.65-.63.91-.92l.55-.65c.28-.4.64-.93.89-1.34L1322,17a10.8,10.8,0,0,0,.68-1.79l.23-.9a12.68,12.68,0,0,0,.24-2.4l0-1c0-.42-.12-1-.19-1.4l-.22-.9c-.13-.41-.31-1-.47-1.35l-.37-.81c-.22-.39-.52-.9-.76-1.28l-.51-.69c-.32-.37-.76-.86-1.1-1.21l-.6-.53a12.42,12.42,0,0,0-1.51-1.08l-.64-.35-.76-.36-.6-.24-.66-.22-.56-.16-.59-.13L1313,.15l-.54-.07-.53,0h-1.06l-.53,0-.53.06-.55.08-.56.11-.59.15-.59.18-.65.24-.63.27-.76.39-.65.4c-.25.17-.6.41-.84.6l-.62.52c-.28.27-.65.63-.92.91l-.55.66c-.28.39-.64.92-.89,1.33l-.42.79a11.81,11.81,0,0,0-.68,1.79l-.22.9a12,12,0,0,0-.25,2.4l0,.95c0,.38.1.89.17,1.27l.2.91c.13.4.3.94.46,1.34l.36.82c.21.39.51.91.74,1.28l.5.71c.31.37.75.86,1.08,1.21l.6.54a12.52,12.52,0,0,0,1.62,1.17l.64.35.76.36.6.24.66.22.57.16.58.13.55.09.54.07.53,0,.53,0h.53l.53,0,.53-.05.55-.09.56-.11.59-.14.59-.18.65-.25.64-.27.75-.39a5.12,5.12,0,0,1-4.56,0" fill="#00b800" />
                    <path d="M1312.83,22.3c-1,.07-1.95.66-3,.72a8.27,8.27,0,0,1-2.76-.38A10.36,10.36,0,0,1,1302,19c-3.11-4.1-2.35-8.81-.06-11.15,5.09-5.22,14.82-.1,14.87,7.82a7.07,7.07,0,0,1-3.93,6.63,5,5,0,0,0,4.23-.1l.65-.39c.25-.18.6-.41.84-.6l.63-.52c.28-.27.65-.63.91-.92l.55-.65c.28-.4.64-.93.89-1.34L1322,17a10.8,10.8,0,0,0,.68-1.79l.23-.9a12.68,12.68,0,0,0,.24-2.4l0-1c0-.42-.12-1-.19-1.4l-.22-.9c-.13-.41-.31-1-.47-1.35l-.37-.81c-.22-.39-.52-.9-.76-1.28l-.51-.69c-.32-.37-.76-.86-1.1-1.21l-.6-.53a12.42,12.42,0,0,0-1.51-1.08l-.64-.35-.76-.36-.6-.24-.66-.22-.56-.16-.59-.13L1313,.15l-.54-.07-.53,0h-1.06l-.53,0-.53.06-.55.08-.56.11-.59.15-.59.18-.65.24-.63.27-.76.39-.65.4c-.25.17-.6.41-.84.6l-.62.52c-.28.27-.65.63-.92.91l-.55.66c-.28.39-.64.92-.89,1.33l-.42.79a11.81,11.81,0,0,0-.68,1.79l-.22.9a12,12,0,0,0-.25,2.4l0,.95c0,.38.1.89.17,1.27l.2.91c.13.4.3.94.46,1.34l.36.82c.21.39.51.91.74,1.28l.5.71c.31.37.75.86,1.08,1.21l.6.54a12.52,12.52,0,0,0,1.62,1.17l.64.35.76.36.6.24.66.22.57.16.58.13.55.09.54.07.53,0,.53,0h.53l.53,0,.53-.05.55-.09.56-.11.59-.14.59-.18.65-.25.64-.27.75-.39a5,5,0,0,1-4.23.1" fill="#00b300" />
                    <path d="M1313.16,22.42c-1,.09-1.89.69-2.91.75a8.77,8.77,0,0,1-3.06-.39,10.67,10.67,0,0,1-5.2-3.62c-2.22-2.91-3.6-7.7-.19-11.63,4.37-5.05,15.13-.89,15.4,7.88.14,4.63-3.46,7-4,7a4.84,4.84,0,0,0,3.9-.22l.65-.39c.25-.18.6-.41.84-.6l.63-.52c.28-.27.65-.63.91-.92l.55-.65c.28-.4.64-.93.89-1.34L1322,17a10.8,10.8,0,0,0,.68-1.79l.23-.9a12.68,12.68,0,0,0,.24-2.4l0-1c0-.42-.12-1-.19-1.4l-.22-.9c-.13-.41-.31-1-.47-1.35l-.37-.81c-.22-.39-.52-.9-.76-1.28l-.51-.69c-.32-.37-.76-.86-1.1-1.21l-.6-.53a12.42,12.42,0,0,0-1.51-1.08l-.64-.35-.76-.36-.6-.24-.66-.22-.56-.16-.59-.13L1313,.15l-.54-.07-.53,0h-1.06l-.53,0-.53.06-.55.08-.56.11-.59.15-.59.18-.65.24-.63.27-.76.39-.65.4c-.25.17-.6.41-.84.6l-.62.52c-.28.27-.65.63-.92.91l-.55.66c-.28.39-.64.92-.89,1.33l-.42.79a11.81,11.81,0,0,0-.68,1.79l-.22.9a12,12,0,0,0-.25,2.4l0,.95c0,.38.1.89.17,1.27l.2.91c.13.4.3.94.46,1.34l.36.82c.21.39.51.91.74,1.28l.5.71c.31.37.75.86,1.08,1.21l.6.54a12.52,12.52,0,0,0,1.62,1.17l.64.35.76.36.6.24.66.22.57.16.58.13.55.09.54.07.53,0,.53,0h.53l.53,0,.53-.05.55-.09.56-.11.59-.14.59-.18.65-.25.64-.27.75-.39a4.84,4.84,0,0,1-3.9.22" fill="#00ad00" />
                    <path d="M1313.5,22.51c-1,.11-1.79.71-2.77.78a9.28,9.28,0,0,1-3.3-.34,11.24,11.24,0,0,1-5.56-3.88c-2.39-3-3.34-8-.4-11.57,5-6,15.73-1.08,16.15,7.43.27,5.37-3.74,7.54-4.12,7.58a4.69,4.69,0,0,0,3.56-.31l.65-.39c.25-.18.6-.41.84-.6l.63-.52c.28-.27.65-.63.91-.92l.55-.65c.28-.4.64-.93.89-1.34L1322,17a10.8,10.8,0,0,0,.68-1.79l.23-.9a12.68,12.68,0,0,0,.24-2.4l0-1c0-.42-.12-1-.19-1.4l-.22-.9c-.13-.41-.31-1-.47-1.35l-.37-.81c-.22-.39-.52-.9-.76-1.28l-.51-.69c-.32-.37-.76-.86-1.1-1.21l-.6-.53a12.42,12.42,0,0,0-1.51-1.08l-.64-.35-.76-.36-.6-.24-.66-.22-.56-.16-.59-.13L1313,.15l-.54-.07-.53,0h-1.06l-.53,0-.53.06-.55.08-.56.11-.59.15-.59.18-.65.24-.63.27-.76.39-.65.4c-.25.17-.6.41-.84.6l-.62.52c-.28.27-.65.63-.92.91l-.55.66c-.28.39-.64.92-.89,1.33l-.42.79a11.81,11.81,0,0,0-.68,1.79l-.22.9a12,12,0,0,0-.25,2.4l0,.95c0,.38.1.89.17,1.27l.2.91c.13.4.3.94.46,1.34l.36.82c.21.39.51.91.74,1.28l.5.71c.31.37.75.86,1.08,1.21l.6.54a12.52,12.52,0,0,0,1.62,1.17l.64.35.76.36.6.24.66.22.57.16.58.13.55.09.54.07.53,0,.53,0h.53l.53,0,.53-.05.55-.09.56-.11.59-.14.59-.18.65-.25.64-.27.75-.39a4.69,4.69,0,0,1-3.56.31" fill="#00a800" />
                    <path d="M1313.85,22.6c-1.1.15-2.07.75-3.19.83a9.16,9.16,0,0,1-3.06-.36,11.23,11.23,0,0,1-5.45-3.63c-3-3.43-3.45-8.48-1.14-11.75,4.58-6.5,15.5-2.53,16.94,6.15.88,5.32-3.07,8.61-4.1,8.76a4.59,4.59,0,0,0,3.21-.4l.65-.39c.25-.18.6-.41.84-.6l.63-.52c.28-.27.65-.63.91-.92l.55-.65c.28-.4.64-.93.89-1.34L1322,17a10.8,10.8,0,0,0,.68-1.79l.23-.9a12.68,12.68,0,0,0,.24-2.4l0-1c0-.42-.12-1-.19-1.4l-.22-.9c-.13-.41-.31-1-.47-1.35l-.37-.81c-.22-.39-.52-.9-.76-1.28l-.51-.69c-.32-.37-.76-.86-1.1-1.21l-.6-.53a12.42,12.42,0,0,0-1.51-1.08l-.64-.35-.76-.36-.6-.24-.66-.22-.56-.16-.59-.13L1313,.15l-.54-.07-.53,0h-1.06l-.53,0-.53.06-.55.08-.56.11-.59.15-.59.18-.65.24-.63.27-.76.39-.65.4c-.25.17-.6.41-.84.6l-.62.52c-.28.27-.65.63-.92.91l-.55.66c-.28.39-.64.92-.89,1.33l-.42.79a11.81,11.81,0,0,0-.68,1.79l-.22.9a12,12,0,0,0-.25,2.4l0,.95c0,.38.1.89.17,1.27l.2.91c.13.4.3.94.46,1.34l.36.82c.21.39.51.91.74,1.28l.5.71c.31.37.75.86,1.08,1.21l.6.54a12.52,12.52,0,0,0,1.62,1.17l.64.35.76.36.6.24.66.22.57.16.58.13.55.09.54.07.53,0,.53,0h.53l.53,0,.53-.05.55-.09.56-.11.59-.14.59-.18.65-.25.64-.27.75-.39a4.59,4.59,0,0,1-3.21.4" fill="#00a300" />
                    <path d="M1300.11,15.87c-2.82-8.77,4.75-14.12,11.64-10.85,8.26,3.91,8.65,14.61,2.45,17.64a4.45,4.45,0,0,0,2.86-.46l.65-.39c.25-.18.6-.41.84-.6l.63-.52c.28-.27.65-.63.91-.92l.55-.65c.28-.4.64-.93.89-1.34L1322,17a10.8,10.8,0,0,0,.68-1.79l.23-.9a12.68,12.68,0,0,0,.24-2.4l0-1c0-.42-.12-1-.19-1.4l-.22-.9c-.13-.41-.31-1-.47-1.35l-.37-.81c-.22-.39-.52-.9-.76-1.28l-.51-.69c-.32-.37-.76-.86-1.1-1.21l-.6-.53a12.42,12.42,0,0,0-1.51-1.08l-.64-.35-.76-.36-.6-.24-.66-.22-.56-.16-.59-.13L1313,.15l-.54-.07-.53,0h-1.06l-.53,0-.53.06-.55.08-.56.11-.59.15-.59.18-.65.24-.63.27-.76.39-.65.4c-.25.17-.6.41-.84.6l-.62.52c-.28.27-.65.63-.92.91l-.55.66c-.28.39-.64.92-.89,1.33l-.42.79a11.81,11.81,0,0,0-.68,1.79l-.22.9a12,12,0,0,0-.25,2.4l0,.95c0,.38.1.89.17,1.27l.2.91c.12.38.29.9.43,1.28l-.14-.38" fill="#009e00" />
                    <path d="M1314.2,22.66a.91.91,0,0,0-.26.13,8,8,0,0,1-4.13.74,10.44,10.44,0,0,1-4.59-1.47l.63.35c.22.1.51.25.73.34l.6.24.66.22.57.16.58.13.55.09.54.07.53,0,.53,0h.53l.53,0,.53-.05.55-.09.56-.11.59-.14.59-.18.65-.25.64-.27.75-.39a4.45,4.45,0,0,1-2.86.46" fill="#009e00" />
                    <path d="M1299.48,13c-.72-8.4,8.2-12.38,15.14-6.76,5.75,4.66,5.73,13.57,0,16.44a4.29,4.29,0,0,0,2.49-.5l.65-.39c.25-.18.6-.41.84-.6l.63-.52c.28-.27.65-.63.91-.92l.55-.65c.28-.4.64-.93.89-1.34L1322,17a10.8,10.8,0,0,0,.68-1.79l.23-.9a12.68,12.68,0,0,0,.24-2.4l0-1c0-.42-.12-1-.19-1.4l-.22-.9c-.13-.41-.31-1-.47-1.35l-.37-.81c-.22-.39-.52-.9-.76-1.28l-.51-.69c-.32-.37-.76-.86-1.1-1.21l-.6-.53a12.42,12.42,0,0,0-1.51-1.08l-.64-.35-.76-.36-.6-.24-.66-.22-.56-.16-.59-.13L1313,.15l-.54-.07-.53,0h-1.06l-.53,0-.53.06-.55.08-.56.11-.59.15-.59.18-.65.24-.63.27-.76.39-.65.4c-.25.17-.6.41-.84.6l-.62.52c-.28.27-.65.63-.92.91l-.55.66c-.28.39-.64.92-.89,1.33l-.42.79a11.81,11.81,0,0,0-.68,1.79l-.22.9a12,12,0,0,0-.25,2.4l0,.95c0,.36.09.84.15,1.19l-.12-.87V13" fill="#090" />
                    <path d="M1314.57,22.7a1.51,1.51,0,0,0-.28.15,8.28,8.28,0,0,1-3,.76,10,10,0,0,1-3.93-.57c.33.11.77.24,1.1.33l.58.13.55.09.54.07.53,0,.53,0h.53l.53,0,.53-.05.55-.09.56-.11.59-.14.59-.18.65-.25.64-.27.75-.39a4.29,4.29,0,0,1-2.49.5" fill="#090" />
                    <path d="M1299.42,11.77c.5-9.49,11-11.07,16.86-4.63,5.16,5.7,3.49,13.19-1.33,15.58a4.23,4.23,0,0,0,2.11-.52l.65-.39c.25-.18.6-.41.84-.6l.63-.52c.28-.27.65-.63.91-.92l.55-.65c.28-.4.64-.93.89-1.34L1322,17a10.8,10.8,0,0,0,.68-1.79l.23-.9a12.68,12.68,0,0,0,.24-2.4l0-1c0-.42-.12-1-.19-1.4l-.22-.9c-.13-.41-.31-1-.47-1.35l-.37-.81c-.22-.39-.52-.9-.76-1.28l-.51-.69c-.32-.37-.76-.86-1.1-1.21l-.6-.53a12.42,12.42,0,0,0-1.51-1.08l-.64-.35-.76-.36-.6-.24-.66-.22-.56-.16-.59-.13L1313,.15l-.54-.07-.53,0h-1.06l-.53,0-.53.06-.55.08-.56.11-.59.15-.59.18-.65.24-.63.27-.76.39-.65.4c-.25.17-.6.41-.84.6l-.62.52c-.28.27-.65.63-.92.91l-.55.66c-.28.39-.64.92-.89,1.33l-.42.79a11.81,11.81,0,0,0-.68,1.79l-.22.9a12,12,0,0,0-.25,2.4v-.07" fill="#009400" />
                    <path d="M1315,22.72a1.66,1.66,0,0,0-.32.17,7.6,7.6,0,0,1-2.56.73,9.38,9.38,0,0,1-2.89-.09l.54.09.36,0,.53,0,.53,0h.53l.53,0,.53-.05.55-.09.56-.11.59-.14.59-.18.65-.25.64-.27.75-.39a4.23,4.23,0,0,1-2.11.52" fill="#009400" />
                    <path d="M1299.6,9.79c2.25-9.77,13.83-8.94,18.66-.87,3.08,5.14,1.79,11.33-2.87,13.78a4.07,4.07,0,0,0,1.67-.5l.65-.39c.25-.18.6-.41.84-.6l.63-.52c.28-.27.65-.63.91-.92l.55-.65c.28-.4.64-.93.89-1.34L1322,17a10.8,10.8,0,0,0,.68-1.79l.23-.9a12.68,12.68,0,0,0,.24-2.4l0-1c0-.42-.12-1-.19-1.4l-.22-.9c-.13-.41-.31-1-.47-1.35l-.37-.81c-.22-.39-.52-.9-.76-1.28l-.51-.69c-.32-.37-.76-.86-1.1-1.21l-.6-.53a12.42,12.42,0,0,0-1.51-1.08l-.64-.35-.76-.36-.6-.24-.66-.22-.56-.16-.59-.13L1313,.15l-.54-.07-.53,0h-1.06l-.53,0-.53.06-.55.08-.56.11-.59.15-.59.18-.65.24-.63.27-.76.39-.65.4c-.25.17-.6.41-.84.6l-.62.52c-.28.27-.65.63-.92.91l-.55.66c-.28.39-.64.92-.89,1.33l-.42.79a11.81,11.81,0,0,0-.68,1.79l-.22.9-.13.71.06-.36" fill="#008f00" />
                    <path d="M1315.39,22.7a1.78,1.78,0,0,0-.36.19,7.51,7.51,0,0,1-1.66.58,9,9,0,0,1-2.35.24h.65l.53,0,.53-.05.55-.09.56-.11.59-.14.59-.18.65-.25.64-.27.75-.39a4.07,4.07,0,0,1-1.67.5" fill="#008f00" />
                    <path d="M1300.21,7.62c3.43-8.26,15.55-6.7,19.35,2.48,1.77,4.28,1.07,10-3.7,12.54a4.11,4.11,0,0,0,1.2-.44l.65-.39c.25-.18.6-.41.84-.6l.63-.52c.28-.27.65-.63.91-.92l.55-.65c.28-.4.64-.93.89-1.34L1322,17a10.8,10.8,0,0,0,.68-1.79l.23-.9a12.68,12.68,0,0,0,.24-2.4l0-1c0-.42-.12-1-.19-1.4l-.22-.9c-.13-.41-.31-1-.47-1.35l-.37-.81c-.22-.39-.52-.9-.76-1.28l-.51-.69c-.32-.37-.76-.86-1.1-1.21l-.6-.53a12.42,12.42,0,0,0-1.51-1.08l-.64-.35-.76-.36-.6-.24-.66-.22-.56-.16-.59-.13L1313,.15l-.54-.07-.53,0h-1.06l-.53,0-.53.06-.55.08-.56.11-.59.15-.59.18-.65.24-.63.27-.76.39-.65.4c-.25.17-.6.41-.84.6l-.62.52c-.28.27-.65.63-.92.91l-.55.66c-.28.39-.64.92-.89,1.33l-.42.79c-.2.48-.46,1.12-.63,1.61l.27-.74h0" fill="#008a00" />
                    <path d="M1315.86,22.64a3.6,3.6,0,0,0-.39.2,8.35,8.35,0,0,1-1.06.42,9.44,9.44,0,0,1-1.53.35l1-.18.59-.14.59-.18.65-.25.64-.27.75-.39a4.11,4.11,0,0,1-1.2.44" fill="#008a00" />
                    <path d="M1301.24,5.56C1307-2.76,1319.4,3,1321,12.36a9.49,9.49,0,0,1-4.51,10.12,4.34,4.34,0,0,0,.62-.28l.65-.39c.25-.18.6-.41.84-.6l.63-.52c.28-.27.65-.63.91-.92l.55-.65c.28-.4.64-.93.89-1.34L1322,17a10.8,10.8,0,0,0,.68-1.79l.23-.9a12.68,12.68,0,0,0,.24-2.4l0-1c0-.42-.12-1-.19-1.4l-.22-.9c-.13-.41-.31-1-.47-1.35l-.37-.81c-.22-.39-.52-.9-.76-1.28l-.51-.69c-.32-.37-.76-.86-1.1-1.21l-.6-.53a12.42,12.42,0,0,0-1.51-1.08l-.64-.35-.76-.36-.6-.24-.66-.22-.56-.16-.59-.13L1313,.15l-.54-.07-.53,0h-1.06l-.53,0-.53.06-.55.08-.56.11-.59.15-.59.18-.65.24-.63.27-.76.39-.65.4c-.25.17-.6.41-.84.6l-.62.52c-.28.27-.65.63-.92.91l-.55.66c-.28.39-.64.92-.89,1.33l-.2.36.39-.66.06-.1" fill="#008500" />
                    <path d="M1316.44,22.48l-.43.23a8.92,8.92,0,0,1-.92.37c.37-.14.85-.33,1.22-.49l.75-.39a4.34,4.34,0,0,1-.62.28" fill="#008500" />
                    <path d="M1308.42,21.7c6.19,0,7.8-7.61,3.8-11.56-3.41-3.39-11.06-2.47-11.19,3.81-.08,4,3.51,7.77,7.39,7.75" fill="#00d100" />
                    <path d="M1307.59,21.37c5.46.77,8.21-6.15,5.26-10.11-3.45-4.65-11-3.09-11.54,2.39a7.45,7.45,0,0,0,6.28,7.72" fill="#00d600" />
                    <path d="M1306.88,21c5.28,1.18,9-5.27,5.67-9.72s-10.34-2.74-10.94,2.45a7,7,0,0,0,5.27,7.27" fill="#00db00" />
                    <path d="M1306.89,20.63a5.82,5.82,0,1,0-.33-11.47,5.64,5.64,0,0,0-4.52,4,6.42,6.42,0,0,0,4.85,7.43" fill="#00e000" />
                    <path d="M1306,20c4.58,1.76,9-3.26,6.76-7.67s-8.61-3.51-10.09.36A5.78,5.78,0,0,0,1306,20" fill="#00e600" />
                    <path d="M1305.28,19.24a5.17,5.17,0,0,0,7.61-5.83,5.23,5.23,0,0,0-9.61-1.22,5.31,5.31,0,0,0,2,7" fill="#00eb00" />
                    <path d="M1305.32,18.81a4.89,4.89,0,0,0,7.37-5.42c-1-4-6.67-4.94-8.79-1.49a4.9,4.9,0,0,0,1.42,6.91" fill="#00f000" />
                    <path d="M1305.57,18.47a4.62,4.62,0,0,0,7-5.1c-1-3.63-6.27-4.9-8.48-1.1a4.61,4.61,0,0,0,1.53,6.2" fill="#00f500" />
                    <path d="M1305.85,18.17a4.32,4.32,0,0,0,6.49-4.81,4.6,4.6,0,0,0-3.4-3.09c-1.52-.14-3.24-.29-4.76,2.38a4.31,4.31,0,0,0,1.67,5.52" fill="#00fa00" />
                    <path d="M1306.13,17.93a4,4,0,0,0,6-4.58c-1.2-3.63-6.19-4-7.73-.64a4.14,4.14,0,0,0,1.7,5.22" fill="lime" />
                    <path d="M1305.71,17.19c3.33,2.59,6.55.08,6.46-2.78a4,4,0,0,0-7-2.52,3.87,3.87,0,0,0,.5,5.3" fill="#1fff1f" />
                    <path d="M1305.73,16.89a4.43,4.43,0,0,0,3.78,1.05,3.68,3.68,0,0,0,2.5-3.54c-.1-3-4.11-5.41-6.72-2.26a3.64,3.64,0,0,0,.44,4.75" fill="#2bff2b" />
                    <path d="M1305.93,16.76a3.43,3.43,0,0,0,5.92-2.37c-.1-2.8-4-5.14-6.37-2.17a3.46,3.46,0,0,0,.45,4.54" fill="#35ff35" />
                    <path d="M1306.14,16.63a3.5,3.5,0,0,0,3.89.67,3.37,3.37,0,0,0,1.65-2.92,3.41,3.41,0,0,0-5.85-2.29,3.32,3.32,0,0,0,.31,4.54" fill="#3dff3d" />
                    <path d="M1306.33,16.52a3.28,3.28,0,0,0,3.67.61,3.3,3.3,0,0,0,1.53-2.75,3.44,3.44,0,0,0-2.36-3.08,3,3,0,0,0-3,.66,3.1,3.1,0,0,0,.14,4.56" fill="#4f4" />
                    <path d="M1306.5,16.44a2.86,2.86,0,0,0,4.89-2.07c0-1.78-1.3-2.43-2.32-3a3.17,3.17,0,0,0-2.55.46,6.35,6.35,0,0,0-1,1.49,3.76,3.76,0,0,0-.07,1.21,3.62,3.62,0,0,0,1,1.87" fill="#4bff4b" />
                    <path d="M1306.67,16.35a2.69,2.69,0,0,0,4.58-2c0-2.33-3-3.81-4.69-2.32a3.44,3.44,0,0,0-.81,1.21c0,.13-.13,1.22-.13,1.23a3.24,3.24,0,0,0,1.05,1.86" fill="#51ff51" />
                    <path d="M1306.85,16.27a6.3,6.3,0,0,0,1.46.64,2.26,2.26,0,0,0,1.58-.3,2.93,2.93,0,0,0,1-1.2,2.44,2.44,0,0,0,.2-1,3,3,0,0,0-2-2.65,2.37,2.37,0,0,0-1.32-.08,2.71,2.71,0,0,0-1.17.59,2.62,2.62,0,0,0,.24,4" fill="#57ff57" />
                    <path d="M1307,16.17c0,.06,1.2.55,1.21.55a2.14,2.14,0,0,0,1.63-.28,4.41,4.41,0,0,0,.89-1,2.49,2.49,0,0,0,.22-1,2.71,2.71,0,0,0-1.84-2.5,2.25,2.25,0,0,0-1.31-.09,2.78,2.78,0,0,0-1.15.61,2.6,2.6,0,0,0-.7,1.93c.08.81.17.9,1,1.84" fill="#5cff5c" />
                    <path d="M1306.71,15.59a2.63,2.63,0,0,0,1.43.95,1.53,1.53,0,0,0,.9,0c.78-.23.78-.23,1.53-1.16a9.38,9.38,0,0,0,.24-1,2.68,2.68,0,0,0-1.67-2.34,2.51,2.51,0,0,0-2.43.54,2.34,2.34,0,0,0,0,3" fill="#61ff61" />
                    <path d="M1307.4,16.05c.39.28.54.35,1.58.37a2.17,2.17,0,0,0,.81-.33,2.58,2.58,0,0,0,.88-1.71,2,2,0,0,0-.26-1,5.19,5.19,0,0,0-1.25-1.15,2.36,2.36,0,0,0-1.29-.1,2.76,2.76,0,0,0-1.11.67,2.32,2.32,0,0,0,.64,3.29" fill="#65ff65" />
                    <path d="M1307.59,16a1.33,1.33,0,0,0,.38.18,4.47,4.47,0,0,0,1,.1,2.13,2.13,0,0,0,.82-.35c.51-.27.77-1.51.77-1.52a1.92,1.92,0,0,0-.29-1,11.51,11.51,0,0,0-1-1,2.42,2.42,0,0,0-1.28-.11,2.92,2.92,0,0,0-1,.61,2.15,2.15,0,0,0,.68,3.13" fill="#6aff6a" />
                    <path d="M1307.78,15.91a4.14,4.14,0,0,0,1.1.19,2.49,2.49,0,0,0,.84-.36.64.64,0,0,0,.22-.27,3.31,3.31,0,0,0,.4-1.07,2,2,0,0,0-.29-1,2.68,2.68,0,0,0-.84-.8,5.59,5.59,0,0,0-1.28-.17,1.41,1.41,0,0,0-.56.33,1.55,1.55,0,0,0-.73,1.35,2.77,2.77,0,0,0,.28,1,3.32,3.32,0,0,0,.86.81" fill="#6eff6e" />
                    <path d="M1307.78,15.69a2.88,2.88,0,0,0,1,.24,2.61,2.61,0,0,0,.86-.37,8.73,8.73,0,0,0,.47-1.15,2.11,2.11,0,0,0-.29-1,2.4,2.4,0,0,0-.63-.6s-1.13-.36-1.4-.17a4.67,4.67,0,0,0-.87.85,1,1,0,0,0-.16.55,2.2,2.2,0,0,0,.27,1,2.18,2.18,0,0,0,.7.65" fill="#72ff72" />
                    <path d="M1307.65,15.37a3.64,3.64,0,0,0,1.13.4,2.49,2.49,0,0,0,.86-.47,1.7,1.7,0,0,0,.34-.87,2.35,2.35,0,0,0-.29-1,1.6,1.6,0,0,0-.42-.4,1.58,1.58,0,0,0-1.27-.25c-.38.12-.68.65-1,1a.48.48,0,0,0-.07.24,2.19,2.19,0,0,0,.26,1,1.18,1.18,0,0,0,.41.39" fill="#7f7" />
                    <path d="M1307.52,15a2.4,2.4,0,0,0,1.2.53,1.7,1.7,0,0,0,.86-.57,1.21,1.21,0,0,0,.22-.55c.08-.32-.17-.74-.29-1a.45.45,0,0,0-.21-.2,2,2,0,0,0-1.25-.25,1.55,1.55,0,0,0-.87.92s.06,1,.34,1.15" fill="#7aff7a" />
                    <path d="M1308.65,15.31c.32,0,.64-.4.88-.61.06,0,.07-.17.09-.24a7.47,7.47,0,0,0-.31-1,1.58,1.58,0,0,0-1.21-.25,1.1,1.1,0,0,0-.58.6,1.35,1.35,0,0,0,.15,1.06,1.32,1.32,0,0,0,1,.46" fill="#7eff7e" />
                    <path d="M1308.57,15a.94.94,0,0,0,.75-.54c.08-.33-.3-.78-.58-1a.8.8,0,0,0-.59-.11.57.57,0,0,0-.28.29,1.3,1.3,0,0,0,.12,1.06.75.75,0,0,0,.58.28" fill="#82ff82" />
                    <path d="M1308.5,14.77a.3.3,0,0,0,.22-.17c.06-.3-.35-.62-.5-.89,0,.29-.07.74.11,1a.25.25,0,0,0,.17.08" fill="#85ff85" />
                    <path d="M1313.3,54c1.33-.75,1.36-2,.07-2.76a5.28,5.28,0,0,0-4.76-.05c-1.33.75-1.36,2-.07,2.76a5.22,5.22,0,0,0,4.76.05" fill="#00dc00" />
                    <g style="isolation:isolate">
                        <path d="M1315.14,52.76l3.43-24.64c.17-1.22-.53-2.47-2.12-3.41-.12-.08-.25-.15-.38-.22l-2.31,26.26a1.13,1.13,0,0,1,.21.12,2,2,0,0,1,1.17,1.89" fill="#008500" />
                        <path d="M1313.76,50.75l2.31-26.26a8.4,8.4,0,0,0-.8-.36l-2,26.41a4.69,4.69,0,0,1,.45.21" fill="#008a00" />
                        <path d="M1313.31,50.54l2-26.41c-.22-.09-.46-.17-.7-.25l-1.64,26.53.38.13" fill="#008f00" />
                        <path d="M1312.93,50.41l1.64-26.53-.64-.17-1.36,26.6.36.1" fill="#009400" />
                        <path d="M1312.57,50.31l1.36-26.6a6.19,6.19,0,0,0-.62-.13l-1.09,26.66.35.07" fill="#090" />
                        <path d="M1312.22,50.24l1.09-26.66-.62-.1-.81,26.7.34.06" fill="#009e00" />
                        <path d="M1311.88,50.18l.81-26.7-.62-.07-.53,26.74.34,0" fill="#00a300" />
                        <path d="M1311.54,50.15l.53-26.74-.64,0-.25,26.76.36,0" fill="#00a800" />
                        <path d="M1311.18,50.13l.25-26.76h-.66l0,26.75h.36" fill="#00ad00" />
                        <path d="M1310.82,50.12l0-26.75c-.23,0-.47,0-.7,0l.36,26.74.39,0" fill="#00b300" />
                        <path d="M1310.43,50.14l-.36-26.74-.78.08.7,26.7.44,0" fill="#00b800" />
                        <path d="M1310,50.18l-.7-26.7c-.32,0-.63.1-.94.16l1.12,26.64.52-.1" fill="#00bd00" />
                        <path d="M1309.47,50.28l-1.12-26.64a9.7,9.7,0,0,0-2.6,1,7,7,0,0,0-.9.6l2.68,25.94a2.71,2.71,0,0,1,.5-.33,5,5,0,0,1,1.44-.53" fill="#00c200" />
                        <path d="M1307.53,51.14l-2.68-25.94a4.91,4.91,0,0,0-.52.49l2.91,25.72a2.56,2.56,0,0,1,.29-.27" fill="#00bd00" />
                        <path d="M1307.24,51.41l-2.91-25.72q-.18.21-.33.42l3,25.53.19-.23" fill="#00b800" />
                        <path d="M1307.05,51.64l-3-25.53a2.14,2.14,0,0,0-.23.38l3.15,25.37a1.59,1.59,0,0,1,.13-.22" fill="#00b300" />
                        <path d="M1306.92,51.86l-3.15-25.37a2,2,0,0,0-.16.37l3.23,25.2a1.19,1.19,0,0,1,.08-.2" fill="#00ad00" />
                        <path d="M1306.84,52.06l-3.23-25.2a2.54,2.54,0,0,0-.1.37l3.27,25a.83.83,0,0,1,.06-.21" fill="#00a800" />
                        <path d="M1306.78,52.27l-3.27-25a2.23,2.23,0,0,0,0,.36l3.29,24.88,0-.2" fill="#00a300" />
                        <path d="M1306.75,52.47l-3.29-24.88a2.41,2.41,0,0,0,0,.38l3.29,24.71a1.48,1.48,0,0,1,0-.21" fill="#009e00" />
                        <path d="M1306.76,52.68,1303.47,28a.45.45,0,0,0,0,.11l3.28,24.66v-.06" fill="#090" />
                    </g>
                    <g style="isolation:isolate">
                        <path d="M1311,27.75l3.28,24.66a1.75,1.75,0,0,0-.94-1.21,4,4,0,0,0-.95-.4l-1.39-23" fill="#008500" />
                        <path d="M1311,27.75l1.39,23-.48-.11L1311,27.75" fill="#008a00" />
                        <path d="M1311,27.75l.91,22.94-.42,0L1311,27.75" fill="#008f00" />
                        <path d="M1311,27.75l.49,22.89a2.83,2.83,0,0,0-.41,0L1311,27.75" fill="#009400" />
                        <path d="M1311,27.75l.08,22.86h-.42l.34-22.86" fill="#090" />
                        <path d="M1311,27.75l-.34,22.86-.46,0,.8-22.9" fill="#009e00" />
                        <path d="M1311,27.75l-.8,22.9a5.21,5.21,0,0,0-.57.1l1.37-23" fill="#00a300" />
                        <path d="M1311,27.75l-1.37,23a4.67,4.67,0,0,0-1.05.4,2.24,2.24,0,0,0-.34.23L1311,27.75" fill="#00a800" />
                        <path d="M1311,27.75l-2.76,23.63a2.26,2.26,0,0,0-.32.29L1311,27.75" fill="#00a300" />
                        <path d="M1311,27.75,1308,51.67a1.88,1.88,0,0,0-.18.24L1311,27.75" fill="#009e00" />
                        <path d="M1311,27.75l-3.26,24.16a2.56,2.56,0,0,0-.11.24l3.37-24.4" fill="#090" />
                        <path d="M1311,27.75l-3.37,24.4a.86.86,0,0,0-.06.23L1311,27.75" fill="#009400" />
                        <polyline points="1311.03 27.75 1307.6 52.38 1307.6 52.39 1311.03 27.75" fill="#008f00" />
                    </g>
                    <g style="isolation:isolate">
                        <path d="M1311,27.75,1313.3,54a2.33,2.33,0,0,0,.4-.27L1311,27.75" fill="#00c200" />
                        <path d="M1311,27.75l2.67,25.94a1.61,1.61,0,0,0,.23-.22L1311,27.75" fill="#00bd00" />
                        <path d="M1311,27.75l2.9,25.72a1.19,1.19,0,0,0,.15-.18l-3-25.54" fill="#00b800" />
                        <path d="M1311,27.75l3,25.54.1-.17L1311,27.75" fill="#00b300" />
                        <path d="M1311,27.75l3.15,25.37a1.22,1.22,0,0,0,.07-.17L1311,27.75" fill="#00ad00" />
                        <path d="M1311,27.75l3.22,25.2a1,1,0,0,0,0-.16l-3.27-25" fill="#00a800" />
                        <path d="M1311,27.75l3.27,25a.88.88,0,0,0,0-.16L1311,27.75" fill="#00a300" />
                        <path d="M1311,27.75l3.29,24.88v-.17L1311,27.75" fill="#009e00" />
                        <path d="M1311,27.75l3.29,24.71v-.05L1311,27.75" fill="#090" />
                    </g>
                    <g style="isolation:isolate">
                        <path d="M1311,27.75l-3.43,24.64a1.6,1.6,0,0,0,.94,1.52l.17.1L1311,27.75" fill="#008500" />
                        <path d="M1311,27.75,1308.71,54l.36.16,2-26.42" fill="#008a00" />
                        <path d="M1311,27.75l-2,26.42.31.11L1311,27.75" fill="#008f00" />
                        <path d="M1311,27.75l-1.65,26.53.28.07,1.37-26.6" fill="#009400" />
                        <path d="M1311,27.75l-1.37,26.6a1.4,1.4,0,0,0,.28.06L1311,27.75" fill="#090" />
                        <path d="M1311,27.75l-1.09,26.66.27.05.82-26.71" fill="#009e00" />
                        <path d="M1311,27.75l-.82,26.71.28,0,.54-26.74" fill="#00a300" />
                        <path d="M1311,27.75l-.54,26.74h.28l.26-26.75" fill="#00a800" />
                        <path d="M1311,27.75l-.26,26.75h.3l0-26.76" fill="#00ad00" />
                        <path d="M1311,27.75l0,26.76.31,0L1311,27.75" fill="#00b300" />
                        <path d="M1311,27.75l.35,26.74.35,0-.7-26.71" fill="#00b800" />
                        <path d="M1311,27.75l.7,26.71.41-.08L1311,27.75" fill="#00bd00" />
                        <path d="M1311,27.75l1.11,26.63a4.2,4.2,0,0,0,1.16-.42L1311,27.75" fill="#00c200" />
                    </g>
                    <g style="isolation:isolate">
                        <path d="M1313.88,54.31l2.42-23.4a7.7,7.7,0,0,0,.76-.5L1314.31,54a3.55,3.55,0,0,1-.43.28" fill="#00a800" />
                        <path d="M1314.31,54l2.75-23.62a4.63,4.63,0,0,0,.72-.66l-3.08,23.92a3.46,3.46,0,0,1-.39.36" fill="#00a300" />
                        <path d="M1314.7,53.67l3.08-23.92a4,4,0,0,0,.4-.55l-3.25,24.16a2.06,2.06,0,0,1-.23.31" fill="#009e00" />
                        <path d="M1314.93,53.36l3.25-24.16a2.84,2.84,0,0,0,.25-.53l-3.36,24.4a1.92,1.92,0,0,1-.14.29" fill="#090" />
                        <path d="M1315.07,53.07l3.36-24.4a3.18,3.18,0,0,0,.14-.53l-3.43,24.63a1.63,1.63,0,0,1-.07.3" fill="#009400" />
                        <path d="M1315.14,52.77l3.43-24.63v0l-3.43,24.64h0" fill="#008f00" />
                    </g>
                    <g style="isolation:isolate">
                        <path d="M1306.76,52.74l-3.28-24.66a4,4,0,0,0,2.12,2.72,8.46,8.46,0,0,0,2.13.89l1.4,23.06a5.32,5.32,0,0,1-1.19-.5,2.25,2.25,0,0,1-1.18-1.51" fill="#008500" />
                        <path d="M1309.13,54.75l-1.4-23.06c.35.1.71.18,1.07.25l.92,22.94a5.61,5.61,0,0,1-.59-.13" fill="#008a00" />
                        <path d="M1309.72,54.88l-.92-22.94c.32.06.64.1,1,.13l.49,22.89-.53-.08" fill="#008f00" />
                        <path d="M1310.25,55l-.49-22.89c.3,0,.61,0,.92.06l.08,22.86-.51,0" fill="#009400" />
                        <path d="M1310.76,55l-.08-22.86c.31,0,.63,0,.94,0L1311.29,55h-.53" fill="#090" />
                        <path d="M1311.29,55l.33-22.86c.35,0,.69,0,1-.08l-.79,22.9a5.46,5.46,0,0,1-.57,0" fill="#009e00" />
                        <path d="M1311.86,54.94l.79-22.9c.44-.06.88-.14,1.3-.24l-1.37,23c-.24,0-.48.1-.72.13" fill="#00a300" />
                        <path d="M1312.58,54.81l1.37-23a9.16,9.16,0,0,0,2.35-.89l-2.42,23.4a5.17,5.17,0,0,1-1.3.5" fill="#00a800" />
                    </g>
                    <ellipse cx="1311.03" cy="27.75" rx="4.38" ry="7.57" transform="translate(1279.56 1338.69) rotate(-89.84)" fill="#00dc00" />
                </g>
            </g>
        </g>
    </g>
</svg>