<svg xmlns="http://www.w3.org/2000/svg" xmlns:xlink="http://www.w3.org/1999/xlink" viewBox="0 0 1559.46 1655.5"><defs><clipPath id="clip-path"><path d="M1331.56,193.4a2,2,0,0,0-1.17-1.9,6.6,6.6,0,0,0-6-.06,2,2,0,0,0-1.26,1.94q-1.64-12.33-3.28-24.66c-.17-1.26.59-2.54,2.27-3.48a11.74,11.74,0,0,1,10.7.11c1.58.94,2.29,2.19,2.12,3.41Q1333.28,181.08,1331.56,193.4Z" fill="none"/></clipPath><clipPath id="clip-path-2"><path d="M1327.44,168.39q1.65,12.33,3.29,24.66a1.75,1.75,0,0,0-.94-1.21,5.25,5.25,0,0,0-4.76-.05,1.79,1.79,0,0,0-1,1.24Z" fill="none"/></clipPath><clipPath id="clip-path-3"><path d="M1330.73,193.05a1.63,1.63,0,0,1-1,1.55l-2.28-26.21Q1329.09,180.72,1330.73,193.05Z" fill="none"/></clipPath><clipPath id="clip-path-4"><path d="M1327.44,168.39l2.28,26.21a5.25,5.25,0,0,1-4.76,0A1.57,1.57,0,0,1,1324,193C1325,185.64,1326.41,175.78,1327.44,168.39Z" fill="none"/></clipPath><clipPath id="clip-path-5"><path d="M1335,168.76q-1.71,12.31-3.43,24.64a2.25,2.25,0,0,1-1.26,1.55l2.42-23.41A4,4,0,0,0,1335,168.76Z" fill="none"/></clipPath><clipPath id="clip-path-6"><path d="M1323.18,193.38q-1.64-12.33-3.28-24.66a4,4,0,0,0,2.11,2.72,11.79,11.79,0,0,0,10.71.1L1330.3,195a6.58,6.58,0,0,1-5.94-.06A2.22,2.22,0,0,1,1323.18,193.38Z" fill="none"/></clipPath><clipPath id="clip-path-7"><path d="M1333.48,162.84c-1.5.84-3.56.68-5.83-.67,2.27,1.35,4.33,1.51,5.83.67a11.88,11.88,0,0,1-12.89-.83c-.38-.3-.88-.71-1.22-1a12,12,0,0,1-2.87-4.5,12,12,0,0,1-.68-4,10.27,10.27,0,0,1,.1-1.47,15.45,15.45,0,0,1,.38-1.82,11.86,11.86,0,0,1,21.51-2.84,11.68,11.68,0,0,1,1.58,4.31,13,13,0,0,1,.13,2.41,12,12,0,0,1-.46,2.77,11.84,11.84,0,0,1-2,3.91A11.7,11.7,0,0,1,1333.48,162.84Z" fill="none"/></clipPath><clipPath id="clip-path-8"><path d="M1339.53,152.54a11.79,11.79,0,0,1-6,10.3c1.51-.85,2.45-2.71,2.46-5.39,0-5.33-3.67-11.87-8.24-14.59,4.57,2.72,8.25,9.26,8.24,14.59,0,2.68-1,4.54-2.46,5.39a10.84,10.84,0,0,1-1.38.66,11.81,11.81,0,0,1-1.82.57,11.86,11.86,0,1,1,9.25-11.53Z" fill="none"/></clipPath></defs><title>mk3</title><g id="Layer_2" data-name="Layer 2"><g id="Layer_4" data-name="Layer 4"><g id="marketHigh"><polygon points="12.16 48.39 25.11 40.86 29.11 23.71 5.79 37.26 12.16 48.39" fill="#d8d8d8"/><polygon points="29.11 23.71 29.86 20.48 36.27 16.76 35.24 16.75 0 37.23 5.79 37.26 29.11 23.71" fill="#878787"/><polygon points="17.78 46.7 24.68 42.69 25.11 40.86 12.16 48.39 17.78 46.7" fill="#757575"/><polygon points="23.73 46.77 24.68 42.69 17.78 46.7 23.73 46.77" fill="#888"/><polygon points="200.95 339.73 202.26 326.08 196.04 329.7 200.95 339.73" fill="#d6d6d6"/><polygon points="103.81 135.8 109.41 127.63 137.3 111.41 133.44 102.76 98.2 123.24 103.81 135.8" fill="#d4d4d4"/><polygon points="109.51 130.79 104.48 138.13 109.87 135 109.51 130.79" fill="#747474"/><path d="M116.29,209l5.15-19,6.18-15.91,6.2-26.18,13.61-7.9-2.78-32.85-35.24,20.47Z" fill="#b3b3b3"/><polygon points="142.21 179.94 122.8 191.23 116.61 214.11 146.8 196.56 142.21 179.94" fill="#8c8c8c"/><polygon points="36.53 32.87 30.94 22.96 25.03 48.27 43.38 37.61 36.53 32.87" fill="#8f8f8f"/><path d="M37,31.59l10.37-6,.92-1.86L71.63,10.14,65.1,0,29.86,20.48Z" fill="#d9d9d9"/><polygon points="37.02 31.59 42.36 35.78 47.39 25.56 37.02 31.59" fill="#cacaca"/><path d="M208.54,270.64l.08-.27-25.07,14.57C190.63,281.13,185.63,284,208.54,270.64Z" fill="#6e6e6e"/><polygon points="196.04 329.7 202.26 326.08 207.08 276.15 208.54 270.64 188.87 282.08 196.04 329.7" fill="#bababa"/><polygon points="98.2 123.24 133.44 102.76 127.56 94.13 92.32 114.61 98.2 123.24" fill="#d9d9d9"/><path d="M183.55,284.94l25.07-14.57c5.45-20.51,4.12-16.09,6.39-22.29l-1.93-8.4-35.24,20.48Z" fill="#c3c3c3"/><path d="M139.31,169.3l-10.32,6-6.19,15.94,19.41-11.29C139.48,170.05,140.09,172.3,139.31,169.3Z" fill="#838383"/><path d="M60.76,25.37a89.49,89.49,0,0,0-11.25-.06L43.43,37.65,61.17,27.34Z" fill="#7c7c7c"/><polygon points="72.97 62.87 75.84 49.3 67.92 53.91 72.97 62.87" fill="#d8d8d8"/><polygon points="170.73 227.78 205.97 207.3 200.72 208.1 165.48 228.58 170.73 227.78" fill="#7c7c7c"/><polygon points="177.84 260.16 213.08 239.69 205.97 207.3 170.73 227.78 177.84 260.16" fill="#c2c2c2"/><path d="M48.31,23.7l6.45-.37L90,2.85l-6.45.37Z" fill="#838383"/><polygon points="141.25 171.84 146.58 194.84 152.16 172.54 177.93 157.57 176.49 151.36 141.25 171.84" fill="#c3c3c3"/><polygon points="134.65 151.44 128.99 175.29 139.31 169.3 134.65 151.44" fill="#8f8f8f"/><polygon points="54.76 23.33 60.93 23.58 96.17 3.1 90 2.85 54.76 23.33" fill="#8a8a8a"/><polygon points="60.93 23.58 67.92 53.91 75.84 49.3 78.92 34.76 100.56 22.18 96.17 3.1 60.93 23.58" fill="#c3c3c3"/><polygon points="208.48 277.2 202.17 342.61 237.41 322.13 243.72 256.72 208.48 277.2" fill="#9d9d9d"/><path d="M141.25,171.84l35.24-20.48-7.43-23.94L133.82,147.9Z" fill="#cacaca"/><polygon points="158.28 186.11 153.18 175.2 147.33 198.51 159.16 191.63 158.28 186.11" fill="#8e8e8e"/><polygon points="159.53 186.01 165.48 228.58 200.72 208.1 194.77 165.53 159.53 186.01" fill="#b9b9b9"/><path d="M152.17,172.54,159.53,186l35.24-20.48-7.36-13.47Z" fill="#d8d8d8"/><polygon points="85 54.14 79.85 38.05 74.08 65.35 85.47 58.73 85 54.14" fill="#919191"/><polygon points="86.34 54.35 92.32 114.61 127.56 94.13 121.58 33.87 86.34 54.35" fill="#b4b4b4"/><path d="M86.34,54.35l35.24-20.48-7.42-19.59L78.92,34.76Z" fill="#d0d0d0"/><polygon points="214.67 253.97 208.48 277.2 243.72 256.72 249.91 233.49 214.67 253.97" fill="#8c8c8c"/><polygon points="214.67 253.97 249.91 233.49 256.11 216.61 220.87 237.09 214.67 253.97" fill="#848484"/><polygon points="254.41 203.54 245.43 208.76 238.82 198.86 227.08 205.69 220.87 237.09 256.11 216.61 257.88 207.64 257.37 207.64 254.41 203.54" fill="#939393"/><path d="M233,194l-5.91,11.67,11.74-6.83C238.18,197.9,239.17,198.79,233,194Z" fill="#7b7b7b"/><polygon points="238.81 196.86 268.18 179.79 268.74 177.13 271.19 174.43 267.17 171.69 231.93 192.17 238.81 196.86" fill="#c4c4c4"/><polygon points="238.81 196.86 244.61 206.56 250.34 196.99 266.53 187.58 268.18 179.79 238.81 196.86" fill="#d9d9d9"/><polygon points="251.21 199.11 245.43 208.76 254.41 203.54 251.21 199.11" fill="#777"/><polygon points="250.34 196.99 257.18 205.84 263.44 202.21 266.53 187.58 250.34 196.99" fill="#d9d9d9"/><polygon points="257.18 205.84 262.6 206.18 263.44 202.21 257.18 205.84" fill="#8c8c8c"/><polygon points="270.09 178.41 263.9 207.67 298.23 187.73 294.22 164.39 270.09 178.41" fill="#919191"/><polygon points="294.22 164.39 293.72 161.45 276.28 171.59 270.09 178.41 294.22 164.39" fill="#6f6f6f"/><polygon points="305.91 202.28 311.69 193.33 313.68 188.12 300.7 195.66 305.91 202.28" fill="#d8d8d8"/><path d="M293.39,159.53c-7.07-11-4.54-7.44-11.1-15.92l-6,28,17.44-10.14Z" fill="#919191"/><polygon points="313.01 194.71 306.81 204.33 342.05 183.85 348.25 174.23 313.01 194.71" fill="#767676"/><polygon points="288.3 149.46 323.54 128.98 316.36 120.98 281.12 141.46 288.3 149.46" fill="#d6d6d6"/><polygon points="294.5 159.11 300.7 195.66 313.68 188.12 317.85 177.19 324.04 154.27 330.23 147.51 330.85 145.19 329.73 138.63 294.5 159.11" fill="#bcbcbc"/><polygon points="288.3 149.46 294.5 159.11 329.73 138.63 323.54 128.98 288.3 149.46" fill="#d9d9d9"/><polygon points="319.21 178.43 313.01 194.71 348.25 174.23 354.45 157.95 319.21 178.43" fill="#838383"/><polygon points="345.53 143.89 325.38 155.6 319.21 178.43 354.45 157.95 355.12 155.46 349.64 156.3 345.53 143.89" fill="#8c8c8c"/><polygon points="345.53 143.89 344.65 141.23 331.56 148.84 325.38 155.6 345.53 143.89" fill="#6f6f6f"/><polygon points="342.6 135.03 337.47 126.74 331.56 148.84 344.65 141.23 342.6 135.03" fill="#8c8c8c"/><polygon points="343.67 134.56 349.61 154.4 356.55 150.36 360.93 141.67 367.12 137.1 373.25 124.47 380.72 120.13 378.91 114.08 343.67 134.56" fill="#c9c9c9"/><polygon points="343.67 134.56 378.91 114.08 371.64 103.93 336.4 124.41 343.67 134.56" fill="#d9d9d9"/><polygon points="349.61 154.4 354.85 153.73 356.55 150.36 349.61 154.4" fill="#7e7e7e"/><polygon points="381.01 132.23 362.18 143.17 356.06 155.32 383.75 139.23 381.01 132.23" fill="#7c7c7c"/><polygon points="471.67 373.13 476.92 339.64 483.55 335.79 489.35 280.67 502.51 273.02 501.45 253.81 466.21 274.29 471.67 373.13" fill="#afafaf"/><polygon points="502.83 353.75 499.5 332.87 484.45 341.61 478.25 341.14 472.06 380.62 507.3 360.14 508.85 350.25 502.83 353.75" fill="#979797"/><polygon points="521.08 405.55 514.77 410.54 550.01 390.06 554.64 386.4 554.61 386.06 521.08 405.55" fill="#6d6d6d"/><polygon points="483.09 340.14 483.55 335.79 476.92 339.64 483.09 340.14" fill="#8e8e8e"/><path d="M380.7,131.43c-14.79,8.6-10.72,6-18.52,11.74L381,132.23Z" fill="#6d6d6d"/><polygon points="379.64 128.72 374.38 126.22 368.38 138.59 380.7 131.43 379.64 128.72" fill="#7d7d7d"/><path d="M392.38,168.27l5.35-7.82c26.27-15.26,24.35-14,24.55-14.47l4.35-2.53L422,123.12,386.74,143.6Z" fill="#c3c3c3"/><polygon points="398.17 163.13 392.8 170.97 399.31 167.18 398.17 163.13" fill="#747474"/><polygon points="404.65 184.8 409.92 179.38 416.08 159.04 422.14 146.26 397.73 160.46 404.65 184.8" fill="#c8c8c8"/><path d="M380,127.24l35.24-20.48L408.49,104l-35.24,20.48Z" fill="#adadad"/><polygon points="379.97 127.24 386.74 143.6 421.98 123.12 415.21 106.76 379.97 127.24" fill="#d2d2d2"/><polygon points="411.25 180.74 404.99 187.26 440.23 166.78 444.1 162.75 443.68 161.89 411.25 180.74" fill="#6f6f6f"/><polygon points="466.21 274.29 501.45 253.81 495.4 225.05 460.16 245.53 466.21 274.29" fill="#c1c1c1"/><polygon points="495.42 307.31 490.37 285.35 484.45 341.61 499.5 332.87 495.42 307.31" fill="#9c9c9c"/><polygon points="496.79 307.67 502.07 347.77 507.69 305.08 532.49 290.67 532.03 287.19 496.79 307.67" fill="#b8b8b8"/><path d="M508.14,313.36l-5.31,40.39,7.76-4.51Z" fill="#999"/><path d="M507.69,305.08,514.83,408l4.88-3.72c7.48-53.35,4.62-34.73,12.48-82L545,314.87l-2.1-30.27Z" fill="#b1b1b1"/><polygon points="551.58 347.21 539.63 354.15 539.54 353.81 527.34 360.9 521.08 405.55 554.61 386.06 551.58 347.21" fill="#999"/><polygon points="443.68 161.89 443.47 161.46 429.69 169.47 425.19 155.81 417.42 160.33 411.25 180.74 443.68 161.89" fill="#898989"/><path d="M496.79,307.67,532,287.19l-7.44-27-35.24,20.48Z" fill="#c7c7c7"/><polygon points="460.16 245.53 495.4 225.05 489.37 190.09 454.13 210.57 460.16 245.53" fill="#bdbdbd"/><polygon points="533.02 326.83 527.34 360.9 539.54 353.81 533.02 326.83" fill="#969696"/><path d="M532.19,322.33l6.75,27.92,5.52-21.81,25.77-15-2.8-11.61Z" fill="#c4c4c4"/><polygon points="551.58 347.21 550.59 334.56 545.66 330.31 539.63 354.15 551.58 347.21" fill="#8d8d8d"/><polygon points="551.44 333.61 557.45 420.91 562.67 393.12 575.48 385.68 581.2 349.54 588.88 345.08 586.68 313.13 551.44 333.61" fill="#b1b1b1"/><polygon points="570.14 408.66 563.73 396.02 557.84 427.38 593.08 406.9 595.52 393.92 570.14 408.66" fill="#949494"/><polygon points="569.25 406.01 574.97 388.94 575.48 385.68 562.67 393.12 569.25 406.01" fill="#d6d6d6"/><polygon points="422.89 148.83 417.42 160.33 425.19 155.81 422.89 148.83" fill="#7d7d7d"/><path d="M428.9,166.14l5.62-20.39,24.9-14.47-1.9-5.78L422.28,146Z" fill="#ccc"/><path d="M443.47,161.46c-3.35-7-1.62-4-7.87-13.45l-5.91,21.46Z" fill="#8b8b8b"/><path d="M576.36,390.07l-6.22,18.59,35.24-20.48,6.22-18.59Z" fill="#878787"/><polygon points="454.13 210.57 489.37 190.09 483.22 147.66 447.98 168.13 454.13 210.57" fill="#bababa"/><path d="M434.52,145.75l7.25,9.51L477,134.78l-7.25-9.51Z" fill="#d9d9d9"/><polygon points="441.77 155.26 447.98 168.13 483.22 147.66 477 134.78 441.77 155.26" fill="#d5d5d5"/><path d="M544.46,328.44l7,5.17,35.24-20.48-7-5.17Z" fill="#c7c7c7"/><path d="M594.79,379.19l-7.23-27-5-1.09-6.17,39,35.24-20.48C611.64,369.32,613.5,368.32,594.79,379.19Z" fill="#979797"/><path d="M587.83,350.51l12-7,.79-5.28L581.2,349.54Z" fill="#949494"/><path d="M587.83,350.51,594,375.1c6.29-33.74,5.61-30,5.85-31.55Z" fill="#c5c5c5"/><path d="M601,345.73l-6.24,33.46L630,358.71l6.24-33.46Z" fill="#949494"/><polygon points="618.95 308.99 612.85 305.15 607.22 304.82 601.03 345.73 636.27 325.25 639.63 303.02 625.66 311.14 618.95 308.99" fill="#979797"/><polygon points="612.43 303.34 628.89 293.77 630.18 289.24 605.88 303.36 612.43 303.34" fill="#878787"/><polygon points="618.8 307.28 626.28 302.94 628.89 293.77 612.43 303.34 618.8 307.28" fill="#bfbfbf"/><polygon points="624.41 309.48 626.28 302.94 618.8 307.28 624.41 309.48" fill="#acacac"/><path d="M643,288.69l-3.58-3.57-7.57,4.4-6.16,21.62,21.92-12.74Z" fill="#8b8b8b"/><polygon points="722.97 470.52 728.2 450.77 734.46 405.8 753.19 394.91 752.68 389.3 717.44 409.78 722.97 470.52" fill="#b3b3b3"/><polygon points="742.95 444.1 729.59 451.86 723.38 475.41 745.3 462.67 742.95 444.1" fill="#8c8c8c"/><polygon points="637.59 283.33 631.82 289.52 639.39 285.12 637.59 283.33" fill="#6f6f6f"/><polygon points="643.69 287.66 678.93 267.18 671.98 260.91 636.74 281.39 643.69 287.66" fill="#d0d0d0"/><polygon points="643.69 287.66 649.6 301.51 655.13 296.52 684.24 279.61 678.93 267.18 643.69 287.66" fill="#d3d3d3"/><polygon points="650.1 303.71 658.08 299.08 656.08 298.32 650.1 303.71" fill="#6e6e6e"/><path d="M661.7,298.8l35.24-20.48-6.57-2.27-35.24,20.47Z" fill="#a7a7a7"/><polygon points="740.55 425.19 735.5 409.39 729.59 451.86 742.95 444.1 740.55 425.19" fill="#999"/><polygon points="741.88 425.41 747.41 478.05 752.74 454.62 758.93 436.16 763.14 413.05 741.88 425.41" fill="#b5b5b5"/><polygon points="754.11 455.81 747.9 483.14 783.14 462.67 789.35 435.33 754.11 455.81" fill="#909090"/><polygon points="680.19 327.03 715.43 306.55 709.75 302.96 674.51 323.44 680.19 327.03" fill="silver"/><polygon points="686.31 357.98 691.71 342.36 719.33 326.3 715.43 306.55 680.19 327.03 686.31 357.98" fill="silver"/><polygon points="667.94 302.32 703.18 281.84 696.94 278.32 661.7 298.8 667.94 302.32" fill="#bbb"/><polygon points="674.51 323.44 709.75 302.96 703.18 281.84 667.94 302.32 674.51 323.44" fill="#cacaca"/><path d="M692.65,344.82l-5.78,16.73,11-6.39C697.84,355.06,698.14,355.65,692.65,344.82Z" fill="#868686"/><path d="M699,354.85l35.24-20.48L727,321.88l-35.24,20.48Z" fill="#d8d8d8"/><polygon points="704.58 374.93 710.07 362.47 737.62 346.47 734.27 334.37 699.03 354.85 704.58 374.93" fill="#c7c7c7"/><polygon points="710.43 366 705.21 377.85 711.5 374.2 710.43 366" fill="#7f7f7f"/><path d="M741.88,425.41l21.26-12.36,2-11,8.81-5.12c.06-.31.52,1-4.26-11.59L734.46,405.8Z" fill="#d0d0d0"/><path d="M717.44,409.78l35.24-20.48L745.31,342c-8.79,5.12-13.45,7.82-35.24,20.48Z" fill="#bbb"/><polygon points="760.31 437.3 754.11 455.81 789.35 435.33 795.55 416.82 760.31 437.3" fill="#868686"/><polygon points="1443.12 1640.95 1445.15 1568.66 1438.25 1572.67 1443.12 1640.95" fill="#b1b1b1"/><polygon points="795.55 398.21 772.66 411.52 766.34 404.25 760.31 437.3 795.55 416.82 798.34 401.55 797.22 402.2 795.55 398.21" fill="#949494"/><polygon points="765.15 402.03 771.48 409.3 773.96 396.91 765.15 402.03" fill="#d7d7d7"/><polygon points="795.55 398.21 791.11 387.59 784.87 391.22 778.61 381.74 772.66 411.52 795.55 398.21" fill="#929292"/><polygon points="784.21 389.11 789.88 383.44 818.29 366.93 812.73 358.8 777.49 379.28 784.21 389.11" fill="#d9d9d9"/><polygon points="790.34 385.75 784.87 391.22 791.11 387.59 790.34 385.75" fill="#6e6e6e"/><path d="M789.88,383.44l6.48,15.84,5.69-18.86,24.41-14.18L825.12,363Z" fill="#d2d2d2"/><path d="M802.93,383.25l-5.71,18.95,11.18-6.5Z" fill="#898989"/><path d="M802.05,380.42l6.84,15.25,5.51-5.78,6.4-3.72,5.83-10.25,4.78-12.56Z" fill="#d4d4d4"/><path d="M815.52,391.54,809.4,398l35.24-20.48,5.53-5.81C817.09,390.9,823.81,387.09,815.52,391.54Z" fill="#6f6f6f"/><polygon points="1401.51 1311.71 1407.56 1077.72 1432.87 1063.01 1432.06 1015.36 1396.82 1035.84 1401.51 1311.71" fill="#ababab"/><polygon points="1408.04 1114.72 1402.08 1345.35 1411.89 1339.64 1408.04 1114.72" fill="#a5a5a5"/><path d="M1413.66,1436l5.54-137.91,27.43-15.94-3.83-224.93-35.24,20.47Z" fill="#ababab"/><polygon points="1419.89 1317.19 1414.02 1463.32 1426.2 1456.24 1419.89 1317.19" fill="#a4a4a4"/><path d="M1419.2,1298.12l7,155.12,4.94-7.78,17.76-10.33.66-23.26,6.23-29.67,1.52-40.89-2.87-63.67Z" fill="#aeaeae"/><polygon points="1431.19 1448.83 1426.22 1456.65 1431.41 1453.64 1431.19 1448.83" fill="#767676"/><polygon points="1438.25 1572.67 1445.15 1568.66 1448.9 1435.13 1431.14 1445.46 1438.25 1572.67" fill="#afafaf"/><path d="M820.54,386.63l.26-.46C812.41,391.05,812.2,391.06,820.54,386.63Z" fill="#6f6f6f"/><path d="M848.34,365.43,828,377.27l-6.21,10.92,29.45-17.11Z" fill="#797979"/><polygon points="848.34 365.43 847.35 363.48 840.19 367.63 833.88 361.68 827.96 377.27 848.34 365.43" fill="#838383"/><polygon points="839.3 365.67 845.14 358.04 855.27 352.15 856.52 345.92 832.8 359.7 839.3 365.67" fill="#d0d0d0"/><polygon points="1450.97 1412.8 1444.15 1655.5 1479.39 1635.02 1486.21 1392.32 1450.97 1412.8" fill="#a5a5a5"/><polygon points="847.35 363.48 845.76 360.35 840.19 367.63 847.35 363.48" fill="#727272"/><polygon points="851.5 370.84 855.27 352.15 845.14 358.04 851.5 370.84" fill="#d6d6d6"/><polygon points="1457.2 1383.15 1450.97 1412.8 1486.21 1392.32 1486.89 1389.1 1485.72 1366.57 1457.2 1383.15" fill="#919191"/><polygon points="877.06 342.09 870.58 341.18 867.73 337.7 858.74 342.92 852.54 373.72 887.78 353.24 891.51 334.72 891.03 333.97 877.06 342.09" fill="#929292"/><polygon points="864.5 333.76 858.74 342.92 867.73 337.7 864.5 333.76" fill="#767676"/><polygon points="870.43 339.42 886.31 330.19 888.22 328.41 905.27 318.5 898.84 311.24 863.61 331.72 870.43 339.42" fill="#d6d6d6"/><path d="M876,340.34c7.34-7.52,5-5.19,10.28-10.15l-15.88,9.23Z" fill="#959595"/><polygon points="891.03 333.97 889.76 331.96 883.2 335.78 877.06 342.09 891.03 333.97" fill="#6f6f6f"/><polygon points="888.85 330.51 883.2 335.78 889.76 331.96 888.85 330.51" fill="#6e6e6e"/><path d="M888.22,328.41,895,338.83l20.67-12,3.2-12.62,6.32-3.67-1.68-2.6Z" fill="#d9d9d9"/><polygon points="900.59 336.87 915.22 328.37 915.62 326.82 894.95 338.83 900.59 336.87" fill="#737373"/><polygon points="1485.72 1366.57 1482.56 1305.43 1469.67 1312.92 1463.28 1220.4 1457.2 1383.15 1485.72 1366.57" fill="#a4a4a4"/><polygon points="1469.01 1300.63 1474.66 1215.59 1498.86 1201.53 1497.66 1184.04 1462.42 1204.52 1469.01 1300.63" fill="#b1b1b1"/><polygon points="1480.65 1268.61 1475.59 1223.89 1469.67 1312.92 1482.56 1305.43 1480.65 1268.61" fill="#a1a1a1"/><polygon points="1482.06 1269.23 1487.37 1396.18 1492.71 1343.21 1500.47 1338.7 1503.19 1256.95 1482.06 1269.23" fill="#aeaeae"/><polygon points="1493.54 1350.03 1487.81 1406.83 1523.05 1386.35 1523.81 1378.79 1500.13 1392.55 1493.54 1350.03" fill="#9d9d9d"/><polygon points="906.91 337.81 913.85 333.78 915.22 328.37 900.59 336.87 906.91 337.81" fill="#949494"/><polygon points="1492.71 1343.21 1498.99 1383.27 1500.47 1338.7 1492.71 1343.21" fill="#bbb"/><polygon points="912.7 338.28 913.85 333.78 906.91 337.81 912.7 338.28" fill="#8e8e8e"/><polygon points="931.26 322.59 925.62 317.32 920.09 315.8 913.99 339.81 933.38 328.54 931.26 322.59" fill="#8d8d8d"/><polygon points="943.88 347.62 949.46 343.64 952.76 330.95 938.41 339.29 943.88 347.62" fill="#d9d9d9"/><path d="M918.82,314.2l6.65,1.4,35.24-20.48-6.65-1.4Z" fill="#9a9a9a"/><polygon points="925.47 315.6 931.97 321.54 967.21 301.06 960.71 295.12 925.47 315.6" fill="#d0d0d0"/><path d="M932,321.53l6.44,17.76L952.76,331l2.87-11,6.23-4.73c6.61-12.67,6.09-11.73,6.21-11.8l-.86-2.36Z" fill="#cfcfcf"/><polygon points="950.8 345.01 944.49 349.64 975.6 331.56 975.45 330.69 950.8 345.01" fill="#6d6d6d"/><path d="M1474.66,1215.59l7.4,53.64,21.13-12.28,2-59.08Z" fill="#b9b9b9"/><polygon points="974.04 322.42 970.97 313.17 956.96 321.31 950.8 345.01 975.45 330.69 974.04 322.42" fill="#8d8d8d"/><polygon points="986.83 382.85 992.33 365.65 998.85 361.86 1002.13 346.06 981.44 358.09 986.83 382.85" fill="#c2c2c2"/><path d="M970.69,312.32c-9.1,5.29-6,3.22-13.73,9l14-8.15Z" fill="#6d6d6d"/><polygon points="1018.16 358.03 1015.93 355.54 999.84 364.9 993.61 367.11 987.49 386.32 1022.73 365.84 1026.82 352.99 1018.16 358.03" fill="#888"/><polygon points="998.5 363.5 998.85 361.86 992.33 365.65 998.5 363.5" fill="#737373"/><polygon points="975.36 322.57 981.44 358.09 1002.13 346.06 1004.67 333.88 1015.01 327.87 1010.6 302.09 975.36 322.57" fill="#bdbdbd"/><polygon points="968.63 306.11 963.1 316.73 970.69 312.32 968.63 306.11" fill="#7b7b7b"/><path d="M975.36,322.57l35.24-20.48L1003.23,283,968,303.46Z" fill="#d0d0d0"/><polygon points="1011.1 350.16 1005.68 336.84 999.84 364.9 1015.93 355.54 1011.1 350.16" fill="#929292"/><polygon points="1011.97 349.36 1017.35 356.02 1023.07 349.38 1024.71 341.96 1011.97 349.36" fill="#d8d8d8"/><path d="M1012,349.36l12.74-7.4,4.54-20.52,8.3-4.82.59-2.19-33.47,19.45Z" fill="#d5d5d5"/><path d="M1506.79,1192.22l-6.66,200.33,35.24-20.48,6.3-189.46L1513,1199.3Z" fill="#a5a5a5"/><polygon points="1511.62 1196.97 1512.31 1185.85 1505.42 1189.86 1511.62 1196.97" fill="#d7d7d7"/><path d="M1024.42,350.66l-6.26,7.37,35.24-20.48,6.26-7.37Z" fill="#707070"/><polygon points="1036.76 325.88 1030.52 323.13 1024.42 350.66 1059.66 330.18 1064.13 309.97 1036.76 325.88" fill="#909090"/><polygon points="1035.52 324.17 1037.55 316.62 1029.25 321.44 1035.52 324.17" fill="#b0b0b0"/><path d="M1055.18,310.37l-6.8-5-5.54-2.06-6.08,22.59L1072,305.4l1.53-5.69Z" fill="#8c8c8c"/><path d="M1048.28,303.65l11.13-6.47c.84-1.8.2-.29,3.28-7.81l-21.1,12.27Z" fill="#a3a3a3"/><polygon points="1054.1 308.49 1059.41 297.18 1048.28 303.65 1054.1 308.49" fill="#ccc"/><polygon points="1384.12 999.36 1389.74 866.22 1416.78 850.5 1414.44 733.66 1379.2 754.14 1384.12 999.36" fill="#ababab"/><polygon points="1390.39 885.45 1384.58 1022.75 1394.79 1016.82 1390.39 885.45" fill="#a4a4a4"/><path d="M1513,1199.3l35.24-20.48,6.42-102.7-35.24,20.48Z" fill="#a1a1a1"/><path d="M1396.82,1035.84l35.24-20.48L1425,845.74l-35.24,20.48Z" fill="#aeaeae"/><path d="M1079.8,286.66c-.24-.14,1.28-.92-18.44,10.54l-6.18,13.17,35.24-20.48,3.08-6.57-1.1-4Z" fill="#7d7d7d"/><polygon points="1079.65 286.57 1073.13 282.63 1067.44 282.39 1061.36 297.2 1079.65 286.57" fill="#818181"/><polygon points="1072.72 280.82 1082.44 275.16 1084.36 270.25 1066.22 280.79 1072.72 280.82" fill="#878787"/><polygon points="1524.22 1052.37 1519.37 1096.6 1554.61 1076.12 1559.46 1031.89 1524.22 1052.37" fill="#9c9c9c"/><polygon points="1078.66 284.85 1082.44 275.16 1072.72 280.82 1078.66 284.85" fill="#c3c3c3"/><polygon points="1347.33 751.42 1348.58 721.85 1342.47 725.4 1347.33 751.42" fill="#bebebe"/><polygon points="1092.39 279.35 1090.93 274.08 1085.82 271.24 1079.8 286.67 1092.39 279.35" fill="#828282"/><polygon points="1091.44 272.73 1097.73 297.28 1103.01 290.77 1109.19 262.67 1126.73 252.47 1126.68 252.25 1091.44 272.73" fill="#c5c5c5"/><polygon points="1091.44 272.73 1126.68 252.25 1119.89 249.01 1084.65 269.49 1091.44 272.73" fill="#b3b3b3"/><polygon points="1114.56 286.12 1104.36 292.05 1098.11 299.85 1115.43 289.78 1114.56 286.12" fill="#717171"/><polygon points="1109.93 266.75 1104.36 292.05 1114.56 286.12 1109.93 266.75" fill="#909090"/><path d="M1109.19,262.67l7,29,5.3-8.5,14.38-8.36,4-14.24,7.86-4.57-3.32-13.79Z" fill="#c4c4c4"/><polygon points="1122.16 285.53 1116.56 294.5 1124.39 289.95 1122.16 285.53" fill="#767676"/><path d="M1121.47,283.15l6.56,13.07c6.81-16.6,5.11-11.87,7.82-21.43Z" fill="#d6d6d6"/><polygon points="1135.06 283.64 1128.86 298.78 1164.1 278.3 1170.3 263.16 1135.06 283.64" fill="#818181"/><polygon points="1342.47 725.4 1348.58 721.85 1353.68 600.95 1364.56 594.63 1366.06 561.22 1372.59 557.43 1371.97 539.61 1336.73 560.08 1342.47 725.4" fill="#adadad"/><polygon points="1372.85 700.37 1360.93 707.29 1354.5 615.91 1348.51 757.88 1376.68 741.52 1372.85 700.37" fill="#a4a4a4"/><polygon points="1360.13 692.74 1364.56 594.63 1353.68 600.95 1360.13 692.74" fill="#b1b1b1"/><path d="M1366.79,577.43l-5.86,129.86,11.92-6.92C1371.42,685,1372.59,706.09,1366.79,577.43Z" fill="#a3a3a3"/><polygon points="1373.25 690.13 1379.2 754.14 1414.44 733.66 1408.49 669.65 1373.25 690.13" fill="#b4b4b4"/><path d="M1147.35,276.27l-6.52-13-5.77,20.35c38-22.06,35.2-20.33,35.32-20.75Z" fill="#8b8b8b"/><path d="M1139.89,260.55l6.51,13,5.3-19.83Z" fill="#d6d6d6"/><path d="M1159.48,262.72l-6.21-8.57-5.92,22.12,35.24-20.48,2.06-7.7Z" fill="#8c8c8c"/><polygon points="1158.93 260.72 1164.48 257.42 1167.62 242.91 1152.19 251.88 1158.93 260.72" fill="#d9d9d9"/><polygon points="1336.73 560.08 1371.97 539.61 1365.95 522.39 1330.71 542.87 1336.73 560.08" fill="#cecece"/><path d="M1165.82,258.76l-6.34,4c39.68-23.06,34.52-20,37-21.55C1196.39,240.89,1198.83,239.58,1165.82,258.76Z" fill="#6d6d6d"/><polygon points="1208.03 331.11 1213.4 301.25 1240.93 285.25 1237.85 251.92 1202.61 272.4 1208.03 331.11" fill="#b4b4b4"/><polygon points="1226.27 306.27 1220.82 309.43 1214.62 303.3 1208.56 337.08 1228.23 325.64 1226.27 306.27" fill="#949494"/><path d="M1219.93,307.45l5.83-8.05L1245,288.23l.92-5.87-32.5,18.89Z" fill="#d1d1d1"/><polygon points="1225.88 302.45 1220.82 309.43 1226.27 306.27 1225.88 302.45" fill="#737373"/><path d="M1225.76,299.4l6.86,68.07,5.19-20c7.21-61.39,5.92-51.23,7.17-59.22Z" fill="#b5b5b5"/><polygon points="1239.21 348.5 1232.99 372.52 1268.23 352.04 1274.45 328.02 1239.21 348.5" fill="#8d8d8d"/><polygon points="1196.41 240.99 1195.38 234.38 1190.12 235.16 1183.72 232.72 1180.26 225.3 1172.02 230.09 1165.82 258.76 1196.41 240.99" fill="#919191"/><path d="M1373.25,690.13l35.24-20.48-7.19-128.91c-21.68,12.61-23.84,13.86-35.24,20.48Z" fill="#afafaf"/><polygon points="1177.62 219.66 1172.02 230.09 1180.26 225.3 1177.62 219.66" fill="#7a7a7a"/><polygon points="1183.95 231.15 1219.19 210.67 1212.11 196.75 1176.87 217.23 1183.95 231.15" fill="#d6d6d6"/><polygon points="1183.95 231.15 1189.49 233.33 1224.73 212.85 1219.19 210.67 1183.95 231.15" fill="#acacac"/><polygon points="1195.51 232.44 1202.61 272.4 1237.85 251.92 1230.74 211.96 1195.51 232.44" fill="#bdbdbd"/><polygon points="1189.49 233.33 1195.51 232.44 1230.74 211.96 1224.73 212.85 1189.49 233.33" fill="#7d7d7d"/><polygon points="1245.5 294.96 1239.21 348.5 1274.45 328.02 1280.74 274.48 1245.5 294.96" fill="#9b9b9b"/><polygon points="1330.71 542.87 1365.95 522.39 1360.15 404.43 1324.91 424.91 1330.71 542.87" fill="#aeaeae"/><polygon points="1258.33 251.26 1251.73 255.1 1245.5 294.96 1280.74 274.48 1283.14 259.16 1263.97 270.3 1258.33 251.26" fill="#979797"/><polygon points="1257.05 246.92 1251.73 255.1 1258.33 251.26 1257.05 246.92" fill="#757575"/><polygon points="1263.18 266.71 1268.8 244.05 1275.1 240.39 1277.44 232.1 1256.59 244.22 1263.18 266.71" fill="#c9c9c9"/><path d="M1295.74,230.87c-22.57,13.11-17.36,10.19-25.62,14.56L1264,270.3l35.24-20.48,2.09-8.44-.46.26Z" fill="#8e8e8e"/><path d="M1275,240.73l.1-.34C1266.83,245.2,1266.6,245.23,1275,240.73Z" fill="#6f6f6f"/><polygon points="1324.91 424.91 1360.15 404.43 1354.39 269.55 1319.15 290.03 1324.91 424.91" fill="#aeaeae"/><polygon points="1295.74 230.87 1294.02 227.24 1288.45 230.48 1282.2 221.33 1276.32 242.15 1295.74 230.87" fill="#8b8b8b"/><path d="M1287.91,228.46c7.5-4.59.74-.6,35.15-20.6l-6.67-9.34L1281.15,219Z" fill="#d9d9d9"/><path d="M1294,227.24l-.07-.13C1286.81,231.48,1286.4,231.67,1294,227.24Z" fill="#6d6d6d"/><path d="M1293.58,225l6.45,14,5.66-13.8,25.77-15-2.64-5.75Z" fill="#d4d4d4"/><polygon points="1319.15 290.03 1354.39 269.55 1348.33 224.14 1313.09 244.62 1319.15 290.03" fill="#b8b8b8"/><path d="M1306.42,228l-5.58,13.6,8.42-4.88Z" fill="#818181"/><path d="M1493.54,1350l6.59,42.52,6.66-200.33,6.16,7.08,6.42-102.7,4.85-44.23-6.26,43.28c-1.11,17.74-5.61,89.58-6.34,101.32l-6.2-7.11c-.31,9.37-6.12,184-6.43,193.4l-6.28-40-5.34,53-5.31-127-7.4-53.64-5.65,85-6.59-96.11c-.37,10.06-6.26,167.63-6.63,177.68l-6.23,29.67c-2.47,87.65-4.32,153.77-6.44,229.08-6.14-86-3.45-42.81-12-195.49l-4.94,7.78-7-155.12L1413.66,1436l-6.1-358.31-6,234-4.69-275.87-7.08-169.62-5.62,133.14-4.92-245.22-6-64-7.19-128.91c-.65,14.46-5.31,117.81-5.93,131.52L1353.68,601c-.71,16.77-5.73,135.79-6.35,150.47l-4.86-26-5.74-165.32-6-17.21c-7.3-148.54-4.64-91-11.56-252.84l-6.06-45.41-7.4-19.39L1300,239l-6.45-14-5.67,3.47-6.76-9.46L1275,240.73l-6.2,3.32-5.62,22.66-6.59-22.49-6.24,9.69c-8,51.1-5.14,30.48-12.54,93.54l-5.19,20-6.86-68.07-5.83,8.05-6.53-6.2L1208,331.11l-5.43-58.71-7.1-40-6,.89-5.54-2.18-7.08-13.92-6.22,11.64c-2.16,10-4,18.54-6.17,28.55l-5.55,3.3-6.74-8.84c-.85,3.16-3.44,12.86-5.79,21.63l-6.51-13c-7.53,26.57-4.82,18.5-11.86,35.67l-6.56-13.07-5.3,8.5-7-29-6.18,28.1-5.28,6.51-6.29-24.55-6.78-3.24c-.33.83-1.41,3.61-6,15.36l-5.94-4-6.5,0c-7.78,18.94-5,12.5-12.12,27.7l-5.82-4.84-6.69-2c-3.93,14.57-3.91,14.5-6.07,22.53l-6.27-2.73c-1.45,6.59-4.71,21.31-6.18,27.94l-5.72,6.64-5.38-6.66-7.3-15.48c-.7,3.37-5.43,26.09-6.17,29.62l-6.17,2.15-5.5,17.2c-6.79-31.18-4.18-17.65-11.47-60.28L968,303.46l-6.13,11.76L955.63,320C954,326,951,337.83,949.46,343.64l-5.58,4-5.47-8.33L932,321.53l-6.5-5.93-6.65-1.4-6.12,24.08a98.58,98.58,0,0,1-12.11-1.41l-5.64,2-6.73-10.42c-7.76,7.24-4.94,4.5-12.19,11.93l-5.6-.92-6.83-7.7-6.23,10c-2.94,14.64-1,5.13-5.87,29.15L845.14,358l-5.84,7.63-6.5-6c-2.06,5.43-3.91,10.27-6.17,16.22l-6.09,10.71-6.14,3.26-5.51,5.78-6.84-15.25-5.69,18.86-6.48-15.84-5.67,5.67-6.72-9.83c-3.66,18.27-3.92,19.59-6,30L765.15,402c-3.48,19.1-2.74,15.05-6.22,34.13l-6.19,18.45-5.33,23.44-5.53-52.64-7.42-19.61-6.26,45L723,470.52l-5.53-60.74-7.37-47.31-5.49,12.46L699,354.85l-7.32-12.49L686.31,358l-6.12-31-5.68-3.59-6.57-21.12-6.24-3.52-6.57-2.28-5.53,5-5.91-13.85-7-6.27-6.25,6.79c-.61,2.11-5.43,19.05-6.08,21.3l-5.6-2.2-6.38-3.94-6.55,0c-7.5,49.54-4.78,33.4-11.93,71.74l-6.12-24.59-6.63-1c-.87,5.53-4.73,29.88-6.23,39.4L569.25,406l-6.57-12.89-5.23,27.79-6-87.3-7-5.17-5.52,21.81-6.75-27.92c-7.86,47.23-5,28.62-12.48,82L514.83,408l-7.14-102.93-5.62,42.69-5.28-40.1-7.44-27c-1.87,17.8-3.41,32.35-6.26,59.48l-6.18-.51-5.24,33.49-5.46-98.84c-7.62-36.22-4.85-21.77-12.08-63.72L448,168.13l-6.21-12.87-7.25-9.51-5.62,20.39L422.28,146c-.25.52-6,12.61-6.2,13.06l-6.16,20.34-5.27,5.42-6.92-24.35-5.35,7.82-5.64-24.67L380,127.24l-6.72-2.77-6.13,12.63-6.19,4.57-6.08,12.06-5.24.67-5.94-19.84-7.27-10.15c-2.42,9.06-5.17,19.33-6.18,23.1L324,154.27l-6.19,22.92-6.16,16.14-5.78,8.95-5.21-6.61-6.21-36.56-6.19-9.65-7.19-8-6.18,28.84-6.19,6.83c-1.64,7.75-4.7,22.21-6.14,29.05l-5.42-.34L250.34,197l-5.73,9.57-5.8-9.7-6.88-4.69-6.22,12.32-6.22,31.43c-1.57,4.25-4.62,12.57-6.18,16.81l-6.23,23.42c-2.07,21.44-3.73,38.66-6.13,63.58l-4.91-10-7.17-47.62-5.32,2.86c-7.2-31.2-4.29-18.3-12.82-57.16l-5.25.8L159.53,186l-7.36-13.47-5.59,22.3-5.33-23-7.43-23.94-6.2,26.18L121.44,190l-5.15,19-6.88-81.38-5.6,8.18L98.2,123.24l-5.88-8.63-6-60.26L78.92,34.76c-3.85,18.18-2.1,9.9-6,28.11l-5-9-7-30.33c-7.77-.32-4.88-.33-12.62.12l-6,12.09L37,31.59,29.86,20.48c-3.21,13.79-4.39,18.85-6.13,26.29l-5.95-.07-5.62,1.69L5.79,37.26,0,37.23l5.72,1.69,6.77,11.41,6.09-1.81L25,48.27,30.94,23l5.59,9.91,6.85,4.74c.1.07-.42,1,6.13-12.3a89.48,89.48,0,0,1,11.25.06c2,9.68,4,19.27,6,28.86l7.31,11.12,5.77-27.3L85,54.14c1.07,10.49,4.62,45.31,6.22,60.92l6,8.84,7.24,14.23,5-7.34c1.07,12.6,6.32,74.15,7.1,83.32l6.19-22.88L129,175.29l5.65-23.85c6.66,25.49,3.71,14.5,12.69,47.07l5.84-23.31,5.11,10.91c1.06,6.68,5.9,37.1,7.07,44.43l5.3-.82,5.83,30.12,7.23,27.29,5.17-2.79,5.92,45.5,7.37,12.77,6.31-65.41L214.67,254l6.2-16.88,6.21-31.4L233,194l5.37,4.14c1.33,2,5,7.53,7.07,10.6l5.78-9.65c3.86,5.35,2.7,3.75,6.16,8.53l6.53,0,6.19-29.26,6.19-6.82,6-28c6.56,8.48,4,4.9,11.1,15.92l6.31,36.78,7.1,8,6.21-9.62,6.2-16.28,6.17-22.83,6.18-6.77,5.91-22.09L342.6,135l7,21.27,6.42-1,6.12-12.15,6.2-4.58,6-12.37,5.26,2.5c2.09,5.34.46,1.16,5.82,14.89L392.8,171l5.37-7.84c2.43,8.63,4.24,15,6.82,24.13l6.26-6.52,6.17-20.41,5.47-11.5c3.09,9.38,4.81,14.62,6.8,20.64L435.6,148l5.2,7.9,5.95,12.35,6,41.84c7.26,42.08,4.48,27.61,12.08,63.74l7.24,106.78,6.19-39.48,6.2.47,5.92-56.26,5.05,22c1.55,9.72,5.86,36.76,7.41,46.44l5.31-40.39c1,15.2,6.17,90.47,6.63,97.18l6.31-5c7.52-53.58,4.79-35.82,11.94-78.72l6.53,27c.13.53-.65,3.22,6.11-23.5l4.93,4.25c1.13,14.45,6.33,81,7.25,92.82L563.73,396l6.41,12.64,6.22-18.59,6.17-39,5,1.09,7.23,27c7.85-42.13,5-25.28,12.43-74.37l5.63.33L619,309l6.71,2.15,6.16-21.62,5.77-6.19,5.38,5.36c2.5,5.26,4.69,9.87,7.13,15l6-5.4c7.15,2.72,4.47,1.45,11.39,5.36L674,324.75l5.59,3.53,7.29,33.27,5.78-16.73c5.6,11.06,5.19,10.23,5.23,10.34l7.33,22.69L710.43,366c7.07,54.51,4.13,29.94,12.94,109.41l6.22-23.55,5.91-42.47,5,15.8c1.74,13.77,5.8,45.74,7.35,57.95l6.21-27.33,6.2-18.51,6-33.05,6.32,7.27,6-29.78,6.26,9.48,5.47-5.47,6.88,16.45,5.71-18.95c2.54,5.79,4.21,9.57,6.47,14.72l6.12-6.43,6.23-3.35L828,377.27l5.92-15.59,6.31,5.95,5.57-7.28c.68,1.33,6.16,12.15,6.78,13.37l6.2-30.8,5.76-9.16,6.08,7.42,6.48.91c7.37-7.58,4.68-4.95,11.79-11.58,1.71,2.71,2.15,3.42,6.49,10.28l6-2.1c7.27,1.13,4.36.89,12.6,1.12l6.1-24,5.53,1.52,5.65,5.27c1.83,5.15,3.29,9.29,6.12,17.26l7.1,9.79L950.8,345,957,321.32l6.14-4.59,5.53-10.62c2.9,8.73,1.61,4.86,5.41,16.31,1.86,10.93,4.31,25.24,6,35.31l7.42,28.59,6.12-19.21,6.23-2.21,5.84-28.06,5.42,13.32,7.06,7.87,6.26-7.37,6.1-27.53,6.24,2.75,6.08-22.59,5.54,2.06,6.8,5c7.79-16.59,5-10.21,12.26-28l5.69.24,6.67,4,6-15.42,5.11,2.84c3.81,13.68,1.6,5.76,7.18,25.77l6.25-7.8,5.57-25.3c2.5,10.49,5.69,23.82,6.63,27.75l5.6-9,6.7,13.25,6.2-15.14,5.77-20.35,6.52,13,5.92-22.12,6.21,8.57,6.34-4,6.2-28.67,5.6-10.43c3.78,8.07,2.16,4.61,6.1,13.06l6.4,2.44,5.26-.78c7.34,47.23,4.35,24.45,13.18,102.7l6.06-33.78,6.2,6.13,5.06-7,7.11,70.07,6.22-24c7.55-64.26,4.68-43.21,12.52-93.4l5.32-8.18L1264,270.3l6.15-24.87,6.2-3.28,5.88-20.82,6.25,9.15,5.5-3.37c.25.51,1.53,3.22,6.89,14.53l5.58-13.6c3.29,10.11,2.35,7.23,5.34,16.4l6,45c6.9,161.7,4.22,104,11.62,253.25l6,17.2,5.68,165,7.44,33,6-142,6.43,91.38,5.86-129.86,5,112c.86,9.25,3.53,38,4.84,52,1.57,16.91.18-25.08,7.9,281.23l5.81-137.3c6.57,195.93,3.75,90.78,11.69,459.9l6-230.63c.26,15.1,5.71,333,6,348.6l5.88-146.13c0,.64,6.3,138.64,6.33,139.46l5-7.82c.69,14.93,5.09,111,5.65,123.15l7.31,83.52,6.82-242.7,6.23-29.65,6.08-162.75,6.39,92.52,5.92-89,5.06,44.72c1.62,31.25,5.5,106.13,7.16,138.22Z" fill="#757575"/><path d="M1313.09,244.62l35.24-20.48-7.4-19.39-35.24,20.48Z" fill="red"/></g><g style="isolation:isolate"><path d="M1330.3,195a6.58,6.58,0,0,1-5.94-.06c-1.62-1-1.58-2.51.08-3.45a6.6,6.6,0,0,1,6,.06C1332,192.47,1332,194,1330.3,195Zm-.58-.35c1.33-.75,1.36-2,.07-2.76a5.25,5.25,0,0,0-4.76-.05c-1.34.75-1.37,2-.07,2.76a5.25,5.25,0,0,0,4.76,0" fill="#00dc00"/><g style="isolation:isolate"><g clip-path="url(#clip-path)"><g style="isolation:isolate"><path d="M1331.56,193.4l3.43-24.64c.17-1.22-.54-2.47-2.12-3.41-.12-.08-.25-.15-.38-.22l-2.32,26.26.22.11a2,2,0,0,1,1.17,1.9" fill="#008500"/><path d="M1330.17,191.39l2.32-26.26c-.26-.13-.52-.25-.8-.36l-2,26.41a3.55,3.55,0,0,1,.44.21" fill="#008a00"/><path d="M1329.73,191.18l2-26.41-.7-.25-1.65,26.53.39.13" fill="#008f00"/><path d="M1329.34,191.05l1.65-26.53-.64-.17L1329,191l.36.1" fill="#009400"/><path d="M1329,191l1.37-26.6-.63-.14-1.08,26.67.34.07" fill="#090"/><path d="M1328.64,190.88l1.08-26.67c-.2,0-.4-.07-.61-.09l-.81,26.7.34.06" fill="#009e00"/><path d="M1328.3,190.82l.81-26.7-.62-.07-.54,26.73.35,0" fill="#00a300"/><path d="M1328,190.78l.54-26.73-.64,0-.25,26.75.35,0" fill="#00a800"/><path d="M1327.6,190.76l.25-26.75h-.66l0,26.75h.37" fill="#00ad00"/><path d="M1327.23,190.76l0-26.75c-.23,0-.47,0-.7,0l.35,26.74.39,0" fill="#00b300"/><path d="M1326.84,190.78l-.35-26.74c-.26,0-.52,0-.78.08l.7,26.7.43,0" fill="#00b800"/><path d="M1326.41,190.82l-.7-26.7c-.32,0-.63.1-.94.16l1.12,26.63.52-.09" fill="#00bd00"/><path d="M1325.89,190.91l-1.12-26.63a9.57,9.57,0,0,0-2.6,1,6.39,6.39,0,0,0-.9.6l2.67,25.94a4.85,4.85,0,0,1,.5-.34,5.43,5.43,0,0,1,1.45-.53" fill="#00c200"/><path d="M1323.94,191.78l-2.67-25.94a4.91,4.91,0,0,0-.52.49l2.9,25.72.29-.27" fill="#00bd00"/><path d="M1323.65,192.05l-2.9-25.72a2.53,2.53,0,0,0-.33.42l3,25.53c0-.08.12-.15.18-.23" fill="#00b800"/><path d="M1323.47,192.28l-3-25.53a3,3,0,0,0-.24.38l3.16,25.37a1.59,1.59,0,0,1,.13-.22" fill="#00b300"/><path d="M1323.34,192.5l-3.16-25.37a2.87,2.87,0,0,0-.15.37l3.22,25.2.09-.2" fill="#00ad00"/><path d="M1323.25,192.7,1320,167.5a2.26,2.26,0,0,0-.11.37l3.28,25a1.94,1.94,0,0,1,0-.2" fill="#00a800"/><path d="M1323.2,192.9l-3.28-25a2.2,2.2,0,0,0,0,.36l3.29,24.88a1.52,1.52,0,0,1,0-.21" fill="#00a300"/><path d="M1323.17,193.11l-3.29-24.88a2.28,2.28,0,0,0,0,.37l3.29,24.71v-.2" fill="#009e00"/><path d="M1323.17,193.31l-3.29-24.71s0,.08,0,.12l3.28,24.66a.17.17,0,0,0,0-.07" fill="#090"/></g></g></g><g style="isolation:isolate"><g clip-path="url(#clip-path-2)"><g style="isolation:isolate"><path d="M1327.44,168.39l3.29,24.66a1.75,1.75,0,0,0-.94-1.21,4.24,4.24,0,0,0-1-.4l-1.4-23.05" fill="#008500"/><path d="M1327.44,168.39l1.4,23.05-.48-.11-.92-22.94" fill="#008a00"/><path d="M1327.44,168.39l.92,22.94-.42-.06-.5-22.88" fill="#008f00"/><path d="M1327.44,168.39l.5,22.88-.41,0-.09-22.86" fill="#009400"/><path d="M1327.44,168.39l.09,22.86h-.42l.33-22.86" fill="#090"/><path d="M1327.44,168.39l-.33,22.86-.46,0,.79-22.9" fill="#009e00"/><path d="M1327.44,168.39l-.79,22.9a5.4,5.4,0,0,0-.58.1l1.37-23" fill="#00a300"/><path d="M1327.44,168.39l-1.37,23a4.16,4.16,0,0,0-1,.4,3.35,3.35,0,0,0-.34.22l2.75-23.62" fill="#00a800"/><path d="M1327.44,168.39,1324.69,192a2.34,2.34,0,0,0-.32.3l3.07-23.92" fill="#00a300"/><path d="M1327.44,168.39l-3.07,23.92a1.88,1.88,0,0,0-.18.24l3.25-24.16" fill="#009e00"/><path d="M1327.44,168.39l-3.25,24.16a1.58,1.58,0,0,0-.11.23l3.36-24.39" fill="#090"/><path d="M1327.44,168.39l-3.36,24.39a1.05,1.05,0,0,0-.06.24l3.42-24.63" fill="#009400"/><polyline points="1327.44 168.39 1324.02 193.02 1324.02 193.03 1327.44 168.39" fill="#008f00"/></g></g></g><g style="isolation:isolate"><g clip-path="url(#clip-path-3)"><g style="isolation:isolate"><path d="M1327.44,168.39l2.28,26.21a4.62,4.62,0,0,0,.4-.27l-2.68-25.94" fill="#00c200"/><path d="M1327.44,168.39l2.68,25.94a2.39,2.39,0,0,0,.23-.22l-2.91-25.72" fill="#00bd00"/><path d="M1327.44,168.39l2.91,25.72.15-.18-3.06-25.54" fill="#00b800"/><path d="M1327.44,168.39l3.06,25.54.1-.17-3.16-25.37" fill="#00b300"/><path d="M1327.44,168.39l3.16,25.37a1.22,1.22,0,0,0,.07-.17l-3.23-25.2" fill="#00ad00"/><path d="M1327.44,168.39l3.23,25.2c0-.05,0-.11,0-.16l-3.28-25" fill="#00a800"/><path d="M1327.44,168.39l3.28,25c0-.06,0-.11,0-.16l-3.3-24.88" fill="#00a300"/><path d="M1327.44,168.39l3.3,24.88a1,1,0,0,0,0-.17l-3.29-24.71" fill="#009e00"/><path d="M1327.44,168.39l3.29,24.71v0l-3.29-24.66" fill="#090"/></g></g></g><g style="isolation:isolate"><g clip-path="url(#clip-path-4)"><g style="isolation:isolate"><path d="M1327.44,168.39,1324,193a1.57,1.57,0,0,0,.94,1.52l.17.09,2.31-26.25" fill="#008500"/><path d="M1327.44,168.39l-2.31,26.25.35.17,2-26.42" fill="#008a00"/><path d="M1327.44,168.39l-2,26.42.31.1,1.65-26.52" fill="#008f00"/><path d="M1327.44,168.39l-1.65,26.52.29.08,1.36-26.6" fill="#009400"/><path d="M1327.44,168.39l-1.36,26.6a1.27,1.27,0,0,0,.28.06l1.08-26.66" fill="#090"/><path d="M1327.44,168.39l-1.08,26.66.27,0,.81-26.71" fill="#009e00"/><path d="M1327.44,168.39l-.81,26.71.28,0,.53-26.74" fill="#00a300"/><path d="M1327.44,168.39l-.53,26.74h.28l.25-26.75" fill="#00a800"/><path d="M1327.44,168.39l-.25,26.75a2.8,2.8,0,0,0,.29,0l0-26.75" fill="#00ad00"/><path d="M1327.44,168.39l0,26.75h.32l-.36-26.74" fill="#00b300"/><path d="M1327.44,168.39l.36,26.74.34,0-.7-26.7" fill="#00b800"/><path d="M1327.44,168.39l.7,26.7a3.07,3.07,0,0,0,.42-.07l-1.12-26.63" fill="#00bd00"/><path d="M1327.44,168.39l1.12,26.63a4.2,4.2,0,0,0,1.16-.42l-2.28-26.21" fill="#00c200"/></g></g></g><g style="isolation:isolate"><g clip-path="url(#clip-path-5)"><g style="isolation:isolate"><path d="M1330.3,195l2.42-23.41a6.21,6.21,0,0,0,.76-.49l-2.76,23.62a2.78,2.78,0,0,1-.42.28" fill="#00a800"/><path d="M1330.72,194.67l2.76-23.62a4.54,4.54,0,0,0,.71-.66l-3.07,23.91a2.4,2.4,0,0,1-.4.37" fill="#00a300"/><path d="M1331.12,194.3l3.07-23.91a3.92,3.92,0,0,0,.41-.55L1331.35,194a3,3,0,0,1-.23.3" fill="#009e00"/><path d="M1331.35,194l3.25-24.16a3.65,3.65,0,0,0,.25-.53l-3.37,24.4a1.85,1.85,0,0,1-.13.29" fill="#090"/><path d="M1331.48,193.71l3.37-24.4a2.42,2.42,0,0,0,.13-.53l-3.42,24.63a1.67,1.67,0,0,1-.08.3" fill="#009400"/><path d="M1331.56,193.41l3.42-24.63v0l-3.43,24.64h0" fill="#008f00"/></g></g></g><g style="isolation:isolate"><g clip-path="url(#clip-path-6)"><g style="isolation:isolate"><path d="M1323.18,193.38l-3.28-24.66a4,4,0,0,0,2.11,2.72,8.92,8.92,0,0,0,2.14.89l1.39,23a4.8,4.8,0,0,1-1.18-.49,2.22,2.22,0,0,1-1.18-1.51" fill="#008500"/><path d="M1325.54,195.38l-1.39-23c.35.1.71.18,1.07.25l.92,22.94c-.2,0-.4-.08-.6-.14" fill="#008a00"/><path d="M1326.14,195.52l-.92-22.94c.31,0,.63.1,1,.13l.5,22.88a4.51,4.51,0,0,1-.53-.07" fill="#008f00"/><path d="M1326.67,195.59l-.5-22.88.92.06.09,22.86-.51,0" fill="#009400"/><path d="M1327.18,195.63l-.09-22.86c.32,0,.64,0,1,0l-.34,22.86h-.52" fill="#090"/><path d="M1327.7,195.62l.34-22.86c.35,0,.69,0,1-.08l-.8,22.89a5,5,0,0,1-.57.05" fill="#009e00"/><path d="M1328.27,195.57l.8-22.89c.44-.06.87-.14,1.3-.24l-1.38,23a5.4,5.4,0,0,1-.72.13" fill="#00a300"/><path d="M1329,195.44l1.38-23a8.82,8.82,0,0,0,2.35-.9L1330.3,195a4.87,4.87,0,0,1-1.31.49" fill="#00a800"/></g></g></g><ellipse cx="1327.44" cy="168.39" rx="4.38" ry="7.57" transform="translate(1155.29 1495.35) rotate(-89.84)" fill="#00dc00"/></g><g style="isolation:isolate"><g style="isolation:isolate"><g clip-path="url(#clip-path-7)"><g style="isolation:isolate"><path d="M1333.48,162.84c9.94-6,6.58-19.45-2.94-21.83a11.85,11.85,0,1,0,2.94,21.83c-1.5.84-3.56.68-5.83-.67,2.27,1.35,4.33,1.51,5.83.67" fill="#0c0"/><path d="M1327.65,162.17a.81.81,0,0,0-.37.07,6.85,6.85,0,0,1-4.67-.08,8.64,8.64,0,0,1-4.14-3.4c-2-3.2-1.57-7.21,1.11-9.15,4.71-3.4,12.58.8,11.46,7.74a6.81,6.81,0,0,1-3.39,4.82c2.27,1.35,4.33,1.51,5.83.67l.65-.39c.26-.18.6-.42.85-.61l.62-.52c.28-.26.65-.63.92-.91l.54-.66c.28-.39.64-.92.9-1.33l.41-.79a12.15,12.15,0,0,0,.69-1.79l.22-.9a12.8,12.8,0,0,0,.25-2.4l0-.95c0-.42-.12-1-.2-1.4l-.21-.9c-.14-.41-.32-.95-.47-1.35l-.38-.82c-.22-.38-.51-.9-.76-1.27l-.51-.7c-.32-.37-.76-.85-1.1-1.2l-.6-.54a13,13,0,0,0-1.51-1.07l-.63-.35c-.23-.11-.53-.26-.77-.36l-.6-.24-.66-.22-.56-.16-.59-.13-.55-.09-.54-.07-.53,0-.53,0h-.53l-.53,0-.54.05-.55.09-.56.11-.58.14-.6.19-.65.24-.63.27-.76.39-.65.39c-.25.18-.6.42-.84.61l-.63.52c-.28.27-.65.63-.91.91l-.55.66c-.28.39-.64.92-.89,1.33l-.42.79a10.82,10.82,0,0,0-.68,1.8l-.23.89a12.8,12.8,0,0,0-.25,2.4l0,1c0,.38.1.89.17,1.26l.2.91c.13.41.3,1,.45,1.35l.37.82c.21.39.5.9.74,1.28l.5.7c.31.38.74.86,1.08,1.22l.6.54a13.55,13.55,0,0,0,1.62,1.17l.64.35.76.36.6.24.66.22.57.16.59.13.54.09.55.07.53,0,.53,0h.53l.53,0,.53,0,.55-.09.56-.11.59-.14.59-.19.66-.24.63-.27.75-.39c-1.5.84-3.56.68-5.83-.67" fill="#0c0"/><path d="M1327.8,162.25c-.42,0-.69.36-1.07.44a6.7,6.7,0,0,1-3.58-.15,8.79,8.79,0,0,1-4.1-2.73c-3.39-4.39-1.87-8.23-.6-9.65,3.85-4.27,12.43-1.73,13.06,5.36.39,4.38-2.87,6.84-3.71,6.73,2.21,1.28,4.21,1.41,5.68.59l.65-.39c.26-.18.6-.42.85-.61l.62-.52c.28-.26.65-.63.92-.91l.54-.66c.28-.39.64-.92.9-1.33l.41-.79a12.15,12.15,0,0,0,.69-1.79l.22-.9a12.8,12.8,0,0,0,.25-2.4l0-.95c0-.42-.12-1-.2-1.4l-.21-.9c-.14-.41-.32-.95-.47-1.35l-.38-.82c-.22-.38-.51-.9-.76-1.27l-.51-.7c-.32-.37-.76-.85-1.1-1.2l-.6-.54a13,13,0,0,0-1.51-1.07l-.63-.35c-.23-.11-.53-.26-.77-.36l-.6-.24-.66-.22-.56-.16-.59-.13-.55-.09-.54-.07-.53,0-.53,0h-.53l-.53,0-.54.05-.55.09-.56.11-.58.14-.6.19-.65.24-.63.27-.76.39-.65.39c-.25.18-.6.42-.84.61l-.63.52c-.28.27-.65.63-.91.91l-.55.66c-.28.39-.64.92-.89,1.33l-.42.79a10.82,10.82,0,0,0-.68,1.8l-.23.89a12.8,12.8,0,0,0-.25,2.4l0,1c0,.38.1.89.17,1.26l.2.91c.13.41.3,1,.45,1.35l.37.82c.21.39.5.9.74,1.28l.5.7c.31.38.74.86,1.08,1.22l.6.54a13.55,13.55,0,0,0,1.62,1.17l.64.35.76.36.6.24.66.22.57.16.59.13.54.09.55.07.53,0,.53,0h.53l.53,0,.53,0,.55-.09.56-.11.59-.14.59-.19.66-.24.63-.27.75-.39c-1.47.82-3.47.69-5.68-.59" fill="#00c700"/><path d="M1328.21,162.48c-.09,0-.2.07-.28.11a7,7,0,0,1-4.89.1,9.18,9.18,0,0,1-4.73-3.64c-1.94-2.79-2.37-7.19.67-9.86,4.62-4.07,13.38,0,12.92,7.67a6.14,6.14,0,0,1-3.69,5.62c2,1.06,3.9,1.13,5.27.36l.65-.39c.26-.18.6-.42.85-.61l.62-.52c.28-.26.65-.63.92-.91l.54-.66c.28-.39.64-.92.9-1.33l.41-.79a12.15,12.15,0,0,0,.69-1.79l.22-.9a12.8,12.8,0,0,0,.25-2.4l0-.95c0-.42-.12-1-.2-1.4l-.21-.9c-.14-.41-.32-.95-.47-1.35l-.38-.82c-.22-.38-.51-.9-.76-1.27l-.51-.7c-.32-.37-.76-.85-1.1-1.2l-.6-.54a13,13,0,0,0-1.51-1.07l-.63-.35c-.23-.11-.53-.26-.77-.36l-.6-.24-.66-.22-.56-.16-.59-.13-.55-.09-.54-.07-.53,0-.53,0h-.53l-.53,0-.54.05-.55.09-.56.11-.58.14-.6.19-.65.24-.63.27-.76.39-.65.39c-.25.18-.6.42-.84.61l-.63.52c-.28.27-.65.63-.91.91l-.55.66c-.28.39-.64.92-.89,1.33l-.42.79a10.82,10.82,0,0,0-.68,1.8l-.23.89a12.8,12.8,0,0,0-.25,2.4l0,1c0,.38.1.89.17,1.26l.2.91c.13.41.3,1,.45,1.35l.37.82c.21.39.5.9.74,1.28l.5.7c.31.38.74.86,1.08,1.22l.6.54a13.55,13.55,0,0,0,1.62,1.17l.64.35.76.36.6.24.66.22.57.16.59.13.54.09.55.07.53,0,.53,0h.53l.53,0,.53,0,.55-.09.56-.11.59-.14.59-.19.66-.24.63-.27.75-.39c-1.37.77-3.22.7-5.27-.36" fill="#00c200"/><path d="M1328.58,162.66c-.59,0-1,.4-1.58.51a7.76,7.76,0,0,1-3.59-.2,9.72,9.72,0,0,1-5-3.57c-2.79-3.85-2.05-8.31.27-10.39,5.09-4.57,13.89.36,13.66,7.63a6.66,6.66,0,0,1-3.75,6,5.3,5.3,0,0,0,4.9.18l.65-.39c.26-.18.6-.42.85-.61l.62-.52c.28-.26.65-.63.92-.91l.54-.66c.28-.39.64-.92.9-1.33l.41-.79a12.15,12.15,0,0,0,.69-1.79l.22-.9a12.8,12.8,0,0,0,.25-2.4l0-.95c0-.42-.12-1-.2-1.4l-.21-.9c-.14-.41-.32-.95-.47-1.35l-.38-.82c-.22-.38-.51-.9-.76-1.27l-.51-.7c-.32-.37-.76-.85-1.1-1.2l-.6-.54a13,13,0,0,0-1.51-1.07l-.63-.35c-.23-.11-.53-.26-.77-.36l-.6-.24-.66-.22-.56-.16-.59-.13-.55-.09-.54-.07-.53,0-.53,0h-.53l-.53,0-.54.05-.55.09-.56.11-.58.14-.6.19-.65.24-.63.27-.76.39-.65.39c-.25.18-.6.42-.84.61l-.63.52c-.28.27-.65.63-.91.91l-.55.66c-.28.39-.64.92-.89,1.33l-.42.79a10.82,10.82,0,0,0-.68,1.8l-.23.89a12.8,12.8,0,0,0-.25,2.4l0,1c0,.38.1.89.17,1.26l.2.91c.13.41.3,1,.45,1.35l.37.82c.21.39.5.9.74,1.28l.5.7c.31.38.74.86,1.08,1.22l.6.54a13.55,13.55,0,0,0,1.62,1.17l.64.35.76.36.6.24.66.22.57.16.59.13.54.09.55.07.53,0,.53,0h.53l.53,0,.53,0,.55-.09.56-.11.59-.14.59-.19.66-.24.63-.27.75-.39a5.3,5.3,0,0,1-4.9-.18" fill="#00bd00"/><path d="M1328.92,162.81s-.08,0-.12.05a7.56,7.56,0,0,1-5.11.34,9.88,9.88,0,0,1-5.15-3.46c-3.09-4.05-2.45-8.52-.23-10.84,4.91-5.12,14.36-.43,14.44,7.18.06,5.19-3.79,6.73-3.83,6.73a5.12,5.12,0,0,0,4.56,0l.65-.39c.26-.18.6-.42.85-.61l.62-.52c.28-.26.65-.63.92-.91l.54-.66c.28-.39.64-.92.9-1.33l.41-.79a12.15,12.15,0,0,0,.69-1.79l.22-.9a12.8,12.8,0,0,0,.25-2.4l0-.95c0-.42-.12-1-.2-1.4l-.21-.9c-.14-.41-.32-.95-.47-1.35l-.38-.82c-.22-.38-.51-.9-.76-1.27l-.51-.7c-.32-.37-.76-.85-1.1-1.2l-.6-.54a13,13,0,0,0-1.51-1.07l-.63-.35c-.23-.11-.53-.26-.77-.36l-.6-.24-.66-.22-.56-.16-.59-.13-.55-.09-.54-.07-.53,0-.53,0h-.53l-.53,0-.54.05-.55.09-.56.11-.58.14-.6.19-.65.24-.63.27-.76.39-.65.39c-.25.18-.6.42-.84.61l-.63.52c-.28.27-.65.63-.91.91l-.55.66c-.28.39-.64.92-.89,1.33l-.42.79a10.82,10.82,0,0,0-.68,1.8l-.23.89a12.8,12.8,0,0,0-.25,2.4l0,1c0,.38.1.89.17,1.26l.2.91c.13.41.3,1,.45,1.35l.37.82c.21.39.5.9.74,1.28l.5.7c.31.38.74.86,1.08,1.22l.6.54a13.55,13.55,0,0,0,1.62,1.17l.64.35.76.36.6.24.66.22.57.16.59.13.54.09.55.07.53,0,.53,0h.53l.53,0,.53,0,.55-.09.56-.11.59-.14.59-.19.66-.24.63-.27.75-.39a5.12,5.12,0,0,1-4.56,0" fill="#00b800"/><path d="M1329.24,162.94c-1,.07-2,.66-3,.72a8.62,8.62,0,0,1-2.77-.38,10.43,10.43,0,0,1-5.13-3.65c-3.1-4.1-2.34-8.8,0-11.15,5.1-5.22,14.84-.1,14.89,7.83a7.08,7.08,0,0,1-4,6.63,5,5,0,0,0,4.24-.1l.65-.39c.26-.18.6-.42.85-.61l.62-.52c.28-.26.65-.63.92-.91l.54-.66c.28-.39.64-.92.9-1.33l.41-.79a12.15,12.15,0,0,0,.69-1.79l.22-.9a12.8,12.8,0,0,0,.25-2.4l0-.95c0-.42-.12-1-.2-1.4l-.21-.9c-.14-.41-.32-.95-.47-1.35l-.38-.82c-.22-.38-.51-.9-.76-1.27l-.51-.7c-.32-.37-.76-.85-1.1-1.2l-.6-.54a13,13,0,0,0-1.51-1.07l-.63-.35c-.23-.11-.53-.26-.77-.36l-.6-.24-.66-.22-.56-.16-.59-.13-.55-.09-.54-.07-.53,0-.53,0h-.53l-.53,0-.54.05-.55.09-.56.11-.58.14-.6.19-.65.24-.63.27-.76.39-.65.39c-.25.18-.6.42-.84.61l-.63.52c-.28.27-.65.63-.91.91l-.55.66c-.28.39-.64.92-.89,1.33l-.42.79a10.82,10.82,0,0,0-.68,1.8l-.23.89a12.8,12.8,0,0,0-.25,2.4l0,1c0,.38.1.89.17,1.26l.2.91c.13.41.3,1,.45,1.35l.37.82c.21.39.5.9.74,1.28l.5.7c.31.38.74.86,1.08,1.22l.6.54a13.55,13.55,0,0,0,1.62,1.17l.64.35.76.36.6.24.66.22.57.16.59.13.54.09.55.07.53,0,.53,0h.53l.53,0,.53,0,.55-.09.56-.11.59-.14.59-.19.66-.24.63-.27.75-.39a5,5,0,0,1-4.24.1" fill="#00b300"/><path d="M1329.58,163.05c-1,.1-1.89.7-2.91.76a8.84,8.84,0,0,1-3.07-.39,10.6,10.6,0,0,1-5.19-3.62c-2.23-2.91-3.61-7.71-.2-11.63,4.39-5.06,15.15-.9,15.41,7.88.14,4.63-3.46,6.95-4,7a4.84,4.84,0,0,0,3.9-.21l.65-.39c.26-.18.6-.42.85-.61l.62-.52c.28-.26.65-.63.92-.91l.54-.66c.28-.39.64-.92.9-1.33l.41-.79a12.15,12.15,0,0,0,.69-1.79l.22-.9a12.8,12.8,0,0,0,.25-2.4l0-.95c0-.42-.12-1-.2-1.4l-.21-.9c-.14-.41-.32-.95-.47-1.35l-.38-.82c-.22-.38-.51-.9-.76-1.27l-.51-.7c-.32-.37-.76-.85-1.1-1.2l-.6-.54a13,13,0,0,0-1.51-1.07l-.63-.35c-.23-.11-.53-.26-.77-.36l-.6-.24-.66-.22-.56-.16-.59-.13-.55-.09-.54-.07-.53,0-.53,0h-.53l-.53,0-.54.05-.55.09-.56.11-.58.14-.6.19-.65.24-.63.27-.76.39-.65.39c-.25.18-.6.42-.84.61l-.63.52c-.28.27-.65.63-.91.91l-.55.66c-.28.39-.64.92-.89,1.33l-.42.79a10.82,10.82,0,0,0-.68,1.8l-.23.89a12.8,12.8,0,0,0-.25,2.4l0,1c0,.38.1.89.17,1.26l.2.91c.13.41.3,1,.45,1.35l.37.82c.21.39.5.9.74,1.28l.5.7c.31.38.74.86,1.08,1.22l.6.54a13.55,13.55,0,0,0,1.62,1.17l.64.35.76.36.6.24.66.22.57.16.59.13.54.09.55.07.53,0,.53,0h.53l.53,0,.53,0,.55-.09.56-.11.59-.14.59-.19.66-.24.63-.27.75-.39a4.84,4.84,0,0,1-3.9.21" fill="#00ad00"/><path d="M1329.92,163.15c-1,.11-1.8.71-2.77.78a9.27,9.27,0,0,1-3.3-.34,11.17,11.17,0,0,1-5.57-3.88c-2.39-3-3.34-8.05-.4-11.58,4.46-5.34,15-2,16.13,7.05.58,4.7-3,7.85-4.09,8a4.69,4.69,0,0,0,3.56-.31l.65-.39c.26-.18.6-.42.85-.61l.62-.52c.28-.26.65-.63.92-.91l.54-.66c.28-.39.64-.92.9-1.33l.41-.79a12.15,12.15,0,0,0,.69-1.79l.22-.9a12.8,12.8,0,0,0,.25-2.4l0-.95c0-.42-.12-1-.2-1.4l-.21-.9c-.14-.41-.32-.95-.47-1.35l-.38-.82c-.22-.38-.51-.9-.76-1.27l-.51-.7c-.32-.37-.76-.85-1.1-1.2l-.6-.54a13,13,0,0,0-1.51-1.07l-.63-.35c-.23-.11-.53-.26-.77-.36l-.6-.24-.66-.22-.56-.16-.59-.13-.55-.09-.54-.07-.53,0-.53,0h-.53l-.53,0-.54.05-.55.09-.56.11-.58.14-.6.19-.65.24-.63.27-.76.39-.65.39c-.25.18-.6.42-.84.61l-.63.52c-.28.27-.65.63-.91.91l-.55.66c-.28.39-.64.92-.89,1.33l-.42.79a10.82,10.82,0,0,0-.68,1.8l-.23.89a12.8,12.8,0,0,0-.25,2.4l0,1c0,.38.1.89.17,1.26l.2.91c.13.41.3,1,.45,1.35l.37.82c.21.39.5.9.74,1.28l.5.7c.31.38.74.86,1.08,1.22l.6.54a13.55,13.55,0,0,0,1.62,1.17l.64.35.76.36.6.24.66.22.57.16.59.13.54.09.55.07.53,0,.53,0h.53l.53,0,.53,0,.55-.09.56-.11.59-.14.59-.19.66-.24.63-.27.75-.39a4.69,4.69,0,0,1-3.56.31" fill="#00a800"/><path d="M1330.27,163.23c-1.1.16-2.08.76-3.19.84a9.22,9.22,0,0,1-3.07-.36,11.15,11.15,0,0,1-5.45-3.63c-3-3.43-3.45-8.48-1.14-11.75,4.58-6.51,15.52-2.54,16.95,6.14.88,5.32-3.07,8.61-4.1,8.76a4.53,4.53,0,0,0,3.21-.39l.65-.39c.26-.18.6-.42.85-.61l.62-.52c.28-.26.65-.63.92-.91l.54-.66c.28-.39.64-.92.9-1.33l.41-.79a12.15,12.15,0,0,0,.69-1.79l.22-.9a12.8,12.8,0,0,0,.25-2.4l0-.95c0-.42-.12-1-.2-1.4l-.21-.9c-.14-.41-.32-.95-.47-1.35l-.38-.82c-.22-.38-.51-.9-.76-1.27l-.51-.7c-.32-.37-.76-.85-1.1-1.2l-.6-.54a13,13,0,0,0-1.51-1.07l-.63-.35c-.23-.11-.53-.26-.77-.36l-.6-.24-.66-.22-.56-.16-.59-.13-.55-.09-.54-.07-.53,0-.53,0h-.53l-.53,0-.54.05-.55.09-.56.11-.58.14-.6.19-.65.24-.63.27-.76.39-.65.39c-.25.18-.6.42-.84.61l-.63.52c-.28.27-.65.63-.91.91l-.55.66c-.28.39-.64.92-.89,1.33l-.42.79a10.82,10.82,0,0,0-.68,1.8l-.23.89a12.8,12.8,0,0,0-.25,2.4l0,1c0,.38.1.89.17,1.26l.2.91c.13.41.3,1,.45,1.35l.37.82c.21.39.5.9.74,1.28l.5.7c.31.38.74.86,1.08,1.22l.6.54a13.55,13.55,0,0,0,1.62,1.17l.64.35.76.36.6.24.66.22.57.16.59.13.54.09.55.07.53,0,.53,0h.53l.53,0,.53,0,.55-.09.56-.11.59-.14.59-.19.66-.24.63-.27.75-.39a4.53,4.53,0,0,1-3.21.39" fill="#00a300"/><path d="M1316.52,156.51c-2.83-8.76,4.76-14.12,11.65-10.86,8.27,3.91,8.66,14.61,2.45,17.65a4.45,4.45,0,0,0,2.86-.46l.65-.39c.26-.18.6-.42.85-.61l.62-.52c.28-.26.65-.63.92-.91l.54-.66c.28-.39.64-.92.9-1.33l.41-.79a12.15,12.15,0,0,0,.69-1.79l.22-.9a12.8,12.8,0,0,0,.25-2.4l0-.95c0-.42-.12-1-.2-1.4l-.21-.9c-.14-.41-.32-.95-.47-1.35l-.38-.82c-.22-.38-.51-.9-.76-1.27l-.51-.7c-.32-.37-.76-.85-1.1-1.2l-.6-.54a13,13,0,0,0-1.51-1.07l-.63-.35c-.23-.11-.53-.26-.77-.36l-.6-.24-.66-.22-.56-.16-.59-.13-.55-.09-.54-.07-.53,0-.53,0h-.53l-.53,0-.54.05-.55.09-.56.11-.58.14-.6.19-.65.24-.63.27-.76.39-.65.39c-.25.18-.6.42-.84.61l-.63.52c-.28.27-.65.63-.91.91l-.55.66c-.28.39-.64.92-.89,1.33l-.42.79a10.82,10.82,0,0,0-.68,1.8l-.23.89a12.8,12.8,0,0,0-.25,2.4l0,1c0,.38.1.89.17,1.26l.2.91c.12.39.28.9.43,1.28l-.14-.37" fill="#009e00"/><path d="M1330.62,163.3a.91.91,0,0,0-.26.13,8.07,8.07,0,0,1-4.14.74,10.44,10.44,0,0,1-4.59-1.47l.63.35c.22.1.51.25.73.34l.6.24.66.22.57.16.59.13.54.09.55.07.53,0,.53,0h.53l.53,0,.53,0,.55-.09.56-.11.59-.14.59-.19.66-.24.63-.27.75-.39a4.45,4.45,0,0,1-2.86.46" fill="#009e00"/><path d="M1315.88,153.66c-.71-8.4,8.22-12.38,15.16-6.76,5.76,4.65,5.73,13.57,0,16.44a4.35,4.35,0,0,0,2.49-.5l.65-.39c.26-.18.6-.42.85-.61l.62-.52c.28-.26.65-.63.92-.91l.54-.66c.28-.39.64-.92.9-1.33l.41-.79a12.15,12.15,0,0,0,.69-1.79l.22-.9a12.8,12.8,0,0,0,.25-2.4l0-.95c0-.42-.12-1-.2-1.4l-.21-.9c-.14-.41-.32-.95-.47-1.35l-.38-.82c-.22-.38-.51-.9-.76-1.27l-.51-.7c-.32-.37-.76-.85-1.1-1.2l-.6-.54a13,13,0,0,0-1.51-1.07l-.63-.35c-.23-.11-.53-.26-.77-.36l-.6-.24-.66-.22-.56-.16-.59-.13-.55-.09-.54-.07-.53,0-.53,0h-.53l-.53,0-.54.05-.55.09-.56.11-.58.14-.6.19-.65.24-.63.27-.76.39-.65.39c-.25.18-.6.42-.84.61l-.63.52c-.28.27-.65.63-.91.91l-.55.66c-.28.39-.64.92-.89,1.33l-.42.79a10.82,10.82,0,0,0-.68,1.8l-.23.89a12.8,12.8,0,0,0-.25,2.4l0,1c0,.36.09.83.15,1.19l-.12-.87a.28.28,0,0,0,0-.09" fill="#090"/><path d="M1331,163.34a1.51,1.51,0,0,0-.28.15,8.28,8.28,0,0,1-3,.76,10,10,0,0,1-3.94-.57c.32.11.76.24,1.09.33l.59.13.54.09.55.07.53,0,.53,0h.53l.53,0,.53,0,.55-.09.56-.11.59-.14.59-.19.66-.24.63-.27.75-.39a4.35,4.35,0,0,1-2.49.5" fill="#090"/><path d="M1315.82,152.41c.51-9.49,11.06-11.08,16.89-4.64,5.16,5.71,3.49,13.2-1.34,15.59a4.23,4.23,0,0,0,2.11-.52l.65-.39c.26-.18.6-.42.85-.61l.62-.52c.28-.26.65-.63.92-.91l.54-.66c.28-.39.64-.92.9-1.33l.41-.79a12.15,12.15,0,0,0,.69-1.79l.22-.9a12.8,12.8,0,0,0,.25-2.4l0-.95c0-.42-.12-1-.2-1.4l-.21-.9c-.14-.41-.32-.95-.47-1.35l-.38-.82c-.22-.38-.51-.9-.76-1.27l-.51-.7c-.32-.37-.76-.85-1.1-1.2l-.6-.54a13,13,0,0,0-1.51-1.07l-.63-.35c-.23-.11-.53-.26-.77-.36l-.6-.24-.66-.22-.56-.16-.59-.13-.55-.09-.54-.07-.53,0-.53,0h-.53l-.53,0-.54.05-.55.09-.56.11-.58.14-.6.19-.65.24-.63.27-.76.39-.65.39c-.25.18-.6.42-.84.61l-.63.52c-.28.27-.65.63-.91.91l-.55.66c-.28.39-.64.92-.89,1.33l-.42.79a10.82,10.82,0,0,0-.68,1.8l-.23.89a12.8,12.8,0,0,0-.25,2.4v-.07" fill="#009400"/><path d="M1331.37,163.36a1.66,1.66,0,0,0-.32.17,7.6,7.6,0,0,1-2.56.73,9.45,9.45,0,0,1-2.9-.09l.55.09.36,0,.53,0,.53,0h.53l.53,0,.53,0,.55-.09.56-.11.59-.14.59-.19.66-.24.63-.27.75-.39a4.23,4.23,0,0,1-2.11.52" fill="#009400"/><path d="M1316,150.43c2.25-9.77,13.84-9,18.67-.88,3.08,5.15,1.79,11.33-2.87,13.79a4.07,4.07,0,0,0,1.67-.5l.65-.39c.26-.18.6-.42.85-.61l.62-.52c.28-.26.65-.63.92-.91l.54-.66c.28-.39.64-.92.9-1.33l.41-.79a12.15,12.15,0,0,0,.69-1.79l.22-.9a12.8,12.8,0,0,0,.25-2.4l0-.95c0-.42-.12-1-.2-1.4l-.21-.9c-.14-.41-.32-.95-.47-1.35l-.38-.82c-.22-.38-.51-.9-.76-1.27l-.51-.7c-.32-.37-.76-.85-1.1-1.2l-.6-.54a13,13,0,0,0-1.51-1.07l-.63-.35c-.23-.11-.53-.26-.77-.36l-.6-.24-.66-.22-.56-.16-.59-.13-.55-.09-.54-.07-.53,0-.53,0h-.53l-.53,0-.54.05-.55.09-.56.11-.58.14-.6.19-.65.24-.63.27-.76.39-.65.39c-.25.18-.6.42-.84.61l-.63.52c-.28.27-.65.63-.91.91l-.55.66c-.28.39-.64.92-.89,1.33l-.42.79a10.82,10.82,0,0,0-.68,1.8l-.23.89-.12.71.06-.36" fill="#008f00"/><path d="M1331.81,163.34a1.78,1.78,0,0,0-.36.19,7.51,7.51,0,0,1-1.66.58,9.69,9.69,0,0,1-2.36.25h.66l.53,0,.53,0,.55-.09.56-.11.59-.14.59-.19.66-.24.63-.27.75-.39a4.07,4.07,0,0,1-1.67.5" fill="#008f00"/><path d="M1316.62,148.26c3.44-8.26,15.56-6.7,19.37,2.48,1.77,4.28,1.07,10-3.71,12.54a4.11,4.11,0,0,0,1.2-.44l.65-.39c.26-.18.6-.42.85-.61l.62-.52c.28-.26.65-.63.92-.91l.54-.66c.28-.39.64-.92.9-1.33l.41-.79a12.15,12.15,0,0,0,.69-1.79l.22-.9a12.8,12.8,0,0,0,.25-2.4l0-.95c0-.42-.12-1-.2-1.4l-.21-.9c-.14-.41-.32-.95-.47-1.35l-.38-.82c-.22-.38-.51-.9-.76-1.27l-.51-.7c-.32-.37-.76-.85-1.1-1.2l-.6-.54a13,13,0,0,0-1.51-1.07l-.63-.35c-.23-.11-.53-.26-.77-.36l-.6-.24-.66-.22-.56-.16-.59-.13-.55-.09-.54-.07-.53,0-.53,0h-.53l-.53,0-.54.05-.55.09-.56.11-.58.14-.6.19-.65.24-.63.27-.76.39-.65.39c-.25.18-.6.42-.84.61l-.63.52c-.28.27-.65.63-.91.91l-.55.66c-.28.39-.64.92-.89,1.33l-.42.79c-.2.48-.46,1.12-.63,1.61l.27-.74h0" fill="#008a00"/><path d="M1332.28,163.28a3.6,3.6,0,0,0-.39.2,8.35,8.35,0,0,1-1.06.42,9.58,9.58,0,0,1-1.54.35l1-.18.59-.14.59-.19.66-.24.63-.27.75-.39a4.11,4.11,0,0,1-1.2.44" fill="#008a00"/><path d="M1317.65,146.2c5.73-8.32,18.18-2.55,19.73,6.79a9.51,9.51,0,0,1-4.52,10.13,4.34,4.34,0,0,0,.62-.28l.65-.39c.26-.18.6-.42.85-.61l.62-.52c.28-.26.65-.63.92-.91l.54-.66c.28-.39.64-.92.9-1.33l.41-.79a12.15,12.15,0,0,0,.69-1.79l.22-.9a12.8,12.8,0,0,0,.25-2.4l0-.95c0-.42-.12-1-.2-1.4l-.21-.9c-.14-.41-.32-.95-.47-1.35l-.38-.82c-.22-.38-.51-.9-.76-1.27l-.51-.7c-.32-.37-.76-.85-1.1-1.2l-.6-.54a13,13,0,0,0-1.51-1.07l-.63-.35c-.23-.11-.53-.26-.77-.36l-.6-.24-.66-.22-.56-.16-.59-.13-.55-.09-.54-.07-.53,0-.53,0h-.53l-.53,0-.54.05-.55.09-.56.11-.58.14-.6.19-.65.24-.63.27-.76.39-.65.39c-.25.18-.6.42-.84.61l-.63.52c-.28.27-.65.63-.91.91l-.55.66c-.28.39-.64.92-.89,1.33l-.2.36.39-.66.06-.1" fill="#008500"/><path d="M1332.86,163.12l-.43.23a8.92,8.92,0,0,1-.92.37c.37-.14.86-.33,1.22-.49l.75-.39a4.34,4.34,0,0,1-.62.28" fill="#008500"/><path d="M1324.83,162.34a5.49,5.49,0,0,0,5.51-3.89,7.06,7.06,0,0,0-1.69-7.68c-3.42-3.4-11.08-2.47-11.21,3.81-.09,4,3.51,7.78,7.39,7.76" fill="#00d100"/><path d="M1324,162c5.45.77,8.2-6.15,5.26-10.12-3.45-4.66-11-3.1-11.56,2.39A7.48,7.48,0,0,0,1324,162" fill="#00d600"/><path d="M1323.3,161.6c5.28,1.18,9-5.28,5.67-9.73s-10.35-2.74-11,2.47a7,7,0,0,0,5.28,7.26" fill="#00db00"/><path d="M1323.31,161.27a5.78,5.78,0,0,0,5.61-9c-2.67-4.35-9.69-2.55-10.48,1.59a6.44,6.44,0,0,0,4.87,7.42" fill="#00e000"/><path d="M1322.37,160.63c4.56,1.75,9-3.27,6.76-7.67s-8.62-3.53-10.11.36a5.79,5.79,0,0,0,3.35,7.31" fill="#00e600"/><path d="M1321.69,159.88a5.18,5.18,0,0,0,7.62-5.83,5.23,5.23,0,0,0-9.63-1.22,5.32,5.32,0,0,0,2,7" fill="#00eb00"/><path d="M1321.74,159.45a4.89,4.89,0,0,0,7.37-5.42c-1-4-6.67-5-8.8-1.5a4.92,4.92,0,0,0,1.43,6.92" fill="#00f000"/><path d="M1322,159.11a4.63,4.63,0,1,0-1.53-6.21,4.63,4.63,0,0,0,1.53,6.21" fill="#00f500"/><path d="M1322.26,158.81a4.33,4.33,0,0,0,6.5-4.81,4.63,4.63,0,0,0-3.4-3.11c-1.53-.13-3.25-.28-4.77,2.39a4.31,4.31,0,0,0,1.67,5.53" fill="#00fa00"/><path d="M1322.54,158.56a4,4,0,0,0,6-4.58,4.11,4.11,0,1,0-6,4.58" fill="lime"/><path d="M1322.12,157.82c3.32,2.58,6.55.08,6.47-2.78-.09-3.25-4.49-5.39-7-2.53a3.88,3.88,0,0,0,.5,5.31" fill="#1fff1f"/><path d="M1322.14,157.53a4.45,4.45,0,0,0,3.79,1.05,3.71,3.71,0,0,0,2.5-3.55c-.09-3-4.11-5.43-6.73-2.26a3.66,3.66,0,0,0,.44,4.76" fill="#2bff2b"/><path d="M1322.34,157.4a3.44,3.44,0,0,0,5.92-2.38c-.08-2.82-4-5.16-6.38-2.16a3.48,3.48,0,0,0,.46,4.54" fill="#35ff35"/><path d="M1322.56,157.27a3.48,3.48,0,0,0,3.89.66,3.36,3.36,0,0,0,1.65-2.91,3.41,3.41,0,0,0-5.87-2.29,3.31,3.31,0,0,0,.33,4.54" fill="#3dff3d"/><path d="M1322.75,157.16a3.26,3.26,0,0,0,3.66.6A3.3,3.3,0,0,0,1328,155c0-2.95-3.79-4.18-5.36-2.41a3.1,3.1,0,0,0,.16,4.56" fill="#4f4"/><path d="M1322.92,157.07a2.86,2.86,0,0,0,4.89-2.06c0-1.79-1.3-2.44-2.33-3a3.17,3.17,0,0,0-2.55.46,6.12,6.12,0,0,0-1,1.49,3.84,3.84,0,0,0-.07,1.22,3.57,3.57,0,0,0,1.05,1.86" fill="#4bff4b"/><path d="M1323.09,157a2.69,2.69,0,0,0,4.57-2c0-2.35-3-3.83-4.68-2.33a3.5,3.5,0,0,0-.82,1.22c-.05.13-.13,1.22-.13,1.23a3.22,3.22,0,0,0,1.06,1.86" fill="#51ff51"/><path d="M1323.27,156.91a7.25,7.25,0,0,0,1.45.64,2.29,2.29,0,0,0,1.58-.3,3.1,3.1,0,0,0,1-1.2,2.44,2.44,0,0,0,.2-1,3.05,3.05,0,0,0-2-2.66,2.4,2.4,0,0,0-1.33-.09,2.84,2.84,0,0,0-1.17.6,2.63,2.63,0,0,0,.25,4" fill="#57ff57"/><path d="M1323.42,156.8a12.58,12.58,0,0,0,1.22.56,2.14,2.14,0,0,0,1.63-.29,4.69,4.69,0,0,0,.89-1,2.62,2.62,0,0,0,.22-1,2.71,2.71,0,0,0-1.84-2.5,2.28,2.28,0,0,0-1.32-.09,2.85,2.85,0,0,0-1.15.61,2.66,2.66,0,0,0-.7,1.94c.08.8.19.91,1.05,1.83" fill="#5cff5c"/><path d="M1323.12,156.22a2.71,2.71,0,0,0,1.43.95,1.46,1.46,0,0,0,.9,0c.79-.23.79-.23,1.53-1.15a8.55,8.55,0,0,0,.25-1.05,2.74,2.74,0,0,0-1.67-2.35,2.43,2.43,0,0,0-1.31-.09,2.66,2.66,0,0,0-1.13.64,2.34,2.34,0,0,0,0,3" fill="#61ff61"/><path d="M1323.82,156.68c.39.28.53.35,1.58.37a1.92,1.92,0,0,0,.8-.33,2.53,2.53,0,0,0,.89-1.7,2,2,0,0,0-.26-1,5.18,5.18,0,0,0-1.25-1.16,2.4,2.4,0,0,0-1.3-.1,2.86,2.86,0,0,0-1.11.66,2.33,2.33,0,0,0,.65,3.3" fill="#65ff65"/><path d="M1324,156.61a.89.89,0,0,0,.38.18,4.41,4.41,0,0,0,1,.1,2.42,2.42,0,0,0,.82-.34c.5-.28.77-1.51.77-1.52a2,2,0,0,0-.29-1,11.51,11.51,0,0,0-1.05-1,2.37,2.37,0,0,0-1.29-.11,2.89,2.89,0,0,0-1,.62,2.14,2.14,0,0,0,.7,3.12" fill="#6aff6a"/><path d="M1324.2,156.55a4.43,4.43,0,0,0,1.1.18,2.36,2.36,0,0,0,.83-.36.72.72,0,0,0,.23-.26,3.56,3.56,0,0,0,.4-1.07,2,2,0,0,0-.29-1,2.77,2.77,0,0,0-.85-.82,5.64,5.64,0,0,0-1.28-.16,1.4,1.4,0,0,0-.57.34,1.54,1.54,0,0,0-.72,1.35,2.78,2.78,0,0,0,.29,1,3.19,3.19,0,0,0,.86.82" fill="#6eff6e"/><path d="M1324.19,156.33a2.92,2.92,0,0,0,1.06.24,2.39,2.39,0,0,0,.85-.38,7.16,7.16,0,0,0,.48-1.14,2.29,2.29,0,0,0-.29-1,2.77,2.77,0,0,0-.63-.6,2.49,2.49,0,0,0-1.1-.23.51.51,0,0,0-.32.07,4.83,4.83,0,0,0-.86.83,1.14,1.14,0,0,0-.16.57,2.21,2.21,0,0,0,.28,1,2.39,2.39,0,0,0,.69.65" fill="#72ff72"/><path d="M1324.06,156a3.69,3.69,0,0,0,1.14.4,2.35,2.35,0,0,0,.85-.47,1.63,1.63,0,0,0,.35-.87,2.38,2.38,0,0,0-.29-1,2,2,0,0,0-.42-.4,1.6,1.6,0,0,0-1.27-.26c-.39.12-.69.66-1,1a.53.53,0,0,0-.08.25,2.11,2.11,0,0,0,.27,1,1.12,1.12,0,0,0,.4.38" fill="#7f7"/><path d="M1323.93,155.67a2.27,2.27,0,0,0,1.21.53c.31,0,.64-.35.86-.57a1.48,1.48,0,0,0,.22-.55,2,2,0,0,0-.3-1,.46.46,0,0,0-.2-.19,1.88,1.88,0,0,0-1.25-.26,1.52,1.52,0,0,0-.87.92s.07,1,.33,1.15" fill="#7aff7a"/><path d="M1325.06,155.94c.32,0,.64-.4.89-.62,0,0,.06-.15.09-.22s-.29-1-.31-1a1.58,1.58,0,0,0-1.21-.25,1.06,1.06,0,0,0-.58.61,1.12,1.12,0,0,0,1.12,1.51" fill="#7eff7e"/><path d="M1325,155.67a.89.89,0,0,0,.73-.53c.08-.33-.28-.79-.55-1a.76.76,0,0,0-.6-.11.49.49,0,0,0-.29.29,1.35,1.35,0,0,0,.13,1.06.78.78,0,0,0,.58.27" fill="#82ff82"/><path d="M1324.91,155.4a.27.27,0,0,0,.22-.16c.06-.3-.35-.64-.49-.91,0,.29-.07.75.1,1a.21.21,0,0,0,.17.08" fill="#85ff85"/></g></g></g><g style="isolation:isolate"><g clip-path="url(#clip-path-8)"><g style="isolation:isolate"><path d="M1339.53,152.54a11.79,11.79,0,0,1-6,10.3c1.51-.85,2.45-2.71,2.46-5.39,0-5.33-3.67-11.87-8.24-14.59,4.57,2.72,8.25,9.26,8.24,14.59,0,2.68-1,4.54-2.46,5.39a11.86,11.86,0,1,1,6-10.3" fill="#3dff3d"/><path d="M1332.55,147.6c-3.36-2.24-5.35.6-5.3,2.4.1,3,3.91,4.56,5.83,2.34a2.87,2.87,0,0,0,.66-2.8,17.16,17.16,0,0,1,2.2,7.91c0,2.68-1,4.54-2.46,5.39l-.64.33-.74.33-.6.23-.65.2-.57.14-.58.11-.54.09-.54,0-.53,0h-.53l-.53,0-.53,0-.54-.07-.55-.09-.57-.12-.59-.17-.6-.2c-.2-.07-.46-.17-.66-.26l-.63-.29-.77-.42-.65-.42a13.67,13.67,0,0,1-1.57-1.29l-.58-.61c-.31-.39-.72-.91-1-1.31l-.46-.75c-.21-.4-.47-.94-.65-1.35l-.31-.86c-.11-.42-.26-1-.34-1.4l-.14-.92c0-.39-.06-.91-.07-1.29l0-.95a12.31,12.31,0,0,1,.44-2.34l.29-.87a10.23,10.23,0,0,1,.81-1.72l.46-.74c.28-.38.67-.89,1-1.25l.57-.6c.29-.25.67-.59,1-.83l.62-.46c.26-.17.61-.39.87-.54l.64-.33c.22-.1.52-.24.75-.33l.6-.23.65-.2.56-.14.58-.11.55-.08.54-.06.53,0h.53l.53,0,.53,0,.54.07.55.09.56.13a5.69,5.69,0,0,1,.59.16l.6.2c.2.07.47.17.66.26l.64.29.76.42.65.42a12.06,12.06,0,0,1,1.46,1.19l.59.59c.32.38.73.91,1,1.31l.47.74c.21.4.48.94.67,1.35l.32.85c.12.42.27,1,.36,1.4l.15.92c0,.43.07,1,.08,1.43l0,1a12.29,12.29,0,0,1-.43,2.35l-.29.86a12.16,12.16,0,0,1-.81,1.72l-.47.74c-.28.38-.67.89-1,1.25l-.58.6c-.28.25-.66.59-1,.83l-.63.46c-.26.17-.6.39-.87.54,1.51-.85,2.45-2.71,2.46-5.39a17.16,17.16,0,0,0-2.2-7.91l-.25-.83c-.68-.93-.68-.93-.94-1.11a16.16,16.16,0,0,0-4.85-4.74,16.16,16.16,0,0,1,4.85,4.74" fill="#3dff3d"/><path d="M1332.18,147.08a3.32,3.32,0,0,0-4.88,4c1.07,3,5.09,3.22,6.27.95a3,3,0,0,0,.43-2,16.71,16.71,0,0,1,1.94,7.4c0,2.68-1,4.54-2.46,5.39l-.64.33-.74.33-.6.23-.65.2-.57.14-.58.11-.54.09-.54,0-.53,0h-.53l-.53,0-.53,0-.54-.07-.55-.09-.57-.12-.59-.17-.6-.2c-.2-.07-.46-.17-.66-.26l-.63-.29-.77-.42-.65-.42a13.67,13.67,0,0,1-1.57-1.29l-.58-.61c-.31-.39-.72-.91-1-1.31l-.46-.75c-.21-.4-.47-.94-.65-1.35l-.31-.86c-.11-.42-.26-1-.34-1.4l-.14-.92c0-.39-.06-.91-.07-1.29l0-.95a12.31,12.31,0,0,1,.44-2.34l.29-.87a10.23,10.23,0,0,1,.81-1.72l.46-.74c.28-.38.67-.89,1-1.25l.57-.6c.29-.25.67-.59,1-.83l.62-.46c.26-.17.61-.39.87-.54l.64-.33c.22-.1.52-.24.75-.33l.6-.23.65-.2.56-.14.58-.11.55-.08.54-.06.53,0h.53l.53,0,.53,0,.54.07.55.09.56.13a5.69,5.69,0,0,1,.59.16l.6.2c.2.07.47.17.66.26l.64.29.76.42.65.42a12.06,12.06,0,0,1,1.46,1.19l.59.59c.32.38.73.91,1,1.31l.47.74c.21.4.48.94.67,1.35l.32.85c.12.42.27,1,.36,1.4l.15.92c0,.43.07,1,.08,1.43l0,1a12.29,12.29,0,0,1-.43,2.35l-.29.86a12.16,12.16,0,0,1-.81,1.72l-.47.74c-.28.38-.67.89-1,1.25l-.58.6c-.28.25-.66.59-1,.83l-.63.46c-.26.17-.6.39-.87.54,1.51-.85,2.45-2.71,2.46-5.39a16.71,16.71,0,0,0-1.94-7.4l0-.54a3.53,3.53,0,0,0-1.84-2.43,15.65,15.65,0,0,0-4.48-4.22,15.65,15.65,0,0,1,4.48,4.22" fill="#35ff35"/><path d="M1331.87,146.66c-5.14-1.31-5.5,3.64-4.2,5.42,1.86,2.57,6.16,2.12,6.56-1.46a.53.53,0,0,0,0-.12,16.51,16.51,0,0,1,1.72,6.95c0,2.68-1,4.54-2.46,5.39l-.64.33-.74.33-.6.23-.65.2-.57.14-.58.11-.54.09-.54,0-.53,0h-.53l-.53,0-.53,0-.54-.07-.55-.09-.57-.12-.59-.17-.6-.2c-.2-.07-.46-.17-.66-.26l-.63-.29-.77-.42-.65-.42a13.67,13.67,0,0,1-1.57-1.29l-.58-.61c-.31-.39-.72-.91-1-1.31l-.46-.75c-.21-.4-.47-.94-.65-1.35l-.31-.86c-.11-.42-.26-1-.34-1.4l-.14-.92c0-.39-.06-.91-.07-1.29l0-.95a12.31,12.31,0,0,1,.44-2.34l.29-.87a10.23,10.23,0,0,1,.81-1.72l.46-.74c.28-.38.67-.89,1-1.25l.57-.6c.29-.25.67-.59,1-.83l.62-.46c.26-.17.61-.39.87-.54l.64-.33c.22-.1.52-.24.75-.33l.6-.23.65-.2.56-.14.58-.11.55-.08.54-.06.53,0h.53l.53,0,.53,0,.54.07.55.09.56.13a5.69,5.69,0,0,1,.59.16l.6.2c.2.07.47.17.66.26l.64.29.76.42.65.42a12.06,12.06,0,0,1,1.46,1.19l.59.59c.32.38.73.91,1,1.31l.47.74c.21.4.48.94.67,1.35l.32.85c.12.42.27,1,.36,1.4l.15.92c0,.43.07,1,.08,1.43l0,1a12.29,12.29,0,0,1-.43,2.35l-.29.86a12.16,12.16,0,0,1-.81,1.72l-.47.74c-.28.38-.67.89-1,1.25l-.58.6c-.28.25-.66.59-1,.83l-.63.46c-.26.17-.6.39-.87.54,1.51-.85,2.45-2.71,2.46-5.39a16.51,16.51,0,0,0-1.72-6.95l0-.81a3.73,3.73,0,0,0-2.39-3,15.33,15.33,0,0,0-4.17-3.8,15.33,15.33,0,0,1,4.17,3.8" fill="#2bff2b"/><path d="M1331.57,146.29c-4.08-1-5.86,3.38-4.06,5.84,1.56,2.15,5.94,2.78,6.9-1.23a16.36,16.36,0,0,1,1.53,6.55c0,2.68-1,4.54-2.46,5.39l-.64.33-.74.33-.6.23-.65.2-.57.14-.58.11-.54.09-.54,0-.53,0h-.53l-.53,0-.53,0-.54-.07-.55-.09-.57-.12-.59-.17-.6-.2c-.2-.07-.46-.17-.66-.26l-.63-.29-.77-.42-.65-.42a13.67,13.67,0,0,1-1.57-1.29l-.58-.61c-.31-.39-.72-.91-1-1.31l-.46-.75c-.21-.4-.47-.94-.65-1.35l-.31-.86c-.11-.42-.26-1-.34-1.4l-.14-.92c0-.39-.06-.91-.07-1.29l0-.95a12.31,12.31,0,0,1,.44-2.34l.29-.87a10.23,10.23,0,0,1,.81-1.72l.46-.74c.28-.38.67-.89,1-1.25l.57-.6c.29-.25.67-.59,1-.83l.62-.46c.26-.17.61-.39.87-.54l.64-.33c.22-.1.52-.24.75-.33l.6-.23.65-.2.56-.14.58-.11.55-.08.54-.06.53,0h.53l.53,0,.53,0,.54.07.55.09.56.13a5.69,5.69,0,0,1,.59.16l.6.2c.2.07.47.17.66.26l.64.29.76.42.65.42a12.06,12.06,0,0,1,1.46,1.19l.59.59c.32.38.73.91,1,1.31l.47.74c.21.4.48.94.67,1.35l.32.85c.12.42.27,1,.36,1.4l.15.92c0,.43.07,1,.08,1.43l0,1a12.29,12.29,0,0,1-.43,2.35l-.29.86a12.16,12.16,0,0,1-.81,1.72l-.47.74c-.28.38-.67.89-1,1.25l-.58.6c-.28.25-.66.59-1,.83l-.63.46c-.26.17-.6.39-.87.54,1.51-.85,2.45-2.71,2.46-5.39a16.36,16.36,0,0,0-1.53-6.55l.13-.46a4,4,0,0,0-3-4.15,15,15,0,0,0-3.87-3.43,15,15,0,0,1,3.87,3.43" fill="#1fff1f"/><path d="M1331.26,145.93c-4.88-.39-5.3,4.26-3.94,6.2,2.07,3,6.34,2.44,7.25-.85a16.1,16.1,0,0,1,1.37,6.17c0,2.68-1,4.54-2.46,5.39l-.64.33-.74.33-.6.23-.65.2-.57.14-.58.11-.54.09-.54,0-.53,0h-.53l-.53,0-.53,0-.54-.07-.55-.09-.57-.12-.59-.17-.6-.2c-.2-.07-.46-.17-.66-.26l-.63-.29-.77-.42-.65-.42a13.67,13.67,0,0,1-1.57-1.29l-.58-.61c-.31-.39-.72-.91-1-1.31l-.46-.75c-.21-.4-.47-.94-.65-1.35l-.31-.86c-.11-.42-.26-1-.34-1.4l-.14-.92c0-.39-.06-.91-.07-1.29l0-.95a12.31,12.31,0,0,1,.44-2.34l.29-.87a10.23,10.23,0,0,1,.81-1.72l.46-.74c.28-.38.67-.89,1-1.25l.57-.6c.29-.25.67-.59,1-.83l.62-.46c.26-.17.61-.39.87-.54l.64-.33c.22-.1.52-.24.75-.33l.6-.23.65-.2.56-.14.58-.11.55-.08.54-.06.53,0h.53l.53,0,.53,0,.54.07.55.09.56.13a5.69,5.69,0,0,1,.59.16l.6.2c.2.07.47.17.66.26l.64.29.76.42.65.42a12.06,12.06,0,0,1,1.46,1.19l.59.59c.32.38.73.91,1,1.31l.47.74c.21.4.48.94.67,1.35l.32.85c.12.42.27,1,.36,1.4l.15.92c0,.43.07,1,.08,1.43l0,1a12.29,12.29,0,0,1-.43,2.35l-.29.86a12.16,12.16,0,0,1-.81,1.72l-.47.74c-.28.38-.67.89-1,1.25l-.58.6c-.28.25-.66.59-1,.83l-.63.46c-.26.17-.6.39-.87.54,1.51-.85,2.45-2.71,2.46-5.39a16.1,16.1,0,0,0-1.37-6.17l.23-.76a4.09,4.09,0,0,0-3.54-4.59,14.58,14.58,0,0,0-3.56-3.07,14.58,14.58,0,0,1,3.56,3.07" fill="lime"/><path d="M1331,145.58c-4.68.16-5.85,5-2.88,7.62a4.27,4.27,0,0,0,6.65-1.54,15.9,15.9,0,0,1,1.21,5.79c0,2.68-1,4.54-2.46,5.39l-.64.33-.74.33-.6.23-.65.2-.57.14-.58.11-.54.09-.54,0-.53,0h-.53l-.53,0-.53,0-.54-.07-.55-.09-.57-.12-.59-.17-.6-.2c-.2-.07-.46-.17-.66-.26l-.63-.29-.77-.42-.65-.42a13.67,13.67,0,0,1-1.57-1.29l-.58-.61c-.31-.39-.72-.91-1-1.31l-.46-.75c-.21-.4-.47-.94-.65-1.35l-.31-.86c-.11-.42-.26-1-.34-1.4l-.14-.92c0-.39-.06-.91-.07-1.29l0-.95a12.31,12.31,0,0,1,.44-2.34l.29-.87a10.23,10.23,0,0,1,.81-1.72l.46-.74c.28-.38.67-.89,1-1.25l.57-.6c.29-.25.67-.59,1-.83l.62-.46c.26-.17.61-.39.87-.54l.64-.33c.22-.1.52-.24.75-.33l.6-.23.65-.2.56-.14.58-.11.55-.08.54-.06.53,0h.53l.53,0,.53,0,.54.07.55.09.56.13a5.69,5.69,0,0,1,.59.16l.6.2c.2.07.47.17.66.26l.64.29.76.42.65.42a12.06,12.06,0,0,1,1.46,1.19l.59.59c.32.38.73.91,1,1.31l.47.74c.21.4.48.94.67,1.35l.32.85c.12.42.27,1,.36,1.4l.15.92c0,.43.07,1,.08,1.43l0,1a12.29,12.29,0,0,1-.43,2.35l-.29.86a12.16,12.16,0,0,1-.81,1.72l-.47.74c-.28.38-.67.89-1,1.25l-.58.6c-.28.25-.66.59-1,.83l-.63.46c-.26.17-.6.39-.87.54,1.51-.85,2.45-2.71,2.46-5.39a15.9,15.9,0,0,0-1.21-5.79l.08-.15c1.23-4.36-1.89-5.59-3.85-5.93a14.47,14.47,0,0,0-3.26-2.72,14.47,14.47,0,0,1,3.26,2.72" fill="#00fa00"/><path d="M1330.63,145.23a4.55,4.55,0,0,0-2.84,7.94,4.48,4.48,0,0,0,7.09-1.12,15.6,15.6,0,0,1,1.06,5.4c0,2.68-1,4.54-2.46,5.39l-.64.33-.74.33-.6.23-.65.2-.57.14-.58.11-.54.09-.54,0-.53,0h-.53l-.53,0-.53,0-.54-.07-.55-.09-.57-.12-.59-.17-.6-.2c-.2-.07-.46-.17-.66-.26l-.63-.29-.77-.42-.65-.42a13.67,13.67,0,0,1-1.57-1.29l-.58-.61c-.31-.39-.72-.91-1-1.31l-.46-.75c-.21-.4-.47-.94-.65-1.35l-.31-.86c-.11-.42-.26-1-.34-1.4l-.14-.92c0-.39-.06-.91-.07-1.29l0-.95a12.31,12.31,0,0,1,.44-2.34l.29-.87a10.23,10.23,0,0,1,.81-1.72l.46-.74c.28-.38.67-.89,1-1.25l.57-.6c.29-.25.67-.59,1-.83l.62-.46c.26-.17.61-.39.87-.54l.64-.33c.22-.1.52-.24.75-.33l.6-.23.65-.2.56-.14.58-.11.55-.08.54-.06.53,0h.53l.53,0,.53,0,.54.07.55.09.56.13a5.69,5.69,0,0,1,.59.16l.6.2c.2.07.47.17.66.26l.64.29.76.42.65.42a12.06,12.06,0,0,1,1.46,1.19l.59.59c.32.38.73.91,1,1.31l.47.74c.21.4.48.94.67,1.35l.32.85c.12.42.27,1,.36,1.4l.15.92c0,.43.07,1,.08,1.43l0,1a12.29,12.29,0,0,1-.43,2.35l-.29.86a12.16,12.16,0,0,1-.81,1.72l-.47.74c-.28.38-.67.89-1,1.25l-.58.6c-.28.25-.66.59-1,.83l-.63.46c-.26.17-.6.39-.87.54,1.51-.85,2.45-2.71,2.46-5.39a15.6,15.6,0,0,0-1.06-5.4l.36-.69a4.58,4.58,0,0,0-4.61-6.13,13.74,13.74,0,0,0-2.93-2.37,13.74,13.74,0,0,1,2.93,2.37" fill="#00f500"/><path d="M1330.29,144.88l-.28.06a4.84,4.84,0,0,0-1.8,8.77,4.76,4.76,0,0,0,6.81-1.27,15.38,15.38,0,0,1,.92,5c0,2.68-1,4.54-2.46,5.39l-.64.33-.74.33-.6.23-.65.2-.57.14-.58.11-.54.09-.54,0-.53,0h-.53l-.53,0-.53,0-.54-.07-.55-.09-.57-.12-.59-.17-.6-.2c-.2-.07-.46-.17-.66-.26l-.63-.29-.77-.42-.65-.42a13.67,13.67,0,0,1-1.57-1.29l-.58-.61c-.31-.39-.72-.91-1-1.31l-.46-.75c-.21-.4-.47-.94-.65-1.35l-.31-.86c-.11-.42-.26-1-.34-1.4l-.14-.92c0-.39-.06-.91-.07-1.29l0-.95a12.31,12.31,0,0,1,.44-2.34l.29-.87a10.23,10.23,0,0,1,.81-1.72l.46-.74c.28-.38.67-.89,1-1.25l.57-.6c.29-.25.67-.59,1-.83l.62-.46c.26-.17.61-.39.87-.54l.64-.33c.22-.1.52-.24.75-.33l.6-.23.65-.2.56-.14.58-.11.55-.08.54-.06.53,0h.53l.53,0,.53,0,.54.07.55.09.56.13a5.69,5.69,0,0,1,.59.16l.6.2c.2.07.47.17.66.26l.64.29.76.42.65.42a12.06,12.06,0,0,1,1.46,1.19l.59.59c.32.38.73.91,1,1.31l.47.74c.21.4.48.94.67,1.35l.32.85c.12.42.27,1,.36,1.4l.15.92c0,.43.07,1,.08,1.43l0,1a12.29,12.29,0,0,1-.43,2.35l-.29.86a12.16,12.16,0,0,1-.81,1.72l-.47.74c-.28.38-.67.89-1,1.25l-.58.6c-.28.25-.66.59-1,.83l-.63.46c-.26.17-.6.39-.87.54,1.51-.85,2.45-2.71,2.46-5.39a15.38,15.38,0,0,0-.92-5l.39-.69c1.32-2.84-.3-7.08-5.12-6.87a13.45,13.45,0,0,0-2.59-2,13.45,13.45,0,0,1,2.59,2" fill="#00f000"/><path d="M1329.93,144.54a5.21,5.21,0,0,0-1.33,9.65c.57.33,3.6,1.79,6.56-1.33a15.1,15.1,0,0,1,.78,4.59c0,2.68-1,4.54-2.46,5.39l-.64.33-.74.33-.6.23-.65.2-.57.14-.58.11-.54.09-.54,0-.53,0h-.53l-.53,0-.53,0-.54-.07-.55-.09-.57-.12-.59-.17-.6-.2c-.2-.07-.46-.17-.66-.26l-.63-.29-.77-.42-.65-.42a13.67,13.67,0,0,1-1.57-1.29l-.58-.61c-.31-.39-.72-.91-1-1.31l-.46-.75c-.21-.4-.47-.94-.65-1.35l-.31-.86c-.11-.42-.26-1-.34-1.4l-.14-.92c0-.39-.06-.91-.07-1.29l0-.95a12.31,12.31,0,0,1,.44-2.34l.29-.87a10.23,10.23,0,0,1,.81-1.72l.46-.74c.28-.38.67-.89,1-1.25l.57-.6c.29-.25.67-.59,1-.83l.62-.46c.26-.17.61-.39.87-.54l.64-.33c.22-.1.52-.24.75-.33l.6-.23.65-.2.56-.14.58-.11.55-.08.54-.06.53,0h.53l.53,0,.53,0,.54.07.55.09.56.13a5.69,5.69,0,0,1,.59.16l.6.2c.2.07.47.17.66.26l.64.29.76.42.65.42a12.06,12.06,0,0,1,1.46,1.19l.59.59c.32.38.73.91,1,1.31l.47.74c.21.4.48.94.67,1.35l.32.85c.12.42.27,1,.36,1.4l.15.92c0,.43.07,1,.08,1.43l0,1a12.29,12.29,0,0,1-.43,2.35l-.29.86a12.16,12.16,0,0,1-.81,1.72l-.47.74c-.28.38-.67.89-1,1.25l-.58.6c-.28.25-.66.59-1,.83l-.63.46c-.26.17-.6.39-.87.54,1.51-.85,2.45-2.71,2.46-5.39a15.1,15.1,0,0,0-.78-4.59l.47-.64c1.94-3.78-.68-8.38-5.7-7.68a13.44,13.44,0,0,0-2.23-1.68,13.44,13.44,0,0,1,2.23,1.68" fill="#00eb00"/><path d="M1329.57,144.22c-5.15,1.93-5,8.18-1,10.22a5.68,5.68,0,0,0,6.69-1.16,14.76,14.76,0,0,1,.65,4.17c0,2.68-1,4.54-2.46,5.39l-.64.33-.74.33-.6.23-.65.2-.57.14-.58.11-.54.09-.54,0-.53,0h-.53l-.53,0-.53,0-.54-.07-.55-.09-.57-.12-.59-.17-.6-.2c-.2-.07-.46-.17-.66-.26l-.63-.29-.77-.42-.65-.42a13.67,13.67,0,0,1-1.57-1.29l-.58-.61c-.31-.39-.72-.91-1-1.31l-.46-.75c-.21-.4-.47-.94-.65-1.35l-.31-.86c-.11-.42-.26-1-.34-1.4l-.14-.92c0-.39-.06-.91-.07-1.29l0-.95a12.31,12.31,0,0,1,.44-2.34l.29-.87a10.23,10.23,0,0,1,.81-1.72l.46-.74c.28-.38.67-.89,1-1.25l.57-.6c.29-.25.67-.59,1-.83l.62-.46c.26-.17.61-.39.87-.54l.64-.33c.22-.1.52-.24.75-.33l.6-.23.65-.2.56-.14.58-.11.55-.08.54-.06.53,0h.53l.53,0,.53,0,.54.07.55.09.56.13a5.69,5.69,0,0,1,.59.16l.6.2c.2.07.47.17.66.26l.64.29.76.42.65.42a12.06,12.06,0,0,1,1.46,1.19l.59.59c.32.38.73.91,1,1.31l.47.74c.21.4.48.94.67,1.35l.32.85c.12.42.27,1,.36,1.4l.15.92c0,.43.07,1,.08,1.43l0,1a12.29,12.29,0,0,1-.43,2.35l-.29.86a12.16,12.16,0,0,1-.81,1.72l-.47.74c-.28.38-.67.89-1,1.25l-.58.6c-.28.25-.66.59-1,.83l-.63.46c-.26.17-.6.39-.87.54,1.51-.85,2.45-2.71,2.46-5.39a14.76,14.76,0,0,0-.65-4.17l.49-.63c2.66-4-1-9.42-5.84-8.51l-.37.08a12.52,12.52,0,0,0-1.87-1.36,12.52,12.52,0,0,1,1.87,1.36" fill="#00e600"/><path d="M1329.2,143.91a6,6,0,0,0-.59,10.8,6.09,6.09,0,0,0,6.81-1,14.52,14.52,0,0,1,.52,3.74c0,2.68-1,4.54-2.46,5.39l-.64.33-.74.33-.6.23-.65.2-.57.14-.58.11-.54.09-.54,0-.53,0h-.53l-.53,0-.53,0-.54-.07-.55-.09-.57-.12-.59-.17-.6-.2c-.2-.07-.46-.17-.66-.26l-.63-.29-.77-.42-.65-.42a13.67,13.67,0,0,1-1.57-1.29l-.58-.61c-.31-.39-.72-.91-1-1.31l-.46-.75c-.21-.4-.47-.94-.65-1.35l-.31-.86c-.11-.42-.26-1-.34-1.4l-.14-.92c0-.39-.06-.91-.07-1.29l0-.95a12.31,12.31,0,0,1,.44-2.34l.29-.87a10.23,10.23,0,0,1,.81-1.72l.46-.74c.28-.38.67-.89,1-1.25l.57-.6c.29-.25.67-.59,1-.83l.62-.46c.26-.17.61-.39.87-.54l.64-.33c.22-.1.52-.24.75-.33l.6-.23.65-.2.56-.14.58-.11.55-.08.54-.06.53,0h.53l.53,0,.53,0,.54.07.55.09.56.13a5.69,5.69,0,0,1,.59.16l.6.2c.2.07.47.17.66.26l.64.29.76.42.65.42a12.06,12.06,0,0,1,1.46,1.19l.59.59c.32.38.73.91,1,1.31l.47.74c.21.4.48.94.67,1.35l.32.85c.12.42.27,1,.36,1.4l.15.92c0,.43.07,1,.08,1.43l0,1a12.29,12.29,0,0,1-.43,2.35l-.29.86a12.16,12.16,0,0,1-.81,1.72l-.47.74c-.28.38-.67.89-1,1.25l-.58.6c-.28.25-.66.59-1,.83l-.63.46c-.26.17-.6.39-.87.54,1.51-.85,2.45-2.71,2.46-5.39a14.52,14.52,0,0,0-.52-3.74l.38-.41c3.36-4.48-.84-10.22-5.6-9.61a8.91,8.91,0,0,0-1,.22,11.58,11.58,0,0,0-1.5-1,11.58,11.58,0,0,1,1.5,1" fill="#00e000"/><path d="M1328.84,143.63c-4.41,1.67-5.29,9-.22,11.34a6.52,6.52,0,0,0,6.91-.82,14.13,14.13,0,0,1,.41,3.3c0,2.68-1,4.54-2.46,5.39l-.64.33-.74.33-.6.23-.65.2-.57.14-.58.11-.54.09-.54,0-.53,0h-.53l-.53,0-.53,0-.54-.07-.55-.09-.57-.12-.59-.17-.6-.2c-.2-.07-.46-.17-.66-.26l-.63-.29-.77-.42-.65-.42a13.67,13.67,0,0,1-1.57-1.29l-.58-.61c-.31-.39-.72-.91-1-1.31l-.46-.75c-.21-.4-.47-.94-.65-1.35l-.31-.86c-.11-.42-.26-1-.34-1.4l-.14-.92c0-.39-.06-.91-.07-1.29l0-.95a12.31,12.31,0,0,1,.44-2.34l.29-.87a10.23,10.23,0,0,1,.81-1.72l.46-.74c.28-.38.67-.89,1-1.25l.57-.6c.29-.25.67-.59,1-.83l.62-.46c.26-.17.61-.39.87-.54l.64-.33c.22-.1.52-.24.75-.33l.6-.23.65-.2.56-.14.58-.11.55-.08.54-.06.53,0h.53l.53,0,.53,0,.54.07.55.09.56.13a5.69,5.69,0,0,1,.59.16l.6.2c.2.07.47.17.66.26l.64.29.76.42.65.42a12.06,12.06,0,0,1,1.46,1.19l.59.59c.32.38.73.91,1,1.31l.47.74c.21.4.48.94.67,1.35l.32.85c.12.42.27,1,.36,1.4l.15.92c0,.43.07,1,.08,1.43l0,1a12.29,12.29,0,0,1-.43,2.35l-.29.86a12.16,12.16,0,0,1-.81,1.72l-.47.74c-.28.38-.67.89-1,1.25l-.58.6c-.28.25-.66.59-1,.83l-.63.46c-.26.17-.6.39-.87.54,1.51-.85,2.45-2.71,2.46-5.39a14.13,14.13,0,0,0-.41-3.3l.55-.59c3.54-4.38-.72-10.56-5.65-10.26a5.59,5.59,0,0,0-1.59.33,12,12,0,0,0-1.14-.77,12,12,0,0,1,1.14.77" fill="#00db00"/><path d="M1328.48,143.36c-3.14.9-6.38,8.64.13,11.86a6.89,6.89,0,0,0,7-.63,14.21,14.21,0,0,1,.31,2.86c0,2.68-1,4.54-2.46,5.39l-.64.33-.74.33-.6.23-.65.2-.57.14-.58.11-.54.09-.54,0-.53,0h-.53l-.53,0-.53,0-.54-.07-.55-.09-.57-.12-.59-.17-.6-.2c-.2-.07-.46-.17-.66-.26l-.63-.29-.77-.42-.65-.42a13.67,13.67,0,0,1-1.57-1.29l-.58-.61c-.31-.39-.72-.91-1-1.31l-.46-.75c-.21-.4-.47-.94-.65-1.35l-.31-.86c-.11-.42-.26-1-.34-1.4l-.14-.92c0-.39-.06-.91-.07-1.29l0-.95a12.31,12.31,0,0,1,.44-2.34l.29-.87a10.23,10.23,0,0,1,.81-1.72l.46-.74c.28-.38.67-.89,1-1.25l.57-.6c.29-.25.67-.59,1-.83l.62-.46c.26-.17.61-.39.87-.54l.64-.33c.22-.1.52-.24.75-.33l.6-.23.65-.2.56-.14.58-.11.55-.08.54-.06.53,0h.53l.53,0,.53,0,.54.07.55.09.56.13a5.69,5.69,0,0,1,.59.16l.6.2c.2.07.47.17.66.26l.64.29.76.42.65.42a12.06,12.06,0,0,1,1.46,1.19l.59.59c.32.38.73.91,1,1.31l.47.74c.21.4.48.94.67,1.35l.32.85c.12.42.27,1,.36,1.4l.15.92c0,.43.07,1,.08,1.43l0,1a12.29,12.29,0,0,1-.43,2.35l-.29.86a12.16,12.16,0,0,1-.81,1.72l-.47.74c-.28.38-.67.89-1,1.25l-.58.6c-.28.25-.66.59-1,.83l-.63.46c-.26.17-.6.39-.87.54,1.51-.85,2.45-2.71,2.46-5.39a14.21,14.21,0,0,0-.31-2.86l.15-.14c4.71-5-.51-11.31-4.78-11.48a5.89,5.89,0,0,0-2.52.39c-.26-.18-.51-.35-.78-.5.27.15.52.32.78.5" fill="#00d600"/><path d="M1328.06,143.08c-4.11,1.56-5.26,9.81.58,12.49a7.23,7.23,0,0,0,7.07-.55,13.58,13.58,0,0,1,.23,2.43c0,2.68-1,4.54-2.46,5.39l-.64.33-.74.33-.6.23-.65.2-.57.14-.58.11-.54.09-.54,0-.53,0h-.53l-.53,0-.53,0-.54-.07-.55-.09-.57-.12-.59-.17-.6-.2c-.2-.07-.46-.17-.66-.26l-.63-.29-.77-.42-.65-.42a13.67,13.67,0,0,1-1.57-1.29l-.58-.61c-.31-.39-.72-.91-1-1.31l-.46-.75c-.21-.4-.47-.94-.65-1.35l-.31-.86c-.11-.42-.26-1-.34-1.4l-.14-.92c0-.39-.06-.91-.07-1.29l0-.95a12.31,12.31,0,0,1,.44-2.34l.29-.87a10.23,10.23,0,0,1,.81-1.72l.46-.74c.28-.38.67-.89,1-1.25l.57-.6c.29-.25.67-.59,1-.83l.62-.46c.26-.17.61-.39.87-.54l.64-.33c.22-.1.52-.24.75-.33l.6-.23.65-.2.56-.14.58-.11.55-.08.54-.06.53,0h.53l.53,0,.53,0,.54.07.55.09.56.13a5.69,5.69,0,0,1,.59.16l.6.2c.2.07.47.17.66.26l.64.29.76.42.65.42a12.06,12.06,0,0,1,1.46,1.19l.59.59c.32.38.73.91,1,1.31l.47.74c.21.4.48.94.67,1.35l.32.85c.12.42.27,1,.36,1.4l.15.92c0,.43.07,1,.08,1.43l0,1a12.29,12.29,0,0,1-.43,2.35l-.29.86a12.16,12.16,0,0,1-.81,1.72l-.47.74c-.28.38-.67.89-1,1.25l-.58.6c-.28.25-.66.59-1,.83l-.63.46c-.26.17-.6.39-.87.54,1.51-.85,2.45-2.71,2.46-5.39a13.58,13.58,0,0,0-.23-2.43l.6-.57c4.38-4.83-.81-12.32-6.43-11.75a11.65,11.65,0,0,0-1.82.38l-.36-.22.36.22" fill="#00d100"/><path d="M1335.94,157.45c0,2.68-1,4.54-2.46,5.39l-.64.33-.74.33-.6.23-.65.2-.57.14-.58.11-.54.09-.54,0-.53,0h-.53l-.53,0-.53,0-.54-.07-.55-.09-.57-.12-.59-.17-.6-.2c-.2-.07-.46-.17-.66-.26l-.63-.29-.77-.42-.65-.42a13.67,13.67,0,0,1-1.57-1.29l-.58-.61c-.31-.39-.72-.91-1-1.31l-.46-.75c-.21-.4-.47-.94-.65-1.35l-.31-.86c-.11-.42-.26-1-.34-1.4l-.14-.92c0-.39-.06-.91-.07-1.29l0-.95a12.31,12.31,0,0,1,.44-2.34l.29-.87a10.23,10.23,0,0,1,.81-1.72l.46-.74c.28-.38.67-.89,1-1.25l.57-.6c.29-.25.67-.59,1-.83l.62-.46c.26-.17.61-.39.87-.54l.64-.33c.22-.1.52-.24.75-.33l.6-.23.65-.2.56-.14.58-.11.55-.08.54-.06.53,0h.53l.53,0,.53,0,.54.07.55.09.56.13a5.69,5.69,0,0,1,.59.16l.6.2c.2.07.47.17.66.26l.64.29.76.42.65.42a12.06,12.06,0,0,1,1.46,1.19l.59.59c.32.38.73.91,1,1.31l.47.74c.21.4.48.94.67,1.35l.32.85c.12.42.27,1,.36,1.4l.15.92c0,.43.07,1,.08,1.43l0,1a12.29,12.29,0,0,1-.43,2.35l-.29.86a12.16,12.16,0,0,1-.81,1.72l-.47.74c-.28.38-.67.89-1,1.25l-.58.6c-.28.25-.66.59-1,.83l-.63.46c-.26.17-.6.39-.87.54,1.51-.85,2.45-2.71,2.46-5.39a12.53,12.53,0,0,0-.16-2l.61-.57c4.67-5-.36-12.64-6.48-12.46-.76,0-1.45.37-2.21.44h0c-.5.49-1.18.75-1.65,1.28a6.46,6.46,0,0,0-1.32,2.06,7.94,7.94,0,0,0-.37,4.48,7.7,7.7,0,0,0,7.34,5.95,7.84,7.84,0,0,0,4.08-1.18,12.53,12.53,0,0,1,.16,2" fill="#0c0"/><path d="M1335.94,157.45c0,2.68-1,4.54-2.46,5.39l-.64.33-.74.33-.6.23-.65.2-.57.14-.58.11-.54.09-.54,0-.53,0h-.53l-.53,0-.53,0-.54-.07-.55-.09-.57-.12-.59-.17-.6-.2c-.2-.07-.46-.17-.66-.26l-.63-.29-.77-.42-.65-.42a13.67,13.67,0,0,1-1.57-1.29l-.58-.61c-.31-.39-.72-.91-1-1.31l-.46-.75c-.21-.4-.47-.94-.65-1.35l-.31-.86c-.11-.42-.26-1-.34-1.4l-.14-.92c0-.39-.06-.91-.07-1.29l0-.95a12.31,12.31,0,0,1,.44-2.34l.29-.87a10.23,10.23,0,0,1,.81-1.72l.46-.74c.28-.38.67-.89,1-1.25l.57-.6c.29-.25.67-.59,1-.83l.62-.46c.26-.17.61-.39.87-.54l.64-.33c.22-.1.52-.24.75-.33l.6-.23.65-.2.56-.14.58-.11.55-.08.54-.06.53,0h.53l.53,0,.53,0,.54.07.55.09.56.13a5.69,5.69,0,0,1,.59.16l.6.2c.2.07.47.17.66.26l.64.29.76.42.65.42a12.06,12.06,0,0,1,1.46,1.19l.59.59c.32.38.73.91,1,1.31l.47.74c.21.4.48.94.67,1.35l.32.85c.12.42.27,1,.36,1.4l.15.92c0,.43.07,1,.08,1.43l0,1a12.29,12.29,0,0,1-.43,2.35l-.29.86a12.16,12.16,0,0,1-.81,1.72l-.47.74c-.28.38-.67.89-1,1.25l-.58.6c-.28.25-.66.59-1,.83l-.63.46c-.26.17-.6.39-.87.54,1.51-.85,2.45-2.71,2.46-5.39a12.34,12.34,0,0,0-.1-1.59l.63-.56c5-5.1-.24-13.32-6.6-13.14-6,.16-8.2,8.18-3.44,12.62a7.9,7.9,0,0,0,9.41,1.08,12.34,12.34,0,0,1,.1,1.59" fill="#00c700"/><path d="M1335.94,157.45c0,2.68-1,4.54-2.46,5.39l-.64.33-.74.33-.6.23-.65.2-.57.14-.58.11-.54.09-.54,0-.53,0h-.53l-.53,0-.53,0-.54-.07-.55-.09-.57-.12-.59-.17-.6-.2c-.2-.07-.46-.17-.66-.26l-.63-.29-.77-.42-.65-.42a13.67,13.67,0,0,1-1.57-1.29l-.58-.61c-.31-.39-.72-.91-1-1.31l-.46-.75c-.21-.4-.47-.94-.65-1.35l-.31-.86c-.11-.42-.26-1-.34-1.4l-.14-.92c0-.39-.06-.91-.07-1.29l0-.95a12.31,12.31,0,0,1,.44-2.34l.29-.87a10.23,10.23,0,0,1,.81-1.72l.46-.74c.28-.38.67-.89,1-1.25l.57-.6c.29-.25.67-.59,1-.83l.62-.46c.26-.17.61-.39.87-.54l.64-.33c.22-.1.52-.24.75-.33l.6-.23.65-.2.56-.14.58-.11.55-.08.54-.06.53,0h.53l.53,0,.53,0,.54.07.55.09.56.13a5.69,5.69,0,0,1,.59.16l.6.2c.2.07.47.17.66.26l.64.29.76.42.65.42a12.06,12.06,0,0,1,1.46,1.19l.59.59c.32.38.73.91,1,1.31l.47.74c.21.4.48.94.67,1.35l.32.85c.12.42.27,1,.36,1.4l.15.92c0,.43.07,1,.08,1.43l0,1a12.29,12.29,0,0,1-.43,2.35l-.29.86a12.16,12.16,0,0,1-.81,1.72l-.47.74c-.28.38-.67.89-1,1.25l-.58.6c-.28.25-.66.59-1,.83l-.63.46c-.26.17-.6.39-.87.54,1.51-.85,2.45-2.71,2.46-5.39a11.81,11.81,0,0,0-.06-1.18l.64-.55c5.14-5.12.16-13.54-6.38-13.79-6.28-.24-9.08,7.84-4.4,12.71.76.79,4.82,4.58,10.14,1.63a11.81,11.81,0,0,1,.06,1.18" fill="#00c200"/><path d="M1335.94,157.45c0,2.68-1,4.54-2.46,5.39l-.64.33-.74.33-.6.23-.65.2-.57.14-.58.11-.54.09-.54,0-.53,0h-.53l-.53,0-.53,0-.54-.07-.55-.09-.57-.12-.59-.17-.6-.2c-.2-.07-.46-.17-.66-.26l-.63-.29-.77-.42-.65-.42a13.67,13.67,0,0,1-1.57-1.29l-.58-.61c-.31-.39-.72-.91-1-1.31l-.46-.75c-.21-.4-.47-.94-.65-1.35l-.31-.86c-.11-.42-.26-1-.34-1.4l-.14-.92c0-.39-.06-.91-.07-1.29l0-.95a12.31,12.31,0,0,1,.44-2.34l.29-.87a10.23,10.23,0,0,1,.81-1.72l.46-.74c.28-.38.67-.89,1-1.25l.57-.6c.29-.25.67-.59,1-.83l.62-.46c.26-.17.61-.39.87-.54l.64-.33c.22-.1.52-.24.75-.33l.6-.23.65-.2.56-.14.58-.11.55-.08.54-.06.53,0h.53l.53,0,.53,0,.54.07.55.09.56.13a5.69,5.69,0,0,1,.59.16l.6.2c.2.07.47.17.66.26l.64.29.76.42.65.42a12.06,12.06,0,0,1,1.46,1.19l.59.59c.32.38.73.91,1,1.31l.47.74c.21.4.48.94.67,1.35l.32.85c.12.42.27,1,.36,1.4l.15.92c0,.43.07,1,.08,1.43l0,1a12.29,12.29,0,0,1-.43,2.35l-.29.86a12.16,12.16,0,0,1-.81,1.72l-.47.74c-.28.38-.67.89-1,1.25l-.58.6c-.28.25-.66.59-1,.83l-.63.46c-.26.17-.6.39-.87.54,1.51-.85,2.45-2.71,2.46-5.39,0-.25,0-.51,0-.77l.64-.54c5.18-4.82.66-14.39-6.82-14.42-6.58,0-9.06,8.25-4,13.41.18.19,4.6,4.63,10.21,1.55,0,.26,0,.52,0,.77" fill="#00bd00"/><path d="M1335.94,157.45c0,2.68-1,4.54-2.46,5.39l-.64.33-.74.33-.6.23-.65.2-.57.14-.58.11-.54.09-.54,0-.53,0h-.53l-.53,0-.53,0-.54-.07-.55-.09-.57-.12-.59-.17-.6-.2c-.2-.07-.46-.17-.66-.26l-.63-.29-.77-.42-.65-.42a13.67,13.67,0,0,1-1.57-1.29l-.58-.61c-.31-.39-.72-.91-1-1.31l-.46-.75c-.21-.4-.47-.94-.65-1.35l-.31-.86c-.11-.42-.26-1-.34-1.4l-.14-.92c0-.39-.06-.91-.07-1.29l0-.95a12.31,12.31,0,0,1,.44-2.34l.29-.87a10.23,10.23,0,0,1,.81-1.72l.46-.74c.28-.38.67-.89,1-1.25l.57-.6c.29-.25.67-.59,1-.83l.62-.46c.26-.17.61-.39.87-.54l.64-.33c.22-.1.52-.24.75-.33l.6-.23.65-.2.56-.14.58-.11.55-.08.54-.06.53,0h.53l.53,0,.53,0,.54.07.55.09.56.13a5.69,5.69,0,0,1,.59.16l.6.2c.2.07.47.17.66.26l.64.29.76.42.65.42a12.06,12.06,0,0,1,1.46,1.19l.59.59c.32.38.73.91,1,1.31l.47.74c.21.4.48.94.67,1.35l.32.85c.12.42.27,1,.36,1.4l.15.92c0,.43.07,1,.08,1.43l0,1a12.29,12.29,0,0,1-.43,2.35l-.29.86a12.16,12.16,0,0,1-.81,1.72l-.47.74c-.28.38-.67.89-1,1.25l-.58.6c-.28.25-.66.59-1,.83l-.63.46c-.26.17-.6.39-.87.54,1.51-.85,2.45-2.71,2.46-5.39,0-.12,0-.24,0-.36l.66-.54c5.58-5.27.33-14.6-6.59-15s-10,8-4.82,13.63c.49.53,5,5.09,10.75,1.92,0,.12,0,.24,0,.36" fill="#00b800"/><path d="M1333.48,162.84a12.21,12.21,0,0,1-1.38.66l-.6.23-.65.2-.57.14-.58.11-.54.09-.54,0-.53,0h-.53l-.53,0-.53,0-.54-.07-.55-.09-.57-.12-.59-.17-.6-.2c-.2-.07-.46-.17-.66-.26l-.63-.29-.77-.42-.65-.42a13.67,13.67,0,0,1-1.57-1.29l-.58-.61c-.31-.39-.72-.91-1-1.31l-.46-.75c-.21-.4-.47-.94-.65-1.35l-.31-.86c-.11-.42-.26-1-.34-1.4l-.14-.92c0-.39-.06-.91-.07-1.29l0-.95a12.31,12.31,0,0,1,.44-2.34l.29-.87a10.23,10.23,0,0,1,.81-1.72l.46-.74c.28-.38.67-.89,1-1.25l.57-.6c.29-.25.67-.59,1-.83l.62-.46c.26-.17.61-.39.87-.54l.64-.33c.22-.1.52-.24.75-.33l.6-.23.65-.2.56-.14.58-.11.55-.08.54-.06.53,0h.53l.53,0,.53,0,.54.07.55.09.56.13a5.69,5.69,0,0,1,.59.16l.6.2c.2.07.47.17.66.26l.64.29.76.42.65.42a12.06,12.06,0,0,1,1.46,1.19l.59.59c.32.38.73.91,1,1.31l.47.74c.21.4.48.94.67,1.35l.32.85c.12.42.27,1,.36,1.4l.15.92c0,.43.07,1,.08,1.43l0,1a12.29,12.29,0,0,1-.43,2.35l-.29.86a12.16,12.16,0,0,1-.81,1.72l-.47.74c-.28.38-.67.89-1,1.25l-.58.6c-.28.25-.66.59-1,.83l-.63.46c-.26.17-.6.39-.87.54,1.5-.84,2.44-2.69,2.46-5.35l.22-.17c6.84-5.78.65-15.41-6.17-15.94-7.69-.59-10.12,8.34-5.46,13.69.85,1,5.42,5.71,11.41,2.42,0,2.66-1,4.51-2.46,5.35" fill="#00b300"/><path d="M1333.48,162.84a12.21,12.21,0,0,1-1.38.66l-.6.23-.65.2-.57.14-.58.11-.54.09-.54,0-.53,0h-.53l-.53,0-.53,0-.54-.07-.55-.09-.57-.12-.59-.17-.6-.2c-.2-.07-.46-.17-.66-.26l-.63-.29-.77-.42-.65-.42a13.67,13.67,0,0,1-1.57-1.29l-.58-.61c-.31-.39-.72-.91-1-1.31l-.46-.75c-.21-.4-.47-.94-.65-1.35l-.31-.86c-.11-.42-.26-1-.34-1.4l-.14-.92c0-.39-.06-.91-.07-1.29l0-.95a12.31,12.31,0,0,1,.44-2.34l.29-.87a10.23,10.23,0,0,1,.81-1.72l.46-.74c.28-.38.67-.89,1-1.25l.57-.6c.29-.25.67-.59,1-.83l.62-.46c.26-.17.61-.39.87-.54l.64-.33c.22-.1.52-.24.75-.33l.6-.23.65-.2.56-.14.58-.11.55-.08.54-.06.53,0h.53l.53,0,.53,0,.54.07.55.09.56.13a5.69,5.69,0,0,1,.59.16l.6.2c.2.07.47.17.66.26l.64.29.76.42.65.42a12.06,12.06,0,0,1,1.46,1.19l.59.59c.32.38.73.91,1,1.31l.47.74c.21.4.48.94.67,1.35l.32.85c.12.42.27,1,.36,1.4l.15.92c0,.43.07,1,.08,1.43l0,1a12.29,12.29,0,0,1-.43,2.35l-.29.86a12.16,12.16,0,0,1-.81,1.72l-.47.74c-.28.38-.67.89-1,1.25l-.58.6c-.28.25-.66.59-1,.83l-.63.46c-.26.17-.6.39-.87.54,1.43-.8,2.34-2.5,2.45-4.94l.66-.53c6.23-5.61.36-16-7.2-16.17S1319,150,1324.83,156c.51.53,5.18,5.11,11.1,1.86-.11,2.44-1,4.14-2.45,4.94" fill="#00ad00"/><path d="M1333.48,162.84a12.21,12.21,0,0,1-1.38.66l-.6.23-.65.2-.57.14-.58.11-.54.09-.54,0-.53,0h-.53l-.53,0-.53,0-.54-.07-.55-.09-.57-.12-.59-.17-.6-.2c-.2-.07-.46-.17-.66-.26l-.63-.29-.77-.42-.65-.42a13.67,13.67,0,0,1-1.57-1.29l-.58-.61c-.31-.39-.72-.91-1-1.31l-.46-.75c-.21-.4-.47-.94-.65-1.35l-.31-.86c-.11-.42-.26-1-.34-1.4l-.14-.92c0-.39-.06-.91-.07-1.29l0-.95a12.31,12.31,0,0,1,.44-2.34l.29-.87a10.23,10.23,0,0,1,.81-1.72l.46-.74c.28-.38.67-.89,1-1.25l.57-.6c.29-.25.67-.59,1-.83l.62-.46c.26-.17.61-.39.87-.54l.64-.33c.22-.1.52-.24.75-.33l.6-.23.65-.2.56-.14.58-.11.55-.08.54-.06.53,0h.53l.53,0,.53,0,.54.07.55.09.56.13a5.69,5.69,0,0,1,.59.16l.6.2c.2.07.47.17.66.26l.64.29.76.42.65.42a12.06,12.06,0,0,1,1.46,1.19l.59.59c.32.38.73.91,1,1.31l.47.74c.21.4.48.94.67,1.35l.32.85c.12.42.27,1,.36,1.4l.15.92c0,.43.07,1,.08,1.43l0,1a12.29,12.29,0,0,1-.43,2.35l-.29.86a12.16,12.16,0,0,1-.81,1.72l-.47.74c-.28.38-.67.89-1,1.25l-.58.6c-.28.25-.66.59-1,.83l-.63.46c-.26.17-.6.39-.87.54,1.35-.76,2.24-2.32,2.42-4.55l.67-.51c6-5.21,1.35-16.14-7-16.7-7.71-.52-11.06,8.82-5.36,14.92.9,1,5.71,5.61,11.74,2.29-.18,2.23-1.07,3.79-2.42,4.55" fill="#00a800"/><path d="M1333.48,162.84a12.21,12.21,0,0,1-1.38.66l-.6.23-.65.2-.57.14-.58.11-.54.09-.54,0-.53,0h-.53l-.53,0-.53,0-.54-.07-.55-.09-.57-.12-.59-.17-.6-.2c-.2-.07-.46-.17-.66-.26l-.63-.29-.77-.42-.65-.42a13.67,13.67,0,0,1-1.57-1.29l-.58-.61c-.31-.39-.72-.91-1-1.31l-.46-.75c-.21-.4-.47-.94-.65-1.35l-.31-.86c-.11-.42-.26-1-.34-1.4l-.14-.92c0-.39-.06-.91-.07-1.29l0-.95a12.31,12.31,0,0,1,.44-2.34l.29-.87a10.23,10.23,0,0,1,.81-1.72l.46-.74c.28-.38.67-.89,1-1.25l.57-.6c.29-.25.67-.59,1-.83l.62-.46c.26-.17.61-.39.87-.54l.64-.33c.22-.1.52-.24.75-.33l.6-.23.65-.2.56-.14.58-.11.55-.08.54-.06.53,0h.53l.53,0,.53,0,.54.07.55.09.56.13a5.69,5.69,0,0,1,.59.16l.6.2c.2.07.47.17.66.26l.64.29.76.42.65.42a12.06,12.06,0,0,1,1.46,1.19l.59.59c.32.38.73.91,1,1.31l.47.74c.21.4.48.94.67,1.35l.32.85c.12.42.27,1,.36,1.4l.15.92c0,.43.07,1,.08,1.43l0,1a12.29,12.29,0,0,1-.43,2.35l-.29.86a12.16,12.16,0,0,1-.81,1.72l-.47.74c-.28.38-.67.89-1,1.25l-.58.6c-.28.25-.66.59-1,.83l-.63.46c-.26.17-.6.39-.87.54a5.23,5.23,0,0,0,2.38-4.14l.67-.51c6.68-5.74.89-16.65-7.08-17.22-8.41-.61-11,9-6,14.94.57.67,5.77,6.45,12.4,2.79a5.23,5.23,0,0,1-2.38,4.14" fill="#00a300"/><path d="M1339.3,150.19a12.37,12.37,0,0,1,.23,2.35l0,1a12.29,12.29,0,0,1-.43,2.35l-.29.86a12.16,12.16,0,0,1-.81,1.72l-.47.74c-.28.38-.67.89-1,1.25l-.58.6c-.28.25-.66.59-1,.83l-.63.46c-.26.17-.6.39-.87.54a5,5,0,0,0,2.32-3.75l.67-.49c2.94-2.45,3.77-6.36,2.22-10.47l.31.86c.09.36.23.83.3,1.2" fill="#009e00"/><path d="M1333.48,162.84a12.21,12.21,0,0,1-1.38.66l-.6.23-.65.2-.57.14-.58.11-.54.09-.54,0-.53,0h-.53l-.53,0-.53,0-.54-.07-.55-.09-.57-.12-.59-.17-.6-.2c-.2-.07-.46-.17-.66-.26l-.63-.29-.77-.42-.65-.42a13.67,13.67,0,0,1-1.57-1.29l-.58-.61c-.31-.39-.72-.91-1-1.31l-.46-.75c-.21-.4-.47-.94-.65-1.35l-.31-.86c-.11-.42-.26-1-.34-1.4l-.14-.92c0-.39-.06-.91-.07-1.29l0-.95a12.31,12.31,0,0,1,.44-2.34l.29-.87a10.23,10.23,0,0,1,.81-1.72l.46-.74c.28-.38.67-.89,1-1.25l.57-.6c.29-.25.67-.59,1-.83l.62-.46c.26-.17.61-.39.87-.54l.64-.33c.22-.1.52-.24.75-.33l.6-.23.65-.2.56-.14.58-.11.55-.08.54-.06.53,0h.53l.53,0,.53,0,.54.07.55.09.56.13a5.69,5.69,0,0,1,.59.16l.6.2c.2.07.47.17.66.26l.64.29.73.4-.67-.36c-8.66-4-14.85,3.32-11.92,10.94,1.85,4.81,8.14,9.79,14.66,6.19a5,5,0,0,1-2.32,3.75" fill="#009e00"/><path d="M1339.53,152.54a12.4,12.4,0,0,1-.47,3.3l-.29.86a12.16,12.16,0,0,1-.81,1.72l-.47.74c-.28.38-.67.89-1,1.25l-.58.6c-.28.25-.66.59-1,.83l-.63.46c-.26.17-.6.39-.87.54a4.87,4.87,0,0,0,2.24-3.33l.67-.48a8.82,8.82,0,0,0,2.95-8.63l.13.93c0,.36.07.85.06,1.21" fill="#090"/><path d="M1333.48,162.84a12.21,12.21,0,0,1-1.38.66l-.6.23-.65.2-.57.14-.58.11-.54.09-.54,0-.53,0h-.53l-.53,0-.53,0-.54-.07-.55-.09-.57-.12-.59-.17-.6-.2c-.2-.07-.46-.17-.66-.26l-.63-.29-.77-.42-.65-.42a13.67,13.67,0,0,1-1.57-1.29l-.58-.61c-.31-.39-.72-.91-1-1.31l-.46-.75c-.21-.4-.47-.94-.65-1.35l-.31-.86c-.11-.42-.26-1-.34-1.4l-.14-.92c0-.39-.06-.91-.07-1.29l0-.95a12.31,12.31,0,0,1,.44-2.34l.29-.87a10.23,10.23,0,0,1,.81-1.72l.46-.74c.28-.38.67-.89,1-1.25l.57-.6c.29-.25.67-.59,1-.83l.62-.46c.26-.17.61-.39.87-.54l.64-.33c.22-.1.52-.24.75-.33l.6-.23.65-.2.56-.14.58-.11.55-.08.54-.06.53,0h.53l.53,0,.53,0,.54.07.55.09.56.13a5.69,5.69,0,0,1,.59.16l.53.17-.62-.2c-8.26-2.27-14,5.86-9.54,13.59,2.29,4,8.22,8.12,14.25,4.78a4.87,4.87,0,0,1-2.24,3.33" fill="#090"/><path d="M1339.53,152.54a12.43,12.43,0,0,1-.47,3.3l-.29.86a12.16,12.16,0,0,1-.81,1.72l-.47.74c-.28.38-.67.89-1,1.25l-.58.6c-.28.25-.66.59-1,.83l-.63.46c-.26.17-.6.39-.87.54a4.69,4.69,0,0,0,2.13-2.92l.67-.46a8.78,8.78,0,0,0,3.25-7.08v.16" fill="#009400"/><path d="M1333.48,162.84a12.21,12.21,0,0,1-1.38.66l-.6.23-.65.2-.57.14-.58.11-.54.09-.54,0-.53,0h-.53l-.53,0-.53,0-.54-.07-.55-.09-.57-.12-.59-.17-.6-.2c-.2-.07-.46-.17-.66-.26l-.63-.29-.77-.42-.65-.42a13.67,13.67,0,0,1-1.57-1.29l-.58-.61c-.31-.39-.72-.91-1-1.31l-.46-.75c-.21-.4-.47-.94-.65-1.35l-.31-.86c-.11-.42-.26-1-.34-1.4l-.14-.92c0-.39-.06-.91-.07-1.29l0-.95a12.31,12.31,0,0,1,.44-2.34l.29-.87a10.23,10.23,0,0,1,.81-1.72l.46-.74c.28-.38.67-.89,1-1.25l.57-.6c.29-.25.67-.59,1-.83l.62-.46c.26-.17.61-.39.87-.54l.64-.33c.22-.1.52-.24.75-.33l.6-.23.65-.2.56-.14.58-.11.55-.08.54-.06.53,0h.53l.53,0,.53,0,.54.07.36.06-.55-.09c-8.58-.91-12.84,8.55-7.13,15.82,2.2,2.8,7.53,6.66,13.53,3.34a4.69,4.69,0,0,1-2.13,2.92" fill="#009400"/><path d="M1339.06,155.84a13.65,13.65,0,0,1-1.1,2.58l-.47.74c-.28.38-.67.89-1,1.25l-.58.6c-.28.25-.66.59-1,.83l-.63.46c-.26.17-.6.39-.87.54a4.51,4.51,0,0,0,2-2.46l.66-.45a8.58,8.58,0,0,0,3.29-5.7l-.17.92-.18.69" fill="#008f00"/><path d="M1333.48,162.84a12.21,12.21,0,0,1-1.38.66l-.6.23-.65.2-.57.14-.58.11-.54.09-.54,0-.53,0h-.53l-.53,0-.53,0-.54-.07-.55-.09-.57-.12-.59-.17-.6-.2c-.2-.07-.46-.17-.66-.26l-.63-.29-.77-.42-.65-.42a13.67,13.67,0,0,1-1.57-1.29l-.58-.61c-.31-.39-.72-.91-1-1.31l-.46-.75c-.21-.4-.47-.94-.65-1.35l-.31-.86c-.11-.42-.26-1-.34-1.4l-.14-.92c0-.39-.06-.91-.07-1.29l0-.95a12.31,12.31,0,0,1,.44-2.34l.29-.87a10.23,10.23,0,0,1,.81-1.72l.46-.74c.28-.38.67-.89,1-1.25l.57-.6c.29-.25.67-.59,1-.83l.62-.46c.26-.17.61-.39.87-.54l.64-.33c.22-.1.52-.24.75-.33l.6-.23.65-.2.56-.14.58-.11.55-.08.54-.06.53,0h.15c-8.82.4-11.38,11.29-4.22,17.92.6.55,6,5.27,12.26,1.79a4.51,4.51,0,0,1-2,2.46" fill="#008f00"/><path d="M1338,158.42a14.15,14.15,0,0,1-1.44,2l-.58.6c-.28.25-.66.59-1,.83l-.63.46c-.26.17-.6.39-.87.54a4.32,4.32,0,0,0,1.78-2l.64-.43A8.41,8.41,0,0,0,1339,156l-.3.86c-.21.47-.49,1.09-.74,1.54" fill="#008a00"/><path d="M1333.48,162.84a12.21,12.21,0,0,1-1.38.66l-.6.23-.65.2-.57.14-.58.11-.54.09-.54,0-.53,0h-.53l-.53,0-.53,0-.54-.07-.55-.09-.57-.12-.59-.17-.6-.2c-.2-.07-.46-.17-.66-.26l-.63-.29-.77-.42-.65-.42a13.67,13.67,0,0,1-1.57-1.29l-.58-.61c-.31-.39-.72-.91-1-1.31l-.46-.75c-.21-.4-.47-.94-.65-1.35l-.31-.86c-.11-.42-.26-1-.34-1.4l-.14-.92c0-.39-.06-.91-.07-1.29l0-.95a12.31,12.31,0,0,1,.44-2.34l.29-.87a10.23,10.23,0,0,1,.81-1.72l.46-.74c.28-.38.67-.89,1-1.25l.57-.6c.29-.25.67-.59,1-.83l.62-.46c.26-.17.61-.39.87-.54l.64-.33c.22-.1.52-.24.75-.33l.6-.23.65-.2.56-.14.58-.11.41-.07-.48.08c-9.28,1.91-9,14.21-1.56,19.18,2.16,1.45,6.49,3.49,11.24.83a4.32,4.32,0,0,1-1.78,2" fill="#008a00"/><path d="M1338,158.42a12.47,12.47,0,0,1-1.44,2l-.58.6c-.28.25-.66.59-1,.83l-.63.46c-.26.17-.6.39-.87.54a4.15,4.15,0,0,0,1.47-1.42l.61-.39a8.32,8.32,0,0,0,2.59-3l-.19.36" fill="#008500"/><path d="M1333.48,162.84a12.21,12.21,0,0,1-1.38.66l-.6.23-.65.2-.57.14-.58.11-.54.09-.54,0-.53,0h-.53l-.53,0-.53,0-.54-.07-.55-.09-.57-.12-.59-.17-.6-.2c-.2-.07-.46-.17-.66-.26l-.63-.29-.77-.42-.65-.42a13.67,13.67,0,0,1-1.57-1.29l-.58-.61c-.31-.39-.72-.91-1-1.31l-.46-.75c-.21-.4-.47-.94-.65-1.35l-.31-.86c-.11-.42-.26-1-.34-1.4l-.14-.92c0-.39-.06-.91-.07-1.29l0-.95a12.31,12.31,0,0,1,.44-2.34l.29-.87a10.23,10.23,0,0,1,.81-1.72l.46-.74c.28-.38.67-.89,1-1.25l.57-.6c.29-.25.67-.59,1-.83l.62-.46c.26-.17.61-.39.87-.54l.64-.33c.22-.1.52-.24.75-.33l.58-.22-.49.18c-8.59,3.87-6.65,16.93,3.06,20.56a10,10,0,0,0,8.54-.62,4.15,4.15,0,0,1-1.47,1.42" fill="#008500"/><path d="M1333.62,149.74c.42,2.48-2.24,4.83-5.1,2.64a3.15,3.15,0,0,1-1-3.41,13.31,13.31,0,0,1,.68-1.15,2.64,2.64,0,0,1,1.4-.82,3.44,3.44,0,0,1,4,2.74" fill="#4f4"/><path d="M1333.47,149.82a4.31,4.31,0,0,1-.15,1.46,10.41,10.41,0,0,1-1,1.27c-1.21.58-2.09,1-3.86-.36a10.66,10.66,0,0,1-.76-1.12,3,3,0,0,1,0-2.09,3,3,0,0,1,2-1.82,3.31,3.31,0,0,1,3.78,2.66" fill="#4bff4b"/><path d="M1333.3,149.9c.26,2.21-2.21,4.22-4.67,2.21a2.82,2.82,0,0,1,1.11-4.79,3.12,3.12,0,0,1,3.56,2.58" fill="#51ff51"/><path d="M1333.14,150a2.34,2.34,0,0,1-.16,1.23c-.53.92-.53.92-1.3,1.3a2.46,2.46,0,0,1-2.83-.41,2.65,2.65,0,0,1,1-4.62,4.21,4.21,0,0,1,1,0,6.34,6.34,0,0,1,1.32.61,2.82,2.82,0,0,1,1.05,1.86" fill="#57ff57"/><path d="M1333,150.05a2.18,2.18,0,0,1-1.33,2.3c-.57.29-.57.29-1.83.16a1.76,1.76,0,0,1-.76-.43A2.43,2.43,0,0,1,1328,150c.19-1.06.23-1.11.32-1.23a4.79,4.79,0,0,1,.79-.83l.76-.3a2,2,0,0,1,.87,0,3.87,3.87,0,0,1,1.19.53,2.68,2.68,0,0,1,1.07,1.86" fill="#5cff5c"/><path d="M1332.73,149.83a2.47,2.47,0,0,1-.5,2,2.83,2.83,0,0,1-1.13.64,2.73,2.73,0,0,1-1.3-.09,3.8,3.8,0,0,1-1.34-1.16,2.71,2.71,0,0,1-.34-1.19s.19-.93.25-1a2.87,2.87,0,0,1,.75-.84,1.39,1.39,0,0,1,.78-.31,3.17,3.17,0,0,1,1.82.46c.62.29.88,1.15,1,1.56" fill="#61ff61"/><path d="M1332.64,150.19a2.58,2.58,0,0,1-.32,1.25,2,2,0,0,1-.74.58c-.15.09-.33.28-.51.28-1.22,0-1.47-.18-1.58-.26a4.34,4.34,0,0,1-1-1,1.94,1.94,0,0,1-.25-1.05,2.08,2.08,0,0,1,.31-1.05,4,4,0,0,1,.57-.65,2.2,2.2,0,0,1,.81-.33,2.75,2.75,0,0,1,1.58.37,2.39,2.39,0,0,1,1.1,1.85" fill="#65ff65"/><path d="M1332.48,150.25a2.21,2.21,0,0,1-.35,1.19,7.25,7.25,0,0,1-1.09.71,2.1,2.1,0,0,1-1.28-.11c-.25-.08-.46-.4-.64-.58a2.13,2.13,0,0,1-.42-.43,1.72,1.72,0,0,1-.28-1,2.79,2.79,0,0,1,.37-1.06,2.54,2.54,0,0,1,.4-.46,2.38,2.38,0,0,1,.82-.34,2.7,2.7,0,0,1,1.34.28c.7.6,1.13,1,1.13,1.84" fill="#6aff6a"/><path d="M1332.31,150.32A1.92,1.92,0,0,1,1331,152a4.68,4.68,0,0,1-1.28-.16,2.14,2.14,0,0,1-.84-.82,2,2,0,0,1-.29-1,2.06,2.06,0,0,1,.4-1.07.92.92,0,0,1,.22-.26,3.28,3.28,0,0,1,.84-.36,2.26,2.26,0,0,1,1,.13,2.45,2.45,0,0,1,1.26,1.9" fill="#6eff6e"/><path d="M1332.14,150.37a1.12,1.12,0,0,1-.17.57,7.61,7.61,0,0,1-1,.91,8.65,8.65,0,0,1-1.28-.24,1.58,1.58,0,0,1-.63-.6,2.14,2.14,0,0,1-.29-1,2.35,2.35,0,0,1,.42-1.08,3.21,3.21,0,0,1,.91-.44,2.06,2.06,0,0,1,.73.11,2.67,2.67,0,0,1,1,.78,2,2,0,0,1,.28,1" fill="#72ff72"/><path d="M1332,150.43a.43.43,0,0,1-.07.25c-.26.31-.56.85-1,1a2.3,2.3,0,0,1-1.27-.26,1,1,0,0,1-.42-.4,2.08,2.08,0,0,1-.29-1,1.73,1.73,0,0,1,.34-.87,1.32,1.32,0,0,1,.86-.47,3.94,3.94,0,0,1,1.13.4c.65.33.67,1.4.67,1.41" fill="#7f7"/><path d="M1331.71,150.14a.87.87,0,0,1,0,.36,1.58,1.58,0,0,1-.87.92c-.37.12-.89-.14-1.25-.26-.09,0-.16-.12-.21-.19s-.56-1-.08-1.58a1.52,1.52,0,0,1,.87-.57,1.9,1.9,0,0,1,1.2.53,1.6,1.6,0,0,1,.29.79" fill="#7aff7a"/><path d="M1331.42,150.59a1.06,1.06,0,0,1-.58.61,1.6,1.6,0,0,1-1.22-.25s-.31-1-.3-1,0-.18.09-.22c.24-.22.56-.59.88-.62a1.29,1.29,0,0,1,1,.45,1.32,1.32,0,0,1,.16,1.06" fill="#7eff7e"/><path d="M1331.07,150.68a.5.5,0,0,1-.28.29.75.75,0,0,1-.6-.11c-.28-.19-.63-.65-.56-1s.47-.5.74-.53a.74.74,0,0,1,.57.27,1.31,1.31,0,0,1,.13,1.06" fill="#82ff82"/><path d="M1330.72,150.7c-.15-.28-.56-.62-.49-.92a.25.25,0,0,1,.21-.16.19.19,0,0,1,.17.08c.17.25.08.7.11,1" fill="#85ff85"/></g></g></g></g></g></g></svg>