<svg xmlns="http://www.w3.org/2000/svg" viewBox="0 0 803.54 279.99"><title>sp</title><g id="Layer_2" data-name="Layer 2"><g id="Layer_3" data-name="Layer 3"><path d="M.47,146.75c2.65-7.64,7.37-14.53,9.71-22.29l3.15-1c.73,2.25.46,2.17,1.85,3.18a108.07,108.07,0,0,1,1.62,21c3.28-1,5.38-3.23,8.51-4.49a67.8,67.8,0,0,0,3.11-12.32c3.34-2.26,3-5,6.65-7.14A64,64,0,0,1,38,135.35l2.79,1.74c1.29.8,10.46-18.44,11.07-20.84L56,115.06a47.49,47.49,0,0,1,5.17,15.5l4.15,1.22c3-3.42,6.14-6.43,7.56-10.89l2.67-.75a55.69,55.69,0,0,1,.81,10.4l3.49,1.06c.83-2.57,1.48-4.59.65-2,4.19-2.66,6-2.94,7.55-7.55,2.52-.8,2.39-.75,3.81-2.63a38.13,38.13,0,0,0,3.81,3.69c.29,2.41.47,4.8.62,7.23,5.9-1.91,7.72-7.58,11-12.58l4.38,1.54a52,52,0,0,1,.91,10.28c4-3.46,5.94-7.89,8.36-12.62l2.82-.48,1.22-1.91,3.08-.39c.95,5.36.73,10.76.73,16.2,3.4-1.62,5.65-4.62,9.16-6.26a12.6,12.6,0,0,1,2.59,4.18l2.37.66c2.84-3.71,6.21-9.81,9.89-12.24.52-4.52.93-8.6,3.19-12.63a21,21,0,0,1,.64,3c1.19.09,7.35,11.23,10,17.6a45.92,45.92,0,0,1,4.59-3.9c2-12.7,7.09-17.82,15.41-27,5.74-.14,8,4,9.88,9.45l4.05.72c3.21-5,6.32-9.63,7.71-15.41l4-1.35c6.74,9.29,5.91,22.22,7.46,33.57l3.17,1.53,1.92-1.25.24-1.49a2.35,2.35,0,0,0-1.12.52l2.35-2c.48-8.82.36-17.64.37-26.46L230.1,91A17.65,17.65,0,0,1,234,99.48c1.88,1.16,2,1.11,2.87,2.61l3.86.51c1.74-7.23,1.85-13.48,5.18-19.88,3.28,7.51,6.56,17,7.54,25.1l3.59,2.91c11.91-9.71,12.79-24.14,12.81-39,6.2,10,10.6,21.12,23.24,24.88,2.88-3.08,6.67-6.53,9.12-10l3.76-.47a17.3,17.3,0,0,1,3.66,6.13l3,.76c1.66-4.08,3.08-7.83,5.74-11.39,1.18,2.42,2.89,4.85,3.75,7.38,1.78.3,3.75,1.1,5.48,1.3l.14-.2c-.79-1.46.34,1.28,3.92,1.68-1.61-1.82-.55-.62,1.16,1.28,4-2.66,6.11-2.51,11.14-2.59,1,1.52,2.1,2.68,3,4.14,1,.13,2.15.33,3.21.39,3.59-4.92,5-9.69,6.65-15.44l3.68-1c1.91,1.32,3.81,2.42,5.79,3.62l2.28-.86c1.9-4.83,3.52-5.44,6.72-9.34,1.23-.15,2.47-.28,3.7-.47A20.92,20.92,0,0,0,382,65.81L385.59,67a151.43,151.43,0,0,0,4.62,20.51c7.29-2,5-7.31,9.92-11.14.3-2.63.43-5.22.56-7.85,1.49-.3,2.9-.52,4.4-.69a27.2,27.2,0,0,0,1.62-7.48,74.48,74.48,0,0,1,1.13,13.83c3.64-2.74,6.25-6.27,10.41-8.13a24.3,24.3,0,0,0,4.72,2.7c.38,1,.73,2,1.14,3l3.64.54c1.17-4.35,2.31-7.78,2.83-12.28a32.49,32.49,0,0,0,3.73,5.87l2.42-.54c2.41-3.85,4.56-7.08,5.92-11.37,2.31,3.73,4.38,7.6,7.29,10.91,4.94-6.76,8.53-14.55,14.31-20.68,4,9.12,8.24,20.12,10,30.05,4.9,2.33,6.72,5.29,12.3,5.8C496.93,64.7,498,56.47,497.68,38.48c3.91,4.78,8.15,8.56,12.62,12.84,3.36-4.26,5.3-9.43,7.81-14.29.66,1.35,1.31,2.71,2,4.06l2.43.4a15.34,15.34,0,0,0,5-7.09c3.12,1.27,4.61,3.2,6,6.38,3.3-4.25,5.72-7.19,7.34-12.18l3.71,1c2.1,4.28,3.66,7.76,4,12.54l3.86,1.31C557.29,36,566,29.74,567.52,20.83a110.49,110.49,0,0,1,2.38,10.91c6,3,8.5,2.37,14.91.87C587.89,25,593.29,17,594.74,9.07a28.25,28.25,0,0,0,4.82-2.51c4.91,2.9,6.36,4.72,12.6,4.83a27.94,27.94,0,0,0,5.28-8.5c.79.07,1.57.14,2.36.19.53,2.45,1.37,4.74,1.94,7.17,5.88,1.49,9-2.58,14.86-4.29.53-1.37,1-2.74,1.58-4.1,3.51,20,.61,41.79,1.6,62A14.51,14.51,0,0,0,644.09,66q.93,2.58,1.87,5.13c1.84-4.23,2.07-7.23,2.15-11.78l3-2.37c.34,2.68.51,5.27.59,8,.64.5,1.26,1,1.91,1.47l.32,2.68c2.13.57,4.82,18.94,5,21.4l1.41,1.09c.91-.54,1.91-.8,2.8-1.34.92-4.31,2.58-8.22,3-12.69,1.34-1.1,2.74-2.37,4.17-3.4.79.48,1.57.95,2.37,1.4A592.56,592.56,0,0,1,677,138.58l1-4.68a17.34,17.34,0,0,1,1.32,5.17c6.55.86,4.51-4.13,8.79-7,.6-2.43.35-3.38,2.42-4.66.34-1.37.67-2.73,1-4.09,1.5-.51,3-1,4.52-1.5a73.54,73.54,0,0,1,3.69,23.75c3.41,2.79,3.76,18.91,3.86,23.34,9.67,10.45-4.36,35.62,7.87,46.93a57.77,57.77,0,0,0,6.92-9.89c6.38,21.69,5.93,49.09,6.44,71.92,3.08,2.05,3.58,2,7,.72,2.65-6.72,4.78-11.95,5.15-19.2,1.24,2.95,2.45,6.93,5.31,8.39q.44,3.06.91,6.1c9.27-17.25,7.82-48,9.85-68.26,2.39,8.64,3.49,18,5.48,27,2.2-4.85,11.58-12.56,12.75-18.28-.94.06,3.87-39.1,6.71-58.47a44.37,44.37,0,0,1,1.12,10.08l1.43,1.12a36.74,36.74,0,0,1,5.93-7.71,17,17,0,0,1,2.44,4.55c6.25-4.87,12.41-18.74,14.15-26.94" fill="none" stroke="#000" stroke-miterlimit="10"/></g></g></svg>