<svg xmlns="http://www.w3.org/2000/svg" viewBox="0 0 2025.12 705.7"><title>sp</title><g id="Layer_2" data-name="Layer 2"><g id="Layer_3" data-name="Layer 3"><path d="M.22,366.82c3.46-10,8.18-19.25,12.68-28.36s8.84-18.14,11.67-27.52a4,4,0,0,1,2.56-2.63L35,305.68h0a3.93,3.93,0,0,1,5,2.5l0,.06.74,2.37c.23.75.46,1.55.63,2a.86.86,0,0,0,.13.28s0,.06.18.2c.31.28.92.74,1.54,1.18a4.07,4.07,0,0,1,1.57,2.47,220.47,220.47,0,0,1,3.38,26.78c.61,8.95.76,17.89.76,26.77l-5.13-3.82a38.81,38.81,0,0,0,9.83-4.92,68.13,68.13,0,0,1,11.23-6.23l-2.31,2.47c3.28-10.09,6.34-20.1,7.64-30.25A4,4,0,0,1,72,324.74l0,0a19.15,19.15,0,0,0,3.78-3.4A42.78,42.78,0,0,0,79,316.66a35,35,0,0,1,4.2-5.53,27.16,27.16,0,0,1,5.7-4.5A4,4,0,0,1,94.35,308a3.54,3.54,0,0,1,.37.79l0,0c3.11,9.65,6.16,19.64,7.47,30.13l-1.86-2.89,3.62,2.25,1.8,1.13.91.56.45.28.22.14h0l-.12-.07-.26-.14a2.78,2.78,0,0,0-.57-.21,3.13,3.13,0,0,0-.55-.09l-.41,0a2.9,2.9,0,0,0-.78.1l-.37.11a3.78,3.78,0,0,0-.41.2l-.11.08h0a4.19,4.19,0,0,0,.36-.39c.33-.38.7-.87,1.06-1.38.73-1,1.45-2.19,2.16-3.35,2.83-4.69,5.46-9.68,8-14.68s5-10.08,7.42-15.18c1.19-2.54,2.36-5.1,3.49-7.66.56-1.28,1.11-2.56,1.64-3.83l.75-1.87c.22-.59.46-1.27.54-1.58v0a4,4,0,0,1,2.76-2.81l10.38-3a4,4,0,0,1,4.64,2,136.73,136.73,0,0,1,8.44,19.48,108.57,108.57,0,0,1,5,20.8l-2.83-3.31L168,326.67l-4.13,1.19c3.76-4.28,7.57-8.29,10.81-12.5a44.09,44.09,0,0,0,7.38-13.45,4,4,0,0,1,2.69-2.62h0l6.7-1.89a4,4,0,0,1,4.94,2.76l.07.29A98.51,98.51,0,0,1,198.23,314c.28,4.49.33,8.93.39,13.3l-2.83-3.77,8.78,2.66-5,2.6,1.78-5.53.45-1.38.22-.69.12-.35,0-.08h0l7.61,2.46h0v.06l0,.17-.9,2.77-6-4.61c2-1.27,4.05-2.48,6-3.65a46.23,46.23,0,0,0,5.29-3.5,14.77,14.77,0,0,0,3.58-4.17,32,32,0,0,0,2.48-5.57v0a4,4,0,0,1,2.56-2.49c1-.3,1.91-.6,2.76-.89a9.87,9.87,0,0,0,1.88-.8,2.35,2.35,0,0,0,.49-.41,10.27,10.27,0,0,0,.71-.82c.54-.68,1.15-1.49,1.76-2.29l0,0a4,4,0,0,1,5.56-.76l.35.29c1.82,1.75,3.27,3.41,4.77,5a29.63,29.63,0,0,0,4.32,3.93l.11.08a3.76,3.76,0,0,1,1.6,2.75l1.57,18.38-5.22-3.56a24.13,24.13,0,0,0,8.05-4.43,36,36,0,0,0,6.41-7.25c3.84-5.53,7-12.05,11.13-18.33a4,4,0,0,1,4.67-1.57l11,3.88a4,4,0,0,1,2.57,2.88,86.16,86.16,0,0,1,1.87,13.48c.3,4.45.37,8.83.51,13.12L283.11,322a55.62,55.62,0,0,0,11.25-13.82c3.16-5.24,5.87-10.95,8.81-16.7a4,4,0,0,1,2.89-2.12l7.1-1.2-2.7,1.79,3.07-4.81a4,4,0,0,1,2.87-1.82l7.72-1a4,4,0,0,1,4.43,3.27,137.45,137.45,0,0,1,1.88,20.9c.16,6.92,0,13.75,0,20.49l-5.71-3.6c3.66-1.73,7.06-4.45,10.68-7.4a60,60,0,0,1,12.36-8.33h0a4,4,0,0,1,4.76,1.1,61,61,0,0,1,4,5.3,27.65,27.65,0,0,1,1.76,3.14c.52,1.07.95,2.13,1.35,3.17l-2.66-2.43,6,1.67L358.77,321c1.91-2.5,3.76-5.2,5.62-7.92s3.74-5.5,5.72-8.25,4.06-5.48,6.38-8.12a42.85,42.85,0,0,1,8.12-7.37l-1.77,2.88a168.73,168.73,0,0,1,2.43-16.71,58.66,58.66,0,0,1,6.08-16.55h0a4,4,0,0,1,7.33.95c.33,1.25.67,2.55,1,3.91s.55,2.77.73,4.17l-3.67-3.47a5.55,5.55,0,0,1,1.13.24,4.85,4.85,0,0,1,.87.37c.31.19.62.39.9.6l.51.45.26.24.19.19a20,20,0,0,1,1.31,1.52c.77,1,1.41,1.89,2.06,2.82,1.26,1.86,2.42,3.72,3.55,5.58,2.25,3.74,4.35,7.5,6.4,11.3s4,7.63,5.92,11.51,3.74,7.8,5.43,11.85L419,309.67c1.81-1.55,3.6-3.27,5.54-5a53.32,53.32,0,0,1,6.43-5.08l-1.76,2.72a118.91,118.91,0,0,1,4.91-20,89.17,89.17,0,0,1,9-18.7,143.11,143.11,0,0,1,12.39-16.27c4.4-5.1,8.91-10,13.37-14.88h0a4,4,0,0,1,2.84-1.29,26.25,26.25,0,0,1,10.78,1.9,23.4,23.4,0,0,1,8.83,6.71,40.61,40.61,0,0,1,5.43,8.78,95.59,95.59,0,0,1,3.64,9l-3.07-2.6,10.18,1.8-4,1.76c4-6.1,7.89-12.08,11.22-18.26A79.84,79.84,0,0,0,522.37,221a4,4,0,0,1,2.6-2.84h0l10.1-3.4a4,4,0,0,1,4.5,1.44,73.39,73.39,0,0,1,10.24,20.63,129.27,129.27,0,0,1,4.83,22c2.05,14.74,2.47,29.37,4.39,43.54l-2.22-3.05,8,3.84-3.9.25,4.83-3.14L564,303l.59-3.73,4.1,4.6c.32,0,.38-.09.22,0a9.27,9.27,0,0,0-.93.6,4,4,0,0,1-4.9-6.27l0,0,5.92-5.09-1.38,2.8c1.18-22,.89-44.08.91-66.29a4,4,0,0,1,3.21-3.9l8.59-1.72a4,4,0,0,1,3.79,1.29h0a42.88,42.88,0,0,1,7,11,67.75,67.75,0,0,1,3.74,12.1l-1.79-2.51,2.1,1.28c.73.45,1.49.9,2.41,1.58a12.12,12.12,0,0,1,2.56,2.65,27.93,27.93,0,0,1,1.52,2.48l-2.95-2,9.68,1.28-4.39,3c2-8.17,3.21-16.64,4.92-25.28a125.64,125.64,0,0,1,3.25-13,80.62,80.62,0,0,1,5.19-12.61,4,4,0,0,1,7.18.25,311.2,311.2,0,0,1,11.78,31.33,190,190,0,0,1,7.49,32.89l-1.45-2.62,9,7.3h-5A74,74,0,0,0,663,255.45a84.91,84.91,0,0,0,9.53-23.63,150.91,150.91,0,0,0,3.85-25.75c.63-8.74.77-17.57.79-26.45a4,4,0,0,1,7.36-2.1c3.94,6.33,7.54,12.76,11.24,19a175.11,175.11,0,0,0,11.82,18,74,74,0,0,0,14.7,14.72,60.24,60.24,0,0,0,18.38,9.13l-4,1.09c4-4.23,8-8.19,11.92-12.24a112.18,112.18,0,0,0,10.66-12.49h0a4,4,0,0,1,2.76-1.65l9.44-1.18h0a4,4,0,0,1,3.52,1.37,63.57,63.57,0,0,1,5.75,7.73,41.28,41.28,0,0,1,4.2,9L782,227.37l7.65,1.9-4.64,2.36c2-4.93,4-10,6.37-15A84,84,0,0,1,800,202.13a4,4,0,0,1,5.57-.8,4.09,4.09,0,0,1,1.19,1.44c1.43,2.91,3.18,5.85,4.9,8.95a62.64,62.64,0,0,1,4.72,10.06l-3.11-2.64a70.69,70.69,0,0,1,7.29,1.8,42.27,42.27,0,0,0,6.26,1.42l-3.72,1.7.34-.5-.21,4.15-.35-.62-.09-.15-.07-.12-.08-.13-.09-.18,0-.1-.06-.14a3.71,3.71,0,0,1-.3-1.52,4,4,0,0,1,.33-1.6A3.88,3.88,0,0,1,824,221.4a4.12,4.12,0,0,1,4.14-.1c1,.73.46.35.65.48a2.39,2.39,0,0,1,.23.22l.37.41a10.58,10.58,0,0,0,.83.8,11,11,0,0,0,2,1.39,13.23,13.23,0,0,0,4.82,1.48l-3.42,6.59-1.72-1.95-.22-.24-.08-.1-.1-.11-.07-.09c0-.05,0-.06-.21-.3-4.48,3.22,4.39-8.75,5.77-5.29a4,4,0,0,1,.47.42l.07.08,0,0,0,0,.11.12.43.49.87,1,3.45,3.86-5.16-.66a50.14,50.14,0,0,1,7-3.91,31.93,31.93,0,0,1,7.93-2.43,57.44,57.44,0,0,1,7.86-.7c2.52-.08,5-.09,7.39-.14a4,4,0,0,1,3.41,1.83c1,1.62,2.27,3.21,3.59,4.91a67.07,67.07,0,0,1,4,5.53l-2.86-1.82c2.82.37,5.42.82,7.82,1l-3.46,1.63a80.14,80.14,0,0,0,9.72-17.73A198.86,198.86,0,0,0,896,198.24a4,4,0,0,1,2.83-2.77l9.25-2.39h0a4,4,0,0,1,3.25.58c4.53,3.14,9.4,6,14.34,8.95l-3.45-.32,5.75-2.14-2.31,2.26a60.93,60.93,0,0,1,3.3-7.08,41.44,41.44,0,0,1,4.55-6.61c1.69-2,3.4-3.79,5-5.55s3.16-3.51,4.66-5.32a4,4,0,0,1,2.59-1.42l9.18-1.15L952.25,177a66.09,66.09,0,0,0,4-6.59,47.31,47.31,0,0,0,2.82-7,4,4,0,0,1,5-2.53h0l9.07,3h0a4,4,0,0,1,2.67,3.13,378.18,378.18,0,0,0,11.49,51l-4.86-2.66a22,22,0,0,0,7.3-3.48,16.91,16.91,0,0,0,4.71-6.27c1.28-2.64,2.44-5.86,4.28-9a29.34,29.34,0,0,1,7.26-8.49l-1.49,2.68c.72-6.41,1.06-12.91,1.37-19.5a4,4,0,0,1,3.19-3.7c3.76-.76,7.58-1.36,11.42-1.77l-3.29,2.55a57.15,57.15,0,0,0,2.52-8.66c.61-2.95,1-6,1.33-9.17a4,4,0,0,1,7.84-.37,133.8,133.8,0,0,1,2.29,17.83c.4,5.93.51,11.82.62,17.63l-6.35-3.09c4.16-3.12,8-7,12.26-10.76a78.51,78.51,0,0,1,6.79-5.54,45.67,45.67,0,0,1,7.87-4.57h0a4,4,0,0,1,3.76.29c4,2.58,7.44,5.1,11,6.38a3.89,3.89,0,0,1,2.34,2.27l0,.06,2.82,7.35-3.07-2.4,9.11,1.34-4.38,2.9c1.38-5.16,2.88-10.22,4.15-15.23a112.62,112.62,0,0,0,2.85-15,4,4,0,0,1,4.39-3.49,4,4,0,0,1,3.1,2.17,81.64,81.64,0,0,0,4.09,7.28c1.48,2.34,3.12,4.59,4.86,6.83l-4-1.44,6-1.35-2.46,1.75c2.87-4.59,5.76-9.07,8.28-13.62a76.45,76.45,0,0,0,6.18-14.06,4,4,0,0,1,5-2.58,3.89,3.89,0,0,1,2.17,1.69c3,4.75,5.69,9.52,8.58,14.08a99.81,99.81,0,0,0,9.36,12.83l-6.19.28c6.07-8.31,11.37-17.35,17-26.35s11.72-18,19.26-26a4,4,0,0,1,6.51,1.12c5.42,12.23,10.46,24.65,14.85,37.35a258.64,258.64,0,0,1,10.48,39.08l-2.21-2.9a73.88,73.88,0,0,1,8,4.47c2.53,1.61,4.89,3.27,7.2,4.71a34.58,34.58,0,0,0,7,3.45,31.23,31.23,0,0,0,7.47,1.59l-3.64,1.72a223.75,223.75,0,0,0,14-23.25,117.7,117.7,0,0,0,9.52-24.92,139,139,0,0,0,3.62-26.59c.46-9,.41-18.19.26-27.36h0a4,4,0,0,1,7-2.56,204.66,204.66,0,0,0,15.06,16.32c5.31,5.24,10.84,10.36,16.32,15.6l-5.84.41a97.08,97.08,0,0,0,10.22-16.8c3-6,5.78-12.27,9-18.49a4,4,0,0,1,5.34-1.7,4,4,0,0,1,1.74,1.79h0l5,10.2-2.91-2.16,6.1,1-3.26.93a45.19,45.19,0,0,0,7-7.34,34.46,34.46,0,0,0,4.45-8.82h0a4,4,0,0,1,5-2.41l.18.07a32.62,32.62,0,0,1,5.72,3,25.74,25.74,0,0,1,5,4.37,32.51,32.51,0,0,1,3.72,5.29,55.43,55.43,0,0,1,2.67,5.5l-6.78-.88c3.69-4.76,7.39-9.39,10.51-14.18a63,63,0,0,0,7.3-15.24,3.94,3.94,0,0,1,4.75-2.61h0l9.31,2.44h0a4,4,0,0,1,2.55,2.08,143.93,143.93,0,0,1,6.88,15.7,68.13,68.13,0,0,1,3.68,17.26l-2.67-3.43,9.67,3.26-4.55,1.59a136.87,136.87,0,0,1,10.91-14c3.81-4.4,7.66-8.65,11.26-13a97.31,97.31,0,0,0,9.65-13.46A44.34,44.34,0,0,0,1425.25,51a4,4,0,0,1,7.74-.31c2.27,9,4.66,18.26,6.07,27.81l-2.14-3a58.54,58.54,0,0,0,8.33,3.49,27.87,27.87,0,0,0,8.36,1.41,45.09,45.09,0,0,0,8.81-1c3-.59,6.15-1.33,9.29-2.06L1469,79.75c4.2-10.23,9.37-19.71,14-29.26,2.32-4.78,4.52-9.56,6.39-14.41a83.67,83.67,0,0,0,4.35-14.71h0a4,4,0,0,1,2.33-2.9,66.53,66.53,0,0,0,11.45-6,4,4,0,0,1,4.23-.13c2.54,1.51,5,3.09,7.44,4.62a63,63,0,0,0,7.06,4,28.75,28.75,0,0,0,7.26,2.25,51.58,51.58,0,0,0,8,.7l-3.11,1.44a110.1,110.1,0,0,0,7.33-9.73,50.55,50.55,0,0,0,5.27-10.46,4,4,0,0,1,4-2.59h0l5.83.46h.08a3.93,3.93,0,0,1,3.54,3.1c1.23,5.75,3.37,11.59,4.87,18l-2.88-2.93a20.71,20.71,0,0,0,8.27.44,30.56,30.56,0,0,0,8.31-2.84c2.83-1.36,5.75-3,8.86-4.47a64.17,64.17,0,0,1,9.86-3.88l-2.6,2.39,4-10.33a4,4,0,0,1,7.58.72v0a308.51,308.51,0,0,1,4.07,39.31c.59,13.13.58,26.23.38,39.28-.4,26.09-1.6,52.06-.36,77.81l-1.66-3a30.18,30.18,0,0,0,4.58,2.7,49.76,49.76,0,0,0,5.21,2,3.93,3.93,0,0,1,2.46,2.38v0l4.68,12.87-7.32-.21a55.89,55.89,0,0,0,4.08-13.55,105.57,105.57,0,0,0,1-14.56h0a3.94,3.94,0,0,1,1.5-3l7.59-6a3.92,3.92,0,0,1,5.53.66,3.86,3.86,0,0,1,.82,1.92v0a203.64,203.64,0,0,1,1.51,20.43l-1.52-3,4.73,3.64.07.05a4,4,0,0,1,1.51,2.67l.79,6.73-2.91-3.35a5.7,5.7,0,0,1,2.45,1.42c.24.23.42.44.61.66l.45.6a14.15,14.15,0,0,1,1.18,2.06,35,35,0,0,1,1.47,3.66c.81,2.38,1.46,4.7,2,7,1.17,4.64,2.12,9.25,3,13.87s1.67,9.24,2.39,13.88q.55,3.48,1,7l.47,3.51c.14,1.2.29,2.32.39,3.68l-1.52-2.84,3.53,2.73-4.43-.27a30.38,30.38,0,0,1,4-1.92,22.8,22.8,0,0,0,3-1.42l-1.8,2.55c1.19-5.59,2.86-10.89,4.3-16.07A83.43,83.43,0,0,0,1673,193.8a4,4,0,0,1,1.43-2.72c3.38-2.76,6.76-5.86,10.66-8.7a3.92,3.92,0,0,1,4.3-.21l0,0,5.88,3.46.07,0a4,4,0,0,1,1.91,2.89c6.85,52.76,9.75,105.88,10.94,158.93l-7.8-.69,2.38-11.79a3.94,3.94,0,0,1,7.42-.91v0a35.16,35.16,0,0,1,2.43,7.16c.55,2.4.89,4.72,1.22,6.93l-3.38-3.32a14.53,14.53,0,0,0,5.91-.18,4.36,4.36,0,0,0,1.78-1,9.33,9.33,0,0,0,1.56-2.14c1-1.89,2.1-4.47,3.71-7a22.58,22.58,0,0,1,6.43-6.64l-1.63,2.33c.25-1,.47-2.07.7-3.21a26.79,26.79,0,0,1,1-3.89,11.68,11.68,0,0,1,2.67-4.3,18.28,18.28,0,0,1,3.48-2.72l-1.76,2.43,2.56-10.36a3.87,3.87,0,0,1,2.52-2.74h0l11.39-3.76a3.93,3.93,0,0,1,5,2.5h0a183.58,183.58,0,0,1,7.24,30.1,229.56,229.56,0,0,1,2.22,30.77l-1.45-3a14.53,14.53,0,0,1,3.25,4.11,28.81,28.81,0,0,1,1.77,4A58.05,58.05,0,0,1,1771,378a146.51,146.51,0,0,1,2.3,15.32c1,10.16,1.45,20.32,1.67,30.41l-1-2.59a36.48,36.48,0,0,1,8.06,15.16,67,67,0,0,1,2.13,16.23c.21,10.7-1,21.05-1.8,31.26s-1.51,20.33-.31,30a50.14,50.14,0,0,0,3.59,13.81,33.11,33.11,0,0,0,7.9,11.24l-5.68.33c3.23-3.77,6.29-7.65,9.11-11.68a145.57,145.57,0,0,0,7.83-12.55h0a3.94,3.94,0,0,1,7.22.82,321.13,321.13,0,0,1,9.42,45.07c2.14,15.16,3.48,30.39,4.4,45.61,1.82,30.44,1.88,60.85,2.54,91.12l-1.76-3.21c1.28.85,2.56,1.68,3.74,2.33a8,8,0,0,0,2.92,1.09,9.17,9.17,0,0,0,3.18-.52c1.32-.41,2.77-1,4.23-1.49L1838.4,698c3.07-7.8,6.17-15.49,8.5-23.27a99.21,99.21,0,0,0,4.17-23.75h0a4,4,0,0,1,7.61-1.33c1.69,4.07,3.09,8,4.89,11.41s4,6.36,6.62,7.69a3.91,3.91,0,0,1,2.1,2.9v.07l2.27,15.27-7.4-1.26c6.52-12.33,10.45-26.17,13.25-40.17a382.57,382.57,0,0,0,5.61-42.78c1.2-14.4,1.9-28.89,2.61-43.41s1.39-29.1,2.82-43.73a4,4,0,0,1,7.78-.68v0c3.12,11.32,5.31,22.77,7.38,34.14s4,22.7,6.45,33.81l-7.5-.77a42.73,42.73,0,0,1,4-6.68l1.09-1.51,1.13-1.45c.74-1,1.5-1.91,2.27-2.82,3.05-3.71,6.16-7.24,9.18-10.78s5.93-7.1,8.48-10.77,4.76-7.5,5.58-11.08l4.12,4.77a4.2,4.2,0,0,1-1.69-.26,3.91,3.91,0,0,1-1.11-.65,4,4,0,0,1-1-1.11,5.51,5.51,0,0,1-.31-.65l-.12-.34c-.08-.26-.1-.38-.13-.51s-.05-.27-.06-.35c-.06-.42-.08-.67-.1-1,0-.52,0-1,0-1.4,0-.86,0-1.67.07-2.48.08-1.6.18-3.17.3-4.73.23-3.12.51-6.21.8-9.3q.88-9.27,1.92-18.48,2-18.43,4.33-36.82c3-24.52,6.22-49,9.79-73.49a4,4,0,0,1,7.81-.42h0a84.49,84.49,0,0,1,2.24,13.2c.41,4.41.56,8.75.7,13l-1.54-3,3.59,2.8-5.9,1.14a96.43,96.43,0,0,1,7.08-10.61,97.53,97.53,0,0,1,8.44-9.57,4,4,0,0,1,5.64,0,5.46,5.46,0,0,1,.39.45,46.25,46.25,0,0,1,3.83,6,56.18,56.18,0,0,1,2.83,6.4l-6.19-1.73c4.48-3.6,8.38-8.49,11.85-13.62a143.51,143.51,0,0,0,9.37-16.34,184.7,184.7,0,0,0,7.49-17.43,138.3,138.3,0,0,0,5.41-18v-.05a4,4,0,0,1,7.81,1.71h0a143,143,0,0,1-5.74,19.11,187.12,187.12,0,0,1-7.81,18.19,151.66,151.66,0,0,1-9.91,17.28c-3.78,5.53-8,10.92-13.57,15.46a4,4,0,0,1-5.54-.59,3.78,3.78,0,0,1-.61-1.06l0-.08a48.1,48.1,0,0,0-2.41-5.51,39.59,39.59,0,0,0-3.19-5l6,.44A87.33,87.33,0,0,0,1968,421.07a4,4,0,0,1-5.46,1.45,3.58,3.58,0,0,1-.45-.31l-3.59-2.8a4,4,0,0,1-1.53-3c-.13-4.24-.28-8.42-.67-12.5a76.64,76.64,0,0,0-2-12l7.81-.41c-3.55,24.37-6.74,48.84-9.77,73.31q-2.26,18.34-4.32,36.72c-.68,6.12-1.33,12.24-1.91,18.35-.29,3-.56,6.11-.79,9.14-.11,1.51-.21,3-.28,4.5,0,.74-.06,1.47-.06,2.15,0,.34,0,.67,0,.92l0,.2v-.07l-.06-.23-.08-.2a3.11,3.11,0,0,0-.25-.52c0-.06-.09-.15-.29-.42a4,4,0,0,0-.58-.58,4.21,4.21,0,0,0-1-.61,4,4,0,0,0-1.61-.25l4.12,4.78-.57,2a12.53,12.53,0,0,1-.67,2,32,32,0,0,1-1.65,3.6,38.19,38.19,0,0,1-1.9,3.32c-.67,1.06-1.32,2.14-2,3.12-2.82,4-5.88,7.76-9,11.37s-6.17,7.13-9.1,10.68c-.74.89-1.45,1.78-2.14,2.67l-1,1.33-1,1.35a36.57,36.57,0,0,0-3.27,5.34l-.08.16a4,4,0,0,1-7.42-.93c-2.54-11.4-4.47-22.82-6.52-34.13s-4.21-22.54-7.21-33.45l7.78-.66c-1.4,14.32-2.07,28.81-2.79,43.33s-1.43,29.09-2.63,43.67a393.3,393.3,0,0,1-5.75,43.68,199.57,199.57,0,0,1-5.46,21.56,125,125,0,0,1-8.59,20.81h0a4,4,0,0,1-5.34,1.64,4,4,0,0,1-2.06-2.91l-2.28-15.39,2.11,3a20,20,0,0,1-6.11-5,34.21,34.21,0,0,1-3.92-6c-2.13-4.1-3.58-8.24-5.17-12l7.61-1.34a107,107,0,0,1-4.49,25.61c-2.48,8.28-5.67,16.13-8.72,23.91h0a4,4,0,0,1-2.28,2.24c-1.51.57-3,1.14-4.74,1.67a16.62,16.62,0,0,1-6.17.83,13.45,13.45,0,0,1-3.32-.79,18.08,18.08,0,0,1-2.68-1.24c-1.6-.88-3-1.79-4.33-2.69a3.91,3.91,0,0,1-1.77-3.16v0c-.66-30.39-.71-60.69-2.52-90.83-.91-15.07-2.23-30.09-4.33-45a312.84,312.84,0,0,0-9.17-44l7.23.81a151.11,151.11,0,0,1-8.26,13.22c-3,4.27-6.21,8.36-9.57,12.29a4,4,0,0,1-5.57.43l-.08-.08,0,0a41.11,41.11,0,0,1-9.77-13.86,57.69,57.69,0,0,1-4.18-16c-1.33-10.8-.56-21.36.27-31.67s2-20.5,1.78-30.42a59.48,59.48,0,0,0-1.84-14.34,28.7,28.7,0,0,0-6.26-11.89l0,0a4,4,0,0,1-1-2.56c-.22-10-.64-19.95-1.64-29.78a138.26,138.26,0,0,0-2.16-14.48,52.88,52.88,0,0,0-1.86-6.73,19.91,19.91,0,0,0-1.27-2.89,7.39,7.39,0,0,0-1.34-1.82l0,0a4,4,0,0,1-1.42-3,221.71,221.71,0,0,0-2.13-29.7,176.81,176.81,0,0,0-6.94-28.82l5,2.52L1742,312.94l2.57-2.76L1742,320.42a4,4,0,0,1-1.74,2.42h0a10.59,10.59,0,0,0-2,1.49,3.71,3.71,0,0,0-.93,1.5,21.78,21.78,0,0,0-.68,2.78c-.22,1.12-.47,2.32-.77,3.52a3.88,3.88,0,0,1-1.59,2.31l0,0a14.45,14.45,0,0,0-4.18,4.34c-1.17,1.8-2.06,4-3.47,6.6a16.61,16.61,0,0,1-3,4,12.2,12.2,0,0,1-4.8,2.81,21.86,21.86,0,0,1-9.34.49,3.86,3.86,0,0,1-3.37-3.26v-.07c-.34-2.22-.65-4.35-1.11-6.33a27,27,0,0,0-1.89-5.58l7.44-.9-2.38,11.79a3.95,3.95,0,0,1-7.81-.69c-1.19-52.88-4.08-105.73-10.89-158.09l2,2.93-6-3.56,4.33-.2c-3.4,2.47-6.68,5.47-10.28,8.42l1.43-2.72a90.83,90.83,0,0,1-3.33,16.78c-1.49,5.35-3.1,10.48-4.19,15.6a3.94,3.94,0,0,1-1.8,2.54,29.39,29.39,0,0,1-4,2,24.47,24.47,0,0,0-3,1.42,3.92,3.92,0,0,1-4.42-.26h0l-3.52-2.74A3.92,3.92,0,0,1,1655,227v0c-.08-1-.22-2.15-.35-3.26l-.45-3.4q-.48-3.42-1-6.83c-.72-4.56-1.49-9.11-2.35-13.62s-1.8-9-2.9-13.4c-.56-2.19-1.16-4.35-1.86-6.38a26.1,26.1,0,0,0-1.12-2.81,7.54,7.54,0,0,0-.54-1l-.07-.1,0,0a2.05,2.05,0,0,0,1,.51l-2.91-3.36-.79-6.73,1.58,2.72-4.9-3.77a3.91,3.91,0,0,1-1.52-3v-.05c-.18-6.59-.62-13.14-1.45-19.64l6.35,2.61-7.57,6,1.5-3a112.79,112.79,0,0,1-1.09,15.68,64,64,0,0,1-4.64,15.44v0a3.93,3.93,0,0,1-7.31-.23l-4.71-12.92,2.47,2.41a55.32,55.32,0,0,1-6-2.33,36.25,36.25,0,0,1-5.81-3.4h0a4,4,0,0,1-1.66-3c-1.26-26.27,0-52.38.35-78.32.2-13,.21-25.92-.37-38.8a303.79,303.79,0,0,0-4-38.31l7.57.74-3.94,10.31a4,4,0,0,1-2.57,2.37h0a57.15,57.15,0,0,0-8.62,3.41c-2.86,1.38-5.75,3-8.9,4.48a37.79,37.79,0,0,1-10.46,3.52,28.79,28.79,0,0,1-11.45-.58,4,4,0,0,1-2.88-2.94c-1.34-5.75-3.5-11.65-4.9-18.1l3.62,3.11-6-.47,4-2.58A59,59,0,0,1,1552.27,20a119.24,119.24,0,0,1-7.86,10.45l0,0a4,4,0,0,1-3.1,1.42,61.19,61.19,0,0,1-9.23-.82,36.78,36.78,0,0,1-9.2-2.87,69.49,69.49,0,0,1-7.95-4.51c-2.46-1.56-4.83-3.07-7.25-4.5l4.23-.13a74.56,74.56,0,0,1-12.76,6.68l2.33-2.91a91.94,91.94,0,0,1-4.75,16.12c-2,5.16-4.29,10.13-6.65,15-4.72,9.75-9.83,19.15-13.78,28.79h0a4,4,0,0,1-2.76,2.35c-3.14.73-6.31,1.49-9.6,2.13a52.66,52.66,0,0,1-10.39,1.13,36.58,36.58,0,0,1-10.66-1.78,67.23,67.23,0,0,1-9.5-4,3.91,3.91,0,0,1-2.13-2.91v0c-1.32-9-3.63-17.94-5.92-27l7.75-.31a52.43,52.43,0,0,1-6.5,17.41,105.42,105.42,0,0,1-10.42,14.58c-3.75,4.52-7.64,8.8-11.36,13.11a129.74,129.74,0,0,0-10.29,13.19v0a3.93,3.93,0,0,1-4.55,1.56l-9.72-3.28a3.94,3.94,0,0,1-2.67-3.42h0a59.91,59.91,0,0,0-3.27-15.27,134.83,134.83,0,0,0-6.51-14.83l2.56,2.08L1361,75l4.78-2.61a73.61,73.61,0,0,1-3.52,8.84,74.25,74.25,0,0,1-4.67,8.27c-3.43,5.26-7.24,10-10.89,14.72a4,4,0,0,1-5.55.71,3.83,3.83,0,0,1-1.21-1.57l0,0a31.32,31.32,0,0,0-5-8.63,20.06,20.06,0,0,0-7.77-5.28l5.22-2.35a42.59,42.59,0,0,1-5.5,10.81,52.9,52.9,0,0,1-8.17,8.67,4,4,0,0,1-3.25.93l-6.1-1h0a4,4,0,0,1-2.88-2.15l-5-10.24,7.08.09c-3.07,5.94-5.84,12.17-9,18.4a104.75,104.75,0,0,1-11.08,18.16,4,4,0,0,1-5.56.66l-.29-.25c-5.43-5.19-11-10.33-16.42-15.69a213.43,213.43,0,0,1-15.63-17l7-2.58c.15,9.25.21,18.55-.27,27.91a147.23,147.23,0,0,1-3.84,28.09,125.24,125.24,0,0,1-10.15,26.61,230.55,230.55,0,0,1-14.48,24.1,3.93,3.93,0,0,1-3.64,1.72,39.66,39.66,0,0,1-9.39-2,42.85,42.85,0,0,1-8.5-4.2c-2.58-1.61-4.93-3.27-7.27-4.76a66.7,66.7,0,0,0-7.1-4,4,4,0,0,1-2.2-2.9,250.53,250.53,0,0,0-10.17-37.85c-4.29-12.43-9.25-24.66-14.6-36.73l6.51,1.12c-7,7.37-12.75,15.94-18.31,24.79s-11,18-17.33,26.8a4,4,0,0,1-5.54.87,5.15,5.15,0,0,1-.64-.59,107.87,107.87,0,0,1-10.11-13.83c-3-4.75-5.75-9.53-8.61-14.14l7.15-.89a84.57,84.57,0,0,1-6.79,15.5c-2.71,4.88-5.67,9.46-8.51,14v0a4,4,0,0,1-2.45,1.74l-6.13,1.37a4,4,0,0,1-4-1.43h0c-1.85-2.37-3.65-4.85-5.29-7.44a87.58,87.58,0,0,1-4.5-8l7.5-1.32a122.64,122.64,0,0,1-3,16.08c-1.33,5.24-2.84,10.31-4.19,15.35v0a3.93,3.93,0,0,1-4.37,2.87l-9.19-1.35-.1,0a3.79,3.79,0,0,1-3-2.38l-2.91-7.6,2.36,2.33a37.26,37.26,0,0,1-6.84-3.39c-2.07-1.27-4-2.59-5.81-3.77l3.77.28A49.15,49.15,0,0,0,1043,177.7c-4,3.6-8.06,7.64-12.79,11.19a4,4,0,0,1-5.56-.78,4,4,0,0,1-.8-2.31c-.11-5.82-.22-11.58-.6-17.26a124.35,124.35,0,0,0-2.15-16.78l7.84-.37c-.35,3.25-.76,6.58-1.45,9.93a64.88,64.88,0,0,1-2.88,9.87h0a4,4,0,0,1-3.28,2.54c-3.6.38-7.16.94-10.72,1.66l3.19-3.71c-.31,6.6-.66,13.29-1.41,20a4,4,0,0,1-1.45,2.65l0,0a21.32,21.32,0,0,0-5.28,6.19c-1.43,2.44-2.49,5.34-4,8.54a26.56,26.56,0,0,1-1.27,2.4l-.72,1.21c-.26.4-.56.79-.84,1.19s-.56.79-.88,1.16l-1,1.09a16.61,16.61,0,0,1-2.19,2A30,30,0,0,1,984.59,223a3.88,3.88,0,0,1-4.85-2.6l0-.06c-2.62-8.53-4.86-17.17-6.78-25.87s-3.53-17.44-5-26.18l2.69,3.13-9.12-3,5-2.53A57.15,57.15,0,0,1,963.3,174a76.81,76.81,0,0,1-4.42,7.37l0,.07a3.78,3.78,0,0,1-2.68,1.66l-9.39,1.18,2.59-1.42c-1.6,1.94-3.27,3.83-5,5.65s-3.33,3.56-4.77,5.27a33.81,33.81,0,0,0-3.7,5.38,52.89,52.89,0,0,0-2.85,6.12v0a4,4,0,0,1-2.31,2.25L925,209.72a4,4,0,0,1-3.45-.32c-4.83-2.93-9.87-5.84-14.74-9.21l3.27.58-9.27,2.4,2.83-2.77A206.55,206.55,0,0,1,897,221a88.58,88.58,0,0,1-10.67,19.45v0a4,4,0,0,1-3.45,1.61c-3-.19-5.77-.69-8.34-1a4,4,0,0,1-2.85-1.82,60,60,0,0,0-3.57-4.88c-1.32-1.7-2.72-3.51-4-5.5l3.4,1.82c-4.91.11-9.8,0-14,.72a24.23,24.23,0,0,0-6,1.86,41.45,41.45,0,0,0-5.82,3.28h0a4,4,0,0,1-5.15-.68L833,232l-.86-1-.43-.48-.1-.11,0,0,0,0,.07.08a5.23,5.23,0,0,0,.47.41c1.37,3.46,10.24-8.52,5.75-5.29-.15-.24-.17-.25-.21-.31l-.07-.09-.07-.09s0,0,0,0l.21.24,1.72,1.94a4,4,0,0,1-3.39,6.59h0a21.07,21.07,0,0,1-7.73-2.39,19.78,19.78,0,0,1-3.42-2.35,15.52,15.52,0,0,1-1.54-1.5l-.18-.21-.08-.09,0,0,.1.11.21.2c.19.12-.4-.25.65.47a4.08,4.08,0,0,0,4.13-.1,3.88,3.88,0,0,0,1.49-1.75,4,4,0,0,0,.34-1.6,4.1,4.1,0,0,0-.3-1.51l-.06-.13,0-.09-.08-.15s0-.07,0-.05l0,.07.12.2.46.82A3.9,3.9,0,0,1,830,228l0,0-.35.51v0a3.94,3.94,0,0,1-3.71,1.67,49.46,49.46,0,0,1-7.53-1.66,65.25,65.25,0,0,0-6.44-1.62,4,4,0,0,1-3.11-2.64,55.28,55.28,0,0,0-4.14-8.76c-1.65-3-3.46-6-5.09-9.31l6.76.63A75,75,0,0,0,798.61,220c-2.22,4.68-4.15,9.61-6.19,14.6h0a4,4,0,0,1-4.64,2.35l-7.67-1.91a4,4,0,0,1-2.82-2.63,33.55,33.55,0,0,0-3.39-7.32,55.64,55.64,0,0,0-5-6.75l3.52,1.37-9.45,1.18,2.76-1.66a119.78,119.78,0,0,1-11.43,13.42c-4,4.16-8.06,8.13-11.86,12.18h0a4,4,0,0,1-4,1.08,68.33,68.33,0,0,1-20.82-10.35,82.12,82.12,0,0,1-16.3-16.27,183.75,183.75,0,0,1-12.36-18.76c-3.77-6.37-7.34-12.74-11.15-18.86l7.36-2.1c0,9-.15,18-.81,27a159.27,159.27,0,0,1-4.06,27.1,93.09,93.09,0,0,1-10.43,25.8,82,82,0,0,1-18.37,21.12,4,4,0,0,1-5,0l-9-7.31a4,4,0,0,1-1.45-2.59v0a182.8,182.8,0,0,0-7.18-31.47,306.34,306.34,0,0,0-11.47-30.52l7.18.24a70.72,70.72,0,0,0-4.66,11.34,112.75,112.75,0,0,0-3,12.14c-1.66,8.3-2.9,17-5,25.59h0a4,4,0,0,1-4.38,3l-9.7-1.28a4,4,0,0,1-2.93-2v0c-.38-.67-.76-1.31-1.08-1.76a3.79,3.79,0,0,0-.87-.91c-.41-.31-1.07-.72-1.75-1.14l-2.14-1.3a4,4,0,0,1-1.79-2.47v0a60.4,60.4,0,0,0-3.27-10.67,35,35,0,0,0-5.75-9l3.8,1.3-8.6,1.72,3.2-3.91c0,22.13.28,44.39-.92,66.71a4,4,0,0,1-1.38,2.81l-5.92,5.1L563.4,298a16.12,16.12,0,0,1,1.73-1.09,7.38,7.38,0,0,1,3.2-.92,4,4,0,0,1,4.14,3.79,3.35,3.35,0,0,1,0,.78v0l-.59,3.74a4.05,4.05,0,0,1-1.77,2.72l-4.83,3.14a4,4,0,0,1-3.9.26l-8-3.85h0a4,4,0,0,1-2.21-3.06c-2-14.74-2.4-29.34-4.39-43.5a121.27,121.27,0,0,0-4.51-20.66,65.86,65.86,0,0,0-9.11-18.42l4.5,1.44-10.11,3.4,2.6-2.85A87.5,87.5,0,0,1,521.76,244c-3.56,6.6-7.61,12.75-11.55,18.82a4,4,0,0,1-4,1.76L496,262.82a4,4,0,0,1-3.06-2.59h0c-1-2.86-2.09-5.65-3.33-8.27a32.58,32.58,0,0,0-4.33-7,15.21,15.21,0,0,0-5.85-4.5,18.29,18.29,0,0,0-7.45-1.28l2.85-1.3c-4.47,4.92-9,9.77-13.22,14.72a133.42,133.42,0,0,0-11.71,15.35,81.42,81.42,0,0,0-8.24,17,110.21,110.21,0,0,0-4.57,18.61v0a4,4,0,0,1-1.76,2.68c-3.72,2.39-7.08,6-11.13,9.48a4,4,0,0,1-5.62-.41,4.15,4.15,0,0,1-.65-1.05l0,0c-1.59-3.81-3.38-7.63-5.22-11.4s-3.79-7.53-5.79-11.24-4.06-7.39-6.21-11c-1.08-1.78-2.18-3.55-3.31-5.21-.57-.82-1.14-1.65-1.71-2.35-.27-.35-.56-.69-.77-.91l-.09-.09,0,0a.6.6,0,0,1-.08-.08.61.61,0,0,0,.23.15s.27.15.5.22a2.5,2.5,0,0,0,.75.12L392.48,269c-.15-1.17-.35-2.3-.61-3.46s-.57-2.37-.9-3.61l7.35.94a50.55,50.55,0,0,0-5.25,14.32c-1.09,5.1-1.67,10.46-2.3,15.94A4,4,0,0,1,389,296l0,0a35.47,35.47,0,0,0-6.52,6c-2.06,2.34-4,4.88-5.89,7.51s-3.73,5.34-5.6,8.08-3.77,5.52-5.88,8.28a4,4,0,0,1-4.22,1.43h0l-6-1.66a4,4,0,0,1-2.65-2.4v0a24.84,24.84,0,0,0-2.36-4.82,55,55,0,0,0-3.5-4.58l4.78,1.09a52.88,52.88,0,0,0-10.71,7.3c-1.8,1.46-3.67,3-5.69,4.44a42.94,42.94,0,0,1-6.59,4,4,4,0,0,1-5.32-1.89,3.88,3.88,0,0,1-.39-1.71c0-6.86.13-13.63,0-20.31A129.26,129.26,0,0,0,320.68,287l4.44,3.26-7.73,1,2.87-1.81-3.07,4.81a4,4,0,0,1-2.7,1.79l-7.09,1.2,2.89-2.12c-2.88,5.62-5.65,11.47-9.08,17.18a73.83,73.83,0,0,1-5.74,8.32,57.36,57.36,0,0,1-7.12,7.42,4,4,0,0,1-6.61-2.89c-.28-8.72-.35-17.17-2.19-25.08l2.57,2.88-11-3.88,4.67-1.56c-1.89,2.85-3.63,5.9-5.43,9s-3.64,6.33-5.82,9.47a43.66,43.66,0,0,1-7.85,8.83A32.4,32.4,0,0,1,246,330.67a4,4,0,0,1-5-2.58,4.25,4.25,0,0,1-.18-.86v-.11l-1.53-17.95,1.71,2.84a37.55,37.55,0,0,1-5.58-5c-1.59-1.66-3.09-3.34-4.48-4.67l5.93-.49c-.6.79-1.19,1.58-1.9,2.47a16.62,16.62,0,0,1-1.27,1.44,10.55,10.55,0,0,1-1.82,1.5,16.71,16.71,0,0,1-3.61,1.64c-1,.35-2,.65-2.95,1l2.57-2.51a39.39,39.39,0,0,1-3.17,7,22.88,22.88,0,0,1-5.4,6.28,52.73,52.73,0,0,1-6.23,4.16c-2,1.2-3.94,2.35-5.83,3.55h0a4,4,0,0,1-5.52-1.25,4.06,4.06,0,0,1-.42-3.36l.9-2.77.05-.17v-.07h0l7.61,2.47h0l0,.09-.12.34-.22.69-.45,1.38-1.78,5.53a4,4,0,0,1-5,2.6l-8.78-2.66h0a4,4,0,0,1-2.83-3.77c-.12-8.76-.26-17.27-1.95-25.39l5,3L187,307l2.73-2.63a47.2,47.2,0,0,1-3.68,8.42,62.85,62.85,0,0,1-5,7.46c-3.6,4.67-7.53,8.78-11.15,12.91a4,4,0,0,1-4.13,1.2l-10.43-3.08a4,4,0,0,1-2.83-3.31,101.38,101.38,0,0,0-4.64-19.26,130,130,0,0,0-8-18.35l4.64,2-10.38,3,2.77-2.86a23,23,0,0,1-.83,2.45l-.83,2.08c-.56,1.36-1.13,2.68-1.71,4-1.16,2.64-2.35,5.24-3.57,7.83q-3.64,7.77-7.53,15.42c-2.62,5.11-5.28,10.17-8.31,15.2-.77,1.26-1.57,2.52-2.46,3.8-.46.64-.94,1.29-1.54,2a12.42,12.42,0,0,1-1.1,1.15l-.42.34-.23.18-.33.21a4.59,4.59,0,0,1-.88.45,4.48,4.48,0,0,1-.62.2,4.54,4.54,0,0,1-1,.13,3.35,3.35,0,0,1-1.22-.15,4,4,0,0,1-.69-.25l-.33-.16-.17-.1-.23-.14-.45-.28-.91-.57-1.8-1.12-3.62-2.25h0A4,4,0,0,1,94.28,340c-1.18-9.63-4-19.1-7.14-28.68L93,313.5a19.08,19.08,0,0,0-4,3.14A27.78,27.78,0,0,0,85.72,321a47.62,47.62,0,0,1-3.86,5.48,27,27,0,0,1-5.39,4.86l1.72-2.79c-1.43,11-4.67,21.53-8,31.7h0a4,4,0,0,1-2.31,2.45A60.79,60.79,0,0,0,58,368.25c-1.73,1.1-3.55,2.22-5.52,3.24a36.4,36.4,0,0,1-6.29,2.58,4,4,0,0,1-5-2.67,4.11,4.11,0,0,1-.17-1.15c0-8.79-.15-17.54-.74-26.23A210,210,0,0,0,37,318.21l1.57,2.47a27.37,27.37,0,0,1-2.23-1.76A8.68,8.68,0,0,1,34,315.48c-.41-1.07-.6-1.81-.84-2.58l-.68-2.2,5,2.55-7.91,2.62,2.55-2.63C29.12,323.42,24.56,332.83,20,342S11,360.12,7.74,369.42a4,4,0,1,1-7.52-2.6Z"/></g></g></svg>