<svg xmlns="http://www.w3.org/2000/svg" viewBox="0 0 1562.14 1402.99">
    <title>sp500</title>
                <polygon points="193.69 474.63 197.84 420.96 188.61 426.32 193.69 474.63" fill="#b5b5b5" />
                <polygon points="18.6 73.94 19.79 65.74 0 77.24 6.31 81.08 18.6 73.94" fill="#bebebe" />
                <polygon points="11.99 83.55 17.77 79.7 18.6 73.94 6.31 81.08 11.99 83.55" fill="#afafaf" />
                <polygon points="103.14 171.94 109.53 288.48 114.63 259.59 120.82 224.53 126.99 194.63 140.32 186.88 138.38 151.46 103.14 171.94" fill="#afafaf" />
                <polygon points="176.43 378.41 181.66 375.37 181.5 373.87 176.43 378.41" fill="#6e6e6e" />
                <polygon points="135.02 249.65 116.02 260.69 109.84 295.67 138.94 278.76 135.02 249.65" fill="#959595" />
                <polygon points="170.49 347.63 176.19 375.97 181.42 371.29 211.14 354.02 205.73 327.15 170.49 347.63" fill="silver" />
                <polygon points="181.42 371.29 188.61 426.32 197.84 420.96 199.45 400.03 205.63 382.1 211.74 368.01 213.58 352.6 211.14 354.02 181.42 371.29" fill="#b8b8b8" />
                <polygon points="200.86 401.08 194.55 482.87 229.79 462.39 236.1 380.6 200.86 401.08" fill="#a0a0a0" />
                <polygon points="132.96 234.41 130.88 220.61 122.21 225.65 116.02 260.69 135.02 249.65 132.96 234.41" fill="#959595" />
                <polygon points="134.36 234.93 139.72 283.36 145.09 254.59 172.3 238.78 169.6 214.45 134.36 234.93" fill="#b6b6b6" />
                <polygon points="151.13 273.83 146.05 257.98 140.3 288.86 152.1 282 151.13 273.83" fill="#949494" />
                <polygon points="158.32 330.48 163.49 330.19 198.73 309.71 193.56 310 158.32 330.48" fill="#838383" />
                <polygon points="163.49 330.19 170.49 347.63 205.73 327.15 198.73 309.71 163.49 330.19" fill="#d1d1d1" />
                <polygon points="19.14 80.99 12.86 85.37 48.1 64.89 53.42 61.17 53.4 61.07 19.14 80.99" fill="#6d6d6d" />
                <polygon points="206.97 383.4 200.86 401.08 236.1 380.6 242.21 362.92 206.97 383.4" fill="#868686" />
                <polygon points="152.46 274.04 158.32 330.48 193.56 310 187.7 253.56 152.46 274.04" fill="#b5b5b5" />
                <polygon points="145.09 254.59 152.46 274.04 187.7 253.56 180.33 234.11 172.3 238.78 145.09 254.59" fill="#d0d0d0" />
                <polygon points="213.13 369.12 206.97 383.4 242.21 362.92 248.37 348.64 213.13 369.12" fill="gray" />
                <polygon points="53.4 61.07 49.46 39.56 31.21 50.17 25.11 39.7 19.14 80.99 53.4 61.07" fill="#989898" />
                <polygon points="91.84 154.05 97.67 171.29 132.91 150.81 127.08 133.57 91.84 154.05" fill="#cdcdcd" />
                <polygon points="30.73 48.11 36.23 44.66 42.29 36.04 63.56 23.68 59.18 16.52 23.94 37 30.73 48.11" fill="#d9d9d9" />
                <polygon points="97.67 171.29 103.14 171.94 138.38 151.46 132.91 150.81 97.67 171.29" fill="#919191" />
                <polygon points="85.91 141.8 91.84 154.05 127.08 133.57 121.15 121.32 85.91 141.8" fill="#d5d5d5" />
                <polygon points="66.54 97.19 67.86 86.14 61.63 89.76 66.54 97.19" fill="#d9d9d9" />
                <polygon points="49.41 39.27 37.41 46.25 31.21 50.17 49.46 39.56 49.41 39.27" fill="#6d6d6d" />
                <polygon points="127.65 199.3 122.21 225.65 130.88 220.61 127.65 199.3" fill="#929292" />
                <polygon points="126.99 194.63 134.36 234.93 169.6 214.45 162.23 174.15 140.32 186.88 126.99 194.63" fill="#bebebe" />
                <polygon points="61.63 89.76 67.86 86.14 71.28 57.36 55.68 66.42 61.63 89.76" fill="#c5c5c5" />
                <polygon points="48.6 34.86 43.47 37.63 37.41 46.25 49.41 39.27 48.6 34.86" fill="#747474" />
                <polygon points="48.51 32.64 55.68 66.42 71.28 57.36 72.61 46.09 88.94 36.61 83.75 12.16 48.51 32.64" fill="#c1c1c1" />
                <polygon points="42.29 36.04 48.51 32.64 83.75 12.16 77.53 15.56 63.56 23.68 42.29 36.04" fill="#6e6e6e" />
                <polygon points="249.79 310.63 246.57 301.17 219.36 316.98 213.13 369.12 248.37 348.64 253.15 308.68 249.79 310.63" fill="#9b9b9b" />
                <polygon points="78.65 67.81 73.67 50.1 67.79 99.58 80.62 92.12 78.65 67.81" fill="#9b9b9b" />
                <polygon points="80.01 68.1 85.91 141.8 121.15 121.32 115.25 47.62 80.01 68.1" fill="#b2b2b2" />
                <polygon points="72.61 46.09 80.01 68.1 115.25 47.62 107.86 25.62 88.94 36.61 72.61 46.09" fill="#ccc" />
                <polygon points="246.28 300.32 237.62 305.36 230.48 288.6 225.42 285.46 219.36 316.98 246.57 301.17 246.28 300.32" fill="#939393" />
                <polygon points="230.95 287.26 257.32 271.93 258.46 263.78 224.15 283.73 230.95 287.26" fill="#b7b7b7" />
                <polygon points="236.84 302.62 242.42 288.01 256.19 280.01 257.32 271.93 230.95 287.26 236.84 302.62" fill="#d0d0d0" />
                <polygon points="243.12 291.01 237.62 305.36 246.28 300.32 243.12 291.01" fill="#838383" />
                <polygon points="242.42 288.01 249.06 307.55 254.56 291.63 256.19 280.01 242.42 288.01" fill="#cdcdcd" />
                <polygon points="255.96 292.74 249.79 310.63 253.15 308.68 285.03 290.15 289.83 276.25 289.45 273.27 255.96 292.74" fill="#868686" />
                <polygon points="289.45 273.27 285.16 238.95 283.9 235.83 262.15 248.46 255.96 292.74 289.45 273.27" fill="#999" />
                <polygon points="286.45 238.99 292.23 293.71 297.22 287.49 303.35 265.68 309.48 252.24 314.92 222.45 286.45 238.99" fill="#b5b5b5" />
                <polygon points="281.38 229.6 268.27 237.22 262.15 248.46 283.9 235.83 281.38 229.6" fill="#7a7a7a" />
                <polygon points="298.56 288.82 292.37 296.59 327.61 276.11 333.8 268.34 298.56 288.82" fill="#717171" />
                <polygon points="279.22 224.24 274.09 213.95 268.27 237.22 281.38 229.6 279.22 224.24" fill="#8e8e8e" />
                <polygon points="304.71 266.94 298.56 288.82 333.8 268.34 339.95 246.46 304.71 266.94" fill="#8b8b8b" />
                <polygon points="280.36 223.92 286.45 238.99 314.92 222.45 315.65 218.46 320.27 215 315.6 203.44 280.36 223.92" fill="#d1d1d1" />
                <rect x="273.95" y="200.15" width="40.76" height="14.51" transform="matrix(0.86, -0.5, 0.5, 0.86, -64.36, 175.97)" fill="#d8d8d8" />
                <polygon points="310.85 253.41 304.71 266.94 339.95 246.46 346.09 232.94 310.85 253.41" fill="#7e7e7e" />
                <polygon points="341.33 230.53 336.31 208.54 317 219.76 310.85 253.41 346.09 232.94 347.15 227.15 341.33 230.53" fill="#949494" />
                <polygon points="336.31 208.54 336.11 207.69 323.13 215.23 317 219.76 336.31 208.54" fill="#6d6d6d" />
                <polygon points="334.05 198.66 329.05 192.71 323.13 215.23 336.11 207.69 334.05 198.66" fill="#8c8c8c" />
                <polygon points="335 197.93 340.8 227.17 346.12 213.67 352.26 190.46 362.64 184.43 363.75 181.22 335 197.93" fill="silver" />
                <polygon points="335 197.93 363.75 181.22 364.48 179.13 369.2 176.38 363.15 170.16 327.91 190.64 335 197.93" fill="#d4d4d4" />
                <polygon points="377.17 197.65 347.48 214.91 341.33 230.53 347.15 227.15 376.57 210.06 379.17 203.44 377.17 197.65" fill="#828282" />
                <polygon points="456.73 338.32 462.09 456.06 467.27 419.68 473.39 410.07 479.67 336.15 492.46 328.72 491.97 317.84 456.73 338.32" fill="#aeaeae" />
                <polygon points="493.02 421.47 490.87 407.94 468.65 420.86 462.46 464.4 497.7 443.92 501.3 418.61 501.19 416.72 493.02 421.47" fill="#989898" />
                <polygon points="489.99 402.35 474.79 411.19 468.65 420.86 490.87 407.94 489.99 402.35" fill="#767676" />
                <polygon points="485.66 375.09 480.63 342.51 474.79 411.19 489.99 402.35 485.66 375.09" fill="#9f9f9f" />
                <polygon points="487.05 375.59 492.17 414.78 496.56 370.06 487.05 375.59" fill="#b8b8b8" />
                <polygon points="479.67 336.15 487.05 375.59 496.56 370.06 497.88 356.7 520.16 343.75 514.91 315.67 492.46 328.72 479.67 336.15" fill="#bebebe" />
                <polygon points="501.19 416.72 498.39 366.77 493.02 421.47 501.19 416.72" fill="#9d9d9d" />
                <polygon points="509.84 472.54 510.86 463.84 505.04 467.22 509.84 472.54" fill="#d6d6d6" />
                <polygon points="377.17 197.65 376.63 196.13 374.52 189.45 359.69 198.07 353.43 192.45 347.48 214.91 377.17 197.65" fill="#8c8c8c" />
                <polygon points="352.26 190.46 358.58 196.09 362.64 184.43 352.26 190.46" fill="#cfcfcf" />
                <polygon points="374.52 189.45 370.99 178.3 365.77 180.6 359.69 198.07 374.52 189.45" fill="#858585" />
                <polygon points="377.93 196.22 383.48 214.67 388.85 209.23 407.51 198.39 412.53 176.11 377.93 196.22" fill="#cacaca" />
                <polygon points="383.89 217.04 389.59 213.73 389.11 211.75 383.89 217.04" fill="#6e6e6e" />
                <polygon points="395.45 237.15 400.89 217.82 407.02 200.53 407.51 198.39 388.85 209.23 395.45 237.15" fill="#c4c4c4" />
                <polygon points="364.48 179.13 370.78 176.22 406.02 155.74 399.72 158.65 369.2 176.38 364.48 179.13" fill="#707070" />
                <polygon points="370.78 176.22 377.93 196.22 412.53 176.11 412.83 174.79 406.02 155.74 370.78 176.22" fill="#cecece" />
                <polygon points="497.88 356.7 505.04 467.22 510.86 463.84 515.96 420.17 522.17 376.66 535.25 369.07 533.12 336.22 520.16 343.75 497.88 356.7" fill="#b0b0b0" />
                <polygon points="541.36 407.25 517.37 421.2 511.13 474.6 544.5 455.2 541.36 407.25" fill="#9b9b9b" />
                <polygon points="420.55 214.36 419.56 209 402.25 219.06 396.1 240.89 431.34 220.41 435.49 205.68 420.55 214.36" fill="#8b8b8b" />
                <polygon points="450.77 287.63 456.73 338.32 491.97 317.84 486.01 267.15 450.77 287.63" fill="#b7b7b7" />
                <polygon points="541.36 407.25 540.8 398.62 529.58 405.14 523.1 381.11 517.37 421.2 541.36 407.25" fill="#989898" />
                <polygon points="522.17 376.66 528.8 401.23 534.36 375.98 558.9 361.71 557.41 356.19 535.25 369.07 522.17 376.66" fill="#c7c7c7" />
                <polygon points="540.8 398.62 540.4 392.57 535.34 379 529.58 405.14 540.8 398.62" fill="#909090" />
                <polygon points="541.72 392.71 547.18 494.44 552.38 459.79 566.33 451.69 570.76 417.69 579.14 412.82 576.96 372.23 541.72 392.71" fill="#afafaf" />
                <polygon points="583.07 462.81 559.75 476.36 553.47 462.92 547.58 502.21 582.82 481.73 584.71 469.11 584.19 469.41 583.07 462.81" fill="#979797" />
                <polygon points="559.09 473.93 564.55 465.31 566.33 451.69 552.38 459.79 559.09 473.93" fill="#d5d5d5" />
                <polygon points="417.27 196.57 408.4 201.72 402.25 219.06 419.56 209 417.27 196.57" fill="#858585" />
                <polygon points="583.07 462.81 582.1 457.09 565.94 466.48 559.75 476.36 583.07 462.81" fill="#767676" />
                <polygon points="444.78 255.86 450.77 287.63 486.01 267.15 480.02 235.38 444.78 255.86" fill="#bfbfbf" />
                <polygon points="413.81 177.76 408.4 201.72 417.27 196.57 413.81 177.76" fill="#909090" />
                <polygon points="419.83 209.25 425.35 176.45 450.14 162.04 448.42 152.75 413.18 173.23 419.83 209.25" fill="#bebebe" />
                <polygon points="534.36 375.98 541.72 392.71 576.96 372.23 569.6 355.5 558.9 361.71 534.36 375.98" fill="#d3d3d3" />
                <polygon points="431.52 196.92 426.33 180.01 420.55 214.36 435.49 205.68 435.78 205.51 431.52 196.92" fill="#969696" />
                <polygon points="438.68 208.72 444.78 255.86 480.02 235.38 473.92 188.24 438.68 208.72" fill="#b8b8b8" />
                <polygon points="432.69 196.66 438.68 208.72 473.92 188.24 467.93 176.18 432.69 196.66" fill="#d6d6d6" />
                <polygon points="425.35 176.45 432.69 196.66 467.93 176.18 460.58 155.97 450.14 162.04 425.35 176.45" fill="#cfcfcf" />
                <polygon points="582.1 457.09 576.88 426.45 572.01 419.92 565.94 466.48 582.1 457.09" fill="#9a9a9a" />
                <polygon points="577.92 425.88 583.46 463.89 589 426.69 589.83 418.96 577.92 425.88" fill="#bababa" />
                <polygon points="570.76 417.69 577.92 425.88 589.83 418.96 591.25 405.78 579.14 412.82 570.76 417.69" fill="#d7d7d7" />
                <polygon points="590.41 427.7 584.19 469.41 584.71 469.11 619.43 448.94 625.65 407.22 590.41 427.7" fill="#989898" />
                <polygon points="614.84 394.58 607.93 389.8 601.53 379.01 596.5 371.08 590.41 427.7 625.65 407.22 627.82 387.04 614.84 394.58" fill="#9c9c9c" />
                <polygon points="602.48 378.35 617.81 369.44 619.63 359.36 625.84 351.73 630.94 348.76 630.49 348.15 595.25 368.63 602.48 378.35" fill="#d9d9d9" />
                <polygon points="608.42 388.54 615.04 384.69 617.81 369.44 602.48 378.35 608.42 388.54" fill="#d8d8d8" />
                <polygon points="613.59 392.74 615.04 384.69 608.42 388.54 613.59 392.74" fill="#ccc" />
                <polygon points="711.15 576.46 716.5 546.38 720.78 515.43 705.79 524.14 711.15 576.46" fill="#b5b5b5" />
                <polygon points="731.43 539.57 717.91 547.44 711.71 582.24 734.84 568.8 731.43 539.57" fill="#959595" />
                <polygon points="639.18 378.27 631.93 364.02 627.95 356.56 621 360.6 614.84 394.58 627.82 387.04 650.08 374.1 650.1 373.98 648.92 372.62 639.18 378.27" fill="#949494" />
                <polygon points="669.1 412.52 674.95 463.91 680.29 435.06 707.44 419.29 704.34 392.04 669.1 412.52" fill="#b6b6b6" />
                <polygon points="681.18 438.92 675.51 469.51 686.89 462.9 686.32 459.49 681.18 438.92" fill="#949494" />
                <polygon points="687.69 459.8 693.13 499.53 698.45 479.87 726.27 463.7 722.93 439.32 687.69 459.8" fill="#b9b9b9" />
                <polygon points="698.98 484.19 693.66 503.85 701.09 499.53 698.98 484.19" fill="#8c8c8c" />
                <polygon points="698.45 479.87 705.79 524.14 720.78 515.43 722.72 501.41 739.08 491.9 733.68 459.39 726.27 463.7 698.45 479.87" fill="#bcbcbc" />
                <polygon points="626.53 353.91 621 360.6 627.95 356.56 626.53 353.91" fill="#717171" />
                <polygon points="633.03 363.6 638.45 375.87 644.03 366.03 671.37 350.14 668.27 343.12 633.03 363.6" fill="#d3d3d3" />
                <polygon points="625.84 351.73 633.03 363.6 668.27 343.12 661.08 331.25 630.94 348.76 625.84 351.73" fill="#d9d9d9" />
                <polygon points="728.78 516.84 723.83 504.55 717.91 547.44 731.43 539.57 728.78 516.84" fill="#999" />
                <polygon points="730.07 516.89 735.57 573.69 740.86 546.54 747 529.32 750.49 505.03 730.07 516.89" fill="#b4b4b4" />
                <polygon points="742.24 547.71 736.07 579.34 771.31 558.86 777.48 527.23 742.24 547.71" fill="#939393" />
                <polygon points="680.29 435.06 687.69 459.8 722.93 439.32 715.53 414.58 707.44 419.29 680.29 435.06" fill="#c9c9c9" />
                <polygon points="663.41 407.07 669.1 412.52 704.34 392.04 698.65 386.6 663.41 407.07" fill="#d2d2d2" />
                <polygon points="648.92 372.62 644.97 368.07 639.18 378.27 648.92 372.62" fill="#797979" />
                <polygon points="722.72 501.41 730.07 516.89 750.49 505.03 753.2 486.15 758.87 482.86 757.96 480.93 739.08 491.9 722.72 501.41" fill="#d5d5d5" />
                <polygon points="644.03 366.03 650.8 373.21 686.04 352.74 679.26 345.56 671.37 350.14 644.03 366.03" fill="#d5d5d5" />
                <polygon points="650.8 373.21 656.58 374.25 691.82 353.77 686.04 352.74 650.8 373.21" fill="#979797" />
                <polygon points="656.58 374.25 663.41 407.07 698.65 386.6 691.82 353.77 656.58 374.25" fill="#c1c1c1" />
                <polygon points="748.39 530.44 742.24 547.71 777.48 527.23 783.63 509.96 748.39 530.44" fill="#858585" />
                <polygon points="783.02 481.41 760.67 494.41 754.46 488.25 748.39 530.44 783.63 509.96 786.56 489.59 785.02 490.49 783.02 481.41" fill="#989898" />
                <polygon points="753.2 486.15 759.42 492.3 761.07 481.58 758.87 482.86 753.2 486.15" fill="#d3d3d3" />
                <polygon points="783.02 481.41 779.32 464.63 772.86 468.38 766.58 455.82 760.67 494.41 783.02 481.41" fill="#979797" />
                <polygon points="772.14 465.95 777.7 456.07 804.77 440.34 800.71 432.35 765.47 452.82 772.14 465.95" fill="#d6d6d6" />
                <polygon points="778.1 459.08 772.86 468.38 779.32 464.63 778.1 459.08" fill="#797979" />
                <polygon points="777.7 456.07 784.31 486.2 789.81 460.54 811.83 447.74 813.96 440.23 812.94 435.59 804.77 440.34 777.7 456.07" fill="#c2c2c2" />
                <polygon points="790.57 464.6 785.02 490.49 786.56 489.59 795.36 484.48 790.57 464.6" fill="#919191" />
                <polygon points="801.96 486.35 802.02 486.11 796.88 489.1 801.96 486.35" fill="#6e6e6e" />
                <polygon points="789.81 460.54 796.88 489.1 802.02 486.11 808.07 461.01 811.83 447.74 789.81 460.54" fill="#c5c5c5" />
                <polygon points="809.45 462.2 803.29 487.73 838.53 467.25 844.69 441.73 809.45 462.2" fill="#8e8e8e" />
                <polygon points="839.98 432.8 836.32 428.41 815.61 440.44 809.45 462.2 844.69 441.73 848.64 427.77 839.98 432.8" fill="#8b8b8b" />
                <polygon points="836 428.03 827.72 432.83 821.26 410.32 815.61 440.44 836.32 428.41 836 428.03" fill="#949494" />
                <polygon points="827.3 430.19 832.61 422.87 840.81 418.11 844.78 393.85 845.52 391.79 820.4 406.38 827.3 430.19" fill="#c9c9c9" />
                <polygon points="833.43 424.96 827.72 432.83 836 428.03 833.43 424.96" fill="#737373" />
                <polygon points="838.78 430.53 840.81 418.11 832.61 422.87 838.78 430.53" fill="#d8d8d8" />
                <polygon points="1426.39 1400.01 1426.73 1387.9 1421.69 1390.84 1426.39 1400.01" fill="#d7d7d7" />
                <polygon points="864.33 395.05 860.27 386.8 846.17 394.99 839.98 432.8 848.64 427.77 875.22 412.32 879.49 386.24 864.33 395.05" fill="#969696" />
                <polygon points="860.27 386.8 857.34 380.82 852.14 378.38 846.17 394.99 860.27 386.8" fill="#858585" />
                <polygon points="857.63 379.31 892.87 358.84 886.19 356.18 850.95 376.66 857.63 379.31" fill="#acacac" />
                <polygon points="857.63 379.31 863.75 392.78 869.22 386.51 875.32 372.14 893.99 361.29 892.87 358.84 857.63 379.31" fill="#d4d4d4" />
                <polygon points="882.61 381.99 882.01 381.25 870.51 387.94 864.33 395.05 879.49 386.24 891.79 379.09 890.11 377.63 882.61 381.99" fill="#707070" />
                <polygon points="882.01 381.25 876.31 374.27 870.51 387.94 882.01 381.25" fill="gray" />
                <polygon points="875.32 372.14 881.88 379.97 887.58 374.29 904.91 364.21 905.77 360.94 914.22 356.02 910.56 351.66 893.99 361.29 875.32 372.14" fill="#d7d7d7" />
                <polygon points="888.44 376.19 882.61 381.99 890.11 377.63 888.44 376.19" fill="#6e6e6e" />
                <polygon points="1380.5 894.67 1385.07 1191.47 1391.13 934.84 1416.44 920.13 1415.74 874.19 1380.5 894.67" fill="#aaa" />
                <polygon points="1391.6 976.02 1385.64 1228.33 1395.28 1222.73 1391.6 976.02" fill="#a6a6a6" />
                <polygon points="1391.13 934.84 1397.07 1335.22 1402.62 1179.48 1430.07 1163.52 1426.37 914.36 1416.44 920.13 1391.13 934.84" fill="#aaa" />
                <polygon points="1409.68 1335.68 1403.35 1199.65 1397.42 1366.13 1418.66 1353.78 1417.58 1331.1 1409.68 1335.68" fill="#a4a4a4" />
                <polygon points="1402.62 1179.48 1409.27 1324.05 1414.55 1267.5 1430.37 1258.31 1433.07 1161.78 1430.07 1163.52 1402.62 1179.48" fill="#aeaeae" />
                <polygon points="1415.04 1278.28 1409.68 1335.68 1417.58 1331.1 1415.04 1278.28" fill="#9e9e9e" />
                <polygon points="887.58 374.29 894.38 379.65 902.06 375.19 904.91 364.21 887.58 374.29" fill="#cacaca" />
                <polygon points="899.78 383.98 902.06 375.19 894.38 379.65 899.78 383.98" fill="#cbcbcb" />
                <polygon points="1421.69 1390.84 1426.73 1387.9 1430.37 1258.31 1414.55 1267.5 1421.69 1390.84" fill="#afafaf" />
                <polygon points="918.82 358.53 913.1 361.86 907.06 362.43 900.98 385.83 922.71 373.2 918.82 358.53" fill="#8d8d8d" />
                <polygon points="905.77 360.94 912.07 360.14 918.08 354.61 942.84 340.22 941.01 340.46 914.22 356.02 905.77 360.94" fill="#7e7e7e" />
                <polygon points="930.82 389.69 936.28 386.52 938.43 370.6 925.3 378.23 930.82 389.69" fill="#d5d5d5" />
                <polygon points="936.15 387.5 936.28 386.52 930.82 389.69 936.15 387.5" fill="#717171" />
                <polygon points="918.82 358.53 918.41 356.98 913.1 361.86 918.82 358.53" fill="#6e6e6e" />
                <polygon points="918.08 354.61 925.3 378.23 938.43 370.6 942.33 341.74 948.51 338.15 948.92 336.69 942.84 340.22 918.08 354.61" fill="#cacaca" />
                <polygon points="973.3 406.5 978.74 391.62 985.88 387.47 988.51 372.93 967.96 384.88 973.3 406.5" fill="#c5c5c5" />
                <polygon points="960.62 338.1 959.44 334 949.81 339.59 943.7 343.04 937.52 388.82 965.08 372.8 960.62 338.1" fill="#999" />
                <polygon points="1004.44 385.22 1003.58 384.47 986.2 394.57 979.96 393.27 973.95 409.67 1009.19 389.19 1012.33 380.64 1004.44 385.22" fill="#848484" />
                <polygon points="942.33 341.74 948.5 338.18 948.51 338.15 942.33 341.74" fill="#6e6e6e" />
                <polygon points="984.88 393 985.88 387.47 978.74 391.62 984.88 393" fill="#9b9b9b" />
                <polygon points="1440.56 1179.63 1434.43 1164.7 1427.76 1402.99 1462.99 1382.51 1469.04 1166.83 1468.87 1163.18 1440.56 1179.63" fill="#a5a5a5" />
                <polygon points="1439.27 1175.48 1439.97 1156.49 1433.11 1160.48 1439.27 1175.48" fill="#d2d2d2" />
                <polygon points="961.97 338.36 967.96 384.88 988.51 372.93 990.99 359.21 1001.72 352.97 997.21 317.88 961.97 338.36" fill="#b8b8b8" />
                <polygon points="959.44 334 955.39 319.92 949.81 339.59 959.44 334" fill="#8b8b8b" />
                <polygon points="961.97 338.36 997.21 317.88 989.84 296.21 954.6 316.69 961.97 338.36" fill="#cdcdcd" />
                <polygon points="997.48 379.17 991.97 362.61 986.2 394.57 1003.58 384.47 997.48 379.17" fill="#949494" />
                <polygon points="998.24 378.18 1003.39 383.27 1008.57 372.18 998.24 378.18" fill="#d3d3d3" />
                <polygon points="990.99 359.21 998.24 378.18 1008.57 372.18 1009.24 370.73 1015.38 346.45 1021.51 342.07 1021.65 341.39 1001.72 352.97 990.99 359.21" fill="#d0d0d0" />
                <polygon points="1010.6 371.97 1004.44 385.22 1012.33 380.64 1039.68 364.74 1045.84 351.49 1010.6 371.97" fill="#7e7e7e" />
                <polygon points="1468.87 1163.18 1467.18 1126.39 1452.87 1134.71 1446.51 1018.65 1440.56 1179.63 1468.87 1163.18" fill="#a4a4a4" />
                <polygon points="1452.23 1119.71 1457.87 1017.73 1482.26 1003.55 1480.98 979.95 1445.74 1000.43 1452.23 1119.71" fill="#afafaf" />
                <polygon points="1463.85 1053.97 1458.96 1024.47 1452.87 1134.71 1467.18 1126.39 1463.85 1053.97" fill="#a2a2a2" />
                <polygon points="1465.25 1054.5 1470.56 1197.83 1475.74 1154.41 1483.35 1149.98 1486.46 1042.18 1465.25 1054.5" fill="#adadad" />
                <polygon points="1476.47 1161.16 1470.92 1207.68 1482.01 1201.23 1476.47 1161.16" fill="#9b9b9b" />
                <polygon points="1475.74 1154.41 1481.95 1198.69 1483.35 1149.98 1475.74 1154.41" fill="#b9b9b9" />
                <polygon points="1016.71 347.81 1010.6 371.97 1045.84 351.49 1051.95 327.33 1016.71 347.81" fill="#8d8d8d" />
                <polygon points="1022.87 343.39 1016.71 347.81 1051.95 327.33 1058.11 322.91 1022.87 343.39" fill="#6d6d6d" />
                <polygon points="1041.2 313.11 1034.71 311.83 1028.98 312.31 1022.87 343.39 1058.11 322.91 1062.46 300.75 1041.2 313.11" fill="#939393" />
                <polygon points="1034.09 310.01 1041.52 305.69 1042.45 302.27 1027.65 310.87 1034.09 310.01" fill="#7e7e7e" />
                <polygon points="1039.94 311.5 1041.52 305.69 1034.09 310.01 1039.94 311.5" fill="#9e9e9e" />
                <polygon points="1457.87 1017.73 1465.25 1054.5 1486.46 1042.18 1487.67 1000.41 1482.26 1003.55 1457.87 1017.73" fill="silver" />
                <polygon points="1080.41 271.27 1047.34 290.49 1041.2 313.11 1062.46 300.75 1076.44 292.63 1081.26 274.88 1080.41 271.27" fill="#8c8c8c" />
                <polygon points="1078.81 264.43 1065.68 272.06 1062.8 272.06 1053.42 277.51 1047.34 290.49 1080.41 271.27 1078.81 264.43" fill="#7e7e7e" />
                <polygon points="1059.35 272.07 1053.42 277.51 1062.8 272.06 1059.35 272.07" fill="#6e6e6e" />
                <polygon points="1064.38 270.55 1065.36 266.25 1058.34 270.33 1064.38 270.55" fill="#8a8a8a" />
                <polygon points="1495.89 989.95 1489.77 977.67 1483.1 1209.12 1518.34 1188.64 1524.55 973.29 1495.89 989.95" fill="#a5a5a5" />
                <polygon points="1494.65 986.59 1495.89 969.76 1488.43 974.1 1494.65 986.59" fill="#d6d6d6" />
                <polygon points="1076.57 254.91 1071.55 246.25 1065.68 272.06 1078.81 264.43 1076.57 254.91" fill="#909090" />
                <polygon points="1083.48 283.1 1088.64 276.17 1092.46 245.99 1077.71 254.56 1083.48 283.1" fill="silver" />
                <polygon points="1090.03 277.35 1083.82 285.81 1119.06 265.33 1125.27 256.87 1090.03 277.35" fill="#737373" />
                <polygon points="1077.71 254.56 1092.46 245.99 1094.51 229.84 1070.46 243.82 1077.71 254.56" fill="#d9d9d9" />
                <polygon points="1363.03 609.74 1367.86 863.16 1373.49 717.78 1400.42 702.13 1398.27 589.26 1363.03 609.74" fill="#ababab" />
                <polygon points="1374.14 738.42 1368.34 888.32 1378.7 882.3 1374.14 738.42" fill="#a4a4a4" />
                <polygon points="1373.49 717.78 1380.5 894.67 1415.74 874.19 1408.73 697.31 1400.42 702.13 1373.49 717.78" fill="#adadad" />
                <polygon points="1102.21 263.29 1095.71 232.5 1090.03 277.35 1125.27 256.87 1126.22 249.34 1102.21 263.29" fill="#9a9a9a" />
                <polygon points="1101.67 259.57 1107 243.23 1115.69 238.18 1119.22 224.88 1122.07 211.39 1094.85 227.21 1101.67 259.57" fill="#c1c1c1" />
                <polygon points="1114.44 249.25 1108.17 245.07 1102.21 263.29 1126.22 249.34 1137.45 242.81 1140.25 234.25 1114.44 249.25" fill="#878787" />
                <polygon points="1107 243.23 1113.24 247.41 1115.69 238.18 1107 243.23" fill="#c3c3c3" />
                <polygon points="1502.21 903.92 1495.89 989.95 1524.55 973.29 1531.13 969.47 1537.45 883.45 1502.21 903.92" fill="#a0a0a0" />
                <polygon points="1331.25 594.33 1331.46 589.04 1326.54 591.9 1331.25 594.33" fill="#b7b7b7" />
                <polygon points="1120.6 226.03 1114.44 249.25 1140.25 234.25 1149.68 228.77 1155.84 205.56 1120.6 226.03" fill="#8c8c8c" />
                <polygon points="1508.35 879.96 1502.21 903.92 1537.45 883.45 1543.59 859.48 1508.35 879.96" fill="#8d8d8d" />
                <polygon points="1132.83 211.19 1126.41 198.62 1120.6 226.03 1155.84 205.56 1157.71 196.72 1132.83 211.19" fill="#919191" />
                <polygon points="1514.5 866.18 1508.35 879.96 1543.59 859.48 1549.74 845.7 1514.5 866.18" fill="#7f7f7f" />
                <polygon points="1131.74 208.21 1134.62 190.39 1125.38 195.75 1131.74 208.21" fill="#d6d6d6" />
                <polygon points="1151.16 186.58 1144.67 186.7 1138.73 174.66 1132.83 211.19 1157.71 196.72 1168.07 190.71 1170.56 175.31 1151.16 186.58" fill="#969696" />
                <polygon points="1144.61 184.89 1150.38 181.54 1153.32 162.66 1137.62 171.79 1144.61 184.89" fill="#d7d7d7" />
                <polygon points="1149.82 185.12 1150.38 181.54 1144.61 184.89 1149.82 185.12" fill="#8b8b8b" />
                <polygon points="1319.8 405.71 1326.54 591.9 1331.46 589.04 1337.78 429.26 1349.33 422.55 1350.02 407.26 1355.72 403.95 1355.04 385.23 1319.8 405.71" fill="#adadad" />
                <polygon points="1356.6 544.83 1344.94 551.61 1338.57 446.02 1332.64 595.93 1359.38 580.39 1356.6 544.83" fill="#a4a4a4" />
                <polygon points="1344.2 535.81 1349.33 422.55 1337.78 429.26 1344.2 535.81" fill="#b0b0b0" />
                <polygon points="1355.75 533.87 1350.75 423.4 1344.94 551.61 1356.6 544.83 1355.75 533.87" fill="#a3a3a3" />
                <polygon points="1357.16 534.54 1363.03 609.74 1398.27 589.26 1392.4 514.06 1357.16 534.54" fill="#b2b2b2" />
                <polygon points="1180.72 142.84 1175.46 145.89 1169.28 148.14 1165.7 142.04 1157.34 146.9 1151.16 186.58 1170.56 175.31 1184.2 167.38 1180.72 142.84" fill="#979797" />
                <polygon points="1187.69 182.63 1192.98 255.47 1198.39 208.78 1224.85 193.41 1225.03 191.01 1222.93 162.15 1187.69 182.63" fill="#b1b1b1" />
                <polygon points="1211.06 208.1 1205.77 211.18 1199.74 210.27 1193.56 263.64 1215.58 250.85 1211.06 208.1" fill="#9b9b9b" />
                <polygon points="1198.39 208.78 1204.73 209.44 1210.7 202.64 1224.76 194.47 1224.85 193.41 1198.39 208.78" fill="#909090" />
                <polygon points="1162.93 137.31 1157.34 146.9 1165.7 142.04 1162.93 137.31" fill="#787878" />
                <polygon points="1168.92 146.16 1204.16 125.69 1197.38 114.55 1162.14 135.03 1168.92 146.16" fill="#d9d9d9" />
                <polygon points="1314.81 408.29 1319.8 405.71 1355.04 385.23 1350.05 387.81 1314.81 408.29" fill="#6f6f6f" />
                <polygon points="1168.92 146.16 1174.42 144.18 1180.49 139.49 1204.39 125.6 1204.16 125.69 1168.92 146.16" fill="#737373" />
                <polygon points="1210.78 205.47 1205.77 211.18 1211.06 208.1 1210.78 205.47" fill="#707070" />
                <polygon points="1526.9 784.73 1520.57 736.34 1514.5 866.18 1549.74 845.7 1553.31 769.38 1526.9 784.73" fill="#a3a3a3" />
                <polygon points="1210.7 202.64 1217.27 265.17 1222.71 221.19 1224.76 194.47 1210.7 202.64" fill="#b5b5b5" />
                <polygon points="1224.12 222.16 1217.88 272.57 1253.12 252.09 1259.36 201.68 1224.12 222.16" fill="#9a9a9a" />
                <polygon points="1526.9 784.73 1553.31 769.38 1562.14 764.25 1554.81 706.06 1519.57 726.54 1526.9 784.73" fill="#b7b7b7" />
                <polygon points="1180.59 141.92 1175.46 145.89 1180.72 142.84 1180.59 141.92" fill="#6d6d6d" />
                <polygon points="1180.49 139.49 1187.69 182.63 1222.93 162.15 1215.73 119.01 1204.39 125.6 1180.49 139.49" fill="#bcbcbc" />
                <polygon points="1350.02 407.26 1357.16 534.54 1392.4 514.06 1385.26 386.78 1355.72 403.95 1350.02 407.26" fill="#afafaf" />
                <polygon points="1309.14 294.12 1314.81 408.29 1350.05 387.81 1344.38 273.64 1309.14 294.12" fill="#aeaeae" />
                <polygon points="1230.43 140.18 1224.12 222.16 1259.36 201.68 1265.67 119.7 1230.43 140.18" fill="#a0a0a0" />
                <polygon points="1248.73 127.53 1246.6 119.94 1236.55 125.78 1230.43 140.18 1265.67 119.7 1266.8 117.03 1248.73 127.53" fill="gray" />
                <polygon points="1242.08 103.84 1236.55 125.78 1246.6 119.94 1242.08 103.84" fill="#8d8d8d" />
                <polygon points="1247.8 123.17 1251.92 94.03 1241.33 100.18 1247.8 123.17" fill="#c8c8c8" />
                <polygon points="1261.03 82.46 1254.9 83.9 1248.73 127.53 1266.8 117.03 1283.97 107.05 1289.81 65.73 1261.03 82.46" fill="#989898" />
                <polygon points="1260.11 78.7 1253.54 82.52 1259.69 81.06 1260.11 78.7" fill="#787878" />
                <polygon points="1303.51 134.24 1309.14 294.12 1344.38 273.64 1338.75 113.76 1303.51 134.24" fill="#adadad" />
                <polygon points="1295.5 49.4 1285.46 55.23 1280.46 53.37 1273.12 57.63 1266.99 48.98 1261.03 82.46 1289.81 65.73 1296.27 61.98 1296.69 59.63 1296.23 53.4 1295.5 49.4" fill="#959595" />
                <polygon points="1272.5 55.58 1278.14 51.02 1285.41 46.79 1287.8 33.81 1265.82 46.58 1272.5 55.58" fill="#d9d9d9" />
                <polygon points="1279.04 52.84 1273.12 57.63 1280.46 53.37 1279.04 52.84" fill="#6d6d6d" />
                <polygon points="1284.17 53.58 1285.41 46.79 1278.14 51.02 1284.17 53.58" fill="#afafaf" />
                <polygon points="1297.63 53.88 1303.51 134.24 1338.75 113.76 1332.87 33.4 1297.63 53.88" fill="#b1b1b1" />
                <polygon points="1291.02 24.98 1285.46 55.23 1295.5 49.4 1291.02 24.98" fill="#949494" />
                <polygon points="1489.77 977.67 1495.89 989.95 1502.21 903.92 1508.35 879.96 1514.5 866.18 1520.57 736.34 1526.9 784.73 1519.57 726.54 1513.09 865.15 1506.99 878.72 1500.81 902.92 1495.89 969.76 1494.65 986.59 1488.43 974.1 1487.67 1000.41 1486.46 1042.18 1483.35 1149.98 1481.95 1198.69 1475.74 1154.41 1470.56 1197.83 1465.25 1054.5 1457.87 1017.73 1452.23 1119.71 1445.74 1000.43 1439.97 1156.49 1439.27 1175.48 1433.11 1160.48 1433.07 1161.78 1430.37 1258.31 1426.73 1387.9 1426.39 1400.01 1421.69 1390.84 1414.55 1267.5 1409.27 1324.05 1402.62 1179.48 1397.07 1335.22 1391.13 934.84 1385.07 1191.47 1380.5 894.67 1373.49 717.78 1367.86 863.16 1363.03 609.74 1357.16 534.54 1350.02 407.26 1349.33 422.55 1344.2 535.81 1337.78 429.26 1331.46 589.04 1331.25 594.33 1326.54 591.9 1319.8 405.71 1314.81 408.29 1309.14 294.12 1303.51 134.24 1297.63 53.88 1290.25 20.48 1287.8 33.81 1285.41 46.79 1284.17 53.58 1278.14 51.02 1272.5 55.58 1265.82 46.58 1260.11 78.7 1259.69 81.06 1253.54 82.52 1251.92 94.03 1247.8 123.17 1241.33 100.18 1235.18 124.55 1229.02 139.11 1225.03 191.01 1224.85 193.41 1224.76 194.47 1222.71 221.19 1217.27 265.17 1210.7 202.64 1204.73 209.44 1198.39 208.78 1192.98 255.47 1187.69 182.63 1180.49 139.49 1174.42 144.18 1168.92 146.16 1162.14 135.03 1155.96 145.71 1153.32 162.66 1150.38 181.54 1149.82 185.12 1144.61 184.89 1137.62 171.79 1134.62 190.39 1131.74 208.21 1125.38 195.75 1122.07 211.39 1119.22 224.88 1115.69 238.18 1113.24 247.41 1107 243.23 1101.67 259.57 1094.85 227.21 1094.51 229.84 1092.46 245.99 1088.64 276.17 1083.48 283.1 1077.71 254.56 1070.46 243.82 1065.36 266.25 1064.38 270.55 1058.34 270.33 1052.14 276.05 1045.99 289.24 1042.45 302.27 1041.52 305.69 1039.94 311.5 1034.09 310.01 1027.65 310.87 1021.65 341.39 1021.51 342.07 1015.38 346.45 1009.24 370.73 1008.57 372.18 1003.39 383.27 998.24 378.18 990.99 359.21 988.51 372.93 985.88 387.47 984.88 393 978.74 391.62 973.3 406.5 967.96 384.88 961.97 338.36 954.6 316.69 948.92 336.69 948.51 338.15 948.5 338.18 942.33 341.74 938.43 370.6 936.28 386.52 936.15 387.5 930.82 389.69 925.3 378.23 918.08 354.61 912.07 360.14 905.77 360.94 904.91 364.21 902.06 375.19 899.78 383.98 894.38 379.65 887.58 374.29 881.88 379.97 875.32 372.14 869.22 386.51 863.75 392.78 857.63 379.31 850.95 376.66 845.52 391.79 844.78 393.85 840.81 418.11 838.78 430.53 832.61 422.87 827.3 430.19 820.4 406.38 814.22 439.31 813.96 440.23 811.83 447.74 808.07 461.01 802.02 486.11 801.96 486.35 796.88 489.1 789.81 460.54 784.31 486.2 777.7 456.07 772.14 465.95 765.47 452.82 761.07 481.58 759.42 492.3 753.2 486.15 750.49 505.03 747 529.32 740.86 546.54 735.57 573.69 730.07 516.89 722.72 501.41 720.78 515.43 716.5 546.38 711.15 576.46 705.79 524.14 698.45 479.87 693.13 499.53 687.69 459.8 680.29 435.06 674.95 463.91 669.1 412.52 663.41 407.07 656.58 374.25 650.8 373.21 644.03 366.03 638.45 375.87 633.03 363.6 625.84 351.73 619.63 359.36 617.81 369.44 615.04 384.69 613.59 392.74 608.42 388.54 602.48 378.35 595.25 368.63 591.25 405.78 589.83 418.96 589 426.69 583.46 463.89 577.92 425.88 570.76 417.69 566.33 451.69 564.55 465.31 559.09 473.93 552.38 459.79 547.18 494.44 541.72 392.71 534.36 375.98 528.8 401.23 522.17 376.66 515.96 420.17 510.86 463.84 509.84 472.54 505.04 467.22 497.88 356.7 496.56 370.06 492.17 414.78 487.05 375.59 479.67 336.15 473.39 410.07 467.27 419.68 462.09 456.06 456.73 338.32 450.77 287.63 444.78 255.86 438.68 208.72 432.69 196.66 425.35 176.45 419.83 209.25 413.18 173.23 412.83 174.79 412.53 176.11 407.51 198.39 407.02 200.53 400.89 217.82 395.45 237.15 388.85 209.23 383.48 214.67 377.93 196.22 370.78 176.22 364.48 179.13 363.75 181.22 362.64 184.43 358.58 196.09 352.26 190.46 346.12 213.67 340.8 227.17 335 197.93 327.91 190.64 321.8 213.87 320.27 215 315.65 218.46 314.92 222.45 309.48 252.24 303.35 265.68 297.22 287.49 292.23 293.71 286.45 238.99 280.36 223.92 273.06 211.37 266.92 235.96 260.77 247.31 258.46 263.78 257.32 271.93 256.19 280.01 254.56 291.63 249.06 307.55 242.42 288.01 236.84 302.62 230.95 287.26 224.15 283.73 217.96 315.94 213.58 352.6 211.74 368.01 205.63 382.1 199.45 400.03 197.84 420.96 193.69 474.63 188.61 426.32 181.42 371.29 176.19 375.97 170.49 347.63 163.49 330.19 158.32 330.48 152.46 274.04 145.09 254.59 139.72 283.36 134.36 234.93 126.99 194.63 120.82 224.53 114.63 259.59 109.53 288.48 103.14 171.94 97.67 171.29 91.84 154.05 85.91 141.8 80.01 68.1 72.61 46.09 71.28 57.36 67.86 86.14 66.54 97.19 61.63 89.76 55.68 66.42 48.51 32.64 42.29 36.04 36.23 44.66 30.73 48.11 23.94 37 19.79 65.74 18.6 73.94 17.77 79.7 11.99 83.55 6.31 81.08 0 77.24 6.34 82.74 12.86 85.37 19.14 80.99 25.11 39.7 31.21 50.17 37.41 46.25 43.47 37.63 48.6 34.86 49.41 39.27 49.46 39.56 53.4 61.07 53.42 61.17 54.33 66.14 60.58 90.28 67.79 99.58 73.67 50.1 78.65 67.81 80.62 92.12 84.67 141.9 90.67 154.3 97.57 173.04 102.75 173.64 109.84 295.67 116.02 260.69 122.21 225.65 127.65 199.3 130.88 220.61 132.96 234.41 135.02 249.65 138.94 278.76 140.3 288.86 146.05 257.98 151.13 273.83 152.1 282 158.08 332.35 163.54 332.05 169.2 347.58 176.43 378.41 181.5 373.87 181.66 375.37 187.21 425.73 194.55 482.87 200.86 401.08 206.97 383.4 213.13 369.12 219.36 316.98 225.42 285.46 230.48 288.6 237.62 305.36 243.12 291.01 246.28 300.32 246.57 301.17 249.79 310.63 255.96 292.74 262.15 248.46 268.27 237.22 274.09 213.95 279.22 224.24 281.38 229.6 283.9 235.83 285.16 238.95 289.45 273.27 289.83 276.25 292.37 296.59 298.56 288.82 304.71 266.94 310.85 253.41 317 219.76 323.13 215.23 329.05 192.71 334.05 198.66 336.11 207.69 336.31 208.54 341.33 230.53 347.48 214.91 353.43 192.45 359.69 198.07 365.77 180.6 370.99 178.3 374.52 189.45 376.63 196.13 377.17 197.65 379.17 203.44 383.89 217.04 389.11 211.75 389.59 213.73 396.1 240.89 402.25 219.06 408.4 201.72 413.81 177.76 417.27 196.57 419.56 209 420.55 214.36 426.33 180.01 431.52 196.92 435.78 205.51 437.45 208.88 443.39 255.42 449.38 287.18 455.32 337.71 462.46 464.4 468.65 420.86 474.79 411.19 480.63 342.51 485.66 375.09 489.99 402.35 490.87 407.94 493.02 421.47 498.39 366.77 501.19 416.72 501.3 418.61 504.06 467.93 511.13 474.6 517.37 421.2 523.1 381.11 529.58 405.14 535.34 379 540.4 392.57 540.8 398.62 541.36 407.25 544.5 455.2 547.58 502.21 553.47 462.92 559.75 476.36 565.94 466.48 572.01 419.92 576.88 426.45 582.1 457.09 583.07 462.81 584.19 469.41 590.41 427.7 596.5 371.08 601.53 379.01 607.93 389.8 614.84 394.58 621 360.6 626.53 353.91 627.95 356.56 631.93 364.02 639.18 378.27 644.97 368.07 648.92 372.62 650.1 373.98 650.96 374.97 656.31 375.93 662.59 408 668.24 413.4 675.51 469.51 681.18 438.92 686.32 459.49 686.89 462.9 693.66 503.85 698.98 484.19 701.09 499.53 704.39 523.59 711.71 582.24 717.91 547.44 723.83 504.55 728.78 516.84 731.43 539.57 734.84 568.8 736.07 579.34 742.24 547.71 748.39 530.44 754.46 488.25 760.67 494.41 766.58 455.82 772.86 468.38 778.1 459.08 779.32 464.63 783.02 481.41 785.02 490.49 790.57 464.6 795.36 484.48 797 491.31 803.29 487.73 809.45 462.2 815.61 440.44 821.26 410.32 827.72 432.83 833.43 424.96 836 428.03 836.32 428.41 839.98 432.8 846.17 394.99 852.14 378.38 857.34 380.82 860.27 386.8 864.33 395.05 870.51 387.94 876.31 374.27 882.01 381.25 882.61 381.99 888.44 376.19 890.11 377.63 891.79 379.09 894.08 381.08 900.98 385.83 907.06 362.43 913.1 361.86 918.41 356.98 918.82 358.53 922.71 373.2 924.1 378.44 931.18 391.7 937.52 388.82 943.7 343.04 949.81 339.59 955.39 319.92 959.44 334 960.62 338.1 965.08 372.8 966.59 384.54 973.95 409.67 979.96 393.27 986.2 394.57 991.97 362.61 997.48 379.17 1003.58 384.47 1004.44 385.22 1010.6 371.97 1016.71 347.81 1022.87 343.39 1028.98 312.31 1034.71 311.83 1041.2 313.11 1047.34 290.49 1053.42 277.51 1059.35 272.07 1062.8 272.06 1065.68 272.06 1071.55 246.25 1076.57 254.91 1078.81 264.43 1080.41 271.27 1081.26 274.88 1083.82 285.81 1090.03 277.35 1095.71 232.5 1102.21 263.29 1108.17 245.07 1114.44 249.25 1120.6 226.03 1126.41 198.62 1132.83 211.19 1138.73 174.66 1144.67 186.7 1151.16 186.58 1157.34 146.9 1162.93 137.31 1165.7 142.04 1169.28 148.14 1175.46 145.89 1180.59 141.92 1180.72 142.84 1184.2 167.38 1186.29 182.07 1193.56 263.64 1199.74 210.27 1205.77 211.18 1210.78 205.47 1211.06 208.1 1215.58 250.85 1217.88 272.57 1224.12 222.16 1230.43 140.18 1236.55 125.78 1242.08 103.84 1246.6 119.94 1248.73 127.53 1254.9 83.9 1261.03 82.46 1266.99 48.98 1273.12 57.63 1279.04 52.84 1280.46 53.37 1285.46 55.23 1291.02 24.98 1295.5 49.4 1296.23 53.4 1296.69 59.63 1302.09 133.55 1307.72 293.39 1314.68 410.62 1319.64 408.05 1325.89 593.21 1332.64 595.93 1338.57 446.02 1344.94 551.61 1350.75 423.4 1355.75 533.87 1356.6 544.83 1359.38 580.39 1361.62 609.05 1368.34 888.32 1374.14 738.42 1378.7 882.3 1379.07 893.9 1385.64 1228.33 1391.6 976.02 1395.28 1222.73 1397.42 1366.13 1403.35 1199.65 1409.68 1335.68 1415.04 1278.28 1417.58 1331.1 1418.66 1353.78 1420.45 1390.96 1427.76 1402.99 1434.43 1164.7 1440.56 1179.63 1446.51 1018.65 1452.87 1134.71 1458.96 1024.47 1463.85 1053.97 1467.18 1126.39 1468.87 1163.18 1469.04 1166.83 1470.92 1207.68 1476.47 1161.16 1482.01 1201.23 1483.1 1209.12 1489.77 977.67" fill="#757575" />
                <polygon id="marketHigh" points="1297.63 53.88 1332.87 33.4 1325.49 0 1290.25 20.48 1297.63 53.88" fill="#c2c2c2" />
</svg>