<svg xmlns="http://www.w3.org/2000/svg" viewBox="0 0 850.46 272.53"><title>zoom</title><g id="Layer_2" data-name="Layer 2"><g id="Layer_3" data-name="Layer 3"><path d="M850,.25c-11.21,19.1-11.11,33.72-32.4,42.08-.63,1.7-2.42,3.82-3.31,5.17C810.65,46,810,45,808.16,41.4l-2.86.68-.64-4.56c-2.63-1.31-4.37-4.21-6-6.44-9.89,17.81-8.88,35-13.9,45-4.79,9.51-12.84,16-16.77,25.78-6.86,2.17-7.18,9.22-8.73,15.44l-1.78-6.18c-10.94,1.12-15.36,10.66-25.69,12.65a42.14,42.14,0,0,0-2.62-12.61c-7.32,22.44-22.42,38.81-32.65,59.55a42.82,42.82,0,0,1-5.95-.75c-.86-2.17-2.74-3.65-4.17-5.48-2.18,4.56-3.7,8.42-7.12,12.17-.09-2.9-.2-5.78-.45-8.67l-1.56,3.16c-1.9-7.51-.34-14.67-.47-22.46-14.64,26.68-16.2,64.2-33.75,89.13,0-10.5.84-19-4.47-28a17.21,17.21,0,0,1-2.92,5.35c-2.36-6.58-1.2-12.52-1.23-19.08-2.82-2.3-3.37-8.86-7.88-9l.37,0c-3.85.22-6.27,1.35-9.58,3.35l-1-3.6a68.66,68.66,0,0,1-9.4,11.86c-.22-5.29,0-9.66-5.86-11.11a27.71,27.71,0,0,0-2-10.33c-1.36,13.48-11.82,27.52-16.55,40.73l-7.35-1.14L573.84,213c-6.17,3.65-10.53,11.34-16.91,13.5L555.8,221c-1.46,10.88-6.2,20.62-9.19,31.22-2.35,1.05-4.77,1.53-6.52,3.15l0-.2c-2.07-.43-6.18,1.62-8.77,1.52-3.77,4.71-5.85,9.45-11.71,11.77-.95-3.53-1-3.74-3.77-5.8-.75-6.47-4.72-5.81-10.45-7.46-.06-4.44.5-7.83-2.58-11.14-3.73.68-5.71,2.19-8.95,3.84-2.64-2.67-6.81-3.16-10.58-2.83-.19-2.13-.5-4.13-.87-6.26l-1,5.37c-3.18.29-4.3.31-6.69,2.41a32.85,32.85,0,0,1-3-5.57l-5.26,1.86c-1.49-2.1-1.65-2.31-4.25-3.41l-1.74-3c-1.18,4.27-2.46,8.93-4.73,12.65l-4-1.52a15.19,15.19,0,0,0-2.54-4.84,18.34,18.34,0,0,0-4.35,2.41l-2.24-.54-1.3-3.14a114.05,114.05,0,0,1-1.63,15.95c-2.18,1.87-3.74,5.56-5.24,8l-2.77.36-1.75,3c-4.05.67-7.88,2.37-11.95,3.23,0-5,.46-8.94-2.33-13.11l-1.91.94L410.18,257l-3.6,1a15.06,15.06,0,0,0-3-5.53l-3.94,5.77a12.07,12.07,0,0,0-7.14,2.42l-3.53-1.2a69.73,69.73,0,0,0-2.12-9c-2.76,1.24-5,4.84-7.51,6.63,3,.25-1.17,0-4.16-.51l-2.92-5.24-3.27.89v3.18c0-15.11-3.82-20.11-13-32l-2.54.29L352,225.54a35.57,35.57,0,0,0-6.31.92c-1,3.95-2.72,6-5.67,8.91-1-2-5.24-7.29-5.05-9.18l-.51,2a28.1,28.1,0,0,0-1.88-7.34c-2.43-.5-4.58-1.26-7.07-1.62a11.68,11.68,0,0,0-3.59-3.44c2.89-1.36,1.13-.53-1.76.82-1.43,5.52-2.76,9.74-5.92,14.47l-2.42-.71c-.71-5.31-3.05-9.45-4-14.48-3.49-2.87-5.05-11.56-6.72-16.05l-3.31-1.18c-2.18,5.94-5.9,9.37-7.85,16.29-3.25,1.14-6.48,1.47-9.73,2.59a6.38,6.38,0,0,1-1.11,2.19l-10.28-2.82c-.85.61-1.07,1.81-1.41,2.8l-3.11-1.92-1-4.4c-3.18-2.4-4.76-1.86-8.62-1-.21-3.93-1.26-6.56-2.51-10.23l-2.91-1.31a68.55,68.55,0,0,0-9.78,4.87c-2.61-2.52-2.4-4.34-4-7.56-1.58,6.53-5.38,11.54-7.66,17.9l-5,.63a23.15,23.15,0,0,1-2.91,3.11c-1-.33-2.43-.11-3-1l-2.57,1.76c-2.4-1.21-4.66-2.16-6.19-4.4-4.24.12-8.23,1-12.41.6L194,218.57a89,89,0,0,0-.55-12.54l-3.84-1.77a14.18,14.18,0,0,0-2.26-4.7c-.89.9-4.25,2.49-5,2.39-.19-3.57-10.37-21.68-10.71-28.49-1.4,8-3,13.13-10.22,16.82-.08-3.3-.19-6.57-.45-9.86a23.27,23.27,0,0,1-3.07,5.74l-2.31-.62a36.28,36.28,0,0,0-.89-6.22c-1.92-.52-7.3,1.41-9.75,6.67-1.81-2.09-3-2.62-5.72-3.43A65.75,65.75,0,0,0,137,174a29.54,29.54,0,0,1-4.62,11.53c-2.38,3.67-5.87,6-8.51,9.29-4.06,5.07-2.17,13-10.64,14.9-1-2.77-.93-2.77-3.28-4.08a14.79,14.79,0,0,0-9.07-10.07,25.21,25.21,0,0,1-2,5.4,20.66,20.66,0,0,0-5.21,2.21c-1.57,9.81-12.94,6.08-20.87,8.07-1.59,3.49-2.58,7.15-4.08,10.66l-2.6-3.29c-5.78,0-12.22-1.58-17.59-.13a30.13,30.13,0,0,1-3.29,7.27A38,38,0,0,1,38,224.52c-1.21-4.43-2-5.71-6.18-7.11l-.48,3.81-1.9,1.23-.4,3.46c-1.28,1-2,2.91-2.76,4.28a17.52,17.52,0,0,0-6.73,3L16,229c-.93-1.09-7.64.87-8.88,1.29-4.1,1.35-4.24,2.35-5.53,6.19a3.66,3.66,0,0,0-1.26.72" fill="none" stroke="#000" stroke-miterlimit="10"/></g></g></svg>