<svg xmlns="http://www.w3.org/2000/svg" viewBox="0 0 2144.08 690.64"><title>zoom</title><g id="Layer_2" data-name="Layer 2"><g id="Layer_3" data-name="Layer 3"><path d="M2143.53,6a334.18,334.18,0,0,0-15.46,30.3c-4.77,10.38-9.28,21-15,31.34a114.55,114.55,0,0,1-9.73,14.92,89.49,89.49,0,0,1-12.43,13c-9.16,7.85-19.83,13.54-30.77,17.89l2.28-2.32a27,27,0,0,1-2,4.1c-.73,1.23-1.5,2.37-2.27,3.48s-1.55,2.16-2.31,3.2-1.5,2.06-2.12,3l0,0a4,4,0,0,1-4.83,1.48,51.13,51.13,0,0,1-5.55-2.62,22.44,22.44,0,0,1-5.42-4.11,29,29,0,0,1-3.83-5.32c-1-1.77-1.89-3.49-2.75-5.19l4.49,2.09-7.17,1.7a4,4,0,0,1-4.81-3c0-.12,0-.24-.07-.36l-1.62-11.44,2.16,3a25.56,25.56,0,0,1-5.44-3.74,39.89,39.89,0,0,1-4.28-4.48c-2.56-3.09-4.67-6.3-6.77-9.2l6.73-.41a192.69,192.69,0,0,0-17.42,44.7c-2.06,7.8-3.77,15.72-5.35,23.72s-3.11,16.08-5.1,24.2c-.5,2-1,4.06-1.62,6.09l-.9,3c-.3,1-.7,2-1,3l-1.09,3-1.33,3c-.85,2-1.88,3.87-2.88,5.74a169.87,169.87,0,0,1-14,20.88c-5,6.58-10.08,12.92-14.66,19.48a106.8,106.8,0,0,0-11.5,20.62,4,4,0,0,1-2.47,2.31h0a20.16,20.16,0,0,0-8.34,5,25,25,0,0,0-5.28,8.64,75.44,75.44,0,0,0-3.08,10.73c-.84,3.75-1.6,7.64-2.57,11.58a4,4,0,0,1-7.7.15l-4.47-15.51,4.23,2.86a46.72,46.72,0,0,0-16,4.73,99.4,99.4,0,0,0-14.72,9.44,165,165,0,0,1-15.35,10.56,58.37,58.37,0,0,1-18.15,7,4,4,0,0,1-4.66-3.16,3.55,3.55,0,0,1-.06-.56,91.5,91.5,0,0,0-2-15.44,149.4,149.4,0,0,0-4.4-15.19l7.55,0a268.57,268.57,0,0,1-17,39.92c-6.62,12.82-14,25.15-21.65,37.26s-15.43,24-22.88,36.09-14.56,24.3-20.79,36.93a4,4,0,0,1-3.82,2.21,117.21,117.21,0,0,1-15.47-1.94h0a4,4,0,0,1-2.89-2.42,21.68,21.68,0,0,0-4-6.11c-1.79-2.06-3.9-4.16-5.89-6.71l6.71-.72c-2.53,5.28-4.93,10.75-7.84,16.18a75.77,75.77,0,0,1-10.69,15.37h0a4,4,0,0,1-6.89-2.55c-.23-7.25-.51-14.45-1.12-21.58l7.5,1.42-3.92,7.94a4,4,0,0,1-7.39-.78,82,82,0,0,1-2.27-14.69,141.84,141.84,0,0,1-.11-14.57c.38-9.59,1.24-18.91,1.08-28.08l7.43,1.84c-9.45,17.26-16.5,35.87-22.6,54.79s-11.24,38.28-16.63,57.61-11,38.7-18.16,57.66-15.89,37.5-27.69,54.3a3.94,3.94,0,0,1-7.17-2.24v0c0-12.16.53-24.18-.56-35.8a84.49,84.49,0,0,0-3.22-17,73.7,73.7,0,0,0-6.89-15.68l7.13-.74c-.43,1.29-.91,2.6-1.47,3.91a38.43,38.43,0,0,1-1.93,3.85c-1.43,2.48-3,4.62-4.46,6.72a3.93,3.93,0,0,1-6.93-.93h0a65.18,65.18,0,0,1-3.1-12.47,88.48,88.48,0,0,1-.88-12.62c0-8.33.71-16.36.66-24.19l1.45,3a24.41,24.41,0,0,1-5.63-7.41c-1.33-2.46-2.42-4.83-3.59-7a21.63,21.63,0,0,0-3.76-5.38,6.32,6.32,0,0,0-4.44-1.94h0a3.94,3.94,0,0,1-.08-7.87l.92-.05.45,7.86a38,38,0,0,0-11.44,2.31,66,66,0,0,0-10.82,5.55,4,4,0,0,1-5.41-1.33,4.11,4.11,0,0,1-.43-1l-2.43-9,7.17,1a141.72,141.72,0,0,1-11.29,16c-4.09,5.06-8.43,9.84-12.83,14.5a3.94,3.94,0,0,1-5.56.15,4,4,0,0,1-1.23-2.69c-.12-2.95-.19-5.84-.4-8.59a31.32,31.32,0,0,0-1.33-7.58,10.6,10.6,0,0,0-3.62-5.24,17.76,17.76,0,0,0-6.4-2.88l0,0a3.93,3.93,0,0,1-2.94-3.65,85.26,85.26,0,0,0-1.24-12.65,63.5,63.5,0,0,0-3.56-12l7.56-1.06a114.11,114.11,0,0,1-7,27.81A275,275,0,0,1,1495,502.75c-4.12,8.35-8.42,16.54-12.48,24.77a243.27,243.27,0,0,0-11,25h0a3.94,3.94,0,0,1-4.3,2.55l-18.46-2.87a3.94,3.94,0,0,1-3.1-2.57l-3.41-9.7,5.69,2.08a62,62,0,0,0-10.18,7.83c-3.25,3-6.39,6.23-9.65,9.48a124.68,124.68,0,0,1-10.44,9.53,44.54,44.54,0,0,1-13,7.42,3.9,3.9,0,0,1-5-2.43,2.42,2.42,0,0,1-.13-.46v0l-2.83-13.74,7.72-.27c-1.87,14-5.9,27.37-10.33,40.36s-9.24,25.73-12.87,38.66a4,4,0,0,1-2.17,2.51c-3,1.35-6,2.32-8.67,3.39a21.25,21.25,0,0,0-6.69,3.83,3.91,3.91,0,0,1-6.45-3.81v0l.13-.51,3,4.8a12.74,12.74,0,0,0-4,.35c-1.64.35-3.4.83-5.19,1.33s-3.66,1-5.64,1.46a27.24,27.24,0,0,1-6.56.76l3.2-1.46c-2.13,2.65-4.14,5.46-6.2,8.33s-4.16,5.83-6.55,8.7a51.27,51.27,0,0,1-8.18,8,42.3,42.3,0,0,1-10.14,5.73,3.89,3.89,0,0,1-5.06-2.18,2.16,2.16,0,0,1-.14-.43h0c-.38-1.44-.77-2.87-1.17-4.19a14.51,14.51,0,0,0-1.32-3.24,10.29,10.29,0,0,0-2.21-2.4c-1-.85-2.17-1.74-3.34-2.63a3.93,3.93,0,0,1-1.51-2.6V664a19.86,19.86,0,0,0-2-7,8.81,8.81,0,0,0-1.92-2.38,15.69,15.69,0,0,0-1.3-.9,12.29,12.29,0,0,0-1.54-.77,46.87,46.87,0,0,0-7.85-2.24c-2.87-.64-5.88-1.32-8.87-2.17a3.88,3.88,0,0,1-2.82-3.68v0c-.07-5.09.23-10-.32-14.34a20.22,20.22,0,0,0-1.65-6,19.84,19.84,0,0,0-3.46-5.07l3.55,1.18a40,40,0,0,0-10.62,3.55c-3.44,1.69-7,3.84-10.81,5.75h0a3.91,3.91,0,0,1-4.52-.75,20.68,20.68,0,0,0-10.5-5.35,44,44,0,0,0-13-.61h0a3.89,3.89,0,0,1-4.21-3.53c-.48-5.13-1.25-10.25-2.16-15.41l7.67.06-2.61,13.49A3.9,3.9,0,0,1,1214,621h0a46.22,46.22,0,0,0-8.28,1.14,11.93,11.93,0,0,0-3.15,1.5,30,30,0,0,0-3.18,2.46h0a3.91,3.91,0,0,1-5.52-.39,3.27,3.27,0,0,1-.28-.37,88.29,88.29,0,0,1-7.9-14.62l4.88,2.13-13.22,4.67a3.9,3.9,0,0,1-4.48-1.42c-.67-.94-1.34-1.89-2-2.7a9.89,9.89,0,0,0-1.74-1.85,11.75,11.75,0,0,0-2.28-1.33c-.94-.45-2-.9-3-1.34l4.89-5.52.35.61.18.3,0,.08,0,0h0l0,0c-2.77,2.08,6.33-4.49-6.79,3.81l0,.09h0l-.08-.14-.7-1.22-1.39-2.45-2.8-4.91,7.14-.89c-1.51,5.47-3,11-5,16.56a84.22,84.22,0,0,1-7.37,16.24,3.89,3.89,0,0,1-4.69,1.61h0l-10.14-3.84a3.92,3.92,0,0,1-2.34-2.5,26.37,26.37,0,0,0-2.32-5.58c-1-1.75-2.29-3.62-3.57-5.53L1134,617a41.45,41.45,0,0,0-10,5.58,3.82,3.82,0,0,1-3.18.64h0l-5.63-1.36a4,4,0,0,1-2.68-2.3l-3.27-7.89,7.49-1.45a193.85,193.85,0,0,1-1.37,20.51c-.78,6.77-1.8,13.46-2.78,20.09a3.9,3.9,0,0,1-1.29,2.37h0a22.86,22.86,0,0,0-3.38,3.83,54.84,54.84,0,0,0-3,4.73c-2,3.34-3.73,6.91-6,10.58a3.84,3.84,0,0,1-2.76,1.79h0l-7,.9,2.84-1.87-4.41,7.43a3.88,3.88,0,0,1-2.7,1.85,110.17,110.17,0,0,0-14.54,3.78c-4.92,1.53-10,3.18-15.33,4.31a3.89,3.89,0,0,1-4.6-3,3.84,3.84,0,0,1-.08-.76v0c0-5.8.25-11.44-.28-16.65a33,33,0,0,0-1.58-7.46A29.67,29.67,0,0,0,1045,656h0a3.89,3.89,0,0,1,1.1-5.38,3.14,3.14,0,0,1,.44-.25l.81-.39h0l3.41,7h0l0,0-.1.05-.2.1-.41.19-1.62.8-3.24,1.58a3.88,3.88,0,0,1-4.11-.44l-8.85-7a3.88,3.88,0,0,1,1.35-6.78l1.65-.46.51-.15.24,0c7,13.17-.87,5.27,1.79,7.54h-.07l-.05,0-.11,0-.2.06-.82.23-3.29.93-6.56,1.85a3.9,3.9,0,0,1-4.73-2.46c-.42-1.22-.85-2.42-1.31-3.54a27.65,27.65,0,0,0-1.51-3.19,46.87,46.87,0,0,0-4.2-6l6.25-.21-9.9,14.5a3.88,3.88,0,0,1-2.87,1.68h0c-1.55.12-3.07.27-4.5.49a21.27,21.27,0,0,0-7.8,2.62c-1.26.69-2.54,1.49-3.82,2.34h0a3.89,3.89,0,0,1-3.38.44l-8.87-3h0a3.88,3.88,0,0,1-2.59-3.17c-.92-7.27-3.2-14.52-5.22-22.14l5.33,2.54a18.93,18.93,0,0,0-4.29,2.91c-1.43,1.24-2.83,2.66-4.25,4.15s-2.86,3.07-4.42,4.64a42.75,42.75,0,0,1-5.25,4.6l-1.93-7,2,.16.51,0,.18,0h.13c.86-1.67-.77,14.54-.58,7.71h-.36l-.27,0-1-.09-4-.4c-2.66-.29-5.3-.61-8-1a3.92,3.92,0,0,1-2.79-1.94l-7.34-13.19,4.41,1.85L932,640.93l2.85-3.74v8a3.88,3.88,0,0,1-7.75,0v0a144.22,144.22,0,0,0-1.5-21.59,76.71,76.71,0,0,0-6-20.29,118.13,118.13,0,0,0-11-18.46c-4.23-6-8.75-11.8-13.28-17.68a3.86,3.86,0,0,1,.71-5.42A3.93,3.93,0,0,1,898,561l1.07-.12h0c-.2-1.67,1.65,14.54.87,7.68h-.12l-.14,0-.26,0-.54.06-2.13.24-4.27.49,2.61-1.46-3.66,4.68h0a3.86,3.86,0,0,1-2.8,1.47,85.5,85.5,0,0,0-15.18,2.22l2.85-2.84a44.74,44.74,0,0,1-2.3,7,37.58,37.58,0,0,1-3.59,6.56A72.75,72.75,0,0,1,861,597.68a3.86,3.86,0,0,1-5.45,0,4.17,4.17,0,0,1-.65-.88l-.06-.12c-.4-.75-.9-1.62-1.48-2.51s-1.16-1.8-1.77-2.71c-1.21-1.82-2.46-3.67-3.69-5.57s-2.45-3.85-3.59-6a31.07,31.07,0,0,1-1.61-3.42,14.61,14.61,0,0,1-.67-2.11l-.13-.6a3.53,3.53,0,0,1-.1-.68,14.6,14.6,0,0,1,0-1.62l7.58,1.35-1.3,5h0a3.86,3.86,0,0,1-7.59-.67c-.43-5.73-2.33-11.5-4.48-17.41l2.84,2.46c-3.13-.65-6.14-1.47-9-2.22a79,79,0,0,0-8.51-1.81,3.9,3.9,0,0,1-2.77-1.85,16.22,16.22,0,0,0-3.29-3.9,52.23,52.23,0,0,0-4.65-3.57,3.85,3.85,0,0,1,.59-6.64l3-1.39.74-.35h0c-2.93-6.24,4,8.5,3.27,7h0l-.05,0-.09,0-.19.09-.37.17-1.48.7L810,551.3l2.09-2.53a176.47,176.47,0,0,1-5.93,19.3,93.15,93.15,0,0,1-9.47,18.24h0a3.86,3.86,0,0,1-4.29,1.56l-6.1-1.8h0a3.85,3.85,0,0,1-2.72-3.19A93.41,93.41,0,0,0,779,565.35c-2-5.91-4.18-12.09-5.37-18.68L775,549a24.34,24.34,0,0,1-4.34-5l-.86-1.3c-.28-.44-.51-.89-.76-1.33l-.73-1.32-.65-1.34A90.34,90.34,0,0,1,763.42,528c-1.19-3.58-2.23-7.16-3.26-10.69s-2-7-3.23-10.28l2.31,2.29-8.32-3,4.9-2.3a80.35,80.35,0,0,1-5,10.85c-1.88,3.45-3.88,6.72-5.76,10s-3.65,6.43-5.16,9.72a72.19,72.19,0,0,0-3.74,10.11v0a3.85,3.85,0,0,1-2.42,2.56,110.38,110.38,0,0,1-12.65,3.42,112.18,112.18,0,0,0-11.83,3.11l2.31-2.16c-.32.76-.65,1.77-1.15,2.95a12,12,0,0,1-2.47,3.8,3.86,3.86,0,0,1-3.74,1l-25.84-7.09,3.26-.58a1.63,1.63,0,0,0-.41.46,5.65,5.65,0,0,0-.54,1.08c-.38.93-.7,2.15-1.2,3.63a3.82,3.82,0,0,1-4.85,2.4,3.6,3.6,0,0,1-.77-.36l0,0L666,554a3.89,3.89,0,0,1-1.72-2.39l-2.6-11,1.43,2.18A23.9,23.9,0,0,0,659,540.2a10,10,0,0,0-4-1c-2.84-.07-6.55.94-10.29,1.78h0a3.85,3.85,0,0,1-4.59-2.91,4.52,4.52,0,0,1-.08-.63,57.21,57.21,0,0,0-2.05-12.28c-1.12-4-2.63-8.18-4.06-12.42l2.07,2.27-7.32-3.3,3.11,0c-8.42,3.66-16.66,7.23-24.06,12h0a3.83,3.83,0,0,1-4.72-.48,31,31,0,0,1-4-4.74A27.81,27.81,0,0,1,596,513c-.73-1.84-1.3-3.55-1.91-5.16a48.13,48.13,0,0,0-2-4.63l7.17-.8a84,84,0,0,1-4,12.18c-1.61,3.92-3.43,7.68-5.28,11.36-3.69,7.36-7.42,14.45-10.05,21.83a3.81,3.81,0,0,1-3.13,2.51l-12.56,1.59,2.73-1.7a29.92,29.92,0,0,1-4,4.69c-1.35,1.34-2.67,2.53-3.79,3.69l0,0a3.79,3.79,0,0,1-3.93,1,8.3,8.3,0,0,0-1.34-.27c-.6-.08-1.3-.16-2.12-.29a12.4,12.4,0,0,1-2.87-.8,7.4,7.4,0,0,1-3.23-2.64l5.35,1L544.58,561h0a3.82,3.82,0,0,1-3.88.25c-2.8-1.42-5.83-2.8-8.85-4.69a30.88,30.88,0,0,1-4.4-3.31,25.27,25.27,0,0,1-3.75-4.3l3.27,1.67c-5,.13-10.09.71-15.35,1.18a91.68,91.68,0,0,1-16.28.31l3-1.11-4.44,4.44a3.82,3.82,0,0,1-6.53-2.7c0-10.55.08-20.93-1.35-31l2.19,2.94-9.65-4.45a3.85,3.85,0,0,1-2-2.27,56.74,56.74,0,0,0-2.15-5.76,27.71,27.71,0,0,0-3-5l5.78.43a14.81,14.81,0,0,1-1.91,1.54c-.59.41-1.15.76-1.72,1.1-1.13.67-2.25,1.26-3.39,1.82s-2.3,1.08-3.54,1.55c-.62.24-1.27.47-2,.68-.4.1-.73.2-1.23.29l-.76.12a7.82,7.82,0,0,1-1.28,0,3.55,3.55,0,0,1-3.21-2.87l-.14-.72c0-.1,0-.2-.05-.3a1.56,1.56,0,0,0-.06-.36c-.07-.3-.1-.56-.21-.91l-.29-1-.35-1c-.48-1.41-1-2.85-1.62-4.29-1.17-2.89-2.44-5.79-3.74-8.69L443.87,477c-2.61-5.88-5.17-11.8-7.49-17.9-1.15-3.05-2.25-6.14-3.2-9.35a47.79,47.79,0,0,1-2-10.27l7.58.46c-.76,4.3-1.59,8.64-2.73,13a61.5,61.5,0,0,1-4.82,12.92,40,40,0,0,1-8.65,11.25A52.78,52.78,0,0,1,411,485a3.79,3.79,0,0,1-5.12-1.63,3.65,3.65,0,0,1-.43-1.64v0c-.19-8.24-.46-16.44-1.12-24.56l7.36,1.05a65.13,65.13,0,0,1-3.54,7.92,67.36,67.36,0,0,1-4.63,7.36,3.82,3.82,0,0,1-4.1,1.47l-5.79-1.57h0a3.82,3.82,0,0,1-2.81-3.43,88.57,88.57,0,0,0-2.13-15l2.72,2.8a1.27,1.27,0,0,1-.34-.05h-.57a4,4,0,0,0-.66,0,4.88,4.88,0,0,0-.72.09,13.35,13.35,0,0,0-1.53.35c-.51.13-1,.32-1.56.51a25.4,25.4,0,0,0-6,3.25,28.37,28.37,0,0,0-5,4.69,30.82,30.82,0,0,0-3.68,5.81l0,.06a3.81,3.81,0,0,1-6.31.82,30.91,30.91,0,0,0-2.63-2.71,16,16,0,0,0-2.79-2,35.8,35.8,0,0,0-7.17-2.73h0a3.8,3.8,0,0,1-2.67-3.15c-.87-6.86-3.35-13.75-5.35-21.15l7.45-.42a76.34,76.34,0,0,1-10.23,27.36c-.62,1-1.26,2.06-1.92,3.08s-1.41,2.09-2.17,3.08a67.33,67.33,0,0,1-4.81,5.62c-3.35,3.52-6.83,6.64-10,9.85a65.1,65.1,0,0,0-4.43,4.9,24.13,24.13,0,0,0-3.23,5.14c-1.82,3.76-3,8.12-4.52,12.68a53.3,53.3,0,0,1-2.79,7,27.55,27.55,0,0,1-4.53,6.66,23.86,23.86,0,0,1-6.58,5,32.7,32.7,0,0,1-7.46,2.67,3.81,3.81,0,0,1-4.45-2.42v0l-1.14-3.15a9.86,9.86,0,0,0-1-2.17,2.48,2.48,0,0,0-.53-.56c-.12-.1-.26-.21-.43-.33L281,525c-.81-.51-1.81-1.06-2.79-1.61a3.83,3.83,0,0,1-1.82-2.28,36,36,0,0,0-7.54-13.95,32.68,32.68,0,0,0-13-8.85l5.1-2.68a69.78,69.78,0,0,1-2.2,7.34,76,76,0,0,1-3,7,3.89,3.89,0,0,1-2.44,2,45.42,45.42,0,0,0-6.21,2.15c-2,.87-4,1.94-6,3.07l1.94-2.77a27.71,27.71,0,0,1-2.74,8.49,20.3,20.3,0,0,1-6.13,7.09,26.51,26.51,0,0,1-8.13,3.82,48.87,48.87,0,0,1-8.21,1.54c-5.38.58-10.58.61-15.63.83a72.61,72.61,0,0,0-14.47,1.68l2.58-2.15c-3.82,8.31-6.33,17.55-10.22,26.69a3.87,3.87,0,0,1-5.1,2,3.93,3.93,0,0,1-1.51-1.14v0l-6.53-8.25,3,1.48c-7.77,0-15.18-1-22.43-1.52s-14.35-.66-20.76,1l2.72-2.64a79.36,79.36,0,0,1-3.7,9.91,86.15,86.15,0,0,1-5,9.3,4,4,0,0,1-3.64,1.86h0a100.42,100.42,0,0,1-19-3.11,4,4,0,0,1-2.75-2.76c-.54-2-1.1-3.93-1.75-5.7a16.2,16.2,0,0,0-2.32-4.48,11,11,0,0,0-3.67-2.87,35.87,35.87,0,0,0-5.25-2.13l5.15-3.25-1.19,9.58a4,4,0,0,1-1.77,2.82l-4.77,3.09,1.77-2.86-1,8.71v0a3.92,3.92,0,0,1-1.45,2.6,13.49,13.49,0,0,0-3,3.92c-1,1.69-1.83,3.61-3,5.72a3.9,3.9,0,0,1-2.71,1.92h0a28.38,28.38,0,0,0-7.78,2.59A80.07,80.07,0,0,0,55,592.88a4,4,0,0,1-5.14-.77l-4.78-5.63-2.39-2.81-1.19-1.4L41,581.6a2.21,2.21,0,0,0,.8.62c.14,0-.2-.05-.59-.06a13.68,13.68,0,0,0-1.4,0,31.27,31.27,0,0,0-3.27.4c-2.25.38-4.57.91-6.88,1.49S25,585.33,22.8,586A27,27,0,0,0,17,588.56a7.55,7.55,0,0,0-1.8,1.57,11.27,11.27,0,0,0-1.31,2.32c-.82,1.91-1.56,4.27-2.35,6.61l0,.08a3.83,3.83,0,0,1-2.22,2.33,6.3,6.3,0,0,0-1.86.95,4,4,0,1,1-6.75-4.37,3.71,3.71,0,0,1,.52-.65l.6-.6A9.88,9.88,0,0,1,4.21,595a21.08,21.08,0,0,1,2-.91L4,596.53c.79-2.31,1.5-4.66,2.62-7.28a18.54,18.54,0,0,1,2.36-4,15.28,15.28,0,0,1,3.7-3.3,34.43,34.43,0,0,1,7.64-3.4c2.53-.82,4.9-1.47,7.38-2.1s4.94-1.19,7.53-1.63c1.31-.21,2.63-.39,4.06-.49a21.46,21.46,0,0,1,2.29,0,9.86,9.86,0,0,1,3,.57,4.92,4.92,0,0,1,.5.21l.59.32.29.18a3.92,3.92,0,0,1,.33.27,7.31,7.31,0,0,1,.64.6l.63.74,1.19,1.41,2.39,2.81L55.92,587l-5.14-.78a89.94,89.94,0,0,1,8.45-4.94,36.46,36.46,0,0,1,9.9-3.27l-2.74,1.93c.92-1.63,1.84-3.62,3-5.68a21.11,21.11,0,0,1,4.91-6.18l-1.44,2.62,1-8.71a3.93,3.93,0,0,1,1.78-2.85L80.4,556l-1.77,2.81,1.21-9.57v0a3.92,3.92,0,0,1,4.37-3.4A4.8,4.8,0,0,1,85,546a44.62,44.62,0,0,1,6.43,2.65,18.8,18.8,0,0,1,6.15,4.93,23.78,23.78,0,0,1,3.54,6.65c.8,2.19,1.39,4.29,2,6.37l-2.75-2.76a91.86,91.86,0,0,0,17.5,2.87l-3.65,1.86A72.36,72.36,0,0,0,122,551.22a3.9,3.9,0,0,1,2.72-2.64A52.62,52.62,0,0,1,136.62,547a109.21,109.21,0,0,1,11.5.34c7.51.55,14.81,1.49,21.86,1.51h0a3.9,3.9,0,0,1,3,1.48l6.53,8.25-6.63.88c3.64-8.45,6.16-17.77,10.31-26.86h0a3.86,3.86,0,0,1,2.57-2.14,80.82,80.82,0,0,1,16.05-1.89c5.2-.22,10.28-.26,15.11-.78s9.39-1.58,12.65-3.93,5.05-6.08,5.78-10.54v0a3.87,3.87,0,0,1,1.94-2.74c2.11-1.16,4.31-2.34,6.68-3.37a52.39,52.39,0,0,1,7.25-2.52l-2.45,2a66.93,66.93,0,0,0,2.72-6.28,59.52,59.52,0,0,0,2-6.53,3.86,3.86,0,0,1,5.11-2.67,40.5,40.5,0,0,1,16,10.93A43.62,43.62,0,0,1,283.75,519l-1.82-2.28c1,.56,2,1.12,3.16,1.82.28.18.56.36.87.58s.61.44.94.71a10.26,10.26,0,0,1,1.82,1.94,16,16,0,0,1,2,4c.44,1.16.81,2.24,1.2,3.32l-4.46-2.46c4-.94,7.63-2.6,10.16-5.39s4.24-6.57,5.66-10.82,2.66-8.94,4.89-13.57a32.18,32.18,0,0,1,4.18-6.64c1.57-1.94,3.24-3.73,4.93-5.44,3.38-3.42,6.83-6.52,9.89-9.75a59.62,59.62,0,0,0,4.26-5c.66-.85,1.25-1.73,1.85-2.62s1.2-1.88,1.77-2.84A68.48,68.48,0,0,0,344.27,440h0a3.8,3.8,0,0,1,7.44-.41c1.86,7,4.51,14.17,5.55,22.14l-2.68-3.16c1.39.42,2.81.85,4.27,1.39a30,30,0,0,1,4.46,2,23.82,23.82,0,0,1,4.11,3,39.2,39.2,0,0,1,3.32,3.41l-6.33.89a37.77,37.77,0,0,1,4.71-7.45,36,36,0,0,1,6.44-6,33.14,33.14,0,0,1,7.8-4.22,21.34,21.34,0,0,1,2.18-.7,18.37,18.37,0,0,1,2.3-.53,11.44,11.44,0,0,1,1.23-.16c.44,0,.81-.1,1.3-.09s.92,0,1.39,0,1.08.17,1.6.28a3.48,3.48,0,0,1,2.68,2.59l.05.21a96.65,96.65,0,0,1,2.33,16.27L395.61,466l5.8,1.56-4.1,1.47a59.44,59.44,0,0,0,4.11-6.52,61,61,0,0,0,3.15-7.05,3.81,3.81,0,0,1,7.36,1.05c.69,8.37,1,16.71,1.15,25l-5.55-3.3a45.87,45.87,0,0,0,9.83-6.68,32.43,32.43,0,0,0,7.05-9.18A54,54,0,0,0,428.6,451c1-4,1.85-8.15,2.59-12.35a3.82,3.82,0,0,1,7.58.4v.06a41.33,41.33,0,0,0,1.74,8.5c.87,2.93,1.91,5.87,3,8.8,2.22,5.86,4.75,11.69,7.32,17.5l7.88,17.5c1.31,2.94,2.6,5.9,3.84,8.93.62,1.52,1.21,3.07,1.77,4.69l.41,1.23.38,1.31c.13.42.22,1,.33,1.42a6.77,6.77,0,0,1,.14.83l.1.89-3.35-3.6a.9.9,0,0,0-.4,0l.11,0a4.77,4.77,0,0,0,.49-.12c.42-.12.88-.28,1.36-.47,1-.37,2-.82,2.94-1.29s1.94-1,2.84-1.52c.44-.26.88-.54,1.26-.8a8.52,8.52,0,0,0,.86-.67l.24-.2a3.82,3.82,0,0,1,5.38.43l.15.2a35.11,35.11,0,0,1,3.79,6.3,62.69,62.69,0,0,1,2.47,6.57l-2-2.27,9.64,4.45a3.84,3.84,0,0,1,2.19,2.94c1.52,10.81,1.41,21.57,1.42,32.05l-6.53-2.7,4.44-4.44a3.85,3.85,0,0,1,3-1.11,85.29,85.29,0,0,0,14.94-.3c5.11-.46,10.38-1.07,15.81-1.22a3.87,3.87,0,0,1,3.27,1.67,19.12,19.12,0,0,0,5.9,5.44c2.43,1.54,5.27,2.86,8.21,4.34l-3.88.26,6.45-4.41,5.35,1c-.07-.13-.24-.21-.08-.13a5.18,5.18,0,0,0,1.07.27c.53.09,1.18.16,1.93.26a15.61,15.61,0,0,1,2.66.58l-3.95,1c1.37-1.41,2.7-2.62,3.89-3.81a22.05,22.05,0,0,0,3-3.46,3.85,3.85,0,0,1,2.72-1.7l12.56-1.58-3.13,2.51c2.87-8,6.79-15.44,10.41-22.68s6.92-14.41,8.72-21.92a3.84,3.84,0,0,1,7.17-.8c.86,1.75,1.62,3.56,2.29,5.33s1.24,3.5,1.85,5a20.89,20.89,0,0,0,2.11,4.08,23.27,23.27,0,0,0,3,3.51l-4.73-.47A118.2,118.2,0,0,1,616,510.4c4.22-2,8.48-3.87,12.67-5.7a3.91,3.91,0,0,1,3.11,0l7.32,3.29h0a3.83,3.83,0,0,1,2.06,2.27c1.4,4.15,2.94,8.36,4.19,12.84a65,65,0,0,1,2.31,13.9l-4.69-3.53c1.84-.42,3.7-.87,5.69-1.27a28.86,28.86,0,0,1,6.55-.7,17.87,17.87,0,0,1,7,1.68,31.44,31.44,0,0,1,5.59,3.43,3.71,3.71,0,0,1,1.41,2.15v0l2.6,11-1.72-2.39,7.81,4.83-5.66,2c.37-1.06.71-2.44,1.33-4a14.42,14.42,0,0,1,1.28-2.49,9.27,9.27,0,0,1,2.34-2.44h0a3.88,3.88,0,0,1,3.25-.57l25.84,7.09-3.74,1a4.46,4.46,0,0,0,.85-1.41c.32-.73.63-1.7,1.1-2.85a3.78,3.78,0,0,1,2.28-2.15h0a120.17,120.17,0,0,1,12.63-3.35A101.26,101.26,0,0,0,731.19,540l-2.42,2.58a79,79,0,0,1,4.16-11.22,116.39,116.39,0,0,1,5.5-10.4c1.94-3.33,3.89-6.53,5.64-9.75a72.92,72.92,0,0,0,4.52-9.83,3.85,3.85,0,0,1,4.91-2.3l8.33,3h0a3.82,3.82,0,0,1,2.29,2.28c1.35,3.68,2.36,7.25,3.41,10.79s2.05,7,3.18,10.44a83,83,0,0,0,3.84,9.81,23.92,23.92,0,0,0,5.3,7.66l.07.06a3.84,3.84,0,0,1,1.27,2.23c1,5.82,3,11.58,5.09,17.58a100.39,100.39,0,0,1,4.89,19l-2.73-3.19,6.09,1.8L790.26,582A85.32,85.32,0,0,0,799,565.28a166.66,166.66,0,0,0,5.65-18.44,3.89,3.89,0,0,1,2.1-2.53l5.92-2.78,1.48-.69.37-.18.19-.08.09-.05,0,0h0c-.71-1.52,6.21,13.22,3.29,7h0l-.74.35-3,1.39.59-6.64a60.22,60.22,0,0,1,5.34,4.1,24.49,24.49,0,0,1,4.78,5.72l-2.77-1.85a85.44,85.44,0,0,1,9.33,2c3,.78,5.85,1.56,8.68,2.14a3.86,3.86,0,0,1,2.84,2.47c1.1,3,2.19,6.11,3.08,9.35a53.63,53.63,0,0,1,1.85,10.1l-7.59-.67,1.3-5a1.52,1.52,0,0,1,1.85-1.09.86.86,0,0,1,.21.07l5.52,2.37s.05,0,0,0,0,.06,0,.13l.06.21a5.65,5.65,0,0,0,.34,1,22.61,22.61,0,0,0,1.22,2.57c1,1.79,2.09,3.6,3.26,5.41s2.4,3.63,3.64,5.49c.62.93,1.24,1.86,1.86,2.85s1.25,2,1.88,3.21l-6.16-1a65.23,65.23,0,0,0,8.43-9.5,32.81,32.81,0,0,0,4.78-11,3.84,3.84,0,0,1,2.83-2.84h0a93.72,93.72,0,0,1,16.49-2.41l-2.8,1.48,3.66-4.68a3.84,3.84,0,0,1,2.61-1.46l4.26-.49L898,561l.53-.06.27,0,.13,0H899c-.78-6.87,1.07,9.35.88,7.68h0l-1.07.12,2.63-6.2c4.53,5.89,9.09,11.78,13.46,17.94a125,125,0,0,1,11.77,19.7,84.41,84.41,0,0,1,6.58,22.3,153.86,153.86,0,0,1,1.6,22.79h-7.75v-8a3.89,3.89,0,0,1,2.85-3.74l8.22-2.25a3.88,3.88,0,0,1,4.41,1.85l7.34,13.19-2.8-1.94c2.51.38,5.08.69,7.65,1l3.86.39,1,.08.22,0h-.16c.2-6.83-1.43,9.38-.58,7.71h0l-.47,0-1.94-.16a3.88,3.88,0,0,1-1.93-7,35.66,35.66,0,0,0,4.24-3.75c1.41-1.42,2.82-3,4.3-4.52a67,67,0,0,1,4.81-4.67,25.68,25.68,0,0,1,6.18-4.11,3.84,3.84,0,0,1,5.1,1.9,3.89,3.89,0,0,1,.22.6v0c1.94,7.36,4.37,15,5.42,23.13l-2.59-3.17,8.87,3-3.4.44c1.4-.92,2.84-1.83,4.39-2.69a31.3,31.3,0,0,1,5-2.23,31.83,31.83,0,0,1,5.33-1.25c1.74-.27,3.42-.42,5.07-.55l-2.9,1.67,9.89-14.49h0a3.87,3.87,0,0,1,5.38-1,3.91,3.91,0,0,1,.86.81,53.93,53.93,0,0,1,4.89,7.07,35.73,35.73,0,0,1,1.91,4c.55,1.34,1,2.65,1.47,3.94l-4.73-2.46,6.57-1.86,3.28-.93.82-.23.21-.06.1,0h.07c2.66,2.28-5.21-5.62,1.8,7.54l.24,0,.07,0h-.07l-.1,0-.21.06-1.64.46,1.35-6.78,8.85,7-4.11-.44,3.24-1.59,1.62-.79.41-.2.2-.1.1,0,0,0h0l3.41,7h0l-.81.4,1.52-5.64a36.87,36.87,0,0,1,4.23,8.5,40.81,40.81,0,0,1,2,9.17c.6,6.11.27,11.86.32,17.42l-4.68-3.78c4.81-1,9.64-2.57,14.62-4.13a116.4,116.4,0,0,1,15.58-4l-2.71,1.85,4.4-7.43a3.93,3.93,0,0,1,2.84-1.88l7-.9-2.8,1.8c2-3.17,3.77-6.8,5.86-10.38,1.06-1.8,2.18-3.61,3.47-5.39a30,30,0,0,1,4.6-5.15l-1.31,2.38c1-6.66,2-13.27,2.74-19.85a186.53,186.53,0,0,0,1.32-19.69,3.89,3.89,0,0,1,7.48-1.46l3.27,7.9-2.68-2.3,5.63,1.36-3.21.64a55.25,55.25,0,0,1,5.65-3.66,47.32,47.32,0,0,1,6.17-2.89h0a3.88,3.88,0,0,1,4.61,1.46c1.27,1.91,2.61,3.81,3.9,6.06a31.42,31.42,0,0,1,1.72,3.55c.49,1.21.9,2.41,1.26,3.58l-2.34-2.5,10.14,3.84-4.7,1.61a76.26,76.26,0,0,0,6.65-14.73c1.8-5.21,3.29-10.61,4.8-16.08a3.89,3.89,0,0,1,7.14-.89l2.8,4.9,1.39,2.45.7,1.23.1.18h0l0,.09c-13.12,8.3-4,1.73-6.8,3.81l0-.06v0l0,0,0-.08-.18-.31-.35-.61h0a3.89,3.89,0,0,1,4.9-5.51c1.1.46,2.21.93,3.38,1.49a19.6,19.6,0,0,1,3.73,2.23,18,18,0,0,1,3.08,3.21c.8,1,1.48,2,2.16,3l-4.48-1.42,13.22-4.68h0a3.91,3.91,0,0,1,4.87,2.13,81.12,81.12,0,0,0,7.21,13.37l-5.8-.77a37.75,37.75,0,0,1,4.08-3.14,20,20,0,0,1,5.11-2.41,29.59,29.59,0,0,1,5.18-1c1.62-.18,3.16-.31,4.67-.45l-3.47,3.15,2.6-13.49a3.9,3.9,0,0,1,7.67.06c.93,5.27,1.74,10.63,2.24,16l-4.22-3.52a51.4,51.4,0,0,1,15.3.76,32.84,32.84,0,0,1,7.61,2.62,25.66,25.66,0,0,1,6.78,4.86l-4.54-.74c3.54-1.77,7-3.86,10.92-5.79a49.32,49.32,0,0,1,6.15-2.55,47.56,47.56,0,0,1,6.49-1.67,3.93,3.93,0,0,1,3.56,1.18,27.63,27.63,0,0,1,4.84,7.12,28,28,0,0,1,2.3,8.24,61.57,61.57,0,0,1,.4,7.9c0,2.53,0,5,0,7.36l-2.82-3.7c2.71.77,5.5,1.4,8.42,2.05a52.55,52.55,0,0,1,9.23,2.69,20.44,20.44,0,0,1,2.43,1.22,21.46,21.46,0,0,1,2.34,1.64,16.64,16.64,0,0,1,3.67,4.48,27.31,27.31,0,0,1,3,10l-1.52-2.66c1.21.92,2.43,1.84,3.71,2.93a18,18,0,0,1,3.78,4.24,22.12,22.12,0,0,1,2.13,5c.47,1.55.86,3,1.25,4.47l-5.21-2.63a33.9,33.9,0,0,0,8.25-4.67,42.82,42.82,0,0,0,6.94-6.8c4.26-5.13,8-11.19,12.64-16.91a3.93,3.93,0,0,1,3.16-1.47h0a19.89,19.89,0,0,0,4.58-.58c1.68-.37,3.43-.86,5.24-1.36s3.68-1,5.7-1.45c.5-.1,1-.21,1.56-.29s1.07-.16,1.66-.21a14.83,14.83,0,0,1,3.93.14,3.79,3.79,0,0,1,3.1,4.37l-.06.3,0,.13-.13.51-6.44-3.84a23.44,23.44,0,0,1,4.46-3.19,40,40,0,0,1,4.6-2.14c3-1.2,5.85-2.13,8.4-3.27l-2.17,2.51c3.76-13.37,8.62-26.22,13-39.06s8.22-25.73,10-38.88a3.92,3.92,0,0,1,7.72-.27l2.83,13.74-5.1-2.92a36.64,36.64,0,0,0,10.65-6.15,116.87,116.87,0,0,0,9.75-8.93c3.2-3.2,6.41-6.51,9.89-9.7a69.09,69.09,0,0,1,11.49-8.82,3.92,3.92,0,0,1,5.37,1.38,4.12,4.12,0,0,1,.32.67v0l3.42,9.69-3.1-2.57,18.47,2.87-4.3,2.55a252.88,252.88,0,0,1,11.3-25.82c4.12-8.35,8.42-16.54,12.49-24.78a273.23,273.23,0,0,0,11.09-25,106.57,106.57,0,0,0,6.52-25.86h0a3.93,3.93,0,0,1,7.56-1.05,71.79,71.79,0,0,1,4,13.46,95.12,95.12,0,0,1,1.37,13.79l-3-3.66a25.4,25.4,0,0,1,9.36,4.32,18.08,18.08,0,0,1,3.82,4c.52.76.94,1.57,1.39,2.37s.73,1.64,1,2.46a38.46,38.46,0,0,1,1.74,9.55c.23,3.06.3,6,.42,8.86L1526.4,500c4.33-4.57,8.53-9.21,12.43-14a134.44,134.44,0,0,0,10.67-15.12,3.93,3.93,0,0,1,7.17,1l2.43,9.05-5.84-2.34a73.82,73.82,0,0,1,12.13-6.19,46.13,46.13,0,0,1,13.76-2.8h0a3.94,3.94,0,0,1,.44,7.86l-.92.05-.11-7.86a14.4,14.4,0,0,1,5.26,1.15,15.25,15.25,0,0,1,4.37,2.94,29.17,29.17,0,0,1,5.27,7.35c1.32,2.45,2.41,4.83,3.58,7a17.43,17.43,0,0,0,3.69,5.06,4,4,0,0,1,1.45,3c0,8.3-.7,16.38-.66,24.18a80.77,80.77,0,0,0,.8,11.5,57.14,57.14,0,0,0,2.72,11l-6.93-.94c1.47-2.1,2.93-4.14,4.06-6.11a33.38,33.38,0,0,0,2.77-6.34h0a3.94,3.94,0,0,1,5-2.47,3.88,3.88,0,0,1,2.14,1.74,80.67,80.67,0,0,1,7.64,17.38,92,92,0,0,1,3.54,18.52c.58,6.2.7,12.36.71,18.45l-.12,18.1-7.17-2.28c11.27-16,19.75-34,26.75-52.54s12.56-37.72,17.94-57,10.53-38.7,16.7-57.91,13.39-38.25,23.2-56.18a4,4,0,0,1,7.43,1.82v0c.16,9.72-.73,19.23-1.08,28.51a130.94,130.94,0,0,0,.1,13.74,74.08,74.08,0,0,0,2,13.27l-7.39-.78,3.92-7.94a4,4,0,0,1,7.5,1.42c.63,7.37.92,14.71,1.15,22l-6.9-2.54a67.17,67.17,0,0,0,9.57-13.79c2.71-5,5.08-10.43,7.68-15.85h0a4,4,0,0,1,5.29-1.87,4.08,4.08,0,0,1,1.41,1.15c1.59,2,3.58,4.05,5.61,6.37a29.42,29.42,0,0,1,5.44,8.4l-2.92-2.43a110.84,110.84,0,0,0,14.44,1.8l-3.82,2.2c6.39-13,13.62-25.4,21.15-37.59S1787.24,369,1794.8,357s14.85-24.16,21.32-36.68a259.56,259.56,0,0,0,16.44-38.73,4,4,0,0,1,5-2.56,4.05,4.05,0,0,1,2.54,2.52,156.89,156.89,0,0,1,4.63,16,99.51,99.51,0,0,1,2.18,16.77l-4.73-3.72a50,50,0,0,0,15.66-6.07,159.41,159.41,0,0,0,14.62-10.08,107.33,107.33,0,0,1,15.9-10.17,55,55,0,0,1,18.73-5.52,4,4,0,0,1,4.23,2.85h0l4.48,15.51-7.7.14c.91-3.68,1.66-7.51,2.54-11.41a82.34,82.34,0,0,1,3.43-11.9,33.11,33.11,0,0,1,7-11.29,28.21,28.21,0,0,1,11.65-7l-2.5,2.32a114.51,114.51,0,0,1,12.35-22.2c4.79-6.86,10-13.3,14.85-19.76a161.65,161.65,0,0,0,13.33-19.89,58,58,0,0,0,2.62-5.23l1.17-2.62,1-2.75c.32-.92.68-1.82,1-2.77l.84-2.84c.59-1.88,1.06-3.83,1.54-5.77,1.91-7.79,3.4-15.81,5-23.86s3.34-16.15,5.45-24.17a200.6,200.6,0,0,1,18.16-46.56,4,4,0,0,1,5.4-1.59,3.85,3.85,0,0,1,1.31,1.15l0,0c2.26,3.13,4.26,6.14,6.46,8.79a23.28,23.28,0,0,0,7.15,6.18,4,4,0,0,1,2.16,3v0l1.62,11.44-4.88-3.34,7.18-1.69a4,4,0,0,1,4.48,2.09h0c.83,1.65,1.66,3.28,2.52,4.77a20.56,20.56,0,0,0,2.71,3.82,14.85,14.85,0,0,0,3.54,2.66,44.71,44.71,0,0,0,4.65,2.17l-4.85,1.51c.8-1.21,1.58-2.27,2.34-3.32s1.51-2.06,2.21-3.07,1.38-2,2-3a17.67,17.67,0,0,0,1.42-2.81,4,4,0,0,1,2.28-2.31c10.36-4.12,20.21-9.41,28.51-16.53A80.29,80.29,0,0,0,2097,77.66a106,106,0,0,0,9.06-13.9C2111.52,54,2116,43.47,2120.82,33a340.37,340.37,0,0,1,15.83-31,4,4,0,0,1,6.88,4Z" fill="#009245"/></g></g></svg>